%TF.GenerationSoftware,KiCad,Pcbnew,9.0.6*%
%TF.CreationDate,2026-10-05T21:39:16+05:30*%
%TF.ProjectId,Tachiyon-_,54616368-6979-46f6-9e2d-b12e6b696361,rev?*%
%TF.SameCoordinates,Original*%
%TF.FileFunction,Legend,Bot*%
%TF.FilePolarity,Positive*%
%FSLAX46Y46*%
G04 Gerber Fmt 4.6, Leading zero omitted, Abs format (unit mm)*
G04 Created by KiCad (PCBNEW 9.0.6) date 2026-10-05 21:39:16*
%MOMM*%
%LPD*%
G01*
G04 APERTURE LIST*
%ADD10C,0.200000*%
%ADD11C,0.000000*%
G04 APERTURE END LIST*
D10*
X105856517Y-80664838D02*
X105951755Y-80617219D01*
X105951755Y-80617219D02*
X106094612Y-80617219D01*
X106094612Y-80617219D02*
X106237469Y-80664838D01*
X106237469Y-80664838D02*
X106332707Y-80760076D01*
X106332707Y-80760076D02*
X106380326Y-80855314D01*
X106380326Y-80855314D02*
X106427945Y-81045790D01*
X106427945Y-81045790D02*
X106427945Y-81188647D01*
X106427945Y-81188647D02*
X106380326Y-81379123D01*
X106380326Y-81379123D02*
X106332707Y-81474361D01*
X106332707Y-81474361D02*
X106237469Y-81569600D01*
X106237469Y-81569600D02*
X106094612Y-81617219D01*
X106094612Y-81617219D02*
X105999374Y-81617219D01*
X105999374Y-81617219D02*
X105856517Y-81569600D01*
X105856517Y-81569600D02*
X105808898Y-81521980D01*
X105808898Y-81521980D02*
X105808898Y-81188647D01*
X105808898Y-81188647D02*
X105999374Y-81188647D01*
X105380326Y-81617219D02*
X105380326Y-80617219D01*
X105380326Y-80617219D02*
X104808898Y-81617219D01*
X104808898Y-81617219D02*
X104808898Y-80617219D01*
X104332707Y-81617219D02*
X104332707Y-80617219D01*
X104332707Y-80617219D02*
X104094612Y-80617219D01*
X104094612Y-80617219D02*
X103951755Y-80664838D01*
X103951755Y-80664838D02*
X103856517Y-80760076D01*
X103856517Y-80760076D02*
X103808898Y-80855314D01*
X103808898Y-80855314D02*
X103761279Y-81045790D01*
X103761279Y-81045790D02*
X103761279Y-81188647D01*
X103761279Y-81188647D02*
X103808898Y-81379123D01*
X103808898Y-81379123D02*
X103856517Y-81474361D01*
X103856517Y-81474361D02*
X103951755Y-81569600D01*
X103951755Y-81569600D02*
X104094612Y-81617219D01*
X104094612Y-81617219D02*
X104332707Y-81617219D01*
X106880326Y-71617219D02*
X106880326Y-70617219D01*
X106880326Y-70617219D02*
X106499374Y-70617219D01*
X106499374Y-70617219D02*
X106404136Y-70664838D01*
X106404136Y-70664838D02*
X106356517Y-70712457D01*
X106356517Y-70712457D02*
X106308898Y-70807695D01*
X106308898Y-70807695D02*
X106308898Y-70950552D01*
X106308898Y-70950552D02*
X106356517Y-71045790D01*
X106356517Y-71045790D02*
X106404136Y-71093409D01*
X106404136Y-71093409D02*
X106499374Y-71141028D01*
X106499374Y-71141028D02*
X106880326Y-71141028D01*
X105927945Y-71331504D02*
X105451755Y-71331504D01*
X106023183Y-71617219D02*
X105689850Y-70617219D01*
X105689850Y-70617219D02*
X105356517Y-71617219D01*
X105070802Y-70712457D02*
X105023183Y-70664838D01*
X105023183Y-70664838D02*
X104927945Y-70617219D01*
X104927945Y-70617219D02*
X104689850Y-70617219D01*
X104689850Y-70617219D02*
X104594612Y-70664838D01*
X104594612Y-70664838D02*
X104546993Y-70712457D01*
X104546993Y-70712457D02*
X104499374Y-70807695D01*
X104499374Y-70807695D02*
X104499374Y-70902933D01*
X104499374Y-70902933D02*
X104546993Y-71045790D01*
X104546993Y-71045790D02*
X105118421Y-71617219D01*
X105118421Y-71617219D02*
X104499374Y-71617219D01*
X103927945Y-71045790D02*
X104023183Y-70998171D01*
X104023183Y-70998171D02*
X104070802Y-70950552D01*
X104070802Y-70950552D02*
X104118421Y-70855314D01*
X104118421Y-70855314D02*
X104118421Y-70807695D01*
X104118421Y-70807695D02*
X104070802Y-70712457D01*
X104070802Y-70712457D02*
X104023183Y-70664838D01*
X104023183Y-70664838D02*
X103927945Y-70617219D01*
X103927945Y-70617219D02*
X103737469Y-70617219D01*
X103737469Y-70617219D02*
X103642231Y-70664838D01*
X103642231Y-70664838D02*
X103594612Y-70712457D01*
X103594612Y-70712457D02*
X103546993Y-70807695D01*
X103546993Y-70807695D02*
X103546993Y-70855314D01*
X103546993Y-70855314D02*
X103594612Y-70950552D01*
X103594612Y-70950552D02*
X103642231Y-70998171D01*
X103642231Y-70998171D02*
X103737469Y-71045790D01*
X103737469Y-71045790D02*
X103927945Y-71045790D01*
X103927945Y-71045790D02*
X104023183Y-71093409D01*
X104023183Y-71093409D02*
X104070802Y-71141028D01*
X104070802Y-71141028D02*
X104118421Y-71236266D01*
X104118421Y-71236266D02*
X104118421Y-71426742D01*
X104118421Y-71426742D02*
X104070802Y-71521980D01*
X104070802Y-71521980D02*
X104023183Y-71569600D01*
X104023183Y-71569600D02*
X103927945Y-71617219D01*
X103927945Y-71617219D02*
X103737469Y-71617219D01*
X103737469Y-71617219D02*
X103642231Y-71569600D01*
X103642231Y-71569600D02*
X103594612Y-71521980D01*
X103594612Y-71521980D02*
X103546993Y-71426742D01*
X103546993Y-71426742D02*
X103546993Y-71236266D01*
X103546993Y-71236266D02*
X103594612Y-71141028D01*
X103594612Y-71141028D02*
X103642231Y-71093409D01*
X103642231Y-71093409D02*
X103737469Y-71045790D01*
X121880326Y-66617219D02*
X121880326Y-65617219D01*
X121880326Y-65617219D02*
X121499374Y-65617219D01*
X121499374Y-65617219D02*
X121404136Y-65664838D01*
X121404136Y-65664838D02*
X121356517Y-65712457D01*
X121356517Y-65712457D02*
X121308898Y-65807695D01*
X121308898Y-65807695D02*
X121308898Y-65950552D01*
X121308898Y-65950552D02*
X121356517Y-66045790D01*
X121356517Y-66045790D02*
X121404136Y-66093409D01*
X121404136Y-66093409D02*
X121499374Y-66141028D01*
X121499374Y-66141028D02*
X121880326Y-66141028D01*
X120927945Y-66331504D02*
X120451755Y-66331504D01*
X121023183Y-66617219D02*
X120689850Y-65617219D01*
X120689850Y-65617219D02*
X120356517Y-66617219D01*
X120070802Y-65712457D02*
X120023183Y-65664838D01*
X120023183Y-65664838D02*
X119927945Y-65617219D01*
X119927945Y-65617219D02*
X119689850Y-65617219D01*
X119689850Y-65617219D02*
X119594612Y-65664838D01*
X119594612Y-65664838D02*
X119546993Y-65712457D01*
X119546993Y-65712457D02*
X119499374Y-65807695D01*
X119499374Y-65807695D02*
X119499374Y-65902933D01*
X119499374Y-65902933D02*
X119546993Y-66045790D01*
X119546993Y-66045790D02*
X120118421Y-66617219D01*
X120118421Y-66617219D02*
X119499374Y-66617219D01*
X118594612Y-65617219D02*
X119070802Y-65617219D01*
X119070802Y-65617219D02*
X119118421Y-66093409D01*
X119118421Y-66093409D02*
X119070802Y-66045790D01*
X119070802Y-66045790D02*
X118975564Y-65998171D01*
X118975564Y-65998171D02*
X118737469Y-65998171D01*
X118737469Y-65998171D02*
X118642231Y-66045790D01*
X118642231Y-66045790D02*
X118594612Y-66093409D01*
X118594612Y-66093409D02*
X118546993Y-66188647D01*
X118546993Y-66188647D02*
X118546993Y-66426742D01*
X118546993Y-66426742D02*
X118594612Y-66521980D01*
X118594612Y-66521980D02*
X118642231Y-66569600D01*
X118642231Y-66569600D02*
X118737469Y-66617219D01*
X118737469Y-66617219D02*
X118975564Y-66617219D01*
X118975564Y-66617219D02*
X119070802Y-66569600D01*
X119070802Y-66569600D02*
X119118421Y-66521980D01*
X121880326Y-71867219D02*
X121880326Y-70867219D01*
X121880326Y-70867219D02*
X121499374Y-70867219D01*
X121499374Y-70867219D02*
X121404136Y-70914838D01*
X121404136Y-70914838D02*
X121356517Y-70962457D01*
X121356517Y-70962457D02*
X121308898Y-71057695D01*
X121308898Y-71057695D02*
X121308898Y-71200552D01*
X121308898Y-71200552D02*
X121356517Y-71295790D01*
X121356517Y-71295790D02*
X121404136Y-71343409D01*
X121404136Y-71343409D02*
X121499374Y-71391028D01*
X121499374Y-71391028D02*
X121880326Y-71391028D01*
X120927945Y-71581504D02*
X120451755Y-71581504D01*
X121023183Y-71867219D02*
X120689850Y-70867219D01*
X120689850Y-70867219D02*
X120356517Y-71867219D01*
X120070802Y-70962457D02*
X120023183Y-70914838D01*
X120023183Y-70914838D02*
X119927945Y-70867219D01*
X119927945Y-70867219D02*
X119689850Y-70867219D01*
X119689850Y-70867219D02*
X119594612Y-70914838D01*
X119594612Y-70914838D02*
X119546993Y-70962457D01*
X119546993Y-70962457D02*
X119499374Y-71057695D01*
X119499374Y-71057695D02*
X119499374Y-71152933D01*
X119499374Y-71152933D02*
X119546993Y-71295790D01*
X119546993Y-71295790D02*
X120118421Y-71867219D01*
X120118421Y-71867219D02*
X119499374Y-71867219D01*
X119166040Y-70867219D02*
X118546993Y-70867219D01*
X118546993Y-70867219D02*
X118880326Y-71248171D01*
X118880326Y-71248171D02*
X118737469Y-71248171D01*
X118737469Y-71248171D02*
X118642231Y-71295790D01*
X118642231Y-71295790D02*
X118594612Y-71343409D01*
X118594612Y-71343409D02*
X118546993Y-71438647D01*
X118546993Y-71438647D02*
X118546993Y-71676742D01*
X118546993Y-71676742D02*
X118594612Y-71771980D01*
X118594612Y-71771980D02*
X118642231Y-71819600D01*
X118642231Y-71819600D02*
X118737469Y-71867219D01*
X118737469Y-71867219D02*
X119023183Y-71867219D01*
X119023183Y-71867219D02*
X119118421Y-71819600D01*
X119118421Y-71819600D02*
X119166040Y-71771980D01*
X121880326Y-89367219D02*
X121880326Y-88367219D01*
X121880326Y-88367219D02*
X121499374Y-88367219D01*
X121499374Y-88367219D02*
X121404136Y-88414838D01*
X121404136Y-88414838D02*
X121356517Y-88462457D01*
X121356517Y-88462457D02*
X121308898Y-88557695D01*
X121308898Y-88557695D02*
X121308898Y-88700552D01*
X121308898Y-88700552D02*
X121356517Y-88795790D01*
X121356517Y-88795790D02*
X121404136Y-88843409D01*
X121404136Y-88843409D02*
X121499374Y-88891028D01*
X121499374Y-88891028D02*
X121880326Y-88891028D01*
X120927945Y-89081504D02*
X120451755Y-89081504D01*
X121023183Y-89367219D02*
X120689850Y-88367219D01*
X120689850Y-88367219D02*
X120356517Y-89367219D01*
X119499374Y-89367219D02*
X120070802Y-89367219D01*
X119785088Y-89367219D02*
X119785088Y-88367219D01*
X119785088Y-88367219D02*
X119880326Y-88510076D01*
X119880326Y-88510076D02*
X119975564Y-88605314D01*
X119975564Y-88605314D02*
X120070802Y-88652933D01*
X118546993Y-89367219D02*
X119118421Y-89367219D01*
X118832707Y-89367219D02*
X118832707Y-88367219D01*
X118832707Y-88367219D02*
X118927945Y-88510076D01*
X118927945Y-88510076D02*
X119023183Y-88605314D01*
X119023183Y-88605314D02*
X119118421Y-88652933D01*
X107380326Y-78736266D02*
X106618422Y-78736266D01*
X106999374Y-79117219D02*
X106999374Y-78355314D01*
X106237469Y-78117219D02*
X105618422Y-78117219D01*
X105618422Y-78117219D02*
X105951755Y-78498171D01*
X105951755Y-78498171D02*
X105808898Y-78498171D01*
X105808898Y-78498171D02*
X105713660Y-78545790D01*
X105713660Y-78545790D02*
X105666041Y-78593409D01*
X105666041Y-78593409D02*
X105618422Y-78688647D01*
X105618422Y-78688647D02*
X105618422Y-78926742D01*
X105618422Y-78926742D02*
X105666041Y-79021980D01*
X105666041Y-79021980D02*
X105713660Y-79069600D01*
X105713660Y-79069600D02*
X105808898Y-79117219D01*
X105808898Y-79117219D02*
X106094612Y-79117219D01*
X106094612Y-79117219D02*
X106189850Y-79069600D01*
X106189850Y-79069600D02*
X106237469Y-79021980D01*
X105332707Y-78117219D02*
X104999374Y-79117219D01*
X104999374Y-79117219D02*
X104666041Y-78117219D01*
X104427945Y-78117219D02*
X103808898Y-78117219D01*
X103808898Y-78117219D02*
X104142231Y-78498171D01*
X104142231Y-78498171D02*
X103999374Y-78498171D01*
X103999374Y-78498171D02*
X103904136Y-78545790D01*
X103904136Y-78545790D02*
X103856517Y-78593409D01*
X103856517Y-78593409D02*
X103808898Y-78688647D01*
X103808898Y-78688647D02*
X103808898Y-78926742D01*
X103808898Y-78926742D02*
X103856517Y-79021980D01*
X103856517Y-79021980D02*
X103904136Y-79069600D01*
X103904136Y-79069600D02*
X103999374Y-79117219D01*
X103999374Y-79117219D02*
X104285088Y-79117219D01*
X104285088Y-79117219D02*
X104380326Y-79069600D01*
X104380326Y-79069600D02*
X104427945Y-79021980D01*
X121880326Y-74367219D02*
X121880326Y-73367219D01*
X121880326Y-73367219D02*
X121499374Y-73367219D01*
X121499374Y-73367219D02*
X121404136Y-73414838D01*
X121404136Y-73414838D02*
X121356517Y-73462457D01*
X121356517Y-73462457D02*
X121308898Y-73557695D01*
X121308898Y-73557695D02*
X121308898Y-73700552D01*
X121308898Y-73700552D02*
X121356517Y-73795790D01*
X121356517Y-73795790D02*
X121404136Y-73843409D01*
X121404136Y-73843409D02*
X121499374Y-73891028D01*
X121499374Y-73891028D02*
X121880326Y-73891028D01*
X120927945Y-74081504D02*
X120451755Y-74081504D01*
X121023183Y-74367219D02*
X120689850Y-73367219D01*
X120689850Y-73367219D02*
X120356517Y-74367219D01*
X120070802Y-73462457D02*
X120023183Y-73414838D01*
X120023183Y-73414838D02*
X119927945Y-73367219D01*
X119927945Y-73367219D02*
X119689850Y-73367219D01*
X119689850Y-73367219D02*
X119594612Y-73414838D01*
X119594612Y-73414838D02*
X119546993Y-73462457D01*
X119546993Y-73462457D02*
X119499374Y-73557695D01*
X119499374Y-73557695D02*
X119499374Y-73652933D01*
X119499374Y-73652933D02*
X119546993Y-73795790D01*
X119546993Y-73795790D02*
X120118421Y-74367219D01*
X120118421Y-74367219D02*
X119499374Y-74367219D01*
X119118421Y-73462457D02*
X119070802Y-73414838D01*
X119070802Y-73414838D02*
X118975564Y-73367219D01*
X118975564Y-73367219D02*
X118737469Y-73367219D01*
X118737469Y-73367219D02*
X118642231Y-73414838D01*
X118642231Y-73414838D02*
X118594612Y-73462457D01*
X118594612Y-73462457D02*
X118546993Y-73557695D01*
X118546993Y-73557695D02*
X118546993Y-73652933D01*
X118546993Y-73652933D02*
X118594612Y-73795790D01*
X118594612Y-73795790D02*
X119166040Y-74367219D01*
X119166040Y-74367219D02*
X118546993Y-74367219D01*
X112427945Y-60891695D02*
X112427945Y-60091695D01*
X112427945Y-60091695D02*
X112237469Y-60091695D01*
X112237469Y-60091695D02*
X112123183Y-60129790D01*
X112123183Y-60129790D02*
X112046993Y-60205980D01*
X112046993Y-60205980D02*
X112008898Y-60282171D01*
X112008898Y-60282171D02*
X111970802Y-60434552D01*
X111970802Y-60434552D02*
X111970802Y-60548838D01*
X111970802Y-60548838D02*
X112008898Y-60701219D01*
X112008898Y-60701219D02*
X112046993Y-60777409D01*
X112046993Y-60777409D02*
X112123183Y-60853600D01*
X112123183Y-60853600D02*
X112237469Y-60891695D01*
X112237469Y-60891695D02*
X112427945Y-60891695D01*
X111627945Y-60891695D02*
X111627945Y-60091695D01*
X111094612Y-60091695D02*
X110942231Y-60091695D01*
X110942231Y-60091695D02*
X110866041Y-60129790D01*
X110866041Y-60129790D02*
X110789850Y-60205980D01*
X110789850Y-60205980D02*
X110751755Y-60358361D01*
X110751755Y-60358361D02*
X110751755Y-60625028D01*
X110751755Y-60625028D02*
X110789850Y-60777409D01*
X110789850Y-60777409D02*
X110866041Y-60853600D01*
X110866041Y-60853600D02*
X110942231Y-60891695D01*
X110942231Y-60891695D02*
X111094612Y-60891695D01*
X111094612Y-60891695D02*
X111170803Y-60853600D01*
X111170803Y-60853600D02*
X111246993Y-60777409D01*
X111246993Y-60777409D02*
X111285089Y-60625028D01*
X111285089Y-60625028D02*
X111285089Y-60358361D01*
X111285089Y-60358361D02*
X111246993Y-60205980D01*
X111246993Y-60205980D02*
X111170803Y-60129790D01*
X111170803Y-60129790D02*
X111094612Y-60091695D01*
X110004136Y-60091695D02*
X109508898Y-60091695D01*
X109508898Y-60091695D02*
X109775564Y-60396457D01*
X109775564Y-60396457D02*
X109661279Y-60396457D01*
X109661279Y-60396457D02*
X109585088Y-60434552D01*
X109585088Y-60434552D02*
X109546993Y-60472647D01*
X109546993Y-60472647D02*
X109508898Y-60548838D01*
X109508898Y-60548838D02*
X109508898Y-60739314D01*
X109508898Y-60739314D02*
X109546993Y-60815504D01*
X109546993Y-60815504D02*
X109585088Y-60853600D01*
X109585088Y-60853600D02*
X109661279Y-60891695D01*
X109661279Y-60891695D02*
X109889850Y-60891695D01*
X109889850Y-60891695D02*
X109966041Y-60853600D01*
X109966041Y-60853600D02*
X110004136Y-60815504D01*
X109280326Y-60091695D02*
X109013659Y-60891695D01*
X109013659Y-60891695D02*
X108746993Y-60091695D01*
X108556517Y-60091695D02*
X108061279Y-60091695D01*
X108061279Y-60091695D02*
X108327945Y-60396457D01*
X108327945Y-60396457D02*
X108213660Y-60396457D01*
X108213660Y-60396457D02*
X108137469Y-60434552D01*
X108137469Y-60434552D02*
X108099374Y-60472647D01*
X108099374Y-60472647D02*
X108061279Y-60548838D01*
X108061279Y-60548838D02*
X108061279Y-60739314D01*
X108061279Y-60739314D02*
X108099374Y-60815504D01*
X108099374Y-60815504D02*
X108137469Y-60853600D01*
X108137469Y-60853600D02*
X108213660Y-60891695D01*
X108213660Y-60891695D02*
X108442231Y-60891695D01*
X108442231Y-60891695D02*
X108518422Y-60853600D01*
X108518422Y-60853600D02*
X108556517Y-60815504D01*
X106130326Y-89367219D02*
X106130326Y-88367219D01*
X106130326Y-88367219D02*
X105749374Y-88367219D01*
X105749374Y-88367219D02*
X105654136Y-88414838D01*
X105654136Y-88414838D02*
X105606517Y-88462457D01*
X105606517Y-88462457D02*
X105558898Y-88557695D01*
X105558898Y-88557695D02*
X105558898Y-88700552D01*
X105558898Y-88700552D02*
X105606517Y-88795790D01*
X105606517Y-88795790D02*
X105654136Y-88843409D01*
X105654136Y-88843409D02*
X105749374Y-88891028D01*
X105749374Y-88891028D02*
X106130326Y-88891028D01*
X105177945Y-89081504D02*
X104701755Y-89081504D01*
X105273183Y-89367219D02*
X104939850Y-88367219D01*
X104939850Y-88367219D02*
X104606517Y-89367219D01*
X103844612Y-88367219D02*
X104035088Y-88367219D01*
X104035088Y-88367219D02*
X104130326Y-88414838D01*
X104130326Y-88414838D02*
X104177945Y-88462457D01*
X104177945Y-88462457D02*
X104273183Y-88605314D01*
X104273183Y-88605314D02*
X104320802Y-88795790D01*
X104320802Y-88795790D02*
X104320802Y-89176742D01*
X104320802Y-89176742D02*
X104273183Y-89271980D01*
X104273183Y-89271980D02*
X104225564Y-89319600D01*
X104225564Y-89319600D02*
X104130326Y-89367219D01*
X104130326Y-89367219D02*
X103939850Y-89367219D01*
X103939850Y-89367219D02*
X103844612Y-89319600D01*
X103844612Y-89319600D02*
X103796993Y-89271980D01*
X103796993Y-89271980D02*
X103749374Y-89176742D01*
X103749374Y-89176742D02*
X103749374Y-88938647D01*
X103749374Y-88938647D02*
X103796993Y-88843409D01*
X103796993Y-88843409D02*
X103844612Y-88795790D01*
X103844612Y-88795790D02*
X103939850Y-88748171D01*
X103939850Y-88748171D02*
X104130326Y-88748171D01*
X104130326Y-88748171D02*
X104225564Y-88795790D01*
X104225564Y-88795790D02*
X104273183Y-88843409D01*
X104273183Y-88843409D02*
X104320802Y-88938647D01*
X107130326Y-76617219D02*
X107130326Y-75617219D01*
X107130326Y-75617219D02*
X106558898Y-76617219D01*
X106558898Y-76617219D02*
X106558898Y-75617219D01*
X105511279Y-76617219D02*
X105844612Y-76141028D01*
X106082707Y-76617219D02*
X106082707Y-75617219D01*
X106082707Y-75617219D02*
X105701755Y-75617219D01*
X105701755Y-75617219D02*
X105606517Y-75664838D01*
X105606517Y-75664838D02*
X105558898Y-75712457D01*
X105558898Y-75712457D02*
X105511279Y-75807695D01*
X105511279Y-75807695D02*
X105511279Y-75950552D01*
X105511279Y-75950552D02*
X105558898Y-76045790D01*
X105558898Y-76045790D02*
X105606517Y-76093409D01*
X105606517Y-76093409D02*
X105701755Y-76141028D01*
X105701755Y-76141028D02*
X106082707Y-76141028D01*
X105130326Y-76569600D02*
X104987469Y-76617219D01*
X104987469Y-76617219D02*
X104749374Y-76617219D01*
X104749374Y-76617219D02*
X104654136Y-76569600D01*
X104654136Y-76569600D02*
X104606517Y-76521980D01*
X104606517Y-76521980D02*
X104558898Y-76426742D01*
X104558898Y-76426742D02*
X104558898Y-76331504D01*
X104558898Y-76331504D02*
X104606517Y-76236266D01*
X104606517Y-76236266D02*
X104654136Y-76188647D01*
X104654136Y-76188647D02*
X104749374Y-76141028D01*
X104749374Y-76141028D02*
X104939850Y-76093409D01*
X104939850Y-76093409D02*
X105035088Y-76045790D01*
X105035088Y-76045790D02*
X105082707Y-75998171D01*
X105082707Y-75998171D02*
X105130326Y-75902933D01*
X105130326Y-75902933D02*
X105130326Y-75807695D01*
X105130326Y-75807695D02*
X105082707Y-75712457D01*
X105082707Y-75712457D02*
X105035088Y-75664838D01*
X105035088Y-75664838D02*
X104939850Y-75617219D01*
X104939850Y-75617219D02*
X104701755Y-75617219D01*
X104701755Y-75617219D02*
X104558898Y-75664838D01*
X104273183Y-75617219D02*
X103701755Y-75617219D01*
X103987469Y-76617219D02*
X103987469Y-75617219D01*
X121880326Y-76867219D02*
X121880326Y-75867219D01*
X121880326Y-75867219D02*
X121499374Y-75867219D01*
X121499374Y-75867219D02*
X121404136Y-75914838D01*
X121404136Y-75914838D02*
X121356517Y-75962457D01*
X121356517Y-75962457D02*
X121308898Y-76057695D01*
X121308898Y-76057695D02*
X121308898Y-76200552D01*
X121308898Y-76200552D02*
X121356517Y-76295790D01*
X121356517Y-76295790D02*
X121404136Y-76343409D01*
X121404136Y-76343409D02*
X121499374Y-76391028D01*
X121499374Y-76391028D02*
X121880326Y-76391028D01*
X120927945Y-76581504D02*
X120451755Y-76581504D01*
X121023183Y-76867219D02*
X120689850Y-75867219D01*
X120689850Y-75867219D02*
X120356517Y-76867219D01*
X120070802Y-75962457D02*
X120023183Y-75914838D01*
X120023183Y-75914838D02*
X119927945Y-75867219D01*
X119927945Y-75867219D02*
X119689850Y-75867219D01*
X119689850Y-75867219D02*
X119594612Y-75914838D01*
X119594612Y-75914838D02*
X119546993Y-75962457D01*
X119546993Y-75962457D02*
X119499374Y-76057695D01*
X119499374Y-76057695D02*
X119499374Y-76152933D01*
X119499374Y-76152933D02*
X119546993Y-76295790D01*
X119546993Y-76295790D02*
X120118421Y-76867219D01*
X120118421Y-76867219D02*
X119499374Y-76867219D01*
X118880326Y-75867219D02*
X118785088Y-75867219D01*
X118785088Y-75867219D02*
X118689850Y-75914838D01*
X118689850Y-75914838D02*
X118642231Y-75962457D01*
X118642231Y-75962457D02*
X118594612Y-76057695D01*
X118594612Y-76057695D02*
X118546993Y-76248171D01*
X118546993Y-76248171D02*
X118546993Y-76486266D01*
X118546993Y-76486266D02*
X118594612Y-76676742D01*
X118594612Y-76676742D02*
X118642231Y-76771980D01*
X118642231Y-76771980D02*
X118689850Y-76819600D01*
X118689850Y-76819600D02*
X118785088Y-76867219D01*
X118785088Y-76867219D02*
X118880326Y-76867219D01*
X118880326Y-76867219D02*
X118975564Y-76819600D01*
X118975564Y-76819600D02*
X119023183Y-76771980D01*
X119023183Y-76771980D02*
X119070802Y-76676742D01*
X119070802Y-76676742D02*
X119118421Y-76486266D01*
X119118421Y-76486266D02*
X119118421Y-76248171D01*
X119118421Y-76248171D02*
X119070802Y-76057695D01*
X119070802Y-76057695D02*
X119023183Y-75962457D01*
X119023183Y-75962457D02*
X118975564Y-75914838D01*
X118975564Y-75914838D02*
X118880326Y-75867219D01*
X121880326Y-79117219D02*
X121880326Y-78117219D01*
X121880326Y-78117219D02*
X121499374Y-78117219D01*
X121499374Y-78117219D02*
X121404136Y-78164838D01*
X121404136Y-78164838D02*
X121356517Y-78212457D01*
X121356517Y-78212457D02*
X121308898Y-78307695D01*
X121308898Y-78307695D02*
X121308898Y-78450552D01*
X121308898Y-78450552D02*
X121356517Y-78545790D01*
X121356517Y-78545790D02*
X121404136Y-78593409D01*
X121404136Y-78593409D02*
X121499374Y-78641028D01*
X121499374Y-78641028D02*
X121880326Y-78641028D01*
X120927945Y-78831504D02*
X120451755Y-78831504D01*
X121023183Y-79117219D02*
X120689850Y-78117219D01*
X120689850Y-78117219D02*
X120356517Y-79117219D01*
X119499374Y-79117219D02*
X120070802Y-79117219D01*
X119785088Y-79117219D02*
X119785088Y-78117219D01*
X119785088Y-78117219D02*
X119880326Y-78260076D01*
X119880326Y-78260076D02*
X119975564Y-78355314D01*
X119975564Y-78355314D02*
X120070802Y-78402933D01*
X119023183Y-79117219D02*
X118832707Y-79117219D01*
X118832707Y-79117219D02*
X118737469Y-79069600D01*
X118737469Y-79069600D02*
X118689850Y-79021980D01*
X118689850Y-79021980D02*
X118594612Y-78879123D01*
X118594612Y-78879123D02*
X118546993Y-78688647D01*
X118546993Y-78688647D02*
X118546993Y-78307695D01*
X118546993Y-78307695D02*
X118594612Y-78212457D01*
X118594612Y-78212457D02*
X118642231Y-78164838D01*
X118642231Y-78164838D02*
X118737469Y-78117219D01*
X118737469Y-78117219D02*
X118927945Y-78117219D01*
X118927945Y-78117219D02*
X119023183Y-78164838D01*
X119023183Y-78164838D02*
X119070802Y-78212457D01*
X119070802Y-78212457D02*
X119118421Y-78307695D01*
X119118421Y-78307695D02*
X119118421Y-78545790D01*
X119118421Y-78545790D02*
X119070802Y-78641028D01*
X119070802Y-78641028D02*
X119023183Y-78688647D01*
X119023183Y-78688647D02*
X118927945Y-78736266D01*
X118927945Y-78736266D02*
X118737469Y-78736266D01*
X118737469Y-78736266D02*
X118642231Y-78688647D01*
X118642231Y-78688647D02*
X118594612Y-78641028D01*
X118594612Y-78641028D02*
X118546993Y-78545790D01*
X106130326Y-74117219D02*
X106130326Y-73117219D01*
X106130326Y-73117219D02*
X105749374Y-73117219D01*
X105749374Y-73117219D02*
X105654136Y-73164838D01*
X105654136Y-73164838D02*
X105606517Y-73212457D01*
X105606517Y-73212457D02*
X105558898Y-73307695D01*
X105558898Y-73307695D02*
X105558898Y-73450552D01*
X105558898Y-73450552D02*
X105606517Y-73545790D01*
X105606517Y-73545790D02*
X105654136Y-73593409D01*
X105654136Y-73593409D02*
X105749374Y-73641028D01*
X105749374Y-73641028D02*
X106130326Y-73641028D01*
X105177945Y-73831504D02*
X104701755Y-73831504D01*
X105273183Y-74117219D02*
X104939850Y-73117219D01*
X104939850Y-73117219D02*
X104606517Y-74117219D01*
X104082707Y-73117219D02*
X103987469Y-73117219D01*
X103987469Y-73117219D02*
X103892231Y-73164838D01*
X103892231Y-73164838D02*
X103844612Y-73212457D01*
X103844612Y-73212457D02*
X103796993Y-73307695D01*
X103796993Y-73307695D02*
X103749374Y-73498171D01*
X103749374Y-73498171D02*
X103749374Y-73736266D01*
X103749374Y-73736266D02*
X103796993Y-73926742D01*
X103796993Y-73926742D02*
X103844612Y-74021980D01*
X103844612Y-74021980D02*
X103892231Y-74069600D01*
X103892231Y-74069600D02*
X103987469Y-74117219D01*
X103987469Y-74117219D02*
X104082707Y-74117219D01*
X104082707Y-74117219D02*
X104177945Y-74069600D01*
X104177945Y-74069600D02*
X104225564Y-74021980D01*
X104225564Y-74021980D02*
X104273183Y-73926742D01*
X104273183Y-73926742D02*
X104320802Y-73736266D01*
X104320802Y-73736266D02*
X104320802Y-73498171D01*
X104320802Y-73498171D02*
X104273183Y-73307695D01*
X104273183Y-73307695D02*
X104225564Y-73212457D01*
X104225564Y-73212457D02*
X104177945Y-73164838D01*
X104177945Y-73164838D02*
X104082707Y-73117219D01*
X106880326Y-68867219D02*
X106880326Y-67867219D01*
X106880326Y-67867219D02*
X106499374Y-67867219D01*
X106499374Y-67867219D02*
X106404136Y-67914838D01*
X106404136Y-67914838D02*
X106356517Y-67962457D01*
X106356517Y-67962457D02*
X106308898Y-68057695D01*
X106308898Y-68057695D02*
X106308898Y-68200552D01*
X106308898Y-68200552D02*
X106356517Y-68295790D01*
X106356517Y-68295790D02*
X106404136Y-68343409D01*
X106404136Y-68343409D02*
X106499374Y-68391028D01*
X106499374Y-68391028D02*
X106880326Y-68391028D01*
X105927945Y-68581504D02*
X105451755Y-68581504D01*
X106023183Y-68867219D02*
X105689850Y-67867219D01*
X105689850Y-67867219D02*
X105356517Y-68867219D01*
X105070802Y-67962457D02*
X105023183Y-67914838D01*
X105023183Y-67914838D02*
X104927945Y-67867219D01*
X104927945Y-67867219D02*
X104689850Y-67867219D01*
X104689850Y-67867219D02*
X104594612Y-67914838D01*
X104594612Y-67914838D02*
X104546993Y-67962457D01*
X104546993Y-67962457D02*
X104499374Y-68057695D01*
X104499374Y-68057695D02*
X104499374Y-68152933D01*
X104499374Y-68152933D02*
X104546993Y-68295790D01*
X104546993Y-68295790D02*
X105118421Y-68867219D01*
X105118421Y-68867219D02*
X104499374Y-68867219D01*
X104166040Y-67867219D02*
X103499374Y-67867219D01*
X103499374Y-67867219D02*
X103927945Y-68867219D01*
X114720802Y-60815504D02*
X114758898Y-60853600D01*
X114758898Y-60853600D02*
X114873183Y-60891695D01*
X114873183Y-60891695D02*
X114949374Y-60891695D01*
X114949374Y-60891695D02*
X115063660Y-60853600D01*
X115063660Y-60853600D02*
X115139850Y-60777409D01*
X115139850Y-60777409D02*
X115177945Y-60701219D01*
X115177945Y-60701219D02*
X115216041Y-60548838D01*
X115216041Y-60548838D02*
X115216041Y-60434552D01*
X115216041Y-60434552D02*
X115177945Y-60282171D01*
X115177945Y-60282171D02*
X115139850Y-60205980D01*
X115139850Y-60205980D02*
X115063660Y-60129790D01*
X115063660Y-60129790D02*
X114949374Y-60091695D01*
X114949374Y-60091695D02*
X114873183Y-60091695D01*
X114873183Y-60091695D02*
X114758898Y-60129790D01*
X114758898Y-60129790D02*
X114720802Y-60167885D01*
X113996993Y-60891695D02*
X114377945Y-60891695D01*
X114377945Y-60891695D02*
X114377945Y-60091695D01*
X113730326Y-60891695D02*
X113730326Y-60091695D01*
X113273183Y-60891695D02*
X113616041Y-60434552D01*
X113273183Y-60091695D02*
X113730326Y-60548838D01*
X106130326Y-84367219D02*
X106130326Y-83367219D01*
X106130326Y-83367219D02*
X105749374Y-83367219D01*
X105749374Y-83367219D02*
X105654136Y-83414838D01*
X105654136Y-83414838D02*
X105606517Y-83462457D01*
X105606517Y-83462457D02*
X105558898Y-83557695D01*
X105558898Y-83557695D02*
X105558898Y-83700552D01*
X105558898Y-83700552D02*
X105606517Y-83795790D01*
X105606517Y-83795790D02*
X105654136Y-83843409D01*
X105654136Y-83843409D02*
X105749374Y-83891028D01*
X105749374Y-83891028D02*
X106130326Y-83891028D01*
X105177945Y-84081504D02*
X104701755Y-84081504D01*
X105273183Y-84367219D02*
X104939850Y-83367219D01*
X104939850Y-83367219D02*
X104606517Y-84367219D01*
X104320802Y-83462457D02*
X104273183Y-83414838D01*
X104273183Y-83414838D02*
X104177945Y-83367219D01*
X104177945Y-83367219D02*
X103939850Y-83367219D01*
X103939850Y-83367219D02*
X103844612Y-83414838D01*
X103844612Y-83414838D02*
X103796993Y-83462457D01*
X103796993Y-83462457D02*
X103749374Y-83557695D01*
X103749374Y-83557695D02*
X103749374Y-83652933D01*
X103749374Y-83652933D02*
X103796993Y-83795790D01*
X103796993Y-83795790D02*
X104368421Y-84367219D01*
X104368421Y-84367219D02*
X103749374Y-84367219D01*
X106130326Y-86867219D02*
X106130326Y-85867219D01*
X106130326Y-85867219D02*
X105749374Y-85867219D01*
X105749374Y-85867219D02*
X105654136Y-85914838D01*
X105654136Y-85914838D02*
X105606517Y-85962457D01*
X105606517Y-85962457D02*
X105558898Y-86057695D01*
X105558898Y-86057695D02*
X105558898Y-86200552D01*
X105558898Y-86200552D02*
X105606517Y-86295790D01*
X105606517Y-86295790D02*
X105654136Y-86343409D01*
X105654136Y-86343409D02*
X105749374Y-86391028D01*
X105749374Y-86391028D02*
X106130326Y-86391028D01*
X105177945Y-86581504D02*
X104701755Y-86581504D01*
X105273183Y-86867219D02*
X104939850Y-85867219D01*
X104939850Y-85867219D02*
X104606517Y-86867219D01*
X103844612Y-86200552D02*
X103844612Y-86867219D01*
X104082707Y-85819600D02*
X104320802Y-86533885D01*
X104320802Y-86533885D02*
X103701755Y-86533885D01*
X121880326Y-81617219D02*
X121880326Y-80617219D01*
X121880326Y-80617219D02*
X121499374Y-80617219D01*
X121499374Y-80617219D02*
X121404136Y-80664838D01*
X121404136Y-80664838D02*
X121356517Y-80712457D01*
X121356517Y-80712457D02*
X121308898Y-80807695D01*
X121308898Y-80807695D02*
X121308898Y-80950552D01*
X121308898Y-80950552D02*
X121356517Y-81045790D01*
X121356517Y-81045790D02*
X121404136Y-81093409D01*
X121404136Y-81093409D02*
X121499374Y-81141028D01*
X121499374Y-81141028D02*
X121880326Y-81141028D01*
X120927945Y-81331504D02*
X120451755Y-81331504D01*
X121023183Y-81617219D02*
X120689850Y-80617219D01*
X120689850Y-80617219D02*
X120356517Y-81617219D01*
X119499374Y-81617219D02*
X120070802Y-81617219D01*
X119785088Y-81617219D02*
X119785088Y-80617219D01*
X119785088Y-80617219D02*
X119880326Y-80760076D01*
X119880326Y-80760076D02*
X119975564Y-80855314D01*
X119975564Y-80855314D02*
X120070802Y-80902933D01*
X118927945Y-81045790D02*
X119023183Y-80998171D01*
X119023183Y-80998171D02*
X119070802Y-80950552D01*
X119070802Y-80950552D02*
X119118421Y-80855314D01*
X119118421Y-80855314D02*
X119118421Y-80807695D01*
X119118421Y-80807695D02*
X119070802Y-80712457D01*
X119070802Y-80712457D02*
X119023183Y-80664838D01*
X119023183Y-80664838D02*
X118927945Y-80617219D01*
X118927945Y-80617219D02*
X118737469Y-80617219D01*
X118737469Y-80617219D02*
X118642231Y-80664838D01*
X118642231Y-80664838D02*
X118594612Y-80712457D01*
X118594612Y-80712457D02*
X118546993Y-80807695D01*
X118546993Y-80807695D02*
X118546993Y-80855314D01*
X118546993Y-80855314D02*
X118594612Y-80950552D01*
X118594612Y-80950552D02*
X118642231Y-80998171D01*
X118642231Y-80998171D02*
X118737469Y-81045790D01*
X118737469Y-81045790D02*
X118927945Y-81045790D01*
X118927945Y-81045790D02*
X119023183Y-81093409D01*
X119023183Y-81093409D02*
X119070802Y-81141028D01*
X119070802Y-81141028D02*
X119118421Y-81236266D01*
X119118421Y-81236266D02*
X119118421Y-81426742D01*
X119118421Y-81426742D02*
X119070802Y-81521980D01*
X119070802Y-81521980D02*
X119023183Y-81569600D01*
X119023183Y-81569600D02*
X118927945Y-81617219D01*
X118927945Y-81617219D02*
X118737469Y-81617219D01*
X118737469Y-81617219D02*
X118642231Y-81569600D01*
X118642231Y-81569600D02*
X118594612Y-81521980D01*
X118594612Y-81521980D02*
X118546993Y-81426742D01*
X118546993Y-81426742D02*
X118546993Y-81236266D01*
X118546993Y-81236266D02*
X118594612Y-81141028D01*
X118594612Y-81141028D02*
X118642231Y-81093409D01*
X118642231Y-81093409D02*
X118737469Y-81045790D01*
X106880326Y-66367219D02*
X106880326Y-65367219D01*
X106880326Y-65367219D02*
X106499374Y-65367219D01*
X106499374Y-65367219D02*
X106404136Y-65414838D01*
X106404136Y-65414838D02*
X106356517Y-65462457D01*
X106356517Y-65462457D02*
X106308898Y-65557695D01*
X106308898Y-65557695D02*
X106308898Y-65700552D01*
X106308898Y-65700552D02*
X106356517Y-65795790D01*
X106356517Y-65795790D02*
X106404136Y-65843409D01*
X106404136Y-65843409D02*
X106499374Y-65891028D01*
X106499374Y-65891028D02*
X106880326Y-65891028D01*
X105927945Y-66081504D02*
X105451755Y-66081504D01*
X106023183Y-66367219D02*
X105689850Y-65367219D01*
X105689850Y-65367219D02*
X105356517Y-66367219D01*
X105070802Y-65462457D02*
X105023183Y-65414838D01*
X105023183Y-65414838D02*
X104927945Y-65367219D01*
X104927945Y-65367219D02*
X104689850Y-65367219D01*
X104689850Y-65367219D02*
X104594612Y-65414838D01*
X104594612Y-65414838D02*
X104546993Y-65462457D01*
X104546993Y-65462457D02*
X104499374Y-65557695D01*
X104499374Y-65557695D02*
X104499374Y-65652933D01*
X104499374Y-65652933D02*
X104546993Y-65795790D01*
X104546993Y-65795790D02*
X105118421Y-66367219D01*
X105118421Y-66367219D02*
X104499374Y-66367219D01*
X103642231Y-65367219D02*
X103832707Y-65367219D01*
X103832707Y-65367219D02*
X103927945Y-65414838D01*
X103927945Y-65414838D02*
X103975564Y-65462457D01*
X103975564Y-65462457D02*
X104070802Y-65605314D01*
X104070802Y-65605314D02*
X104118421Y-65795790D01*
X104118421Y-65795790D02*
X104118421Y-66176742D01*
X104118421Y-66176742D02*
X104070802Y-66271980D01*
X104070802Y-66271980D02*
X104023183Y-66319600D01*
X104023183Y-66319600D02*
X103927945Y-66367219D01*
X103927945Y-66367219D02*
X103737469Y-66367219D01*
X103737469Y-66367219D02*
X103642231Y-66319600D01*
X103642231Y-66319600D02*
X103594612Y-66271980D01*
X103594612Y-66271980D02*
X103546993Y-66176742D01*
X103546993Y-66176742D02*
X103546993Y-65938647D01*
X103546993Y-65938647D02*
X103594612Y-65843409D01*
X103594612Y-65843409D02*
X103642231Y-65795790D01*
X103642231Y-65795790D02*
X103737469Y-65748171D01*
X103737469Y-65748171D02*
X103927945Y-65748171D01*
X103927945Y-65748171D02*
X104023183Y-65795790D01*
X104023183Y-65795790D02*
X104070802Y-65843409D01*
X104070802Y-65843409D02*
X104118421Y-65938647D01*
X121630326Y-69117219D02*
X121630326Y-68117219D01*
X121630326Y-68117219D02*
X121249374Y-68117219D01*
X121249374Y-68117219D02*
X121154136Y-68164838D01*
X121154136Y-68164838D02*
X121106517Y-68212457D01*
X121106517Y-68212457D02*
X121058898Y-68307695D01*
X121058898Y-68307695D02*
X121058898Y-68450552D01*
X121058898Y-68450552D02*
X121106517Y-68545790D01*
X121106517Y-68545790D02*
X121154136Y-68593409D01*
X121154136Y-68593409D02*
X121249374Y-68641028D01*
X121249374Y-68641028D02*
X121630326Y-68641028D01*
X120677945Y-68831504D02*
X120201755Y-68831504D01*
X120773183Y-69117219D02*
X120439850Y-68117219D01*
X120439850Y-68117219D02*
X120106517Y-69117219D01*
X119820802Y-68212457D02*
X119773183Y-68164838D01*
X119773183Y-68164838D02*
X119677945Y-68117219D01*
X119677945Y-68117219D02*
X119439850Y-68117219D01*
X119439850Y-68117219D02*
X119344612Y-68164838D01*
X119344612Y-68164838D02*
X119296993Y-68212457D01*
X119296993Y-68212457D02*
X119249374Y-68307695D01*
X119249374Y-68307695D02*
X119249374Y-68402933D01*
X119249374Y-68402933D02*
X119296993Y-68545790D01*
X119296993Y-68545790D02*
X119868421Y-69117219D01*
X119868421Y-69117219D02*
X119249374Y-69117219D01*
X118392231Y-68450552D02*
X118392231Y-69117219D01*
X118630326Y-68069600D02*
X118868421Y-68783885D01*
X118868421Y-68783885D02*
X118249374Y-68783885D01*
X117508898Y-60129790D02*
X117585088Y-60091695D01*
X117585088Y-60091695D02*
X117699374Y-60091695D01*
X117699374Y-60091695D02*
X117813660Y-60129790D01*
X117813660Y-60129790D02*
X117889850Y-60205980D01*
X117889850Y-60205980D02*
X117927945Y-60282171D01*
X117927945Y-60282171D02*
X117966041Y-60434552D01*
X117966041Y-60434552D02*
X117966041Y-60548838D01*
X117966041Y-60548838D02*
X117927945Y-60701219D01*
X117927945Y-60701219D02*
X117889850Y-60777409D01*
X117889850Y-60777409D02*
X117813660Y-60853600D01*
X117813660Y-60853600D02*
X117699374Y-60891695D01*
X117699374Y-60891695D02*
X117623183Y-60891695D01*
X117623183Y-60891695D02*
X117508898Y-60853600D01*
X117508898Y-60853600D02*
X117470802Y-60815504D01*
X117470802Y-60815504D02*
X117470802Y-60548838D01*
X117470802Y-60548838D02*
X117623183Y-60548838D01*
X117127945Y-60891695D02*
X117127945Y-60091695D01*
X117127945Y-60091695D02*
X116670802Y-60891695D01*
X116670802Y-60891695D02*
X116670802Y-60091695D01*
X116289850Y-60891695D02*
X116289850Y-60091695D01*
X116289850Y-60091695D02*
X116099374Y-60091695D01*
X116099374Y-60091695D02*
X115985088Y-60129790D01*
X115985088Y-60129790D02*
X115908898Y-60205980D01*
X115908898Y-60205980D02*
X115870803Y-60282171D01*
X115870803Y-60282171D02*
X115832707Y-60434552D01*
X115832707Y-60434552D02*
X115832707Y-60548838D01*
X115832707Y-60548838D02*
X115870803Y-60701219D01*
X115870803Y-60701219D02*
X115908898Y-60777409D01*
X115908898Y-60777409D02*
X115985088Y-60853600D01*
X115985088Y-60853600D02*
X116099374Y-60891695D01*
X116099374Y-60891695D02*
X116289850Y-60891695D01*
X121880326Y-86867219D02*
X121880326Y-85867219D01*
X121880326Y-85867219D02*
X121499374Y-85867219D01*
X121499374Y-85867219D02*
X121404136Y-85914838D01*
X121404136Y-85914838D02*
X121356517Y-85962457D01*
X121356517Y-85962457D02*
X121308898Y-86057695D01*
X121308898Y-86057695D02*
X121308898Y-86200552D01*
X121308898Y-86200552D02*
X121356517Y-86295790D01*
X121356517Y-86295790D02*
X121404136Y-86343409D01*
X121404136Y-86343409D02*
X121499374Y-86391028D01*
X121499374Y-86391028D02*
X121880326Y-86391028D01*
X120927945Y-86581504D02*
X120451755Y-86581504D01*
X121023183Y-86867219D02*
X120689850Y-85867219D01*
X120689850Y-85867219D02*
X120356517Y-86867219D01*
X119499374Y-86867219D02*
X120070802Y-86867219D01*
X119785088Y-86867219D02*
X119785088Y-85867219D01*
X119785088Y-85867219D02*
X119880326Y-86010076D01*
X119880326Y-86010076D02*
X119975564Y-86105314D01*
X119975564Y-86105314D02*
X120070802Y-86152933D01*
X118642231Y-85867219D02*
X118832707Y-85867219D01*
X118832707Y-85867219D02*
X118927945Y-85914838D01*
X118927945Y-85914838D02*
X118975564Y-85962457D01*
X118975564Y-85962457D02*
X119070802Y-86105314D01*
X119070802Y-86105314D02*
X119118421Y-86295790D01*
X119118421Y-86295790D02*
X119118421Y-86676742D01*
X119118421Y-86676742D02*
X119070802Y-86771980D01*
X119070802Y-86771980D02*
X119023183Y-86819600D01*
X119023183Y-86819600D02*
X118927945Y-86867219D01*
X118927945Y-86867219D02*
X118737469Y-86867219D01*
X118737469Y-86867219D02*
X118642231Y-86819600D01*
X118642231Y-86819600D02*
X118594612Y-86771980D01*
X118594612Y-86771980D02*
X118546993Y-86676742D01*
X118546993Y-86676742D02*
X118546993Y-86438647D01*
X118546993Y-86438647D02*
X118594612Y-86343409D01*
X118594612Y-86343409D02*
X118642231Y-86295790D01*
X118642231Y-86295790D02*
X118737469Y-86248171D01*
X118737469Y-86248171D02*
X118927945Y-86248171D01*
X118927945Y-86248171D02*
X119023183Y-86295790D01*
X119023183Y-86295790D02*
X119070802Y-86343409D01*
X119070802Y-86343409D02*
X119118421Y-86438647D01*
X121880326Y-84367219D02*
X121880326Y-83367219D01*
X121880326Y-83367219D02*
X121499374Y-83367219D01*
X121499374Y-83367219D02*
X121404136Y-83414838D01*
X121404136Y-83414838D02*
X121356517Y-83462457D01*
X121356517Y-83462457D02*
X121308898Y-83557695D01*
X121308898Y-83557695D02*
X121308898Y-83700552D01*
X121308898Y-83700552D02*
X121356517Y-83795790D01*
X121356517Y-83795790D02*
X121404136Y-83843409D01*
X121404136Y-83843409D02*
X121499374Y-83891028D01*
X121499374Y-83891028D02*
X121880326Y-83891028D01*
X120927945Y-84081504D02*
X120451755Y-84081504D01*
X121023183Y-84367219D02*
X120689850Y-83367219D01*
X120689850Y-83367219D02*
X120356517Y-84367219D01*
X119499374Y-84367219D02*
X120070802Y-84367219D01*
X119785088Y-84367219D02*
X119785088Y-83367219D01*
X119785088Y-83367219D02*
X119880326Y-83510076D01*
X119880326Y-83510076D02*
X119975564Y-83605314D01*
X119975564Y-83605314D02*
X120070802Y-83652933D01*
X119166040Y-83367219D02*
X118499374Y-83367219D01*
X118499374Y-83367219D02*
X118927945Y-84367219D01*
D11*
%TO.C,G\u002A\u002A\u002A*%
G36*
X109636568Y-89909502D02*
G01*
X109808187Y-90081120D01*
X109494453Y-90448635D01*
X109482034Y-90463258D01*
X109323196Y-90667065D01*
X109218478Y-90834924D01*
X109180719Y-90946465D01*
X109169896Y-91082089D01*
X109088100Y-91286307D01*
X108919192Y-91432993D01*
X108655011Y-91531225D01*
X108509566Y-91558351D01*
X108368003Y-91554617D01*
X108318119Y-91507101D01*
X108365849Y-91425001D01*
X108517130Y-91317519D01*
X108599628Y-91267232D01*
X108708081Y-91167338D01*
X108728924Y-91053812D01*
X108674282Y-90893972D01*
X108659408Y-90863859D01*
X108549500Y-90744137D01*
X108399122Y-90724893D01*
X108203421Y-90805210D01*
X108091397Y-90864619D01*
X107990901Y-90889140D01*
X107970154Y-90836993D01*
X108029231Y-90708220D01*
X108068495Y-90649651D01*
X108241601Y-90477750D01*
X108451923Y-90355683D01*
X108658735Y-90309258D01*
X108702055Y-90307065D01*
X108824600Y-90272060D01*
X108965976Y-90182612D01*
X109152362Y-90023571D01*
X109464950Y-89737883D01*
X109636568Y-89909502D01*
G37*
G36*
X111088853Y-88082738D02*
G01*
X111163853Y-88125063D01*
X111132429Y-88195667D01*
X110993178Y-88289325D01*
X110911488Y-88341056D01*
X110799001Y-88479133D01*
X110794111Y-88636440D01*
X110898343Y-88804706D01*
X110967160Y-88874736D01*
X111041487Y-88916052D01*
X111129506Y-88895754D01*
X111271054Y-88814934D01*
X111444553Y-88725421D01*
X111542029Y-88709689D01*
X111559883Y-88761629D01*
X111495787Y-88874356D01*
X111347417Y-89040984D01*
X111293827Y-89092255D01*
X111102304Y-89227971D01*
X110891827Y-89292627D01*
X110777774Y-89318970D01*
X110595429Y-89407610D01*
X110399095Y-89570050D01*
X110279160Y-89681885D01*
X110174023Y-89774063D01*
X110124094Y-89809936D01*
X110108943Y-89802704D01*
X110032092Y-89741181D01*
X109919394Y-89637080D01*
X109739728Y-89462941D01*
X110015992Y-89152980D01*
X110027613Y-89139847D01*
X110165488Y-88969006D01*
X110270090Y-88813158D01*
X110319573Y-88704570D01*
X110391386Y-88449491D01*
X110517070Y-88238815D01*
X110695457Y-88116258D01*
X110935095Y-88073050D01*
X111088853Y-88082738D01*
G37*
G36*
X115340168Y-93177620D02*
G01*
X115273094Y-93441827D01*
X115125145Y-93670819D01*
X114893719Y-93847419D01*
X114630383Y-93943738D01*
X114307258Y-93966713D01*
X113986744Y-93901701D01*
X113687912Y-93758278D01*
X113429836Y-93546014D01*
X113231591Y-93274485D01*
X113112247Y-92953263D01*
X113086420Y-92750058D01*
X113112510Y-92522601D01*
X113461495Y-92522601D01*
X113464434Y-92788027D01*
X113531324Y-93070657D01*
X113648698Y-93338635D01*
X113803089Y-93560106D01*
X113981028Y-93703217D01*
X114116723Y-93760982D01*
X114271787Y-93807623D01*
X114349585Y-93818544D01*
X114570021Y-93791383D01*
X114745688Y-93682779D01*
X114872645Y-93509407D01*
X114946951Y-93287942D01*
X114964666Y-93035059D01*
X114921846Y-92767434D01*
X114814553Y-92501740D01*
X114638843Y-92254654D01*
X114610409Y-92224634D01*
X114387069Y-92057824D01*
X114150380Y-91980540D01*
X113920190Y-91988835D01*
X113716351Y-92078759D01*
X113558713Y-92246366D01*
X113467126Y-92487706D01*
X113461495Y-92522601D01*
X113112510Y-92522601D01*
X113121002Y-92448567D01*
X113239280Y-92194524D01*
X113427576Y-91997060D01*
X113672210Y-91865302D01*
X113959503Y-91808379D01*
X114275774Y-91835421D01*
X114607344Y-91955555D01*
X114851700Y-92112180D01*
X115082131Y-92345478D01*
X115242086Y-92612268D01*
X115328965Y-92895375D01*
X115334509Y-93035059D01*
X115340168Y-93177620D01*
G37*
G36*
X108375056Y-88236666D02*
G01*
X108508125Y-88318783D01*
X108644392Y-88426448D01*
X108750566Y-88533184D01*
X108793355Y-88612518D01*
X108813208Y-88648433D01*
X108899776Y-88754630D01*
X109043109Y-88913401D01*
X109230155Y-89110412D01*
X109447863Y-89331329D01*
X109511835Y-89395045D01*
X109740517Y-89619975D01*
X109908900Y-89778010D01*
X110030378Y-89879477D01*
X110118344Y-89934705D01*
X110186193Y-89954021D01*
X110247319Y-89947752D01*
X110341650Y-89935830D01*
X110409384Y-89978899D01*
X110472859Y-90104257D01*
X110575710Y-90264345D01*
X110745244Y-90360438D01*
X110765473Y-90368121D01*
X110912861Y-90456811D01*
X111101267Y-90609340D01*
X111306714Y-90806653D01*
X111676390Y-91189571D01*
X111590647Y-91355379D01*
X111589694Y-91357214D01*
X111500978Y-91489859D01*
X111408062Y-91577592D01*
X111345053Y-91607259D01*
X111226615Y-91635680D01*
X111172352Y-91614463D01*
X111052868Y-91525906D01*
X110899318Y-91387510D01*
X110732220Y-91220080D01*
X110572091Y-91044423D01*
X110439448Y-90881341D01*
X110354808Y-90751641D01*
X110348821Y-90740256D01*
X110233738Y-90586712D01*
X110093791Y-90472047D01*
X110075060Y-90461320D01*
X109964836Y-90365697D01*
X109943015Y-90249910D01*
X109943698Y-90238209D01*
X109924471Y-90165534D01*
X109860447Y-90063471D01*
X109742416Y-89920685D01*
X109561168Y-89725838D01*
X109307496Y-89467596D01*
X109148180Y-89309939D01*
X108942656Y-89113092D01*
X108770995Y-88956287D01*
X108647643Y-88852608D01*
X108587051Y-88815141D01*
X108579749Y-88814188D01*
X108503318Y-88760359D01*
X108400913Y-88647390D01*
X108297214Y-88508030D01*
X108216897Y-88375027D01*
X108184641Y-88281130D01*
X108200036Y-88241071D01*
X108282708Y-88206426D01*
X108375056Y-88236666D01*
G37*
G36*
X108142715Y-91840760D02*
G01*
X108353715Y-91917799D01*
X108515801Y-92063864D01*
X108608152Y-92219479D01*
X108627028Y-92396439D01*
X108541351Y-92563153D01*
X108349081Y-92723181D01*
X108048177Y-92880086D01*
X107886773Y-92956153D01*
X107721254Y-93045590D01*
X107619310Y-93114630D01*
X107597873Y-93135874D01*
X107527309Y-93284780D01*
X107556172Y-93456560D01*
X107682345Y-93633777D01*
X107802855Y-93734840D01*
X107932941Y-93783525D01*
X108120800Y-93795533D01*
X108156513Y-93794818D01*
X108433919Y-93732884D01*
X108658490Y-93576101D01*
X108819325Y-93331709D01*
X108833295Y-93300021D01*
X108868723Y-93229605D01*
X108887661Y-93231852D01*
X108895971Y-93319431D01*
X108899516Y-93505010D01*
X108900231Y-93564464D01*
X108898036Y-93728202D01*
X108879846Y-93813940D01*
X108834754Y-93847514D01*
X108751852Y-93854760D01*
X108630979Y-93867925D01*
X108488998Y-93906208D01*
X108322798Y-93945259D01*
X108093944Y-93955318D01*
X107858860Y-93935170D01*
X107668406Y-93886064D01*
X107520379Y-93804688D01*
X107335798Y-93626664D01*
X107220873Y-93409900D01*
X107187146Y-93179671D01*
X107246156Y-92961252D01*
X107279585Y-92923455D01*
X107400656Y-92832955D01*
X107582237Y-92721357D01*
X107799533Y-92604639D01*
X107841439Y-92583472D01*
X108078881Y-92454857D01*
X108224213Y-92351969D01*
X108287054Y-92262099D01*
X108277021Y-92172542D01*
X108203733Y-92070587D01*
X108194367Y-92060782D01*
X108044250Y-91981577D01*
X107850954Y-91972665D01*
X107646332Y-92026105D01*
X107462238Y-92133956D01*
X107330525Y-92288276D01*
X107248331Y-92439759D01*
X107245360Y-92301415D01*
X107237781Y-92198387D01*
X107212060Y-92050181D01*
X107207489Y-92030721D01*
X107212115Y-91977427D01*
X107264315Y-91938591D01*
X107384747Y-91904147D01*
X107594071Y-91864026D01*
X107866835Y-91829286D01*
X108142715Y-91840760D01*
G37*
G36*
X112730936Y-92813141D02*
G01*
X112791606Y-93093157D01*
X112856057Y-93357893D01*
X112919088Y-93583828D01*
X112975499Y-93747444D01*
X113020091Y-93825220D01*
X113064376Y-93869272D01*
X113071943Y-93925514D01*
X113045541Y-93937238D01*
X112931430Y-93954682D01*
X112767392Y-93961546D01*
X112647169Y-93960228D01*
X112549245Y-93946555D01*
X112519770Y-93905633D01*
X112533746Y-93822595D01*
X112540533Y-93712620D01*
X112528672Y-93541824D01*
X112503149Y-93345352D01*
X112469234Y-93157230D01*
X112432202Y-93011483D01*
X112397323Y-92942136D01*
X112388863Y-92938079D01*
X112297770Y-92911860D01*
X112154402Y-92881270D01*
X111947010Y-92842364D01*
X111805423Y-93162517D01*
X111708596Y-93436715D01*
X111680422Y-93708274D01*
X111684983Y-93777052D01*
X111678983Y-93886537D01*
X111629353Y-93933403D01*
X111512681Y-93951611D01*
X111482899Y-93954226D01*
X111296373Y-93951127D01*
X111209093Y-93903643D01*
X111218658Y-93810623D01*
X111223567Y-93800103D01*
X111268359Y-93687095D01*
X111332848Y-93508339D01*
X111404822Y-93297494D01*
X111418290Y-93257087D01*
X111487791Y-93052632D01*
X111545683Y-92888564D01*
X111580580Y-92797289D01*
X111584745Y-92752720D01*
X111523671Y-92660595D01*
X111369629Y-92536724D01*
X111282261Y-92468854D01*
X111129076Y-92296445D01*
X111081217Y-92166819D01*
X111450577Y-92166819D01*
X111486791Y-92300393D01*
X111604197Y-92438152D01*
X111791366Y-92560886D01*
X111879078Y-92602198D01*
X112067269Y-92678203D01*
X112216685Y-92723227D01*
X112383208Y-92756532D01*
X112309863Y-92441013D01*
X112273730Y-92303807D01*
X112221079Y-92149444D01*
X112176370Y-92065345D01*
X112096079Y-92028725D01*
X111939746Y-92006177D01*
X111758019Y-92004891D01*
X111595543Y-92024827D01*
X111496961Y-92065945D01*
X111450577Y-92166819D01*
X111081217Y-92166819D01*
X111066327Y-92126489D01*
X111101491Y-91974659D01*
X111102090Y-91973718D01*
X111144665Y-91936766D01*
X111228502Y-91910273D01*
X111370953Y-91891988D01*
X111589368Y-91879666D01*
X111901098Y-91871058D01*
X112645118Y-91855733D01*
X112624715Y-92037071D01*
X112623614Y-92116601D01*
X112641739Y-92301343D01*
X112679247Y-92541363D01*
X112720170Y-92756532D01*
X112730936Y-92813141D01*
G37*
G36*
X115438628Y-91862419D02*
G01*
X115507052Y-91891015D01*
X115507162Y-91962079D01*
X115516081Y-92027208D01*
X115560809Y-92176736D01*
X115633710Y-92384877D01*
X115725786Y-92629031D01*
X115828041Y-92886602D01*
X115931476Y-93134991D01*
X116027096Y-93351599D01*
X116105904Y-93513830D01*
X116158902Y-93599084D01*
X116167999Y-93603146D01*
X116189950Y-93549690D01*
X116204350Y-93414785D01*
X116211613Y-93220110D01*
X116212155Y-92987343D01*
X116206389Y-92738163D01*
X116194730Y-92494249D01*
X116177593Y-92277280D01*
X116155391Y-92108935D01*
X116128540Y-92010892D01*
X116049156Y-91858714D01*
X116317382Y-91858714D01*
X116375323Y-91859085D01*
X116507523Y-91868654D01*
X116560737Y-91898799D01*
X116559216Y-91959638D01*
X116559323Y-91987226D01*
X116588785Y-92111519D01*
X116652537Y-92307077D01*
X116743581Y-92553310D01*
X116854919Y-92829629D01*
X117177015Y-93598695D01*
X117192407Y-92805423D01*
X117195537Y-92514389D01*
X117189895Y-92218272D01*
X117172821Y-92026407D01*
X117144128Y-91935433D01*
X117132854Y-91920551D01*
X117129565Y-91881901D01*
X117200015Y-91863436D01*
X117362552Y-91858714D01*
X117644646Y-91858714D01*
X117587408Y-92009261D01*
X117577977Y-92046013D01*
X117559875Y-92196531D01*
X117546272Y-92424222D01*
X117538313Y-92706100D01*
X117537142Y-93019174D01*
X117538435Y-93188166D01*
X117540197Y-93467042D01*
X117541162Y-93695332D01*
X117541258Y-93853009D01*
X117540412Y-93920043D01*
X117538155Y-93925605D01*
X117471186Y-93951159D01*
X117341292Y-93961546D01*
X117333059Y-93961511D01*
X117182660Y-93937777D01*
X117115894Y-93864705D01*
X117066199Y-93719599D01*
X116975290Y-93480447D01*
X116865507Y-93208647D01*
X116752003Y-92941535D01*
X116649927Y-92716448D01*
X116491717Y-92384422D01*
X116494468Y-93159149D01*
X116497219Y-93933877D01*
X116256072Y-93933877D01*
X116191984Y-93932592D01*
X116062188Y-93911589D01*
X116029381Y-93862837D01*
X116024674Y-93828330D01*
X115985189Y-93702792D01*
X115913688Y-93509777D01*
X115818775Y-93269985D01*
X115709052Y-93004116D01*
X115593124Y-92732873D01*
X115479596Y-92476955D01*
X115377071Y-92257063D01*
X115294152Y-92093899D01*
X115164981Y-91858714D01*
X115349586Y-91858714D01*
X115438628Y-91862419D01*
G37*
G36*
X109308243Y-91859943D02*
G01*
X109438883Y-91871990D01*
X109498537Y-91903993D01*
X109512745Y-91964532D01*
X109544812Y-92038257D01*
X109666134Y-92165572D01*
X109868522Y-92324227D01*
X109911527Y-92354715D01*
X110077391Y-92468362D01*
X110202659Y-92548054D01*
X110262958Y-92578104D01*
X110267077Y-92577358D01*
X110283388Y-92520436D01*
X110272420Y-92397640D01*
X110241094Y-92243892D01*
X110196333Y-92094112D01*
X110145056Y-91983223D01*
X110105466Y-91917582D01*
X110107276Y-91876445D01*
X110179628Y-91861039D01*
X110342589Y-91858714D01*
X110460806Y-91860043D01*
X110565333Y-91872880D01*
X110600257Y-91909797D01*
X110590352Y-91983246D01*
X110587759Y-92004492D01*
X110595084Y-92132310D01*
X110622639Y-92337002D01*
X110666951Y-92595245D01*
X110724542Y-92883715D01*
X110762989Y-93063214D01*
X110829094Y-93364106D01*
X110879819Y-93577881D01*
X110919521Y-93718993D01*
X110952556Y-93801893D01*
X110983280Y-93841035D01*
X111016049Y-93850871D01*
X111033528Y-93855068D01*
X111034532Y-93906208D01*
X110990609Y-93931177D01*
X110867520Y-93953661D01*
X110712952Y-93961202D01*
X110572275Y-93952220D01*
X110490858Y-93925134D01*
X110480249Y-93899968D01*
X110509675Y-93822175D01*
X110529378Y-93759685D01*
X110522890Y-93589763D01*
X110478047Y-93319045D01*
X110434951Y-93121823D01*
X110380874Y-92949779D01*
X110313296Y-92830240D01*
X110218091Y-92731267D01*
X110190099Y-92707018D01*
X110086733Y-92629308D01*
X110018793Y-92618591D01*
X109949999Y-92666040D01*
X109864130Y-92774271D01*
X109771526Y-92951838D01*
X109689402Y-93163781D01*
X109625422Y-93383358D01*
X109587254Y-93583828D01*
X109582565Y-93738450D01*
X109619021Y-93820483D01*
X109657601Y-93854959D01*
X109645345Y-93908440D01*
X109545974Y-93946836D01*
X109374401Y-93961546D01*
X109240610Y-93951932D01*
X109125426Y-93922099D01*
X109076081Y-93881964D01*
X109114761Y-93841763D01*
X109117109Y-93840381D01*
X109153070Y-93772614D01*
X109201693Y-93628162D01*
X109253156Y-93435838D01*
X109310485Y-93234162D01*
X109409228Y-92957094D01*
X109513841Y-92719814D01*
X109576238Y-92596354D01*
X109628522Y-92467141D01*
X109628669Y-92371467D01*
X109566213Y-92286340D01*
X109430693Y-92188765D01*
X109211643Y-92055750D01*
X108882873Y-91858714D01*
X109197809Y-91858714D01*
X109308243Y-91859943D01*
G37*
G36*
X117966088Y-89282400D02*
G01*
X117930275Y-89457703D01*
X117821288Y-89675224D01*
X117634709Y-89859877D01*
X117359523Y-90021628D01*
X116984715Y-90170444D01*
X116902456Y-90198902D01*
X116628894Y-90304825D01*
X116448699Y-90399114D01*
X116349589Y-90489389D01*
X116319281Y-90583270D01*
X116319446Y-90593288D01*
X116373110Y-90739637D01*
X116494405Y-90816336D01*
X116517697Y-90831064D01*
X116745681Y-90862635D01*
X117079507Y-90829572D01*
X117389115Y-90719503D01*
X117703828Y-90519539D01*
X117991787Y-90301592D01*
X118129354Y-90429935D01*
X118253787Y-90560097D01*
X118378762Y-90714399D01*
X118490602Y-90870521D01*
X118332375Y-91035675D01*
X118272574Y-91091298D01*
X118061047Y-91240252D01*
X117795664Y-91383961D01*
X117515598Y-91502665D01*
X117260022Y-91576605D01*
X116825599Y-91624257D01*
X116328517Y-91585392D01*
X115862745Y-91445541D01*
X115791843Y-91433147D01*
X115765904Y-91498872D01*
X115765894Y-91500466D01*
X115757354Y-91532353D01*
X115723244Y-91555383D01*
X115649388Y-91570479D01*
X115521610Y-91578561D01*
X115325734Y-91580552D01*
X115047584Y-91577373D01*
X114672985Y-91569947D01*
X114518033Y-91566246D01*
X114087330Y-91549900D01*
X113743682Y-91523290D01*
X113469151Y-91481955D01*
X113245798Y-91421434D01*
X113055686Y-91337266D01*
X112880876Y-91224989D01*
X112703431Y-91080143D01*
X112630347Y-91010741D01*
X112395381Y-90701742D01*
X112222362Y-90332096D01*
X112116329Y-89927582D01*
X112091706Y-89628138D01*
X113124266Y-89628138D01*
X113183574Y-89965107D01*
X113298288Y-90274607D01*
X113455289Y-90528725D01*
X113641529Y-90700408D01*
X113667123Y-90714929D01*
X113816642Y-90773779D01*
X114003440Y-90820750D01*
X114198771Y-90852165D01*
X114373885Y-90864351D01*
X114500036Y-90853633D01*
X114548475Y-90816336D01*
X114536682Y-90741094D01*
X114503543Y-90580399D01*
X114454105Y-90356279D01*
X114393419Y-90090163D01*
X114326535Y-89803483D01*
X114258506Y-89517667D01*
X114194382Y-89254147D01*
X114139215Y-89034353D01*
X114119920Y-88961862D01*
X115212527Y-88961862D01*
X115217840Y-89123686D01*
X115222053Y-89181546D01*
X115247534Y-89361273D01*
X115287012Y-89557714D01*
X115313177Y-89654939D01*
X115362864Y-89786985D01*
X115406209Y-89845352D01*
X115424654Y-89845187D01*
X115521670Y-89806507D01*
X115652369Y-89726217D01*
X115663056Y-89718898D01*
X115818827Y-89632992D01*
X116033446Y-89537429D01*
X116263813Y-89451568D01*
X116331275Y-89428763D01*
X116610352Y-89322944D01*
X116794826Y-89227421D01*
X116896704Y-89134705D01*
X116927996Y-89037306D01*
X116903098Y-88927204D01*
X116798096Y-88821947D01*
X116628307Y-88768411D01*
X116412607Y-88766201D01*
X116169868Y-88814919D01*
X115918966Y-88914169D01*
X115678773Y-89063555D01*
X115481191Y-89214258D01*
X115346859Y-89088060D01*
X115212527Y-88961862D01*
X114119920Y-88961862D01*
X114098056Y-88879716D01*
X114075957Y-88811665D01*
X114072161Y-88806428D01*
X113982315Y-88768918D01*
X113827497Y-88762847D01*
X113644793Y-88786572D01*
X113471288Y-88838450D01*
X113350294Y-88904916D01*
X113202951Y-89070790D01*
X113128807Y-89309136D01*
X113124266Y-89628138D01*
X112091706Y-89628138D01*
X112082319Y-89513975D01*
X112125370Y-89117053D01*
X112250519Y-88762592D01*
X112357186Y-88610702D01*
X112547746Y-88423808D01*
X112769857Y-88261325D01*
X112983804Y-88156100D01*
X113032534Y-88143682D01*
X113204482Y-88117257D01*
X113449881Y-88092309D01*
X113743525Y-88071179D01*
X114060204Y-88056206D01*
X114927706Y-88026054D01*
X114989243Y-88254584D01*
X115006540Y-88314345D01*
X115051260Y-88435087D01*
X115085306Y-88483115D01*
X115119492Y-88470022D01*
X115226742Y-88411442D01*
X115373696Y-88321773D01*
X115507835Y-88243144D01*
X115812772Y-88115512D01*
X116155414Y-88045148D01*
X116568301Y-88023939D01*
X116618512Y-88024452D01*
X117046101Y-88070413D01*
X117398976Y-88187689D01*
X117672274Y-88371903D01*
X117861133Y-88618678D01*
X117960692Y-88923636D01*
X117962402Y-89037306D01*
X117966088Y-89282400D01*
G37*
%TD*%
M02*
