%TF.GenerationSoftware,KiCad,Pcbnew,9.0.6*%
%TF.CreationDate,2026-10-05T21:39:16+05:30*%
%TF.ProjectId,Tachiyon-_,54616368-6979-46f6-9e2d-b12e6b696361,rev?*%
%TF.SameCoordinates,Original*%
%TF.FileFunction,Legend,Top*%
%TF.FilePolarity,Positive*%
%FSLAX46Y46*%
G04 Gerber Fmt 4.6, Leading zero omitted, Abs format (unit mm)*
G04 Created by KiCad (PCBNEW 9.0.6) date 2026-10-05 21:39:16*
%MOMM*%
%LPD*%
G01*
G04 APERTURE LIST*
%ADD10C,0.100000*%
%ADD11C,0.150000*%
%ADD12C,0.120000*%
G04 APERTURE END LIST*
D10*
X98122419Y-80088972D02*
X98122419Y-79517544D01*
X99122419Y-79803258D02*
X98122419Y-79803258D01*
X99122419Y-78755639D02*
X98598609Y-78755639D01*
X98598609Y-78755639D02*
X98503371Y-78803258D01*
X98503371Y-78803258D02*
X98455752Y-78898496D01*
X98455752Y-78898496D02*
X98455752Y-79088972D01*
X98455752Y-79088972D02*
X98503371Y-79184210D01*
X99074800Y-78755639D02*
X99122419Y-78850877D01*
X99122419Y-78850877D02*
X99122419Y-79088972D01*
X99122419Y-79088972D02*
X99074800Y-79184210D01*
X99074800Y-79184210D02*
X98979561Y-79231829D01*
X98979561Y-79231829D02*
X98884323Y-79231829D01*
X98884323Y-79231829D02*
X98789085Y-79184210D01*
X98789085Y-79184210D02*
X98741466Y-79088972D01*
X98741466Y-79088972D02*
X98741466Y-78850877D01*
X98741466Y-78850877D02*
X98693847Y-78755639D01*
X99074800Y-77850877D02*
X99122419Y-77946115D01*
X99122419Y-77946115D02*
X99122419Y-78136591D01*
X99122419Y-78136591D02*
X99074800Y-78231829D01*
X99074800Y-78231829D02*
X99027180Y-78279448D01*
X99027180Y-78279448D02*
X98931942Y-78327067D01*
X98931942Y-78327067D02*
X98646228Y-78327067D01*
X98646228Y-78327067D02*
X98550990Y-78279448D01*
X98550990Y-78279448D02*
X98503371Y-78231829D01*
X98503371Y-78231829D02*
X98455752Y-78136591D01*
X98455752Y-78136591D02*
X98455752Y-77946115D01*
X98455752Y-77946115D02*
X98503371Y-77850877D01*
X99122419Y-77422305D02*
X98122419Y-77422305D01*
X99122419Y-76993734D02*
X98598609Y-76993734D01*
X98598609Y-76993734D02*
X98503371Y-77041353D01*
X98503371Y-77041353D02*
X98455752Y-77136591D01*
X98455752Y-77136591D02*
X98455752Y-77279448D01*
X98455752Y-77279448D02*
X98503371Y-77374686D01*
X98503371Y-77374686D02*
X98550990Y-77422305D01*
X99122419Y-76517543D02*
X98455752Y-76517543D01*
X98122419Y-76517543D02*
X98170038Y-76565162D01*
X98170038Y-76565162D02*
X98217657Y-76517543D01*
X98217657Y-76517543D02*
X98170038Y-76469924D01*
X98170038Y-76469924D02*
X98122419Y-76517543D01*
X98122419Y-76517543D02*
X98217657Y-76517543D01*
X98455752Y-76136591D02*
X99122419Y-75898496D01*
X98455752Y-75660401D02*
X99122419Y-75898496D01*
X99122419Y-75898496D02*
X99360514Y-75993734D01*
X99360514Y-75993734D02*
X99408133Y-76041353D01*
X99408133Y-76041353D02*
X99455752Y-76136591D01*
X99122419Y-75136591D02*
X99074800Y-75231829D01*
X99074800Y-75231829D02*
X99027180Y-75279448D01*
X99027180Y-75279448D02*
X98931942Y-75327067D01*
X98931942Y-75327067D02*
X98646228Y-75327067D01*
X98646228Y-75327067D02*
X98550990Y-75279448D01*
X98550990Y-75279448D02*
X98503371Y-75231829D01*
X98503371Y-75231829D02*
X98455752Y-75136591D01*
X98455752Y-75136591D02*
X98455752Y-74993734D01*
X98455752Y-74993734D02*
X98503371Y-74898496D01*
X98503371Y-74898496D02*
X98550990Y-74850877D01*
X98550990Y-74850877D02*
X98646228Y-74803258D01*
X98646228Y-74803258D02*
X98931942Y-74803258D01*
X98931942Y-74803258D02*
X99027180Y-74850877D01*
X99027180Y-74850877D02*
X99074800Y-74898496D01*
X99074800Y-74898496D02*
X99122419Y-74993734D01*
X99122419Y-74993734D02*
X99122419Y-75136591D01*
X98455752Y-74374686D02*
X99122419Y-74374686D01*
X98550990Y-74374686D02*
X98503371Y-74327067D01*
X98503371Y-74327067D02*
X98455752Y-74231829D01*
X98455752Y-74231829D02*
X98455752Y-74088972D01*
X98455752Y-74088972D02*
X98503371Y-73993734D01*
X98503371Y-73993734D02*
X98598609Y-73946115D01*
X98598609Y-73946115D02*
X99122419Y-73946115D01*
X98741466Y-73469924D02*
X98741466Y-72708020D01*
X98455752Y-71660401D02*
X98931942Y-71803258D01*
X98931942Y-71803258D02*
X99027180Y-71850877D01*
X99027180Y-71850877D02*
X99074800Y-71898496D01*
X99074800Y-71898496D02*
X99122419Y-71993734D01*
X99122419Y-71993734D02*
X99122419Y-72088972D01*
X99122419Y-72088972D02*
X99074800Y-72184210D01*
X99074800Y-72184210D02*
X99027180Y-72231829D01*
X99027180Y-72231829D02*
X98884323Y-72279448D01*
X98884323Y-72279448D02*
X98693847Y-72279448D01*
X98693847Y-72279448D02*
X98550990Y-72231829D01*
X98550990Y-72231829D02*
X98503371Y-72184210D01*
X98503371Y-72184210D02*
X98455752Y-72088972D01*
X98455752Y-72088972D02*
X98455752Y-71993734D01*
X98455752Y-71993734D02*
X98503371Y-71898496D01*
X98503371Y-71898496D02*
X98550990Y-71850877D01*
X98550990Y-71850877D02*
X98646228Y-71803258D01*
X98646228Y-71803258D02*
X98979561Y-71755639D01*
X98979561Y-71755639D02*
X99074800Y-71708020D01*
X99074800Y-71708020D02*
X99122419Y-71612782D01*
X126872419Y-80088972D02*
X127872419Y-79755639D01*
X127872419Y-79755639D02*
X126872419Y-79422306D01*
X127824800Y-78708020D02*
X127872419Y-78803258D01*
X127872419Y-78803258D02*
X127872419Y-78993734D01*
X127872419Y-78993734D02*
X127824800Y-79088972D01*
X127824800Y-79088972D02*
X127729561Y-79136591D01*
X127729561Y-79136591D02*
X127348609Y-79136591D01*
X127348609Y-79136591D02*
X127253371Y-79088972D01*
X127253371Y-79088972D02*
X127205752Y-78993734D01*
X127205752Y-78993734D02*
X127205752Y-78803258D01*
X127205752Y-78803258D02*
X127253371Y-78708020D01*
X127253371Y-78708020D02*
X127348609Y-78660401D01*
X127348609Y-78660401D02*
X127443847Y-78660401D01*
X127443847Y-78660401D02*
X127539085Y-79136591D01*
X127872419Y-78231829D02*
X127205752Y-78231829D01*
X127396228Y-78231829D02*
X127300990Y-78184210D01*
X127300990Y-78184210D02*
X127253371Y-78136591D01*
X127253371Y-78136591D02*
X127205752Y-78041353D01*
X127205752Y-78041353D02*
X127205752Y-77946115D01*
X127824800Y-77660400D02*
X127872419Y-77565162D01*
X127872419Y-77565162D02*
X127872419Y-77374686D01*
X127872419Y-77374686D02*
X127824800Y-77279448D01*
X127824800Y-77279448D02*
X127729561Y-77231829D01*
X127729561Y-77231829D02*
X127681942Y-77231829D01*
X127681942Y-77231829D02*
X127586704Y-77279448D01*
X127586704Y-77279448D02*
X127539085Y-77374686D01*
X127539085Y-77374686D02*
X127539085Y-77517543D01*
X127539085Y-77517543D02*
X127491466Y-77612781D01*
X127491466Y-77612781D02*
X127396228Y-77660400D01*
X127396228Y-77660400D02*
X127348609Y-77660400D01*
X127348609Y-77660400D02*
X127253371Y-77612781D01*
X127253371Y-77612781D02*
X127205752Y-77517543D01*
X127205752Y-77517543D02*
X127205752Y-77374686D01*
X127205752Y-77374686D02*
X127253371Y-77279448D01*
X127872419Y-76803257D02*
X127205752Y-76803257D01*
X126872419Y-76803257D02*
X126920038Y-76850876D01*
X126920038Y-76850876D02*
X126967657Y-76803257D01*
X126967657Y-76803257D02*
X126920038Y-76755638D01*
X126920038Y-76755638D02*
X126872419Y-76803257D01*
X126872419Y-76803257D02*
X126967657Y-76803257D01*
X127872419Y-76184210D02*
X127824800Y-76279448D01*
X127824800Y-76279448D02*
X127777180Y-76327067D01*
X127777180Y-76327067D02*
X127681942Y-76374686D01*
X127681942Y-76374686D02*
X127396228Y-76374686D01*
X127396228Y-76374686D02*
X127300990Y-76327067D01*
X127300990Y-76327067D02*
X127253371Y-76279448D01*
X127253371Y-76279448D02*
X127205752Y-76184210D01*
X127205752Y-76184210D02*
X127205752Y-76041353D01*
X127205752Y-76041353D02*
X127253371Y-75946115D01*
X127253371Y-75946115D02*
X127300990Y-75898496D01*
X127300990Y-75898496D02*
X127396228Y-75850877D01*
X127396228Y-75850877D02*
X127681942Y-75850877D01*
X127681942Y-75850877D02*
X127777180Y-75898496D01*
X127777180Y-75898496D02*
X127824800Y-75946115D01*
X127824800Y-75946115D02*
X127872419Y-76041353D01*
X127872419Y-76041353D02*
X127872419Y-76184210D01*
X127205752Y-75422305D02*
X127872419Y-75422305D01*
X127300990Y-75422305D02*
X127253371Y-75374686D01*
X127253371Y-75374686D02*
X127205752Y-75279448D01*
X127205752Y-75279448D02*
X127205752Y-75136591D01*
X127205752Y-75136591D02*
X127253371Y-75041353D01*
X127253371Y-75041353D02*
X127348609Y-74993734D01*
X127348609Y-74993734D02*
X127872419Y-74993734D01*
X127872419Y-73231829D02*
X127872419Y-73803257D01*
X127872419Y-73517543D02*
X126872419Y-73517543D01*
X126872419Y-73517543D02*
X127015276Y-73612781D01*
X127015276Y-73612781D02*
X127110514Y-73708019D01*
X127110514Y-73708019D02*
X127158133Y-73803257D01*
X127777180Y-72803257D02*
X127824800Y-72755638D01*
X127824800Y-72755638D02*
X127872419Y-72803257D01*
X127872419Y-72803257D02*
X127824800Y-72850876D01*
X127824800Y-72850876D02*
X127777180Y-72803257D01*
X127777180Y-72803257D02*
X127872419Y-72803257D01*
X126872419Y-72136591D02*
X126872419Y-72041353D01*
X126872419Y-72041353D02*
X126920038Y-71946115D01*
X126920038Y-71946115D02*
X126967657Y-71898496D01*
X126967657Y-71898496D02*
X127062895Y-71850877D01*
X127062895Y-71850877D02*
X127253371Y-71803258D01*
X127253371Y-71803258D02*
X127491466Y-71803258D01*
X127491466Y-71803258D02*
X127681942Y-71850877D01*
X127681942Y-71850877D02*
X127777180Y-71898496D01*
X127777180Y-71898496D02*
X127824800Y-71946115D01*
X127824800Y-71946115D02*
X127872419Y-72041353D01*
X127872419Y-72041353D02*
X127872419Y-72136591D01*
X127872419Y-72136591D02*
X127824800Y-72231829D01*
X127824800Y-72231829D02*
X127777180Y-72279448D01*
X127777180Y-72279448D02*
X127681942Y-72327067D01*
X127681942Y-72327067D02*
X127491466Y-72374686D01*
X127491466Y-72374686D02*
X127253371Y-72374686D01*
X127253371Y-72374686D02*
X127062895Y-72327067D01*
X127062895Y-72327067D02*
X126967657Y-72279448D01*
X126967657Y-72279448D02*
X126920038Y-72231829D01*
X126920038Y-72231829D02*
X126872419Y-72136591D01*
D11*
X120789580Y-86416666D02*
X120837200Y-86464285D01*
X120837200Y-86464285D02*
X120884819Y-86607142D01*
X120884819Y-86607142D02*
X120884819Y-86702380D01*
X120884819Y-86702380D02*
X120837200Y-86845237D01*
X120837200Y-86845237D02*
X120741961Y-86940475D01*
X120741961Y-86940475D02*
X120646723Y-86988094D01*
X120646723Y-86988094D02*
X120456247Y-87035713D01*
X120456247Y-87035713D02*
X120313390Y-87035713D01*
X120313390Y-87035713D02*
X120122914Y-86988094D01*
X120122914Y-86988094D02*
X120027676Y-86940475D01*
X120027676Y-86940475D02*
X119932438Y-86845237D01*
X119932438Y-86845237D02*
X119884819Y-86702380D01*
X119884819Y-86702380D02*
X119884819Y-86607142D01*
X119884819Y-86607142D02*
X119932438Y-86464285D01*
X119932438Y-86464285D02*
X119980057Y-86416666D01*
X120218152Y-85559523D02*
X120884819Y-85559523D01*
X119837200Y-85797618D02*
X120551485Y-86035713D01*
X120551485Y-86035713D02*
X120551485Y-85416666D01*
X118583333Y-94609580D02*
X118535714Y-94657200D01*
X118535714Y-94657200D02*
X118392857Y-94704819D01*
X118392857Y-94704819D02*
X118297619Y-94704819D01*
X118297619Y-94704819D02*
X118154762Y-94657200D01*
X118154762Y-94657200D02*
X118059524Y-94561961D01*
X118059524Y-94561961D02*
X118011905Y-94466723D01*
X118011905Y-94466723D02*
X117964286Y-94276247D01*
X117964286Y-94276247D02*
X117964286Y-94133390D01*
X117964286Y-94133390D02*
X118011905Y-93942914D01*
X118011905Y-93942914D02*
X118059524Y-93847676D01*
X118059524Y-93847676D02*
X118154762Y-93752438D01*
X118154762Y-93752438D02*
X118297619Y-93704819D01*
X118297619Y-93704819D02*
X118392857Y-93704819D01*
X118392857Y-93704819D02*
X118535714Y-93752438D01*
X118535714Y-93752438D02*
X118583333Y-93800057D01*
X119488095Y-93704819D02*
X119011905Y-93704819D01*
X119011905Y-93704819D02*
X118964286Y-94181009D01*
X118964286Y-94181009D02*
X119011905Y-94133390D01*
X119011905Y-94133390D02*
X119107143Y-94085771D01*
X119107143Y-94085771D02*
X119345238Y-94085771D01*
X119345238Y-94085771D02*
X119440476Y-94133390D01*
X119440476Y-94133390D02*
X119488095Y-94181009D01*
X119488095Y-94181009D02*
X119535714Y-94276247D01*
X119535714Y-94276247D02*
X119535714Y-94514342D01*
X119535714Y-94514342D02*
X119488095Y-94609580D01*
X119488095Y-94609580D02*
X119440476Y-94657200D01*
X119440476Y-94657200D02*
X119345238Y-94704819D01*
X119345238Y-94704819D02*
X119107143Y-94704819D01*
X119107143Y-94704819D02*
X119011905Y-94657200D01*
X119011905Y-94657200D02*
X118964286Y-94609580D01*
X114261905Y-90704819D02*
X114261905Y-89704819D01*
X114261905Y-89704819D02*
X114500000Y-89704819D01*
X114500000Y-89704819D02*
X114642857Y-89752438D01*
X114642857Y-89752438D02*
X114738095Y-89847676D01*
X114738095Y-89847676D02*
X114785714Y-89942914D01*
X114785714Y-89942914D02*
X114833333Y-90133390D01*
X114833333Y-90133390D02*
X114833333Y-90276247D01*
X114833333Y-90276247D02*
X114785714Y-90466723D01*
X114785714Y-90466723D02*
X114738095Y-90561961D01*
X114738095Y-90561961D02*
X114642857Y-90657200D01*
X114642857Y-90657200D02*
X114500000Y-90704819D01*
X114500000Y-90704819D02*
X114261905Y-90704819D01*
X115785714Y-90704819D02*
X115214286Y-90704819D01*
X115500000Y-90704819D02*
X115500000Y-89704819D01*
X115500000Y-89704819D02*
X115404762Y-89847676D01*
X115404762Y-89847676D02*
X115309524Y-89942914D01*
X115309524Y-89942914D02*
X115214286Y-89990533D01*
X121954819Y-73888094D02*
X120954819Y-73888094D01*
X120954819Y-73888094D02*
X120954819Y-73649999D01*
X120954819Y-73649999D02*
X121002438Y-73507142D01*
X121002438Y-73507142D02*
X121097676Y-73411904D01*
X121097676Y-73411904D02*
X121192914Y-73364285D01*
X121192914Y-73364285D02*
X121383390Y-73316666D01*
X121383390Y-73316666D02*
X121526247Y-73316666D01*
X121526247Y-73316666D02*
X121716723Y-73364285D01*
X121716723Y-73364285D02*
X121811961Y-73411904D01*
X121811961Y-73411904D02*
X121907200Y-73507142D01*
X121907200Y-73507142D02*
X121954819Y-73649999D01*
X121954819Y-73649999D02*
X121954819Y-73888094D01*
X121050057Y-72935713D02*
X121002438Y-72888094D01*
X121002438Y-72888094D02*
X120954819Y-72792856D01*
X120954819Y-72792856D02*
X120954819Y-72554761D01*
X120954819Y-72554761D02*
X121002438Y-72459523D01*
X121002438Y-72459523D02*
X121050057Y-72411904D01*
X121050057Y-72411904D02*
X121145295Y-72364285D01*
X121145295Y-72364285D02*
X121240533Y-72364285D01*
X121240533Y-72364285D02*
X121383390Y-72411904D01*
X121383390Y-72411904D02*
X121954819Y-72983332D01*
X121954819Y-72983332D02*
X121954819Y-72364285D01*
X101266666Y-63114819D02*
X101266666Y-63829104D01*
X101266666Y-63829104D02*
X101219047Y-63971961D01*
X101219047Y-63971961D02*
X101123809Y-64067200D01*
X101123809Y-64067200D02*
X100980952Y-64114819D01*
X100980952Y-64114819D02*
X100885714Y-64114819D01*
X101647619Y-63114819D02*
X102266666Y-63114819D01*
X102266666Y-63114819D02*
X101933333Y-63495771D01*
X101933333Y-63495771D02*
X102076190Y-63495771D01*
X102076190Y-63495771D02*
X102171428Y-63543390D01*
X102171428Y-63543390D02*
X102219047Y-63591009D01*
X102219047Y-63591009D02*
X102266666Y-63686247D01*
X102266666Y-63686247D02*
X102266666Y-63924342D01*
X102266666Y-63924342D02*
X102219047Y-64019580D01*
X102219047Y-64019580D02*
X102171428Y-64067200D01*
X102171428Y-64067200D02*
X102076190Y-64114819D01*
X102076190Y-64114819D02*
X101790476Y-64114819D01*
X101790476Y-64114819D02*
X101695238Y-64067200D01*
X101695238Y-64067200D02*
X101647619Y-64019580D01*
X118833333Y-90109580D02*
X118785714Y-90157200D01*
X118785714Y-90157200D02*
X118642857Y-90204819D01*
X118642857Y-90204819D02*
X118547619Y-90204819D01*
X118547619Y-90204819D02*
X118404762Y-90157200D01*
X118404762Y-90157200D02*
X118309524Y-90061961D01*
X118309524Y-90061961D02*
X118261905Y-89966723D01*
X118261905Y-89966723D02*
X118214286Y-89776247D01*
X118214286Y-89776247D02*
X118214286Y-89633390D01*
X118214286Y-89633390D02*
X118261905Y-89442914D01*
X118261905Y-89442914D02*
X118309524Y-89347676D01*
X118309524Y-89347676D02*
X118404762Y-89252438D01*
X118404762Y-89252438D02*
X118547619Y-89204819D01*
X118547619Y-89204819D02*
X118642857Y-89204819D01*
X118642857Y-89204819D02*
X118785714Y-89252438D01*
X118785714Y-89252438D02*
X118833333Y-89300057D01*
X119690476Y-89204819D02*
X119500000Y-89204819D01*
X119500000Y-89204819D02*
X119404762Y-89252438D01*
X119404762Y-89252438D02*
X119357143Y-89300057D01*
X119357143Y-89300057D02*
X119261905Y-89442914D01*
X119261905Y-89442914D02*
X119214286Y-89633390D01*
X119214286Y-89633390D02*
X119214286Y-90014342D01*
X119214286Y-90014342D02*
X119261905Y-90109580D01*
X119261905Y-90109580D02*
X119309524Y-90157200D01*
X119309524Y-90157200D02*
X119404762Y-90204819D01*
X119404762Y-90204819D02*
X119595238Y-90204819D01*
X119595238Y-90204819D02*
X119690476Y-90157200D01*
X119690476Y-90157200D02*
X119738095Y-90109580D01*
X119738095Y-90109580D02*
X119785714Y-90014342D01*
X119785714Y-90014342D02*
X119785714Y-89776247D01*
X119785714Y-89776247D02*
X119738095Y-89681009D01*
X119738095Y-89681009D02*
X119690476Y-89633390D01*
X119690476Y-89633390D02*
X119595238Y-89585771D01*
X119595238Y-89585771D02*
X119404762Y-89585771D01*
X119404762Y-89585771D02*
X119309524Y-89633390D01*
X119309524Y-89633390D02*
X119261905Y-89681009D01*
X119261905Y-89681009D02*
X119214286Y-89776247D01*
X124166666Y-63204819D02*
X124166666Y-63919104D01*
X124166666Y-63919104D02*
X124119047Y-64061961D01*
X124119047Y-64061961D02*
X124023809Y-64157200D01*
X124023809Y-64157200D02*
X123880952Y-64204819D01*
X123880952Y-64204819D02*
X123785714Y-64204819D01*
X125071428Y-63538152D02*
X125071428Y-64204819D01*
X124833333Y-63157200D02*
X124595238Y-63871485D01*
X124595238Y-63871485D02*
X125214285Y-63871485D01*
X118511905Y-66704819D02*
X118511905Y-65704819D01*
X118511905Y-65704819D02*
X118750000Y-65704819D01*
X118750000Y-65704819D02*
X118892857Y-65752438D01*
X118892857Y-65752438D02*
X118988095Y-65847676D01*
X118988095Y-65847676D02*
X119035714Y-65942914D01*
X119035714Y-65942914D02*
X119083333Y-66133390D01*
X119083333Y-66133390D02*
X119083333Y-66276247D01*
X119083333Y-66276247D02*
X119035714Y-66466723D01*
X119035714Y-66466723D02*
X118988095Y-66561961D01*
X118988095Y-66561961D02*
X118892857Y-66657200D01*
X118892857Y-66657200D02*
X118750000Y-66704819D01*
X118750000Y-66704819D02*
X118511905Y-66704819D01*
X119416667Y-65704819D02*
X120035714Y-65704819D01*
X120035714Y-65704819D02*
X119702381Y-66085771D01*
X119702381Y-66085771D02*
X119845238Y-66085771D01*
X119845238Y-66085771D02*
X119940476Y-66133390D01*
X119940476Y-66133390D02*
X119988095Y-66181009D01*
X119988095Y-66181009D02*
X120035714Y-66276247D01*
X120035714Y-66276247D02*
X120035714Y-66514342D01*
X120035714Y-66514342D02*
X119988095Y-66609580D01*
X119988095Y-66609580D02*
X119940476Y-66657200D01*
X119940476Y-66657200D02*
X119845238Y-66704819D01*
X119845238Y-66704819D02*
X119559524Y-66704819D01*
X119559524Y-66704819D02*
X119464286Y-66657200D01*
X119464286Y-66657200D02*
X119416667Y-66609580D01*
X112704819Y-82011904D02*
X113514342Y-82011904D01*
X113514342Y-82011904D02*
X113609580Y-81964285D01*
X113609580Y-81964285D02*
X113657200Y-81916666D01*
X113657200Y-81916666D02*
X113704819Y-81821428D01*
X113704819Y-81821428D02*
X113704819Y-81630952D01*
X113704819Y-81630952D02*
X113657200Y-81535714D01*
X113657200Y-81535714D02*
X113609580Y-81488095D01*
X113609580Y-81488095D02*
X113514342Y-81440476D01*
X113514342Y-81440476D02*
X112704819Y-81440476D01*
X112800057Y-81011904D02*
X112752438Y-80964285D01*
X112752438Y-80964285D02*
X112704819Y-80869047D01*
X112704819Y-80869047D02*
X112704819Y-80630952D01*
X112704819Y-80630952D02*
X112752438Y-80535714D01*
X112752438Y-80535714D02*
X112800057Y-80488095D01*
X112800057Y-80488095D02*
X112895295Y-80440476D01*
X112895295Y-80440476D02*
X112990533Y-80440476D01*
X112990533Y-80440476D02*
X113133390Y-80488095D01*
X113133390Y-80488095D02*
X113704819Y-81059523D01*
X113704819Y-81059523D02*
X113704819Y-80440476D01*
D10*
X110988095Y-63707419D02*
X110988095Y-64516942D01*
X110988095Y-64516942D02*
X111035714Y-64612180D01*
X111035714Y-64612180D02*
X111083333Y-64659800D01*
X111083333Y-64659800D02*
X111178571Y-64707419D01*
X111178571Y-64707419D02*
X111369047Y-64707419D01*
X111369047Y-64707419D02*
X111464285Y-64659800D01*
X111464285Y-64659800D02*
X111511904Y-64612180D01*
X111511904Y-64612180D02*
X111559523Y-64516942D01*
X111559523Y-64516942D02*
X111559523Y-63707419D01*
X112559523Y-64707419D02*
X111988095Y-64707419D01*
X112273809Y-64707419D02*
X112273809Y-63707419D01*
X112273809Y-63707419D02*
X112178571Y-63850276D01*
X112178571Y-63850276D02*
X112083333Y-63945514D01*
X112083333Y-63945514D02*
X111988095Y-63993133D01*
D11*
X104954819Y-77416666D02*
X104478628Y-77749999D01*
X104954819Y-77988094D02*
X103954819Y-77988094D01*
X103954819Y-77988094D02*
X103954819Y-77607142D01*
X103954819Y-77607142D02*
X104002438Y-77511904D01*
X104002438Y-77511904D02*
X104050057Y-77464285D01*
X104050057Y-77464285D02*
X104145295Y-77416666D01*
X104145295Y-77416666D02*
X104288152Y-77416666D01*
X104288152Y-77416666D02*
X104383390Y-77464285D01*
X104383390Y-77464285D02*
X104431009Y-77511904D01*
X104431009Y-77511904D02*
X104478628Y-77607142D01*
X104478628Y-77607142D02*
X104478628Y-77988094D01*
X104050057Y-77035713D02*
X104002438Y-76988094D01*
X104002438Y-76988094D02*
X103954819Y-76892856D01*
X103954819Y-76892856D02*
X103954819Y-76654761D01*
X103954819Y-76654761D02*
X104002438Y-76559523D01*
X104002438Y-76559523D02*
X104050057Y-76511904D01*
X104050057Y-76511904D02*
X104145295Y-76464285D01*
X104145295Y-76464285D02*
X104240533Y-76464285D01*
X104240533Y-76464285D02*
X104383390Y-76511904D01*
X104383390Y-76511904D02*
X104954819Y-77083332D01*
X104954819Y-77083332D02*
X104954819Y-76464285D01*
X107109580Y-66166666D02*
X107157200Y-66214285D01*
X107157200Y-66214285D02*
X107204819Y-66357142D01*
X107204819Y-66357142D02*
X107204819Y-66452380D01*
X107204819Y-66452380D02*
X107157200Y-66595237D01*
X107157200Y-66595237D02*
X107061961Y-66690475D01*
X107061961Y-66690475D02*
X106966723Y-66738094D01*
X106966723Y-66738094D02*
X106776247Y-66785713D01*
X106776247Y-66785713D02*
X106633390Y-66785713D01*
X106633390Y-66785713D02*
X106442914Y-66738094D01*
X106442914Y-66738094D02*
X106347676Y-66690475D01*
X106347676Y-66690475D02*
X106252438Y-66595237D01*
X106252438Y-66595237D02*
X106204819Y-66452380D01*
X106204819Y-66452380D02*
X106204819Y-66357142D01*
X106204819Y-66357142D02*
X106252438Y-66214285D01*
X106252438Y-66214285D02*
X106300057Y-66166666D01*
X106633390Y-65595237D02*
X106585771Y-65690475D01*
X106585771Y-65690475D02*
X106538152Y-65738094D01*
X106538152Y-65738094D02*
X106442914Y-65785713D01*
X106442914Y-65785713D02*
X106395295Y-65785713D01*
X106395295Y-65785713D02*
X106300057Y-65738094D01*
X106300057Y-65738094D02*
X106252438Y-65690475D01*
X106252438Y-65690475D02*
X106204819Y-65595237D01*
X106204819Y-65595237D02*
X106204819Y-65404761D01*
X106204819Y-65404761D02*
X106252438Y-65309523D01*
X106252438Y-65309523D02*
X106300057Y-65261904D01*
X106300057Y-65261904D02*
X106395295Y-65214285D01*
X106395295Y-65214285D02*
X106442914Y-65214285D01*
X106442914Y-65214285D02*
X106538152Y-65261904D01*
X106538152Y-65261904D02*
X106585771Y-65309523D01*
X106585771Y-65309523D02*
X106633390Y-65404761D01*
X106633390Y-65404761D02*
X106633390Y-65595237D01*
X106633390Y-65595237D02*
X106681009Y-65690475D01*
X106681009Y-65690475D02*
X106728628Y-65738094D01*
X106728628Y-65738094D02*
X106823866Y-65785713D01*
X106823866Y-65785713D02*
X107014342Y-65785713D01*
X107014342Y-65785713D02*
X107109580Y-65738094D01*
X107109580Y-65738094D02*
X107157200Y-65690475D01*
X107157200Y-65690475D02*
X107204819Y-65595237D01*
X107204819Y-65595237D02*
X107204819Y-65404761D01*
X107204819Y-65404761D02*
X107157200Y-65309523D01*
X107157200Y-65309523D02*
X107109580Y-65261904D01*
X107109580Y-65261904D02*
X107014342Y-65214285D01*
X107014342Y-65214285D02*
X106823866Y-65214285D01*
X106823866Y-65214285D02*
X106728628Y-65261904D01*
X106728628Y-65261904D02*
X106681009Y-65309523D01*
X106681009Y-65309523D02*
X106633390Y-65404761D01*
X104988095Y-87704819D02*
X104988095Y-88514342D01*
X104988095Y-88514342D02*
X105035714Y-88609580D01*
X105035714Y-88609580D02*
X105083333Y-88657200D01*
X105083333Y-88657200D02*
X105178571Y-88704819D01*
X105178571Y-88704819D02*
X105369047Y-88704819D01*
X105369047Y-88704819D02*
X105464285Y-88657200D01*
X105464285Y-88657200D02*
X105511904Y-88609580D01*
X105511904Y-88609580D02*
X105559523Y-88514342D01*
X105559523Y-88514342D02*
X105559523Y-87704819D01*
X106464285Y-88038152D02*
X106464285Y-88704819D01*
X106226190Y-87657200D02*
X105988095Y-88371485D01*
X105988095Y-88371485D02*
X106607142Y-88371485D01*
X118426666Y-96954819D02*
X118426666Y-97669104D01*
X118426666Y-97669104D02*
X118379047Y-97811961D01*
X118379047Y-97811961D02*
X118283809Y-97907200D01*
X118283809Y-97907200D02*
X118140952Y-97954819D01*
X118140952Y-97954819D02*
X118045714Y-97954819D01*
X119426666Y-97954819D02*
X118855238Y-97954819D01*
X119140952Y-97954819D02*
X119140952Y-96954819D01*
X119140952Y-96954819D02*
X119045714Y-97097676D01*
X119045714Y-97097676D02*
X118950476Y-97192914D01*
X118950476Y-97192914D02*
X118855238Y-97240533D01*
X111204819Y-73916666D02*
X110728628Y-74249999D01*
X111204819Y-74488094D02*
X110204819Y-74488094D01*
X110204819Y-74488094D02*
X110204819Y-74107142D01*
X110204819Y-74107142D02*
X110252438Y-74011904D01*
X110252438Y-74011904D02*
X110300057Y-73964285D01*
X110300057Y-73964285D02*
X110395295Y-73916666D01*
X110395295Y-73916666D02*
X110538152Y-73916666D01*
X110538152Y-73916666D02*
X110633390Y-73964285D01*
X110633390Y-73964285D02*
X110681009Y-74011904D01*
X110681009Y-74011904D02*
X110728628Y-74107142D01*
X110728628Y-74107142D02*
X110728628Y-74488094D01*
X110204819Y-73583332D02*
X110204819Y-72916666D01*
X110204819Y-72916666D02*
X111204819Y-73345237D01*
X114333333Y-92454819D02*
X114000000Y-91978628D01*
X113761905Y-92454819D02*
X113761905Y-91454819D01*
X113761905Y-91454819D02*
X114142857Y-91454819D01*
X114142857Y-91454819D02*
X114238095Y-91502438D01*
X114238095Y-91502438D02*
X114285714Y-91550057D01*
X114285714Y-91550057D02*
X114333333Y-91645295D01*
X114333333Y-91645295D02*
X114333333Y-91788152D01*
X114333333Y-91788152D02*
X114285714Y-91883390D01*
X114285714Y-91883390D02*
X114238095Y-91931009D01*
X114238095Y-91931009D02*
X114142857Y-91978628D01*
X114142857Y-91978628D02*
X113761905Y-91978628D01*
X115190476Y-91788152D02*
X115190476Y-92454819D01*
X114952381Y-91407200D02*
X114714286Y-92121485D01*
X114714286Y-92121485D02*
X115333333Y-92121485D01*
X113454819Y-88166666D02*
X112978628Y-88499999D01*
X113454819Y-88738094D02*
X112454819Y-88738094D01*
X112454819Y-88738094D02*
X112454819Y-88357142D01*
X112454819Y-88357142D02*
X112502438Y-88261904D01*
X112502438Y-88261904D02*
X112550057Y-88214285D01*
X112550057Y-88214285D02*
X112645295Y-88166666D01*
X112645295Y-88166666D02*
X112788152Y-88166666D01*
X112788152Y-88166666D02*
X112883390Y-88214285D01*
X112883390Y-88214285D02*
X112931009Y-88261904D01*
X112931009Y-88261904D02*
X112978628Y-88357142D01*
X112978628Y-88357142D02*
X112978628Y-88738094D01*
X112454819Y-87833332D02*
X112454819Y-87214285D01*
X112454819Y-87214285D02*
X112835771Y-87547618D01*
X112835771Y-87547618D02*
X112835771Y-87404761D01*
X112835771Y-87404761D02*
X112883390Y-87309523D01*
X112883390Y-87309523D02*
X112931009Y-87261904D01*
X112931009Y-87261904D02*
X113026247Y-87214285D01*
X113026247Y-87214285D02*
X113264342Y-87214285D01*
X113264342Y-87214285D02*
X113359580Y-87261904D01*
X113359580Y-87261904D02*
X113407200Y-87309523D01*
X113407200Y-87309523D02*
X113454819Y-87404761D01*
X113454819Y-87404761D02*
X113454819Y-87690475D01*
X113454819Y-87690475D02*
X113407200Y-87785713D01*
X113407200Y-87785713D02*
X113359580Y-87833332D01*
X117704819Y-63916666D02*
X117228628Y-64249999D01*
X117704819Y-64488094D02*
X116704819Y-64488094D01*
X116704819Y-64488094D02*
X116704819Y-64107142D01*
X116704819Y-64107142D02*
X116752438Y-64011904D01*
X116752438Y-64011904D02*
X116800057Y-63964285D01*
X116800057Y-63964285D02*
X116895295Y-63916666D01*
X116895295Y-63916666D02*
X117038152Y-63916666D01*
X117038152Y-63916666D02*
X117133390Y-63964285D01*
X117133390Y-63964285D02*
X117181009Y-64011904D01*
X117181009Y-64011904D02*
X117228628Y-64107142D01*
X117228628Y-64107142D02*
X117228628Y-64488094D01*
X116704819Y-63059523D02*
X116704819Y-63249999D01*
X116704819Y-63249999D02*
X116752438Y-63345237D01*
X116752438Y-63345237D02*
X116800057Y-63392856D01*
X116800057Y-63392856D02*
X116942914Y-63488094D01*
X116942914Y-63488094D02*
X117133390Y-63535713D01*
X117133390Y-63535713D02*
X117514342Y-63535713D01*
X117514342Y-63535713D02*
X117609580Y-63488094D01*
X117609580Y-63488094D02*
X117657200Y-63440475D01*
X117657200Y-63440475D02*
X117704819Y-63345237D01*
X117704819Y-63345237D02*
X117704819Y-63154761D01*
X117704819Y-63154761D02*
X117657200Y-63059523D01*
X117657200Y-63059523D02*
X117609580Y-63011904D01*
X117609580Y-63011904D02*
X117514342Y-62964285D01*
X117514342Y-62964285D02*
X117276247Y-62964285D01*
X117276247Y-62964285D02*
X117181009Y-63011904D01*
X117181009Y-63011904D02*
X117133390Y-63059523D01*
X117133390Y-63059523D02*
X117085771Y-63154761D01*
X117085771Y-63154761D02*
X117085771Y-63345237D01*
X117085771Y-63345237D02*
X117133390Y-63440475D01*
X117133390Y-63440475D02*
X117181009Y-63488094D01*
X117181009Y-63488094D02*
X117276247Y-63535713D01*
X104609580Y-71166666D02*
X104657200Y-71214285D01*
X104657200Y-71214285D02*
X104704819Y-71357142D01*
X104704819Y-71357142D02*
X104704819Y-71452380D01*
X104704819Y-71452380D02*
X104657200Y-71595237D01*
X104657200Y-71595237D02*
X104561961Y-71690475D01*
X104561961Y-71690475D02*
X104466723Y-71738094D01*
X104466723Y-71738094D02*
X104276247Y-71785713D01*
X104276247Y-71785713D02*
X104133390Y-71785713D01*
X104133390Y-71785713D02*
X103942914Y-71738094D01*
X103942914Y-71738094D02*
X103847676Y-71690475D01*
X103847676Y-71690475D02*
X103752438Y-71595237D01*
X103752438Y-71595237D02*
X103704819Y-71452380D01*
X103704819Y-71452380D02*
X103704819Y-71357142D01*
X103704819Y-71357142D02*
X103752438Y-71214285D01*
X103752438Y-71214285D02*
X103800057Y-71166666D01*
X103800057Y-70785713D02*
X103752438Y-70738094D01*
X103752438Y-70738094D02*
X103704819Y-70642856D01*
X103704819Y-70642856D02*
X103704819Y-70404761D01*
X103704819Y-70404761D02*
X103752438Y-70309523D01*
X103752438Y-70309523D02*
X103800057Y-70261904D01*
X103800057Y-70261904D02*
X103895295Y-70214285D01*
X103895295Y-70214285D02*
X103990533Y-70214285D01*
X103990533Y-70214285D02*
X104133390Y-70261904D01*
X104133390Y-70261904D02*
X104704819Y-70833332D01*
X104704819Y-70833332D02*
X104704819Y-70214285D01*
X106274819Y-71091666D02*
X105798628Y-71424999D01*
X106274819Y-71663094D02*
X105274819Y-71663094D01*
X105274819Y-71663094D02*
X105274819Y-71282142D01*
X105274819Y-71282142D02*
X105322438Y-71186904D01*
X105322438Y-71186904D02*
X105370057Y-71139285D01*
X105370057Y-71139285D02*
X105465295Y-71091666D01*
X105465295Y-71091666D02*
X105608152Y-71091666D01*
X105608152Y-71091666D02*
X105703390Y-71139285D01*
X105703390Y-71139285D02*
X105751009Y-71186904D01*
X105751009Y-71186904D02*
X105798628Y-71282142D01*
X105798628Y-71282142D02*
X105798628Y-71663094D01*
X106274819Y-70139285D02*
X106274819Y-70710713D01*
X106274819Y-70424999D02*
X105274819Y-70424999D01*
X105274819Y-70424999D02*
X105417676Y-70520237D01*
X105417676Y-70520237D02*
X105512914Y-70615475D01*
X105512914Y-70615475D02*
X105560533Y-70710713D01*
X106374819Y-54333333D02*
X107089104Y-54333333D01*
X107089104Y-54333333D02*
X107231961Y-54380952D01*
X107231961Y-54380952D02*
X107327200Y-54476190D01*
X107327200Y-54476190D02*
X107374819Y-54619047D01*
X107374819Y-54619047D02*
X107374819Y-54714285D01*
X106470057Y-53904761D02*
X106422438Y-53857142D01*
X106422438Y-53857142D02*
X106374819Y-53761904D01*
X106374819Y-53761904D02*
X106374819Y-53523809D01*
X106374819Y-53523809D02*
X106422438Y-53428571D01*
X106422438Y-53428571D02*
X106470057Y-53380952D01*
X106470057Y-53380952D02*
X106565295Y-53333333D01*
X106565295Y-53333333D02*
X106660533Y-53333333D01*
X106660533Y-53333333D02*
X106803390Y-53380952D01*
X106803390Y-53380952D02*
X107374819Y-53952380D01*
X107374819Y-53952380D02*
X107374819Y-53333333D01*
X106359580Y-74416666D02*
X106407200Y-74464285D01*
X106407200Y-74464285D02*
X106454819Y-74607142D01*
X106454819Y-74607142D02*
X106454819Y-74702380D01*
X106454819Y-74702380D02*
X106407200Y-74845237D01*
X106407200Y-74845237D02*
X106311961Y-74940475D01*
X106311961Y-74940475D02*
X106216723Y-74988094D01*
X106216723Y-74988094D02*
X106026247Y-75035713D01*
X106026247Y-75035713D02*
X105883390Y-75035713D01*
X105883390Y-75035713D02*
X105692914Y-74988094D01*
X105692914Y-74988094D02*
X105597676Y-74940475D01*
X105597676Y-74940475D02*
X105502438Y-74845237D01*
X105502438Y-74845237D02*
X105454819Y-74702380D01*
X105454819Y-74702380D02*
X105454819Y-74607142D01*
X105454819Y-74607142D02*
X105502438Y-74464285D01*
X105502438Y-74464285D02*
X105550057Y-74416666D01*
X106454819Y-73464285D02*
X106454819Y-74035713D01*
X106454819Y-73749999D02*
X105454819Y-73749999D01*
X105454819Y-73749999D02*
X105597676Y-73845237D01*
X105597676Y-73845237D02*
X105692914Y-73940475D01*
X105692914Y-73940475D02*
X105740533Y-74035713D01*
X122539580Y-88691666D02*
X122587200Y-88739285D01*
X122587200Y-88739285D02*
X122634819Y-88882142D01*
X122634819Y-88882142D02*
X122634819Y-88977380D01*
X122634819Y-88977380D02*
X122587200Y-89120237D01*
X122587200Y-89120237D02*
X122491961Y-89215475D01*
X122491961Y-89215475D02*
X122396723Y-89263094D01*
X122396723Y-89263094D02*
X122206247Y-89310713D01*
X122206247Y-89310713D02*
X122063390Y-89310713D01*
X122063390Y-89310713D02*
X121872914Y-89263094D01*
X121872914Y-89263094D02*
X121777676Y-89215475D01*
X121777676Y-89215475D02*
X121682438Y-89120237D01*
X121682438Y-89120237D02*
X121634819Y-88977380D01*
X121634819Y-88977380D02*
X121634819Y-88882142D01*
X121634819Y-88882142D02*
X121682438Y-88739285D01*
X121682438Y-88739285D02*
X121730057Y-88691666D01*
X121634819Y-88358332D02*
X121634819Y-87739285D01*
X121634819Y-87739285D02*
X122015771Y-88072618D01*
X122015771Y-88072618D02*
X122015771Y-87929761D01*
X122015771Y-87929761D02*
X122063390Y-87834523D01*
X122063390Y-87834523D02*
X122111009Y-87786904D01*
X122111009Y-87786904D02*
X122206247Y-87739285D01*
X122206247Y-87739285D02*
X122444342Y-87739285D01*
X122444342Y-87739285D02*
X122539580Y-87786904D01*
X122539580Y-87786904D02*
X122587200Y-87834523D01*
X122587200Y-87834523D02*
X122634819Y-87929761D01*
X122634819Y-87929761D02*
X122634819Y-88215475D01*
X122634819Y-88215475D02*
X122587200Y-88310713D01*
X122587200Y-88310713D02*
X122539580Y-88358332D01*
X106954819Y-91874404D02*
X107764342Y-91874404D01*
X107764342Y-91874404D02*
X107859580Y-91826785D01*
X107859580Y-91826785D02*
X107907200Y-91779166D01*
X107907200Y-91779166D02*
X107954819Y-91683928D01*
X107954819Y-91683928D02*
X107954819Y-91493452D01*
X107954819Y-91493452D02*
X107907200Y-91398214D01*
X107907200Y-91398214D02*
X107859580Y-91350595D01*
X107859580Y-91350595D02*
X107764342Y-91302976D01*
X107764342Y-91302976D02*
X106954819Y-91302976D01*
X106954819Y-90922023D02*
X106954819Y-90302976D01*
X106954819Y-90302976D02*
X107335771Y-90636309D01*
X107335771Y-90636309D02*
X107335771Y-90493452D01*
X107335771Y-90493452D02*
X107383390Y-90398214D01*
X107383390Y-90398214D02*
X107431009Y-90350595D01*
X107431009Y-90350595D02*
X107526247Y-90302976D01*
X107526247Y-90302976D02*
X107764342Y-90302976D01*
X107764342Y-90302976D02*
X107859580Y-90350595D01*
X107859580Y-90350595D02*
X107907200Y-90398214D01*
X107907200Y-90398214D02*
X107954819Y-90493452D01*
X107954819Y-90493452D02*
X107954819Y-90779166D01*
X107954819Y-90779166D02*
X107907200Y-90874404D01*
X107907200Y-90874404D02*
X107859580Y-90922023D01*
X111083333Y-79859580D02*
X111035714Y-79907200D01*
X111035714Y-79907200D02*
X110892857Y-79954819D01*
X110892857Y-79954819D02*
X110797619Y-79954819D01*
X110797619Y-79954819D02*
X110654762Y-79907200D01*
X110654762Y-79907200D02*
X110559524Y-79811961D01*
X110559524Y-79811961D02*
X110511905Y-79716723D01*
X110511905Y-79716723D02*
X110464286Y-79526247D01*
X110464286Y-79526247D02*
X110464286Y-79383390D01*
X110464286Y-79383390D02*
X110511905Y-79192914D01*
X110511905Y-79192914D02*
X110559524Y-79097676D01*
X110559524Y-79097676D02*
X110654762Y-79002438D01*
X110654762Y-79002438D02*
X110797619Y-78954819D01*
X110797619Y-78954819D02*
X110892857Y-78954819D01*
X110892857Y-78954819D02*
X111035714Y-79002438D01*
X111035714Y-79002438D02*
X111083333Y-79050057D01*
X111416667Y-78954819D02*
X112083333Y-78954819D01*
X112083333Y-78954819D02*
X111654762Y-79954819D01*
D12*
%TO.C,C4*%
X118490000Y-86109420D02*
X118490000Y-86390580D01*
X119510000Y-86109420D02*
X119510000Y-86390580D01*
%TO.C,C5*%
X118609420Y-92240000D02*
X118890580Y-92240000D01*
X118609420Y-93260000D02*
X118890580Y-93260000D01*
%TO.C,D1*%
X115615000Y-85550000D02*
X115615000Y-89435000D01*
X115615000Y-89435000D02*
X117885000Y-89435000D01*
X117885000Y-89435000D02*
X117885000Y-85550000D01*
%TO.C,D2*%
X120115000Y-68250000D02*
X120115000Y-72135000D01*
X120115000Y-72135000D02*
X122385000Y-72135000D01*
X122385000Y-72135000D02*
X122385000Y-68250000D01*
%TO.C,J3*%
X100220000Y-64660000D02*
X101600000Y-64660000D01*
X100220000Y-66040000D02*
X100220000Y-64660000D01*
X100220000Y-67310000D02*
X100220000Y-90280000D01*
X100220000Y-67310000D02*
X102980000Y-67310000D01*
X100220000Y-90280000D02*
X102980000Y-90280000D01*
X102980000Y-67310000D02*
X102980000Y-90280000D01*
%TO.C,C6*%
X118634420Y-90490000D02*
X118915580Y-90490000D01*
X118634420Y-91510000D02*
X118915580Y-91510000D01*
%TO.C,J4*%
X123080000Y-64660000D02*
X124460000Y-64660000D01*
X123080000Y-66040000D02*
X123080000Y-64660000D01*
X123080000Y-67310000D02*
X123080000Y-90280000D01*
X123080000Y-67310000D02*
X125840000Y-67310000D01*
X123080000Y-90280000D02*
X125840000Y-90280000D01*
X125840000Y-67310000D02*
X125840000Y-90280000D01*
%TO.C,D3*%
X120365000Y-62215000D02*
X120365000Y-66100000D01*
X122635000Y-62215000D02*
X120365000Y-62215000D01*
X122635000Y-66100000D02*
X122635000Y-62215000D01*
%TO.C,U2*%
X114340000Y-78090000D02*
X115600000Y-78090000D01*
X114340000Y-81850000D02*
X114340000Y-78090000D01*
X121160000Y-78090000D02*
X119900000Y-78090000D01*
X121160000Y-81850000D02*
X121160000Y-78090000D01*
X114440000Y-83130000D02*
X114110000Y-83370000D01*
X114110000Y-82890000D01*
X114440000Y-83130000D01*
G36*
X114440000Y-83130000D02*
G01*
X114110000Y-83370000D01*
X114110000Y-82890000D01*
X114440000Y-83130000D01*
G37*
%TO.C,U1*%
X110250000Y-65100000D02*
X110250000Y-65300000D01*
X110250000Y-65100000D02*
X110450000Y-65100000D01*
X110250000Y-70200000D02*
X110250000Y-70400000D01*
X110250000Y-70400000D02*
X110450000Y-70400000D01*
X115150000Y-65100000D02*
X115350000Y-65100000D01*
X115150000Y-70400000D02*
X115350000Y-70400000D01*
X115350000Y-65100000D02*
X115350000Y-65300000D01*
X115350000Y-70200000D02*
X115350000Y-70400000D01*
D10*
X110050000Y-65075000D02*
G75*
G02*
X109850000Y-65075000I-100000J0D01*
G01*
X109850000Y-65075000D02*
G75*
G02*
X110050000Y-65075000I100000J0D01*
G01*
D12*
%TO.C,R2*%
X103977500Y-74737258D02*
X103977500Y-74262742D01*
X105022500Y-74737258D02*
X105022500Y-74262742D01*
%TO.C,C8*%
X107740000Y-65415580D02*
X107740000Y-65134420D01*
X108760000Y-65415580D02*
X108760000Y-65134420D01*
%TO.C,U4*%
X106510000Y-82160000D02*
X110490000Y-82160000D01*
X106510000Y-82260000D02*
X106510000Y-82160000D01*
X106510000Y-87340000D02*
X106510000Y-87240000D01*
X110490000Y-82160000D02*
X110490000Y-82260000D01*
X110490000Y-87240000D02*
X110490000Y-87340000D01*
X110490000Y-87340000D02*
X106510000Y-87340000D01*
X105960000Y-82250000D02*
X105720000Y-81920000D01*
X106200000Y-81920000D01*
X105960000Y-82250000D01*
G36*
X105960000Y-82250000D02*
G01*
X105720000Y-81920000D01*
X106200000Y-81920000D01*
X105960000Y-82250000D01*
G37*
D11*
%TO.C,J1*%
X108810000Y-96595000D02*
X108810000Y-97995000D01*
X108810000Y-100395000D02*
X108810000Y-100545000D01*
X108810000Y-100545000D02*
X109110000Y-100545000D01*
X109110000Y-100545000D02*
X109110000Y-100995000D01*
X111160000Y-94420000D02*
X111160000Y-94845000D01*
X111160000Y-94845000D02*
X110160000Y-94845000D01*
X111885000Y-94420000D02*
X111160000Y-94420000D01*
X114760000Y-94845000D02*
X115760000Y-94845000D01*
X116810000Y-100545000D02*
X117110000Y-100545000D01*
X116810000Y-100995000D02*
X116810000Y-100545000D01*
X117110000Y-97995000D02*
X117110000Y-96595000D01*
X117110000Y-100545000D02*
X117110000Y-100395000D01*
D12*
%TO.C,R7*%
X108477500Y-73937742D02*
X108477500Y-74412258D01*
X109522500Y-73937742D02*
X109522500Y-74412258D01*
%TO.C,R4*%
X115727500Y-92062258D02*
X115727500Y-91587742D01*
X116772500Y-92062258D02*
X116772500Y-91587742D01*
%TO.C,R3*%
X113952500Y-88062258D02*
X113952500Y-87587742D01*
X114997500Y-88062258D02*
X114997500Y-87587742D01*
%TO.C,R5*%
X118477500Y-70737258D02*
X118477500Y-70262742D01*
X119522500Y-70737258D02*
X119522500Y-70262742D01*
%TO.C,R6*%
X118477500Y-63512742D02*
X118477500Y-63987258D01*
X119522500Y-63512742D02*
X119522500Y-63987258D01*
%TO.C,C2*%
X104990000Y-71065580D02*
X104990000Y-70784420D01*
X106010000Y-71065580D02*
X106010000Y-70784420D01*
%TO.C,R1*%
X106727500Y-71162258D02*
X106727500Y-70687742D01*
X107772500Y-71162258D02*
X107772500Y-70687742D01*
%TO.C,J2*%
X107810000Y-54235000D02*
X107810000Y-56995000D01*
X107810000Y-56995000D02*
X118190000Y-56995000D01*
X107920000Y-59655000D02*
X107920000Y-58385000D01*
X108760000Y-57225000D02*
X108760000Y-56995000D01*
X109190000Y-59655000D02*
X107920000Y-59655000D01*
X109620000Y-57225000D02*
X109620000Y-56995000D01*
X110460000Y-56995000D02*
X110460000Y-54235000D01*
X111300000Y-48235000D02*
X112160000Y-48235000D01*
X111300000Y-54235000D02*
X111300000Y-48235000D01*
X111300000Y-57307642D02*
X111300000Y-56995000D01*
X112160000Y-48235000D02*
X112160000Y-54235000D01*
X112160000Y-57307642D02*
X112160000Y-56995000D01*
X113000000Y-56995000D02*
X113000000Y-54235000D01*
X113840000Y-48235000D02*
X114700000Y-48235000D01*
X113840000Y-54235000D02*
X113840000Y-48235000D01*
X113840000Y-57307642D02*
X113840000Y-56995000D01*
X114700000Y-48235000D02*
X114700000Y-54235000D01*
X114700000Y-57307642D02*
X114700000Y-56995000D01*
X115540000Y-56995000D02*
X115540000Y-54235000D01*
X116380000Y-48235000D02*
X117240000Y-48235000D01*
X116380000Y-54235000D02*
X116380000Y-48235000D01*
X116380000Y-57307642D02*
X116380000Y-56995000D01*
X117240000Y-48235000D02*
X117240000Y-54235000D01*
X117240000Y-57307642D02*
X117240000Y-56995000D01*
X118190000Y-54235000D02*
X107810000Y-54235000D01*
X118190000Y-56995000D02*
X118190000Y-54235000D01*
X108760000Y-54235000D02*
X109620000Y-54235000D01*
X109620000Y-48235000D01*
X108760000Y-48235000D01*
X108760000Y-54235000D01*
G36*
X108760000Y-54235000D02*
G01*
X109620000Y-54235000D01*
X109620000Y-48235000D01*
X108760000Y-48235000D01*
X108760000Y-54235000D01*
G37*
%TO.C,C1*%
X106740000Y-73984420D02*
X106740000Y-74265580D01*
X107760000Y-73984420D02*
X107760000Y-74265580D01*
%TO.C,C3*%
X120240000Y-88384420D02*
X120240000Y-88665580D01*
X121260000Y-88384420D02*
X121260000Y-88665580D01*
%TO.C,U3*%
X108690000Y-90202500D02*
X108740000Y-90202500D01*
X108690000Y-92022500D02*
X108690000Y-90202500D01*
X108740000Y-92022500D02*
X108690000Y-92022500D01*
X111760000Y-90202500D02*
X111810000Y-90202500D01*
X111810000Y-90202500D02*
X111810000Y-92022500D01*
X111810000Y-92022500D02*
X111760000Y-92022500D01*
X112090000Y-89902500D02*
X111760000Y-89662500D01*
X112090000Y-89422500D01*
X112090000Y-89902500D01*
G36*
X112090000Y-89902500D02*
G01*
X111760000Y-89662500D01*
X112090000Y-89422500D01*
X112090000Y-89902500D01*
G37*
%TO.C,C7*%
X110640580Y-80490000D02*
X110359420Y-80490000D01*
X110640580Y-81510000D02*
X110359420Y-81510000D01*
%TD*%
M02*
