%TF.GenerationSoftware,KiCad,Pcbnew,9.0.6*%
%TF.CreationDate,2026-10-05T21:39:16+05:30*%
%TF.ProjectId,Tachiyon-_,54616368-6979-46f6-9e2d-b12e6b696361,rev?*%
%TF.SameCoordinates,Original*%
%TF.FileFunction,Soldermask,Top*%
%TF.FilePolarity,Negative*%
%FSLAX46Y46*%
G04 Gerber Fmt 4.6, Leading zero omitted, Abs format (unit mm)*
G04 Created by KiCad (PCBNEW 9.0.6) date 2026-10-05 21:39:16*
%MOMM*%
%LPD*%
G01*
G04 APERTURE LIST*
G04 APERTURE END LIST*
G36*
X109280942Y-98224065D02*
G01*
X109403193Y-98274703D01*
X109513215Y-98348218D01*
X109606782Y-98441785D01*
X109680297Y-98551807D01*
X109730935Y-98674058D01*
X109756750Y-98803838D01*
X109760000Y-98870000D01*
X109760000Y-99520000D01*
X109756750Y-99586162D01*
X109730935Y-99715942D01*
X109680297Y-99838193D01*
X109606782Y-99948215D01*
X109513215Y-100041782D01*
X109403193Y-100115297D01*
X109280942Y-100165935D01*
X109151162Y-100191750D01*
X109018838Y-100191750D01*
X108889058Y-100165935D01*
X108766807Y-100115297D01*
X108656785Y-100041782D01*
X108563218Y-99948215D01*
X108489703Y-99838193D01*
X108439065Y-99715942D01*
X108413250Y-99586162D01*
X108410000Y-99520000D01*
X108410000Y-98870000D01*
X108413250Y-98803838D01*
X108439065Y-98674058D01*
X108489703Y-98551807D01*
X108563218Y-98441785D01*
X108656785Y-98348218D01*
X108766807Y-98274703D01*
X108889058Y-98224065D01*
X109018838Y-98198250D01*
X109151162Y-98198250D01*
X109280942Y-98224065D01*
G37*
G36*
X117030942Y-98224065D02*
G01*
X117153193Y-98274703D01*
X117263215Y-98348218D01*
X117356782Y-98441785D01*
X117430297Y-98551807D01*
X117480935Y-98674058D01*
X117506750Y-98803838D01*
X117510000Y-98870000D01*
X117510000Y-99520000D01*
X117506750Y-99586162D01*
X117480935Y-99715942D01*
X117430297Y-99838193D01*
X117356782Y-99948215D01*
X117263215Y-100041782D01*
X117153193Y-100115297D01*
X117030942Y-100165935D01*
X116901162Y-100191750D01*
X116768838Y-100191750D01*
X116639058Y-100165935D01*
X116516807Y-100115297D01*
X116406785Y-100041782D01*
X116313218Y-99948215D01*
X116239703Y-99838193D01*
X116189065Y-99715942D01*
X116163250Y-99586162D01*
X116160000Y-99520000D01*
X116160000Y-98870000D01*
X116163250Y-98803838D01*
X116189065Y-98674058D01*
X116239703Y-98551807D01*
X116313218Y-98441785D01*
X116406785Y-98348218D01*
X116516807Y-98274703D01*
X116639058Y-98224065D01*
X116768838Y-98198250D01*
X116901162Y-98198250D01*
X117030942Y-98224065D01*
G37*
G36*
X101984211Y-93235718D02*
G01*
X102301835Y-93298897D01*
X102611737Y-93392905D01*
X102910932Y-93516835D01*
X103196539Y-93669496D01*
X103465808Y-93849415D01*
X103716145Y-94054861D01*
X103945139Y-94283855D01*
X104150585Y-94534192D01*
X104330504Y-94803461D01*
X104483165Y-95089068D01*
X104607095Y-95388263D01*
X104701103Y-95698165D01*
X104764282Y-96015789D01*
X104796025Y-96338077D01*
X104796025Y-96661923D01*
X104764282Y-96984211D01*
X104701103Y-97301835D01*
X104607095Y-97611737D01*
X104483165Y-97910932D01*
X104330504Y-98196539D01*
X104150585Y-98465808D01*
X103945139Y-98716145D01*
X103716145Y-98945139D01*
X103465808Y-99150585D01*
X103196539Y-99330504D01*
X102910932Y-99483165D01*
X102611737Y-99607095D01*
X102301835Y-99701103D01*
X101984211Y-99764282D01*
X101661923Y-99796025D01*
X101338077Y-99796025D01*
X101015789Y-99764282D01*
X100698165Y-99701103D01*
X100388263Y-99607095D01*
X100089068Y-99483165D01*
X99803461Y-99330504D01*
X99534192Y-99150585D01*
X99283855Y-98945139D01*
X99054861Y-98716145D01*
X98849415Y-98465808D01*
X98669496Y-98196539D01*
X98516835Y-97910932D01*
X98392905Y-97611737D01*
X98298897Y-97301835D01*
X98235718Y-96984211D01*
X98203975Y-96661923D01*
X98203975Y-96338077D01*
X98235718Y-96015789D01*
X98298897Y-95698165D01*
X98392905Y-95388263D01*
X98516835Y-95089068D01*
X98669496Y-94803461D01*
X98849415Y-94534192D01*
X99054861Y-94283855D01*
X99283855Y-94054861D01*
X99534192Y-93849415D01*
X99803461Y-93669496D01*
X100089068Y-93516835D01*
X100388263Y-93392905D01*
X100698165Y-93298897D01*
X101015789Y-93235718D01*
X101338077Y-93203975D01*
X101661923Y-93203975D01*
X101984211Y-93235718D01*
G37*
G36*
X124984211Y-93235718D02*
G01*
X125301835Y-93298897D01*
X125611737Y-93392905D01*
X125910932Y-93516835D01*
X126196539Y-93669496D01*
X126465808Y-93849415D01*
X126716145Y-94054861D01*
X126945139Y-94283855D01*
X127150585Y-94534192D01*
X127330504Y-94803461D01*
X127483165Y-95089068D01*
X127607095Y-95388263D01*
X127701103Y-95698165D01*
X127764282Y-96015789D01*
X127796025Y-96338077D01*
X127796025Y-96661923D01*
X127764282Y-96984211D01*
X127701103Y-97301835D01*
X127607095Y-97611737D01*
X127483165Y-97910932D01*
X127330504Y-98196539D01*
X127150585Y-98465808D01*
X126945139Y-98716145D01*
X126716145Y-98945139D01*
X126465808Y-99150585D01*
X126196539Y-99330504D01*
X125910932Y-99483165D01*
X125611737Y-99607095D01*
X125301835Y-99701103D01*
X124984211Y-99764282D01*
X124661923Y-99796025D01*
X124338077Y-99796025D01*
X124015789Y-99764282D01*
X123698165Y-99701103D01*
X123388263Y-99607095D01*
X123089068Y-99483165D01*
X122803461Y-99330504D01*
X122534192Y-99150585D01*
X122283855Y-98945139D01*
X122054861Y-98716145D01*
X121849415Y-98465808D01*
X121669496Y-98196539D01*
X121516835Y-97910932D01*
X121392905Y-97611737D01*
X121298897Y-97301835D01*
X121235718Y-96984211D01*
X121203975Y-96661923D01*
X121203975Y-96338077D01*
X121235718Y-96015789D01*
X121298897Y-95698165D01*
X121392905Y-95388263D01*
X121516835Y-95089068D01*
X121669496Y-94803461D01*
X121849415Y-94534192D01*
X122054861Y-94283855D01*
X122283855Y-94054861D01*
X122534192Y-93849415D01*
X122803461Y-93669496D01*
X123089068Y-93516835D01*
X123388263Y-93392905D01*
X123698165Y-93298897D01*
X124015789Y-93235718D01*
X124338077Y-93203975D01*
X124661923Y-93203975D01*
X124984211Y-93235718D01*
G37*
G36*
X110651342Y-95983060D02*
G01*
X110764381Y-96048323D01*
X110856677Y-96140619D01*
X110921940Y-96253658D01*
X110955722Y-96379737D01*
X110955722Y-96510263D01*
X110921940Y-96636342D01*
X110856677Y-96749381D01*
X110764381Y-96841677D01*
X110651342Y-96906940D01*
X110525263Y-96940722D01*
X110394737Y-96940722D01*
X110268658Y-96906940D01*
X110155619Y-96841677D01*
X110063323Y-96749381D01*
X109998060Y-96636342D01*
X109964278Y-96510263D01*
X109964278Y-96379737D01*
X109998060Y-96253658D01*
X110063323Y-96140619D01*
X110155619Y-96048323D01*
X110268658Y-95983060D01*
X110394737Y-95949278D01*
X110525263Y-95949278D01*
X110651342Y-95983060D01*
G37*
G36*
X115651342Y-95983060D02*
G01*
X115764381Y-96048323D01*
X115856677Y-96140619D01*
X115921940Y-96253658D01*
X115955722Y-96379737D01*
X115955722Y-96510263D01*
X115921940Y-96636342D01*
X115856677Y-96749381D01*
X115764381Y-96841677D01*
X115651342Y-96906940D01*
X115525263Y-96940722D01*
X115394737Y-96940722D01*
X115268658Y-96906940D01*
X115155619Y-96841677D01*
X115063323Y-96749381D01*
X114998060Y-96636342D01*
X114964278Y-96510263D01*
X114964278Y-96379737D01*
X114998060Y-96253658D01*
X115063323Y-96140619D01*
X115155619Y-96048323D01*
X115268658Y-95983060D01*
X115394737Y-95949278D01*
X115525263Y-95949278D01*
X115651342Y-95983060D01*
G37*
G36*
X109474485Y-94330524D02*
G01*
X109623902Y-94392415D01*
X109758374Y-94482266D01*
X109872734Y-94596626D01*
X109962585Y-94731098D01*
X110024476Y-94880515D01*
X110056027Y-95039136D01*
X110060000Y-95120000D01*
X110060000Y-95670000D01*
X110056027Y-95750864D01*
X110024476Y-95909485D01*
X109962585Y-96058902D01*
X109872734Y-96193374D01*
X109758374Y-96307734D01*
X109623902Y-96397585D01*
X109474485Y-96459476D01*
X109315864Y-96491027D01*
X109154136Y-96491027D01*
X108995515Y-96459476D01*
X108846098Y-96397585D01*
X108711626Y-96307734D01*
X108597266Y-96193374D01*
X108507415Y-96058902D01*
X108445524Y-95909485D01*
X108413973Y-95750864D01*
X108410000Y-95670000D01*
X108410000Y-95120000D01*
X108413973Y-95039136D01*
X108445524Y-94880515D01*
X108507415Y-94731098D01*
X108597266Y-94596626D01*
X108711626Y-94482266D01*
X108846098Y-94392415D01*
X108995515Y-94330524D01*
X109154136Y-94298973D01*
X109315864Y-94298973D01*
X109474485Y-94330524D01*
G37*
G36*
X116924485Y-94330524D02*
G01*
X117073902Y-94392415D01*
X117208374Y-94482266D01*
X117322734Y-94596626D01*
X117412585Y-94731098D01*
X117474476Y-94880515D01*
X117506027Y-95039136D01*
X117510000Y-95120000D01*
X117510000Y-95670000D01*
X117506027Y-95750864D01*
X117474476Y-95909485D01*
X117412585Y-96058902D01*
X117322734Y-96193374D01*
X117208374Y-96307734D01*
X117073902Y-96397585D01*
X116924485Y-96459476D01*
X116765864Y-96491027D01*
X116604136Y-96491027D01*
X116445515Y-96459476D01*
X116296098Y-96397585D01*
X116161626Y-96307734D01*
X116047266Y-96193374D01*
X115957415Y-96058902D01*
X115895524Y-95909485D01*
X115863973Y-95750864D01*
X115860000Y-95670000D01*
X115860000Y-95120000D01*
X115863973Y-95039136D01*
X115895524Y-94880515D01*
X115957415Y-94731098D01*
X116047266Y-94596626D01*
X116161626Y-94482266D01*
X116296098Y-94392415D01*
X116445515Y-94330524D01*
X116604136Y-94298973D01*
X116765864Y-94298973D01*
X116924485Y-94330524D01*
G37*
G36*
X111923268Y-94602612D02*
G01*
X111955711Y-94624289D01*
X111957106Y-94626377D01*
X111969833Y-94634881D01*
X112000167Y-94634881D01*
X112012893Y-94626377D01*
X112014289Y-94624289D01*
X112046732Y-94602612D01*
X112085000Y-94595000D01*
X112535000Y-94595000D01*
X112573268Y-94602612D01*
X112605711Y-94624289D01*
X112607106Y-94626377D01*
X112619833Y-94634881D01*
X112650167Y-94634881D01*
X112662893Y-94626377D01*
X112664289Y-94624289D01*
X112696732Y-94602612D01*
X112735000Y-94595000D01*
X113185000Y-94595000D01*
X113223268Y-94602612D01*
X113255711Y-94624289D01*
X113257106Y-94626377D01*
X113269833Y-94634881D01*
X113300167Y-94634881D01*
X113312893Y-94626377D01*
X113314289Y-94624289D01*
X113346732Y-94602612D01*
X113385000Y-94595000D01*
X113835000Y-94595000D01*
X113873268Y-94602612D01*
X113905711Y-94624289D01*
X113907106Y-94626377D01*
X113919833Y-94634881D01*
X113950167Y-94634881D01*
X113962893Y-94626377D01*
X113964289Y-94624289D01*
X113996732Y-94602612D01*
X114035000Y-94595000D01*
X114485000Y-94595000D01*
X114523268Y-94602612D01*
X114555711Y-94624289D01*
X114577388Y-94656732D01*
X114585000Y-94695000D01*
X114585000Y-95995000D01*
X114577388Y-96033268D01*
X114555711Y-96065711D01*
X114523268Y-96087388D01*
X114485000Y-96095000D01*
X114035000Y-96095000D01*
X113996732Y-96087388D01*
X113964289Y-96065711D01*
X113962892Y-96063621D01*
X113950167Y-96055118D01*
X113919833Y-96055118D01*
X113907107Y-96063620D01*
X113905711Y-96065711D01*
X113873268Y-96087388D01*
X113835000Y-96095000D01*
X113385000Y-96095000D01*
X113346732Y-96087388D01*
X113314289Y-96065711D01*
X113312892Y-96063621D01*
X113300167Y-96055118D01*
X113269833Y-96055118D01*
X113257107Y-96063620D01*
X113255711Y-96065711D01*
X113223268Y-96087388D01*
X113185000Y-96095000D01*
X112735000Y-96095000D01*
X112696732Y-96087388D01*
X112664289Y-96065711D01*
X112662892Y-96063621D01*
X112650167Y-96055118D01*
X112619833Y-96055118D01*
X112607107Y-96063620D01*
X112605711Y-96065711D01*
X112573268Y-96087388D01*
X112535000Y-96095000D01*
X112085000Y-96095000D01*
X112046732Y-96087388D01*
X112014289Y-96065711D01*
X112012892Y-96063621D01*
X112000167Y-96055118D01*
X111969833Y-96055118D01*
X111957107Y-96063620D01*
X111955711Y-96065711D01*
X111923268Y-96087388D01*
X111885000Y-96095000D01*
X111435000Y-96095000D01*
X111396732Y-96087388D01*
X111364289Y-96065711D01*
X111342612Y-96033268D01*
X111335000Y-95995000D01*
X111335000Y-94695000D01*
X111342612Y-94656732D01*
X111364289Y-94624289D01*
X111396732Y-94602612D01*
X111435000Y-94595000D01*
X111885000Y-94595000D01*
X111923268Y-94602612D01*
G37*
G36*
X118284116Y-92186074D02*
G01*
X118289447Y-92188560D01*
X118292061Y-92188941D01*
X118329201Y-92207097D01*
X118386412Y-92233776D01*
X118466224Y-92313588D01*
X118492912Y-92370821D01*
X118511058Y-92407938D01*
X118511438Y-92410549D01*
X118513926Y-92415884D01*
X118525000Y-92500000D01*
X118525000Y-93000000D01*
X118513926Y-93084116D01*
X118511438Y-93089450D01*
X118511058Y-93092061D01*
X118492922Y-93129157D01*
X118466224Y-93186412D01*
X118386412Y-93266224D01*
X118329157Y-93292922D01*
X118292061Y-93311058D01*
X118289450Y-93311438D01*
X118284116Y-93313926D01*
X118200000Y-93325000D01*
X117750000Y-93325000D01*
X117665884Y-93313926D01*
X117660549Y-93311438D01*
X117657938Y-93311058D01*
X117620821Y-93292912D01*
X117563588Y-93266224D01*
X117483776Y-93186412D01*
X117457097Y-93129201D01*
X117438941Y-93092061D01*
X117438560Y-93089447D01*
X117436074Y-93084116D01*
X117425000Y-93000000D01*
X117425000Y-92500000D01*
X117436074Y-92415884D01*
X117438560Y-92410552D01*
X117438941Y-92407938D01*
X117457108Y-92370776D01*
X117483776Y-92313588D01*
X117563588Y-92233776D01*
X117620776Y-92207108D01*
X117657938Y-92188941D01*
X117660552Y-92188560D01*
X117665884Y-92186074D01*
X117750000Y-92175000D01*
X118200000Y-92175000D01*
X118284116Y-92186074D01*
G37*
G36*
X119834116Y-92186074D02*
G01*
X119839447Y-92188560D01*
X119842061Y-92188941D01*
X119879201Y-92207097D01*
X119936412Y-92233776D01*
X120016224Y-92313588D01*
X120042912Y-92370821D01*
X120061058Y-92407938D01*
X120061438Y-92410549D01*
X120063926Y-92415884D01*
X120075000Y-92500000D01*
X120075000Y-93000000D01*
X120063926Y-93084116D01*
X120061438Y-93089450D01*
X120061058Y-93092061D01*
X120042922Y-93129157D01*
X120016224Y-93186412D01*
X119936412Y-93266224D01*
X119879157Y-93292922D01*
X119842061Y-93311058D01*
X119839450Y-93311438D01*
X119834116Y-93313926D01*
X119750000Y-93325000D01*
X119300000Y-93325000D01*
X119215884Y-93313926D01*
X119210549Y-93311438D01*
X119207938Y-93311058D01*
X119170821Y-93292912D01*
X119113588Y-93266224D01*
X119033776Y-93186412D01*
X119007097Y-93129201D01*
X118988941Y-93092061D01*
X118988560Y-93089447D01*
X118986074Y-93084116D01*
X118975000Y-93000000D01*
X118975000Y-92500000D01*
X118986074Y-92415884D01*
X118988560Y-92410552D01*
X118988941Y-92407938D01*
X119007108Y-92370776D01*
X119033776Y-92313588D01*
X119113588Y-92233776D01*
X119170776Y-92207108D01*
X119207938Y-92188941D01*
X119210552Y-92188560D01*
X119215884Y-92186074D01*
X119300000Y-92175000D01*
X119750000Y-92175000D01*
X119834116Y-92186074D01*
G37*
G36*
X116593685Y-92157969D02*
G01*
X116602358Y-92161798D01*
X116609925Y-92162901D01*
X116657223Y-92186023D01*
X116694541Y-92202501D01*
X116697996Y-92205956D01*
X116698920Y-92206408D01*
X116768591Y-92276079D01*
X116769042Y-92277002D01*
X116772499Y-92280459D01*
X116788978Y-92317782D01*
X116812098Y-92365073D01*
X116813200Y-92372639D01*
X116817031Y-92381315D01*
X116825000Y-92450000D01*
X116825000Y-92850000D01*
X116817031Y-92918685D01*
X116813199Y-92927361D01*
X116812098Y-92934925D01*
X116788985Y-92982202D01*
X116772499Y-93019541D01*
X116769041Y-93022998D01*
X116768591Y-93023920D01*
X116698920Y-93093591D01*
X116697998Y-93094041D01*
X116694541Y-93097499D01*
X116657207Y-93113983D01*
X116609926Y-93137098D01*
X116602361Y-93138200D01*
X116593685Y-93142031D01*
X116525000Y-93150000D01*
X115975000Y-93150000D01*
X115906315Y-93142031D01*
X115897638Y-93138200D01*
X115890074Y-93137098D01*
X115842787Y-93113981D01*
X115805459Y-93097499D01*
X115802002Y-93094042D01*
X115801079Y-93093591D01*
X115731408Y-93023920D01*
X115730956Y-93022996D01*
X115727501Y-93019541D01*
X115711025Y-92982228D01*
X115687901Y-92934926D01*
X115686798Y-92927357D01*
X115682969Y-92918685D01*
X115675000Y-92850000D01*
X115675000Y-92450000D01*
X115682969Y-92381315D01*
X115686798Y-92372642D01*
X115687901Y-92365074D01*
X115711028Y-92317766D01*
X115727501Y-92280459D01*
X115730955Y-92277004D01*
X115731408Y-92276079D01*
X115801079Y-92206408D01*
X115802004Y-92205955D01*
X115805459Y-92202501D01*
X115842761Y-92186030D01*
X115890073Y-92162901D01*
X115897642Y-92161798D01*
X115906315Y-92157969D01*
X115975000Y-92150000D01*
X116525000Y-92150000D01*
X116593685Y-92157969D01*
G37*
G36*
X109454047Y-91488305D02*
G01*
X109505408Y-91494264D01*
X109522954Y-91502011D01*
X109545671Y-91506530D01*
X109569991Y-91522780D01*
X109590793Y-91531965D01*
X109605000Y-91546172D01*
X109626777Y-91560723D01*
X109641327Y-91582499D01*
X109655534Y-91596706D01*
X109664718Y-91617506D01*
X109680970Y-91641829D01*
X109685489Y-91664548D01*
X109693235Y-91682091D01*
X109699192Y-91733440D01*
X109700000Y-91737500D01*
X109700000Y-92762500D01*
X109699192Y-92766559D01*
X109693235Y-92817908D01*
X109685489Y-92835450D01*
X109680970Y-92858171D01*
X109664716Y-92882495D01*
X109655534Y-92903293D01*
X109641329Y-92917497D01*
X109626777Y-92939277D01*
X109604997Y-92953829D01*
X109590793Y-92968034D01*
X109569995Y-92977216D01*
X109545671Y-92993470D01*
X109522950Y-92997989D01*
X109505408Y-93005735D01*
X109454061Y-93011692D01*
X109450000Y-93012500D01*
X109150000Y-93012500D01*
X109145941Y-93011692D01*
X109094591Y-93005735D01*
X109077048Y-92997989D01*
X109054329Y-92993470D01*
X109030006Y-92977218D01*
X109009206Y-92968034D01*
X108994999Y-92953827D01*
X108973223Y-92939277D01*
X108958672Y-92917500D01*
X108944465Y-92903293D01*
X108935280Y-92882491D01*
X108919030Y-92858171D01*
X108914511Y-92835454D01*
X108906764Y-92817908D01*
X108900805Y-92766549D01*
X108900000Y-92762500D01*
X108900000Y-91737500D01*
X108900804Y-91733453D01*
X108906764Y-91682091D01*
X108914511Y-91664543D01*
X108919030Y-91641829D01*
X108935278Y-91617510D01*
X108944465Y-91596706D01*
X108958674Y-91582496D01*
X108973223Y-91560723D01*
X108994996Y-91546174D01*
X109009206Y-91531965D01*
X109030010Y-91522778D01*
X109054329Y-91506530D01*
X109077043Y-91502011D01*
X109094591Y-91494264D01*
X109145952Y-91488305D01*
X109150000Y-91487500D01*
X109450000Y-91487500D01*
X109454047Y-91488305D01*
G37*
G36*
X110404047Y-91488305D02*
G01*
X110455408Y-91494264D01*
X110472954Y-91502011D01*
X110495671Y-91506530D01*
X110519991Y-91522780D01*
X110540793Y-91531965D01*
X110555000Y-91546172D01*
X110576777Y-91560723D01*
X110591327Y-91582499D01*
X110605534Y-91596706D01*
X110614718Y-91617506D01*
X110630970Y-91641829D01*
X110635489Y-91664548D01*
X110643235Y-91682091D01*
X110649192Y-91733440D01*
X110650000Y-91737500D01*
X110650000Y-92762500D01*
X110649192Y-92766559D01*
X110643235Y-92817908D01*
X110635489Y-92835450D01*
X110630970Y-92858171D01*
X110614716Y-92882495D01*
X110605534Y-92903293D01*
X110591329Y-92917497D01*
X110576777Y-92939277D01*
X110554997Y-92953829D01*
X110540793Y-92968034D01*
X110519995Y-92977216D01*
X110495671Y-92993470D01*
X110472950Y-92997989D01*
X110455408Y-93005735D01*
X110404061Y-93011692D01*
X110400000Y-93012500D01*
X110100000Y-93012500D01*
X110095941Y-93011692D01*
X110044591Y-93005735D01*
X110027048Y-92997989D01*
X110004329Y-92993470D01*
X109980006Y-92977218D01*
X109959206Y-92968034D01*
X109944999Y-92953827D01*
X109923223Y-92939277D01*
X109908672Y-92917500D01*
X109894465Y-92903293D01*
X109885280Y-92882491D01*
X109869030Y-92858171D01*
X109864511Y-92835454D01*
X109856764Y-92817908D01*
X109850805Y-92766549D01*
X109850000Y-92762500D01*
X109850000Y-91737500D01*
X109850804Y-91733453D01*
X109856764Y-91682091D01*
X109864511Y-91664543D01*
X109869030Y-91641829D01*
X109885278Y-91617510D01*
X109894465Y-91596706D01*
X109908674Y-91582496D01*
X109923223Y-91560723D01*
X109944996Y-91546174D01*
X109959206Y-91531965D01*
X109980010Y-91522778D01*
X110004329Y-91506530D01*
X110027043Y-91502011D01*
X110044591Y-91494264D01*
X110095952Y-91488305D01*
X110100000Y-91487500D01*
X110400000Y-91487500D01*
X110404047Y-91488305D01*
G37*
G36*
X111354047Y-91488305D02*
G01*
X111405408Y-91494264D01*
X111422954Y-91502011D01*
X111445671Y-91506530D01*
X111469991Y-91522780D01*
X111490793Y-91531965D01*
X111505000Y-91546172D01*
X111526777Y-91560723D01*
X111541327Y-91582499D01*
X111555534Y-91596706D01*
X111564718Y-91617506D01*
X111580970Y-91641829D01*
X111585489Y-91664548D01*
X111593235Y-91682091D01*
X111599192Y-91733440D01*
X111600000Y-91737500D01*
X111600000Y-92762500D01*
X111599192Y-92766559D01*
X111593235Y-92817908D01*
X111585489Y-92835450D01*
X111580970Y-92858171D01*
X111564716Y-92882495D01*
X111555534Y-92903293D01*
X111541329Y-92917497D01*
X111526777Y-92939277D01*
X111504997Y-92953829D01*
X111490793Y-92968034D01*
X111469995Y-92977216D01*
X111445671Y-92993470D01*
X111422950Y-92997989D01*
X111405408Y-93005735D01*
X111354061Y-93011692D01*
X111350000Y-93012500D01*
X111050000Y-93012500D01*
X111045941Y-93011692D01*
X110994591Y-93005735D01*
X110977048Y-92997989D01*
X110954329Y-92993470D01*
X110930006Y-92977218D01*
X110909206Y-92968034D01*
X110894999Y-92953827D01*
X110873223Y-92939277D01*
X110858672Y-92917500D01*
X110844465Y-92903293D01*
X110835280Y-92882491D01*
X110819030Y-92858171D01*
X110814511Y-92835454D01*
X110806764Y-92817908D01*
X110800805Y-92766549D01*
X110800000Y-92762500D01*
X110800000Y-91737500D01*
X110800804Y-91733453D01*
X110806764Y-91682091D01*
X110814511Y-91664543D01*
X110819030Y-91641829D01*
X110835278Y-91617510D01*
X110844465Y-91596706D01*
X110858674Y-91582496D01*
X110873223Y-91560723D01*
X110894996Y-91546174D01*
X110909206Y-91531965D01*
X110930010Y-91522778D01*
X110954329Y-91506530D01*
X110977043Y-91502011D01*
X110994591Y-91494264D01*
X111045952Y-91488305D01*
X111050000Y-91487500D01*
X111350000Y-91487500D01*
X111354047Y-91488305D01*
G37*
G36*
X118309116Y-90436074D02*
G01*
X118314447Y-90438560D01*
X118317061Y-90438941D01*
X118354201Y-90457097D01*
X118411412Y-90483776D01*
X118491224Y-90563588D01*
X118517912Y-90620821D01*
X118536058Y-90657938D01*
X118536438Y-90660549D01*
X118538926Y-90665884D01*
X118550000Y-90750000D01*
X118550000Y-91250000D01*
X118538926Y-91334116D01*
X118536438Y-91339450D01*
X118536058Y-91342061D01*
X118517922Y-91379157D01*
X118491224Y-91436412D01*
X118411412Y-91516224D01*
X118354157Y-91542922D01*
X118317061Y-91561058D01*
X118314450Y-91561438D01*
X118309116Y-91563926D01*
X118225000Y-91575000D01*
X117775000Y-91575000D01*
X117690884Y-91563926D01*
X117685549Y-91561438D01*
X117682938Y-91561058D01*
X117645821Y-91542912D01*
X117588588Y-91516224D01*
X117508776Y-91436412D01*
X117482097Y-91379201D01*
X117463941Y-91342061D01*
X117463560Y-91339447D01*
X117461074Y-91334116D01*
X117450000Y-91250000D01*
X117450000Y-90750000D01*
X117461074Y-90665884D01*
X117463560Y-90660552D01*
X117463941Y-90657938D01*
X117482108Y-90620776D01*
X117508776Y-90563588D01*
X117588588Y-90483776D01*
X117645776Y-90457108D01*
X117682938Y-90438941D01*
X117685552Y-90438560D01*
X117690884Y-90436074D01*
X117775000Y-90425000D01*
X118225000Y-90425000D01*
X118309116Y-90436074D01*
G37*
G36*
X119859116Y-90436074D02*
G01*
X119864447Y-90438560D01*
X119867061Y-90438941D01*
X119904201Y-90457097D01*
X119961412Y-90483776D01*
X120041224Y-90563588D01*
X120067912Y-90620821D01*
X120086058Y-90657938D01*
X120086438Y-90660549D01*
X120088926Y-90665884D01*
X120100000Y-90750000D01*
X120100000Y-91250000D01*
X120088926Y-91334116D01*
X120086438Y-91339450D01*
X120086058Y-91342061D01*
X120067922Y-91379157D01*
X120041224Y-91436412D01*
X119961412Y-91516224D01*
X119904157Y-91542922D01*
X119867061Y-91561058D01*
X119864450Y-91561438D01*
X119859116Y-91563926D01*
X119775000Y-91575000D01*
X119325000Y-91575000D01*
X119240884Y-91563926D01*
X119235549Y-91561438D01*
X119232938Y-91561058D01*
X119195821Y-91542912D01*
X119138588Y-91516224D01*
X119058776Y-91436412D01*
X119032097Y-91379201D01*
X119013941Y-91342061D01*
X119013560Y-91339447D01*
X119011074Y-91334116D01*
X119000000Y-91250000D01*
X119000000Y-90750000D01*
X119011074Y-90665884D01*
X119013560Y-90660552D01*
X119013941Y-90657938D01*
X119032108Y-90620776D01*
X119058776Y-90563588D01*
X119138588Y-90483776D01*
X119195776Y-90457108D01*
X119232938Y-90438941D01*
X119235552Y-90438560D01*
X119240884Y-90436074D01*
X119325000Y-90425000D01*
X119775000Y-90425000D01*
X119859116Y-90436074D01*
G37*
G36*
X116593685Y-90507969D02*
G01*
X116602358Y-90511798D01*
X116609925Y-90512901D01*
X116657223Y-90536023D01*
X116694541Y-90552501D01*
X116697996Y-90555956D01*
X116698920Y-90556408D01*
X116768591Y-90626079D01*
X116769042Y-90627002D01*
X116772499Y-90630459D01*
X116788978Y-90667782D01*
X116812098Y-90715073D01*
X116813200Y-90722639D01*
X116817031Y-90731315D01*
X116825000Y-90800000D01*
X116825000Y-91200000D01*
X116817031Y-91268685D01*
X116813199Y-91277361D01*
X116812098Y-91284925D01*
X116788985Y-91332202D01*
X116772499Y-91369541D01*
X116769041Y-91372998D01*
X116768591Y-91373920D01*
X116698920Y-91443591D01*
X116697998Y-91444041D01*
X116694541Y-91447499D01*
X116657207Y-91463983D01*
X116609926Y-91487098D01*
X116602361Y-91488200D01*
X116593685Y-91492031D01*
X116525000Y-91500000D01*
X115975000Y-91500000D01*
X115906315Y-91492031D01*
X115897638Y-91488200D01*
X115890074Y-91487098D01*
X115842787Y-91463981D01*
X115805459Y-91447499D01*
X115802002Y-91444042D01*
X115801079Y-91443591D01*
X115731408Y-91373920D01*
X115730956Y-91372996D01*
X115727501Y-91369541D01*
X115711025Y-91332228D01*
X115687901Y-91284926D01*
X115686798Y-91277357D01*
X115682969Y-91268685D01*
X115675000Y-91200000D01*
X115675000Y-90800000D01*
X115682969Y-90731315D01*
X115686798Y-90722642D01*
X115687901Y-90715074D01*
X115711028Y-90667766D01*
X115727501Y-90630459D01*
X115730955Y-90627004D01*
X115731408Y-90626079D01*
X115801079Y-90556408D01*
X115802004Y-90555955D01*
X115805459Y-90552501D01*
X115842761Y-90536030D01*
X115890073Y-90512901D01*
X115897642Y-90511798D01*
X115906315Y-90507969D01*
X115975000Y-90500000D01*
X116525000Y-90500000D01*
X116593685Y-90507969D01*
G37*
G36*
X109454047Y-89213305D02*
G01*
X109505408Y-89219264D01*
X109522954Y-89227011D01*
X109545671Y-89231530D01*
X109569991Y-89247780D01*
X109590793Y-89256965D01*
X109605000Y-89271172D01*
X109626777Y-89285723D01*
X109641327Y-89307499D01*
X109655534Y-89321706D01*
X109664718Y-89342506D01*
X109680970Y-89366829D01*
X109685489Y-89389548D01*
X109693235Y-89407091D01*
X109699192Y-89458440D01*
X109700000Y-89462500D01*
X109700000Y-90487500D01*
X109699192Y-90491559D01*
X109693235Y-90542908D01*
X109685489Y-90560450D01*
X109680970Y-90583171D01*
X109664716Y-90607495D01*
X109655534Y-90628293D01*
X109641329Y-90642497D01*
X109626777Y-90664277D01*
X109604997Y-90678829D01*
X109590793Y-90693034D01*
X109569995Y-90702216D01*
X109545671Y-90718470D01*
X109522950Y-90722989D01*
X109505408Y-90730735D01*
X109454061Y-90736692D01*
X109450000Y-90737500D01*
X109150000Y-90737500D01*
X109145941Y-90736692D01*
X109094591Y-90730735D01*
X109077048Y-90722989D01*
X109054329Y-90718470D01*
X109030006Y-90702218D01*
X109009206Y-90693034D01*
X108994999Y-90678827D01*
X108973223Y-90664277D01*
X108958672Y-90642500D01*
X108944465Y-90628293D01*
X108935280Y-90607491D01*
X108919030Y-90583171D01*
X108914511Y-90560454D01*
X108906764Y-90542908D01*
X108900805Y-90491549D01*
X108900000Y-90487500D01*
X108900000Y-89462500D01*
X108900804Y-89458453D01*
X108906764Y-89407091D01*
X108914511Y-89389543D01*
X108919030Y-89366829D01*
X108935278Y-89342510D01*
X108944465Y-89321706D01*
X108958674Y-89307496D01*
X108973223Y-89285723D01*
X108994996Y-89271174D01*
X109009206Y-89256965D01*
X109030010Y-89247778D01*
X109054329Y-89231530D01*
X109077043Y-89227011D01*
X109094591Y-89219264D01*
X109145952Y-89213305D01*
X109150000Y-89212500D01*
X109450000Y-89212500D01*
X109454047Y-89213305D01*
G37*
G36*
X110404047Y-89213305D02*
G01*
X110455408Y-89219264D01*
X110472954Y-89227011D01*
X110495671Y-89231530D01*
X110519991Y-89247780D01*
X110540793Y-89256965D01*
X110555000Y-89271172D01*
X110576777Y-89285723D01*
X110591327Y-89307499D01*
X110605534Y-89321706D01*
X110614718Y-89342506D01*
X110630970Y-89366829D01*
X110635489Y-89389548D01*
X110643235Y-89407091D01*
X110649192Y-89458440D01*
X110650000Y-89462500D01*
X110650000Y-90487500D01*
X110649192Y-90491559D01*
X110643235Y-90542908D01*
X110635489Y-90560450D01*
X110630970Y-90583171D01*
X110614716Y-90607495D01*
X110605534Y-90628293D01*
X110591329Y-90642497D01*
X110576777Y-90664277D01*
X110554997Y-90678829D01*
X110540793Y-90693034D01*
X110519995Y-90702216D01*
X110495671Y-90718470D01*
X110472950Y-90722989D01*
X110455408Y-90730735D01*
X110404061Y-90736692D01*
X110400000Y-90737500D01*
X110100000Y-90737500D01*
X110095941Y-90736692D01*
X110044591Y-90730735D01*
X110027048Y-90722989D01*
X110004329Y-90718470D01*
X109980006Y-90702218D01*
X109959206Y-90693034D01*
X109944999Y-90678827D01*
X109923223Y-90664277D01*
X109908672Y-90642500D01*
X109894465Y-90628293D01*
X109885280Y-90607491D01*
X109869030Y-90583171D01*
X109864511Y-90560454D01*
X109856764Y-90542908D01*
X109850805Y-90491549D01*
X109850000Y-90487500D01*
X109850000Y-89462500D01*
X109850804Y-89458453D01*
X109856764Y-89407091D01*
X109864511Y-89389543D01*
X109869030Y-89366829D01*
X109885278Y-89342510D01*
X109894465Y-89321706D01*
X109908674Y-89307496D01*
X109923223Y-89285723D01*
X109944996Y-89271174D01*
X109959206Y-89256965D01*
X109980010Y-89247778D01*
X110004329Y-89231530D01*
X110027043Y-89227011D01*
X110044591Y-89219264D01*
X110095952Y-89213305D01*
X110100000Y-89212500D01*
X110400000Y-89212500D01*
X110404047Y-89213305D01*
G37*
G36*
X111354047Y-89213305D02*
G01*
X111405408Y-89219264D01*
X111422954Y-89227011D01*
X111445671Y-89231530D01*
X111469991Y-89247780D01*
X111490793Y-89256965D01*
X111505000Y-89271172D01*
X111526777Y-89285723D01*
X111541327Y-89307499D01*
X111555534Y-89321706D01*
X111564718Y-89342506D01*
X111580970Y-89366829D01*
X111585489Y-89389548D01*
X111593235Y-89407091D01*
X111599192Y-89458440D01*
X111600000Y-89462500D01*
X111600000Y-90487500D01*
X111599192Y-90491559D01*
X111593235Y-90542908D01*
X111585489Y-90560450D01*
X111580970Y-90583171D01*
X111564716Y-90607495D01*
X111555534Y-90628293D01*
X111541329Y-90642497D01*
X111526777Y-90664277D01*
X111504997Y-90678829D01*
X111490793Y-90693034D01*
X111469995Y-90702216D01*
X111445671Y-90718470D01*
X111422950Y-90722989D01*
X111405408Y-90730735D01*
X111354061Y-90736692D01*
X111350000Y-90737500D01*
X111050000Y-90737500D01*
X111045941Y-90736692D01*
X110994591Y-90730735D01*
X110977048Y-90722989D01*
X110954329Y-90718470D01*
X110930006Y-90702218D01*
X110909206Y-90693034D01*
X110894999Y-90678827D01*
X110873223Y-90664277D01*
X110858672Y-90642500D01*
X110844465Y-90628293D01*
X110835280Y-90607491D01*
X110819030Y-90583171D01*
X110814511Y-90560454D01*
X110806764Y-90542908D01*
X110800805Y-90491549D01*
X110800000Y-90487500D01*
X110800000Y-89462500D01*
X110800804Y-89458453D01*
X110806764Y-89407091D01*
X110814511Y-89389543D01*
X110819030Y-89366829D01*
X110835278Y-89342510D01*
X110844465Y-89321706D01*
X110858674Y-89307496D01*
X110873223Y-89285723D01*
X110894996Y-89271174D01*
X110909206Y-89256965D01*
X110930010Y-89247778D01*
X110954329Y-89231530D01*
X110977043Y-89227011D01*
X110994591Y-89219264D01*
X111045952Y-89213305D01*
X111050000Y-89212500D01*
X111350000Y-89212500D01*
X111354047Y-89213305D01*
G37*
G36*
X121084116Y-88761074D02*
G01*
X121089447Y-88763560D01*
X121092061Y-88763941D01*
X121129201Y-88782097D01*
X121186412Y-88808776D01*
X121266224Y-88888588D01*
X121292912Y-88945821D01*
X121311058Y-88982938D01*
X121311438Y-88985549D01*
X121313926Y-88990884D01*
X121325000Y-89075000D01*
X121325000Y-89525000D01*
X121313926Y-89609116D01*
X121311438Y-89614450D01*
X121311058Y-89617061D01*
X121292922Y-89654157D01*
X121266224Y-89711412D01*
X121186412Y-89791224D01*
X121129157Y-89817922D01*
X121092061Y-89836058D01*
X121089450Y-89836438D01*
X121084116Y-89838926D01*
X121000000Y-89850000D01*
X120500000Y-89850000D01*
X120415884Y-89838926D01*
X120410549Y-89836438D01*
X120407938Y-89836058D01*
X120370821Y-89817912D01*
X120313588Y-89791224D01*
X120233776Y-89711412D01*
X120207097Y-89654201D01*
X120188941Y-89617061D01*
X120188560Y-89614447D01*
X120186074Y-89609116D01*
X120175000Y-89525000D01*
X120175000Y-89075000D01*
X120186074Y-88990884D01*
X120188560Y-88985552D01*
X120188941Y-88982938D01*
X120207108Y-88945776D01*
X120233776Y-88888588D01*
X120313588Y-88808776D01*
X120370776Y-88782108D01*
X120407938Y-88763941D01*
X120410552Y-88763560D01*
X120415884Y-88761074D01*
X120500000Y-88750000D01*
X121000000Y-88750000D01*
X121084116Y-88761074D01*
G37*
G36*
X101875770Y-87990907D02*
G01*
X102047827Y-88062175D01*
X102202674Y-88165640D01*
X102334360Y-88297326D01*
X102437825Y-88452173D01*
X102509093Y-88624230D01*
X102545425Y-88806884D01*
X102545425Y-88993116D01*
X102509093Y-89175770D01*
X102437825Y-89347827D01*
X102334360Y-89502674D01*
X102202674Y-89634360D01*
X102047827Y-89737825D01*
X101875770Y-89809093D01*
X101693116Y-89845425D01*
X101506884Y-89845425D01*
X101324230Y-89809093D01*
X101152173Y-89737825D01*
X100997326Y-89634360D01*
X100865640Y-89502674D01*
X100762175Y-89347827D01*
X100690907Y-89175770D01*
X100654575Y-88993116D01*
X100654575Y-88806884D01*
X100690907Y-88624230D01*
X100762175Y-88452173D01*
X100865640Y-88297326D01*
X100997326Y-88165640D01*
X101152173Y-88062175D01*
X101324230Y-87990907D01*
X101506884Y-87954575D01*
X101693116Y-87954575D01*
X101875770Y-87990907D01*
G37*
G36*
X124735770Y-87990907D02*
G01*
X124907827Y-88062175D01*
X125062674Y-88165640D01*
X125194360Y-88297326D01*
X125297825Y-88452173D01*
X125369093Y-88624230D01*
X125405425Y-88806884D01*
X125405425Y-88993116D01*
X125369093Y-89175770D01*
X125297825Y-89347827D01*
X125194360Y-89502674D01*
X125062674Y-89634360D01*
X124907827Y-89737825D01*
X124735770Y-89809093D01*
X124553116Y-89845425D01*
X124366884Y-89845425D01*
X124184230Y-89809093D01*
X124012173Y-89737825D01*
X123857326Y-89634360D01*
X123725640Y-89502674D01*
X123622175Y-89347827D01*
X123550907Y-89175770D01*
X123514575Y-88993116D01*
X123514575Y-88806884D01*
X123550907Y-88624230D01*
X123622175Y-88452173D01*
X123725640Y-88297326D01*
X123857326Y-88165640D01*
X124012173Y-88062175D01*
X124184230Y-87990907D01*
X124366884Y-87954575D01*
X124553116Y-87954575D01*
X124735770Y-87990907D01*
G37*
G36*
X117474868Y-87839550D02*
G01*
X117480586Y-87842345D01*
X117482962Y-87842722D01*
X117520987Y-87862096D01*
X117578377Y-87890153D01*
X117659847Y-87971623D01*
X117687907Y-88029020D01*
X117707276Y-88067034D01*
X117707652Y-88069408D01*
X117710450Y-88075132D01*
X117725000Y-88175000D01*
X117725000Y-88925000D01*
X117710450Y-89024868D01*
X117707652Y-89030589D01*
X117707277Y-89032962D01*
X117687926Y-89070939D01*
X117659847Y-89128377D01*
X117578377Y-89209847D01*
X117520955Y-89237919D01*
X117482965Y-89257276D01*
X117480591Y-89257651D01*
X117474868Y-89260450D01*
X117375000Y-89275000D01*
X116125000Y-89275000D01*
X116025132Y-89260450D01*
X116019410Y-89257652D01*
X116017037Y-89257277D01*
X115979035Y-89237914D01*
X115921623Y-89209847D01*
X115840153Y-89128377D01*
X115812104Y-89071003D01*
X115792723Y-89032965D01*
X115792346Y-89030588D01*
X115789550Y-89024868D01*
X115775000Y-88925000D01*
X115775000Y-88175000D01*
X115789550Y-88075132D01*
X115792345Y-88069413D01*
X115792722Y-88067037D01*
X115812108Y-88028987D01*
X115840153Y-87971623D01*
X115921623Y-87890153D01*
X115978971Y-87862116D01*
X116017034Y-87842723D01*
X116019411Y-87842346D01*
X116025132Y-87839550D01*
X116125000Y-87825000D01*
X117375000Y-87825000D01*
X117474868Y-87839550D01*
G37*
G36*
X114818685Y-88157969D02*
G01*
X114827358Y-88161798D01*
X114834925Y-88162901D01*
X114882223Y-88186023D01*
X114919541Y-88202501D01*
X114922996Y-88205956D01*
X114923920Y-88206408D01*
X114993591Y-88276079D01*
X114994042Y-88277002D01*
X114997499Y-88280459D01*
X115013978Y-88317782D01*
X115037098Y-88365073D01*
X115038200Y-88372639D01*
X115042031Y-88381315D01*
X115050000Y-88450000D01*
X115050000Y-88850000D01*
X115042031Y-88918685D01*
X115038199Y-88927361D01*
X115037098Y-88934925D01*
X115013985Y-88982202D01*
X114997499Y-89019541D01*
X114994041Y-89022998D01*
X114993591Y-89023920D01*
X114923920Y-89093591D01*
X114922998Y-89094041D01*
X114919541Y-89097499D01*
X114882207Y-89113983D01*
X114834926Y-89137098D01*
X114827361Y-89138200D01*
X114818685Y-89142031D01*
X114750000Y-89150000D01*
X114200000Y-89150000D01*
X114131315Y-89142031D01*
X114122638Y-89138200D01*
X114115074Y-89137098D01*
X114067787Y-89113981D01*
X114030459Y-89097499D01*
X114027002Y-89094042D01*
X114026079Y-89093591D01*
X113956408Y-89023920D01*
X113955956Y-89022996D01*
X113952501Y-89019541D01*
X113936025Y-88982228D01*
X113912901Y-88934926D01*
X113911798Y-88927357D01*
X113907969Y-88918685D01*
X113900000Y-88850000D01*
X113900000Y-88450000D01*
X113907969Y-88381315D01*
X113911798Y-88372642D01*
X113912901Y-88365074D01*
X113936028Y-88317766D01*
X113952501Y-88280459D01*
X113955955Y-88277004D01*
X113956408Y-88276079D01*
X114026079Y-88206408D01*
X114027004Y-88205955D01*
X114030459Y-88202501D01*
X114067761Y-88186030D01*
X114115073Y-88162901D01*
X114122642Y-88161798D01*
X114131315Y-88157969D01*
X114200000Y-88150000D01*
X114750000Y-88150000D01*
X114818685Y-88157969D01*
G37*
G36*
X121084116Y-87211074D02*
G01*
X121089447Y-87213560D01*
X121092061Y-87213941D01*
X121129201Y-87232097D01*
X121186412Y-87258776D01*
X121266224Y-87338588D01*
X121292912Y-87395821D01*
X121311058Y-87432938D01*
X121311438Y-87435549D01*
X121313926Y-87440884D01*
X121325000Y-87525000D01*
X121325000Y-87975000D01*
X121313926Y-88059116D01*
X121311438Y-88064450D01*
X121311058Y-88067061D01*
X121292922Y-88104157D01*
X121266224Y-88161412D01*
X121186412Y-88241224D01*
X121129157Y-88267922D01*
X121092061Y-88286058D01*
X121089450Y-88286438D01*
X121084116Y-88288926D01*
X121000000Y-88300000D01*
X120500000Y-88300000D01*
X120415884Y-88288926D01*
X120410549Y-88286438D01*
X120407938Y-88286058D01*
X120370821Y-88267912D01*
X120313588Y-88241224D01*
X120233776Y-88161412D01*
X120207097Y-88104201D01*
X120188941Y-88067061D01*
X120188560Y-88064447D01*
X120186074Y-88059116D01*
X120175000Y-87975000D01*
X120175000Y-87525000D01*
X120186074Y-87440884D01*
X120188560Y-87435552D01*
X120188941Y-87432938D01*
X120207108Y-87395776D01*
X120233776Y-87338588D01*
X120313588Y-87258776D01*
X120370776Y-87232108D01*
X120407938Y-87213941D01*
X120410552Y-87213560D01*
X120415884Y-87211074D01*
X120500000Y-87200000D01*
X121000000Y-87200000D01*
X121084116Y-87211074D01*
G37*
G36*
X119334116Y-86486074D02*
G01*
X119339447Y-86488560D01*
X119342061Y-86488941D01*
X119379201Y-86507097D01*
X119436412Y-86533776D01*
X119516224Y-86613588D01*
X119542912Y-86670821D01*
X119561058Y-86707938D01*
X119561438Y-86710549D01*
X119563926Y-86715884D01*
X119575000Y-86800000D01*
X119575000Y-87250000D01*
X119563926Y-87334116D01*
X119561438Y-87339450D01*
X119561058Y-87342061D01*
X119542922Y-87379157D01*
X119516224Y-87436412D01*
X119436412Y-87516224D01*
X119379157Y-87542922D01*
X119342061Y-87561058D01*
X119339450Y-87561438D01*
X119334116Y-87563926D01*
X119250000Y-87575000D01*
X118750000Y-87575000D01*
X118665884Y-87563926D01*
X118660549Y-87561438D01*
X118657938Y-87561058D01*
X118620821Y-87542912D01*
X118563588Y-87516224D01*
X118483776Y-87436412D01*
X118457097Y-87379201D01*
X118438941Y-87342061D01*
X118438560Y-87339447D01*
X118436074Y-87334116D01*
X118425000Y-87250000D01*
X118425000Y-86800000D01*
X118436074Y-86715884D01*
X118438560Y-86710552D01*
X118438941Y-86707938D01*
X118457108Y-86670776D01*
X118483776Y-86613588D01*
X118563588Y-86533776D01*
X118620776Y-86507108D01*
X118657938Y-86488941D01*
X118660552Y-86488560D01*
X118665884Y-86486074D01*
X118750000Y-86475000D01*
X119250000Y-86475000D01*
X119334116Y-86486074D01*
G37*
G36*
X114818685Y-86507969D02*
G01*
X114827358Y-86511798D01*
X114834925Y-86512901D01*
X114882223Y-86536023D01*
X114919541Y-86552501D01*
X114922996Y-86555956D01*
X114923920Y-86556408D01*
X114993591Y-86626079D01*
X114994042Y-86627002D01*
X114997499Y-86630459D01*
X115013978Y-86667782D01*
X115037098Y-86715073D01*
X115038200Y-86722639D01*
X115042031Y-86731315D01*
X115050000Y-86800000D01*
X115050000Y-87200000D01*
X115042031Y-87268685D01*
X115038199Y-87277361D01*
X115037098Y-87284925D01*
X115013985Y-87332202D01*
X114997499Y-87369541D01*
X114994041Y-87372998D01*
X114993591Y-87373920D01*
X114923920Y-87443591D01*
X114922998Y-87444041D01*
X114919541Y-87447499D01*
X114882207Y-87463983D01*
X114834926Y-87487098D01*
X114827361Y-87488200D01*
X114818685Y-87492031D01*
X114750000Y-87500000D01*
X114200000Y-87500000D01*
X114131315Y-87492031D01*
X114122638Y-87488200D01*
X114115074Y-87487098D01*
X114067787Y-87463981D01*
X114030459Y-87447499D01*
X114027002Y-87444042D01*
X114026079Y-87443591D01*
X113956408Y-87373920D01*
X113955956Y-87372996D01*
X113952501Y-87369541D01*
X113936025Y-87332228D01*
X113912901Y-87284926D01*
X113911798Y-87277357D01*
X113907969Y-87268685D01*
X113900000Y-87200000D01*
X113900000Y-86800000D01*
X113907969Y-86731315D01*
X113911798Y-86722642D01*
X113912901Y-86715074D01*
X113936028Y-86667766D01*
X113952501Y-86630459D01*
X113955955Y-86627004D01*
X113956408Y-86626079D01*
X114026079Y-86556408D01*
X114027004Y-86555955D01*
X114030459Y-86552501D01*
X114067761Y-86536030D01*
X114115073Y-86512901D01*
X114122642Y-86511798D01*
X114131315Y-86507969D01*
X114200000Y-86500000D01*
X114750000Y-86500000D01*
X114818685Y-86507969D01*
G37*
G36*
X101875770Y-85450907D02*
G01*
X102047827Y-85522175D01*
X102202674Y-85625640D01*
X102334360Y-85757326D01*
X102437825Y-85912173D01*
X102509093Y-86084230D01*
X102545425Y-86266884D01*
X102545425Y-86453116D01*
X102509093Y-86635770D01*
X102437825Y-86807827D01*
X102334360Y-86962674D01*
X102202674Y-87094360D01*
X102047827Y-87197825D01*
X101875770Y-87269093D01*
X101693116Y-87305425D01*
X101506884Y-87305425D01*
X101324230Y-87269093D01*
X101152173Y-87197825D01*
X100997326Y-87094360D01*
X100865640Y-86962674D01*
X100762175Y-86807827D01*
X100690907Y-86635770D01*
X100654575Y-86453116D01*
X100654575Y-86266884D01*
X100690907Y-86084230D01*
X100762175Y-85912173D01*
X100865640Y-85757326D01*
X100997326Y-85625640D01*
X101152173Y-85522175D01*
X101324230Y-85450907D01*
X101506884Y-85414575D01*
X101693116Y-85414575D01*
X101875770Y-85450907D01*
G37*
G36*
X124735770Y-85450907D02*
G01*
X124907827Y-85522175D01*
X125062674Y-85625640D01*
X125194360Y-85757326D01*
X125297825Y-85912173D01*
X125369093Y-86084230D01*
X125405425Y-86266884D01*
X125405425Y-86453116D01*
X125369093Y-86635770D01*
X125297825Y-86807827D01*
X125194360Y-86962674D01*
X125062674Y-87094360D01*
X124907827Y-87197825D01*
X124735770Y-87269093D01*
X124553116Y-87305425D01*
X124366884Y-87305425D01*
X124184230Y-87269093D01*
X124012173Y-87197825D01*
X123857326Y-87094360D01*
X123725640Y-86962674D01*
X123622175Y-86807827D01*
X123550907Y-86635770D01*
X123514575Y-86453116D01*
X123514575Y-86266884D01*
X123550907Y-86084230D01*
X123622175Y-85912173D01*
X123725640Y-85757326D01*
X123857326Y-85625640D01*
X124012173Y-85522175D01*
X124184230Y-85450907D01*
X124366884Y-85414575D01*
X124553116Y-85414575D01*
X124735770Y-85450907D01*
G37*
G36*
X106793908Y-86231274D02*
G01*
X106854224Y-86239215D01*
X106869398Y-86246290D01*
X106887954Y-86249982D01*
X106912534Y-86266405D01*
X106937619Y-86278103D01*
X106952877Y-86293361D01*
X106973116Y-86306884D01*
X106986638Y-86327122D01*
X107001896Y-86342380D01*
X107013592Y-86367462D01*
X107030018Y-86392046D01*
X107033709Y-86410603D01*
X107040784Y-86425775D01*
X107048722Y-86486074D01*
X107050000Y-86492500D01*
X107050000Y-86817500D01*
X107048722Y-86823923D01*
X107040784Y-86884224D01*
X107033709Y-86899394D01*
X107030018Y-86917954D01*
X107013590Y-86942539D01*
X107001896Y-86967619D01*
X106986640Y-86982874D01*
X106973116Y-87003116D01*
X106952874Y-87016640D01*
X106937619Y-87031896D01*
X106912539Y-87043590D01*
X106887954Y-87060018D01*
X106869394Y-87063709D01*
X106854224Y-87070784D01*
X106793923Y-87078722D01*
X106787500Y-87080000D01*
X105137500Y-87080000D01*
X105131078Y-87078722D01*
X105070775Y-87070784D01*
X105055603Y-87063709D01*
X105037046Y-87060018D01*
X105012462Y-87043592D01*
X104987380Y-87031896D01*
X104972122Y-87016638D01*
X104951884Y-87003116D01*
X104938361Y-86982877D01*
X104923103Y-86967619D01*
X104911405Y-86942534D01*
X104894982Y-86917954D01*
X104891290Y-86899398D01*
X104884215Y-86884224D01*
X104876274Y-86823908D01*
X104875000Y-86817500D01*
X104875000Y-86492500D01*
X104876274Y-86486093D01*
X104884215Y-86425775D01*
X104891291Y-86410599D01*
X104894982Y-86392046D01*
X104911404Y-86367467D01*
X104923103Y-86342380D01*
X104938363Y-86327119D01*
X104951884Y-86306884D01*
X104972119Y-86293363D01*
X104987380Y-86278103D01*
X105012467Y-86266404D01*
X105037046Y-86249982D01*
X105055599Y-86246291D01*
X105070775Y-86239215D01*
X105131093Y-86231274D01*
X105137500Y-86230000D01*
X106787500Y-86230000D01*
X106793908Y-86231274D01*
G37*
G36*
X111868908Y-86231274D02*
G01*
X111929224Y-86239215D01*
X111944398Y-86246290D01*
X111962954Y-86249982D01*
X111987534Y-86266405D01*
X112012619Y-86278103D01*
X112027877Y-86293361D01*
X112048116Y-86306884D01*
X112061638Y-86327122D01*
X112076896Y-86342380D01*
X112088592Y-86367462D01*
X112105018Y-86392046D01*
X112108709Y-86410603D01*
X112115784Y-86425775D01*
X112123722Y-86486074D01*
X112125000Y-86492500D01*
X112125000Y-86817500D01*
X112123722Y-86823923D01*
X112115784Y-86884224D01*
X112108709Y-86899394D01*
X112105018Y-86917954D01*
X112088590Y-86942539D01*
X112076896Y-86967619D01*
X112061640Y-86982874D01*
X112048116Y-87003116D01*
X112027874Y-87016640D01*
X112012619Y-87031896D01*
X111987539Y-87043590D01*
X111962954Y-87060018D01*
X111944394Y-87063709D01*
X111929224Y-87070784D01*
X111868923Y-87078722D01*
X111862500Y-87080000D01*
X110212500Y-87080000D01*
X110206078Y-87078722D01*
X110145775Y-87070784D01*
X110130603Y-87063709D01*
X110112046Y-87060018D01*
X110087462Y-87043592D01*
X110062380Y-87031896D01*
X110047122Y-87016638D01*
X110026884Y-87003116D01*
X110013361Y-86982877D01*
X109998103Y-86967619D01*
X109986405Y-86942534D01*
X109969982Y-86917954D01*
X109966290Y-86899398D01*
X109959215Y-86884224D01*
X109951274Y-86823908D01*
X109950000Y-86817500D01*
X109950000Y-86492500D01*
X109951274Y-86486093D01*
X109959215Y-86425775D01*
X109966291Y-86410599D01*
X109969982Y-86392046D01*
X109986404Y-86367467D01*
X109998103Y-86342380D01*
X110013363Y-86327119D01*
X110026884Y-86306884D01*
X110047119Y-86293363D01*
X110062380Y-86278103D01*
X110087467Y-86266404D01*
X110112046Y-86249982D01*
X110130599Y-86246291D01*
X110145775Y-86239215D01*
X110206093Y-86231274D01*
X110212500Y-86230000D01*
X111862500Y-86230000D01*
X111868908Y-86231274D01*
G37*
G36*
X117474868Y-85039550D02*
G01*
X117480586Y-85042345D01*
X117482962Y-85042722D01*
X117520987Y-85062096D01*
X117578377Y-85090153D01*
X117659847Y-85171623D01*
X117687907Y-85229020D01*
X117707276Y-85267034D01*
X117707652Y-85269408D01*
X117710450Y-85275132D01*
X117725000Y-85375000D01*
X117725000Y-86125000D01*
X117710450Y-86224868D01*
X117707652Y-86230589D01*
X117707277Y-86232962D01*
X117687926Y-86270939D01*
X117659847Y-86328377D01*
X117578377Y-86409847D01*
X117520955Y-86437919D01*
X117482965Y-86457276D01*
X117480591Y-86457651D01*
X117474868Y-86460450D01*
X117375000Y-86475000D01*
X116125000Y-86475000D01*
X116025132Y-86460450D01*
X116019410Y-86457652D01*
X116017037Y-86457277D01*
X115979035Y-86437914D01*
X115921623Y-86409847D01*
X115840153Y-86328377D01*
X115812104Y-86271003D01*
X115792723Y-86232965D01*
X115792346Y-86230588D01*
X115789550Y-86224868D01*
X115775000Y-86125000D01*
X115775000Y-85375000D01*
X115789550Y-85275132D01*
X115792345Y-85269413D01*
X115792722Y-85267037D01*
X115812108Y-85228987D01*
X115840153Y-85171623D01*
X115921623Y-85090153D01*
X115978971Y-85062116D01*
X116017034Y-85042723D01*
X116019411Y-85042346D01*
X116025132Y-85039550D01*
X116125000Y-85025000D01*
X117375000Y-85025000D01*
X117474868Y-85039550D01*
G37*
G36*
X119334116Y-84936074D02*
G01*
X119339447Y-84938560D01*
X119342061Y-84938941D01*
X119379201Y-84957097D01*
X119436412Y-84983776D01*
X119516224Y-85063588D01*
X119542912Y-85120821D01*
X119561058Y-85157938D01*
X119561438Y-85160549D01*
X119563926Y-85165884D01*
X119575000Y-85250000D01*
X119575000Y-85700000D01*
X119563926Y-85784116D01*
X119561438Y-85789450D01*
X119561058Y-85792061D01*
X119542922Y-85829157D01*
X119516224Y-85886412D01*
X119436412Y-85966224D01*
X119379157Y-85992922D01*
X119342061Y-86011058D01*
X119339450Y-86011438D01*
X119334116Y-86013926D01*
X119250000Y-86025000D01*
X118750000Y-86025000D01*
X118665884Y-86013926D01*
X118660549Y-86011438D01*
X118657938Y-86011058D01*
X118620821Y-85992912D01*
X118563588Y-85966224D01*
X118483776Y-85886412D01*
X118457097Y-85829201D01*
X118438941Y-85792061D01*
X118438560Y-85789447D01*
X118436074Y-85784116D01*
X118425000Y-85700000D01*
X118425000Y-85250000D01*
X118436074Y-85165884D01*
X118438560Y-85160552D01*
X118438941Y-85157938D01*
X118457108Y-85120776D01*
X118483776Y-85063588D01*
X118563588Y-84983776D01*
X118620776Y-84957108D01*
X118657938Y-84938941D01*
X118660552Y-84938560D01*
X118665884Y-84936074D01*
X118750000Y-84925000D01*
X119250000Y-84925000D01*
X119334116Y-84936074D01*
G37*
G36*
X106793908Y-84961274D02*
G01*
X106854224Y-84969215D01*
X106869398Y-84976290D01*
X106887954Y-84979982D01*
X106912534Y-84996405D01*
X106937619Y-85008103D01*
X106952877Y-85023361D01*
X106973116Y-85036884D01*
X106986638Y-85057122D01*
X107001896Y-85072380D01*
X107013592Y-85097462D01*
X107030018Y-85122046D01*
X107033709Y-85140603D01*
X107040784Y-85155775D01*
X107048722Y-85216078D01*
X107050000Y-85222500D01*
X107050000Y-85547500D01*
X107048722Y-85553923D01*
X107040784Y-85614224D01*
X107033709Y-85629394D01*
X107030018Y-85647954D01*
X107013590Y-85672539D01*
X107001896Y-85697619D01*
X106986640Y-85712874D01*
X106973116Y-85733116D01*
X106952874Y-85746640D01*
X106937619Y-85761896D01*
X106912539Y-85773590D01*
X106887954Y-85790018D01*
X106869394Y-85793709D01*
X106854224Y-85800784D01*
X106793923Y-85808722D01*
X106787500Y-85810000D01*
X105137500Y-85810000D01*
X105131078Y-85808722D01*
X105070775Y-85800784D01*
X105055603Y-85793709D01*
X105037046Y-85790018D01*
X105012462Y-85773592D01*
X104987380Y-85761896D01*
X104972122Y-85746638D01*
X104951884Y-85733116D01*
X104938361Y-85712877D01*
X104923103Y-85697619D01*
X104911405Y-85672534D01*
X104894982Y-85647954D01*
X104891290Y-85629398D01*
X104884215Y-85614224D01*
X104876274Y-85553908D01*
X104875000Y-85547500D01*
X104875000Y-85222500D01*
X104876274Y-85216093D01*
X104884215Y-85155775D01*
X104891291Y-85140599D01*
X104894982Y-85122046D01*
X104911404Y-85097467D01*
X104923103Y-85072380D01*
X104938363Y-85057119D01*
X104951884Y-85036884D01*
X104972119Y-85023363D01*
X104987380Y-85008103D01*
X105012467Y-84996404D01*
X105037046Y-84979982D01*
X105055599Y-84976291D01*
X105070775Y-84969215D01*
X105131093Y-84961274D01*
X105137500Y-84960000D01*
X106787500Y-84960000D01*
X106793908Y-84961274D01*
G37*
G36*
X111868908Y-84961274D02*
G01*
X111929224Y-84969215D01*
X111944398Y-84976290D01*
X111962954Y-84979982D01*
X111987534Y-84996405D01*
X112012619Y-85008103D01*
X112027877Y-85023361D01*
X112048116Y-85036884D01*
X112061638Y-85057122D01*
X112076896Y-85072380D01*
X112088592Y-85097462D01*
X112105018Y-85122046D01*
X112108709Y-85140603D01*
X112115784Y-85155775D01*
X112123722Y-85216078D01*
X112125000Y-85222500D01*
X112125000Y-85547500D01*
X112123722Y-85553923D01*
X112115784Y-85614224D01*
X112108709Y-85629394D01*
X112105018Y-85647954D01*
X112088590Y-85672539D01*
X112076896Y-85697619D01*
X112061640Y-85712874D01*
X112048116Y-85733116D01*
X112027874Y-85746640D01*
X112012619Y-85761896D01*
X111987539Y-85773590D01*
X111962954Y-85790018D01*
X111944394Y-85793709D01*
X111929224Y-85800784D01*
X111868923Y-85808722D01*
X111862500Y-85810000D01*
X110212500Y-85810000D01*
X110206078Y-85808722D01*
X110145775Y-85800784D01*
X110130603Y-85793709D01*
X110112046Y-85790018D01*
X110087462Y-85773592D01*
X110062380Y-85761896D01*
X110047122Y-85746638D01*
X110026884Y-85733116D01*
X110013361Y-85712877D01*
X109998103Y-85697619D01*
X109986405Y-85672534D01*
X109969982Y-85647954D01*
X109966290Y-85629398D01*
X109959215Y-85614224D01*
X109951274Y-85553908D01*
X109950000Y-85547500D01*
X109950000Y-85222500D01*
X109951274Y-85216093D01*
X109959215Y-85155775D01*
X109966291Y-85140599D01*
X109969982Y-85122046D01*
X109986404Y-85097467D01*
X109998103Y-85072380D01*
X110013363Y-85057119D01*
X110026884Y-85036884D01*
X110047119Y-85023363D01*
X110062380Y-85008103D01*
X110087467Y-84996404D01*
X110112046Y-84979982D01*
X110130599Y-84976291D01*
X110145775Y-84969215D01*
X110206093Y-84961274D01*
X110212500Y-84960000D01*
X111862500Y-84960000D01*
X111868908Y-84961274D01*
G37*
G36*
X101875770Y-82910907D02*
G01*
X102047827Y-82982175D01*
X102202674Y-83085640D01*
X102334360Y-83217326D01*
X102437825Y-83372173D01*
X102509093Y-83544230D01*
X102545425Y-83726884D01*
X102545425Y-83913116D01*
X102509093Y-84095770D01*
X102437825Y-84267827D01*
X102334360Y-84422674D01*
X102202674Y-84554360D01*
X102047827Y-84657825D01*
X101875770Y-84729093D01*
X101693116Y-84765425D01*
X101506884Y-84765425D01*
X101324230Y-84729093D01*
X101152173Y-84657825D01*
X100997326Y-84554360D01*
X100865640Y-84422674D01*
X100762175Y-84267827D01*
X100690907Y-84095770D01*
X100654575Y-83913116D01*
X100654575Y-83726884D01*
X100690907Y-83544230D01*
X100762175Y-83372173D01*
X100865640Y-83217326D01*
X100997326Y-83085640D01*
X101152173Y-82982175D01*
X101324230Y-82910907D01*
X101506884Y-82874575D01*
X101693116Y-82874575D01*
X101875770Y-82910907D01*
G37*
G36*
X124735770Y-82910907D02*
G01*
X124907827Y-82982175D01*
X125062674Y-83085640D01*
X125194360Y-83217326D01*
X125297825Y-83372173D01*
X125369093Y-83544230D01*
X125405425Y-83726884D01*
X125405425Y-83913116D01*
X125369093Y-84095770D01*
X125297825Y-84267827D01*
X125194360Y-84422674D01*
X125062674Y-84554360D01*
X124907827Y-84657825D01*
X124735770Y-84729093D01*
X124553116Y-84765425D01*
X124366884Y-84765425D01*
X124184230Y-84729093D01*
X124012173Y-84657825D01*
X123857326Y-84554360D01*
X123725640Y-84422674D01*
X123622175Y-84267827D01*
X123550907Y-84095770D01*
X123514575Y-83913116D01*
X123514575Y-83726884D01*
X123550907Y-83544230D01*
X123622175Y-83372173D01*
X123725640Y-83217326D01*
X123857326Y-83085640D01*
X124012173Y-82982175D01*
X124184230Y-82910907D01*
X124366884Y-82874575D01*
X124553116Y-82874575D01*
X124735770Y-82910907D01*
G37*
G36*
X106793908Y-83691274D02*
G01*
X106854224Y-83699215D01*
X106869398Y-83706290D01*
X106887954Y-83709982D01*
X106912534Y-83726405D01*
X106937619Y-83738103D01*
X106952877Y-83753361D01*
X106973116Y-83766884D01*
X106986638Y-83787122D01*
X107001896Y-83802380D01*
X107013592Y-83827462D01*
X107030018Y-83852046D01*
X107033709Y-83870603D01*
X107040784Y-83885775D01*
X107048722Y-83946078D01*
X107050000Y-83952500D01*
X107050000Y-84277500D01*
X107048722Y-84283923D01*
X107040784Y-84344224D01*
X107033709Y-84359394D01*
X107030018Y-84377954D01*
X107013590Y-84402539D01*
X107001896Y-84427619D01*
X106986640Y-84442874D01*
X106973116Y-84463116D01*
X106952874Y-84476640D01*
X106937619Y-84491896D01*
X106912539Y-84503590D01*
X106887954Y-84520018D01*
X106869394Y-84523709D01*
X106854224Y-84530784D01*
X106793923Y-84538722D01*
X106787500Y-84540000D01*
X105137500Y-84540000D01*
X105131078Y-84538722D01*
X105070775Y-84530784D01*
X105055603Y-84523709D01*
X105037046Y-84520018D01*
X105012462Y-84503592D01*
X104987380Y-84491896D01*
X104972122Y-84476638D01*
X104951884Y-84463116D01*
X104938361Y-84442877D01*
X104923103Y-84427619D01*
X104911405Y-84402534D01*
X104894982Y-84377954D01*
X104891290Y-84359398D01*
X104884215Y-84344224D01*
X104876274Y-84283908D01*
X104875000Y-84277500D01*
X104875000Y-83952500D01*
X104876274Y-83946093D01*
X104884215Y-83885775D01*
X104891291Y-83870599D01*
X104894982Y-83852046D01*
X104911404Y-83827467D01*
X104923103Y-83802380D01*
X104938363Y-83787119D01*
X104951884Y-83766884D01*
X104972119Y-83753363D01*
X104987380Y-83738103D01*
X105012467Y-83726404D01*
X105037046Y-83709982D01*
X105055599Y-83706291D01*
X105070775Y-83699215D01*
X105131093Y-83691274D01*
X105137500Y-83690000D01*
X106787500Y-83690000D01*
X106793908Y-83691274D01*
G37*
G36*
X111868908Y-83691274D02*
G01*
X111929224Y-83699215D01*
X111944398Y-83706290D01*
X111962954Y-83709982D01*
X111987534Y-83726405D01*
X112012619Y-83738103D01*
X112027877Y-83753361D01*
X112048116Y-83766884D01*
X112061638Y-83787122D01*
X112076896Y-83802380D01*
X112088592Y-83827462D01*
X112105018Y-83852046D01*
X112108709Y-83870603D01*
X112115784Y-83885775D01*
X112123722Y-83946078D01*
X112125000Y-83952500D01*
X112125000Y-84277500D01*
X112123722Y-84283923D01*
X112115784Y-84344224D01*
X112108709Y-84359394D01*
X112105018Y-84377954D01*
X112088590Y-84402539D01*
X112076896Y-84427619D01*
X112061640Y-84442874D01*
X112048116Y-84463116D01*
X112027874Y-84476640D01*
X112012619Y-84491896D01*
X111987539Y-84503590D01*
X111962954Y-84520018D01*
X111944394Y-84523709D01*
X111929224Y-84530784D01*
X111868923Y-84538722D01*
X111862500Y-84540000D01*
X110212500Y-84540000D01*
X110206078Y-84538722D01*
X110145775Y-84530784D01*
X110130603Y-84523709D01*
X110112046Y-84520018D01*
X110087462Y-84503592D01*
X110062380Y-84491896D01*
X110047122Y-84476638D01*
X110026884Y-84463116D01*
X110013361Y-84442877D01*
X109998103Y-84427619D01*
X109986405Y-84402534D01*
X109969982Y-84377954D01*
X109966290Y-84359398D01*
X109959215Y-84344224D01*
X109951274Y-84283908D01*
X109950000Y-84277500D01*
X109950000Y-83952500D01*
X109951274Y-83946093D01*
X109959215Y-83885775D01*
X109966291Y-83870599D01*
X109969982Y-83852046D01*
X109986404Y-83827467D01*
X109998103Y-83802380D01*
X110013363Y-83787119D01*
X110026884Y-83766884D01*
X110047119Y-83753363D01*
X110062380Y-83738103D01*
X110087467Y-83726404D01*
X110112046Y-83709982D01*
X110130599Y-83706291D01*
X110145775Y-83699215D01*
X110206093Y-83691274D01*
X110212500Y-83690000D01*
X111862500Y-83690000D01*
X111868908Y-83691274D01*
G37*
G36*
X115925969Y-82060855D02*
G01*
X115932409Y-82063257D01*
X115936946Y-82063802D01*
X115990629Y-82084971D01*
X116052643Y-82108102D01*
X116056384Y-82110902D01*
X116057572Y-82111371D01*
X116100811Y-82144160D01*
X116160876Y-82189124D01*
X116205857Y-82249212D01*
X116238628Y-82292427D01*
X116239096Y-82293614D01*
X116241898Y-82297357D01*
X116265038Y-82359399D01*
X116286197Y-82413053D01*
X116286741Y-82417586D01*
X116289145Y-82424031D01*
X116300000Y-82525000D01*
X116300000Y-83775000D01*
X116289145Y-83875969D01*
X116286741Y-83882413D01*
X116286197Y-83886946D01*
X116265045Y-83940582D01*
X116241898Y-84002643D01*
X116239095Y-84006386D01*
X116238628Y-84007572D01*
X116205916Y-84050709D01*
X116160876Y-84110876D01*
X116100709Y-84155916D01*
X116057572Y-84188628D01*
X116056386Y-84189095D01*
X116052643Y-84191898D01*
X115990582Y-84215045D01*
X115936946Y-84236197D01*
X115932413Y-84236741D01*
X115925969Y-84239145D01*
X115825000Y-84250000D01*
X115075000Y-84250000D01*
X114974031Y-84239145D01*
X114967586Y-84236741D01*
X114963053Y-84236197D01*
X114909399Y-84215038D01*
X114847357Y-84191898D01*
X114843614Y-84189096D01*
X114842427Y-84188628D01*
X114799212Y-84155857D01*
X114739124Y-84110876D01*
X114694160Y-84050811D01*
X114661371Y-84007572D01*
X114660902Y-84006384D01*
X114658102Y-84002643D01*
X114634971Y-83940629D01*
X114613802Y-83886946D01*
X114613257Y-83882409D01*
X114610855Y-83875969D01*
X114600000Y-83775000D01*
X114600000Y-82525000D01*
X114610855Y-82424031D01*
X114613257Y-82417590D01*
X114613802Y-82413053D01*
X114634978Y-82359352D01*
X114658102Y-82297357D01*
X114660901Y-82293616D01*
X114661371Y-82292427D01*
X114694219Y-82249110D01*
X114739124Y-82189124D01*
X114799110Y-82144219D01*
X114842427Y-82111371D01*
X114843616Y-82110901D01*
X114847357Y-82108102D01*
X114909352Y-82084978D01*
X114963053Y-82063802D01*
X114967590Y-82063257D01*
X114974031Y-82060855D01*
X115075000Y-82050000D01*
X115825000Y-82050000D01*
X115925969Y-82060855D01*
G37*
G36*
X118225969Y-82060855D02*
G01*
X118232409Y-82063257D01*
X118236946Y-82063802D01*
X118290629Y-82084971D01*
X118352643Y-82108102D01*
X118356384Y-82110902D01*
X118357572Y-82111371D01*
X118400811Y-82144160D01*
X118460876Y-82189124D01*
X118505857Y-82249212D01*
X118538628Y-82292427D01*
X118539096Y-82293614D01*
X118541898Y-82297357D01*
X118565038Y-82359399D01*
X118586197Y-82413053D01*
X118586741Y-82417586D01*
X118589145Y-82424031D01*
X118600000Y-82525000D01*
X118600000Y-83775000D01*
X118589145Y-83875969D01*
X118586741Y-83882413D01*
X118586197Y-83886946D01*
X118565045Y-83940582D01*
X118541898Y-84002643D01*
X118539095Y-84006386D01*
X118538628Y-84007572D01*
X118505916Y-84050709D01*
X118460876Y-84110876D01*
X118400709Y-84155916D01*
X118357572Y-84188628D01*
X118356386Y-84189095D01*
X118352643Y-84191898D01*
X118290582Y-84215045D01*
X118236946Y-84236197D01*
X118232413Y-84236741D01*
X118225969Y-84239145D01*
X118125000Y-84250000D01*
X117375000Y-84250000D01*
X117274031Y-84239145D01*
X117267586Y-84236741D01*
X117263053Y-84236197D01*
X117209399Y-84215038D01*
X117147357Y-84191898D01*
X117143614Y-84189096D01*
X117142427Y-84188628D01*
X117099212Y-84155857D01*
X117039124Y-84110876D01*
X116994160Y-84050811D01*
X116961371Y-84007572D01*
X116960902Y-84006384D01*
X116958102Y-84002643D01*
X116934971Y-83940629D01*
X116913802Y-83886946D01*
X116913257Y-83882409D01*
X116910855Y-83875969D01*
X116900000Y-83775000D01*
X116900000Y-82525000D01*
X116910855Y-82424031D01*
X116913257Y-82417590D01*
X116913802Y-82413053D01*
X116934978Y-82359352D01*
X116958102Y-82297357D01*
X116960901Y-82293616D01*
X116961371Y-82292427D01*
X116994219Y-82249110D01*
X117039124Y-82189124D01*
X117099110Y-82144219D01*
X117142427Y-82111371D01*
X117143616Y-82110901D01*
X117147357Y-82108102D01*
X117209352Y-82084978D01*
X117263053Y-82063802D01*
X117267590Y-82063257D01*
X117274031Y-82060855D01*
X117375000Y-82050000D01*
X118125000Y-82050000D01*
X118225969Y-82060855D01*
G37*
G36*
X120525969Y-82060855D02*
G01*
X120532409Y-82063257D01*
X120536946Y-82063802D01*
X120590629Y-82084971D01*
X120652643Y-82108102D01*
X120656384Y-82110902D01*
X120657572Y-82111371D01*
X120700811Y-82144160D01*
X120760876Y-82189124D01*
X120805857Y-82249212D01*
X120838628Y-82292427D01*
X120839096Y-82293614D01*
X120841898Y-82297357D01*
X120865038Y-82359399D01*
X120886197Y-82413053D01*
X120886741Y-82417586D01*
X120889145Y-82424031D01*
X120900000Y-82525000D01*
X120900000Y-83775000D01*
X120889145Y-83875969D01*
X120886741Y-83882413D01*
X120886197Y-83886946D01*
X120865045Y-83940582D01*
X120841898Y-84002643D01*
X120839095Y-84006386D01*
X120838628Y-84007572D01*
X120805916Y-84050709D01*
X120760876Y-84110876D01*
X120700709Y-84155916D01*
X120657572Y-84188628D01*
X120656386Y-84189095D01*
X120652643Y-84191898D01*
X120590582Y-84215045D01*
X120536946Y-84236197D01*
X120532413Y-84236741D01*
X120525969Y-84239145D01*
X120425000Y-84250000D01*
X119675000Y-84250000D01*
X119574031Y-84239145D01*
X119567586Y-84236741D01*
X119563053Y-84236197D01*
X119509399Y-84215038D01*
X119447357Y-84191898D01*
X119443614Y-84189096D01*
X119442427Y-84188628D01*
X119399212Y-84155857D01*
X119339124Y-84110876D01*
X119294160Y-84050811D01*
X119261371Y-84007572D01*
X119260902Y-84006384D01*
X119258102Y-84002643D01*
X119234971Y-83940629D01*
X119213802Y-83886946D01*
X119213257Y-83882409D01*
X119210855Y-83875969D01*
X119200000Y-83775000D01*
X119200000Y-82525000D01*
X119210855Y-82424031D01*
X119213257Y-82417590D01*
X119213802Y-82413053D01*
X119234978Y-82359352D01*
X119258102Y-82297357D01*
X119260901Y-82293616D01*
X119261371Y-82292427D01*
X119294219Y-82249110D01*
X119339124Y-82189124D01*
X119399110Y-82144219D01*
X119442427Y-82111371D01*
X119443616Y-82110901D01*
X119447357Y-82108102D01*
X119509352Y-82084978D01*
X119563053Y-82063802D01*
X119567590Y-82063257D01*
X119574031Y-82060855D01*
X119675000Y-82050000D01*
X120425000Y-82050000D01*
X120525969Y-82060855D01*
G37*
G36*
X106793908Y-82421274D02*
G01*
X106854224Y-82429215D01*
X106869398Y-82436290D01*
X106887954Y-82439982D01*
X106912534Y-82456405D01*
X106937619Y-82468103D01*
X106952877Y-82483361D01*
X106973116Y-82496884D01*
X106986638Y-82517122D01*
X107001896Y-82532380D01*
X107013592Y-82557462D01*
X107030018Y-82582046D01*
X107033709Y-82600603D01*
X107040784Y-82615775D01*
X107048722Y-82676078D01*
X107050000Y-82682500D01*
X107050000Y-83007500D01*
X107048722Y-83013923D01*
X107040784Y-83074224D01*
X107033709Y-83089394D01*
X107030018Y-83107954D01*
X107013590Y-83132539D01*
X107001896Y-83157619D01*
X106986640Y-83172874D01*
X106973116Y-83193116D01*
X106952874Y-83206640D01*
X106937619Y-83221896D01*
X106912539Y-83233590D01*
X106887954Y-83250018D01*
X106869394Y-83253709D01*
X106854224Y-83260784D01*
X106793923Y-83268722D01*
X106787500Y-83270000D01*
X105137500Y-83270000D01*
X105131078Y-83268722D01*
X105070775Y-83260784D01*
X105055603Y-83253709D01*
X105037046Y-83250018D01*
X105012462Y-83233592D01*
X104987380Y-83221896D01*
X104972122Y-83206638D01*
X104951884Y-83193116D01*
X104938361Y-83172877D01*
X104923103Y-83157619D01*
X104911405Y-83132534D01*
X104894982Y-83107954D01*
X104891290Y-83089398D01*
X104884215Y-83074224D01*
X104876274Y-83013908D01*
X104875000Y-83007500D01*
X104875000Y-82682500D01*
X104876274Y-82676093D01*
X104884215Y-82615775D01*
X104891291Y-82600599D01*
X104894982Y-82582046D01*
X104911404Y-82557467D01*
X104923103Y-82532380D01*
X104938363Y-82517119D01*
X104951884Y-82496884D01*
X104972119Y-82483363D01*
X104987380Y-82468103D01*
X105012467Y-82456404D01*
X105037046Y-82439982D01*
X105055599Y-82436291D01*
X105070775Y-82429215D01*
X105131093Y-82421274D01*
X105137500Y-82420000D01*
X106787500Y-82420000D01*
X106793908Y-82421274D01*
G37*
G36*
X111868908Y-82421274D02*
G01*
X111929224Y-82429215D01*
X111944398Y-82436290D01*
X111962954Y-82439982D01*
X111987534Y-82456405D01*
X112012619Y-82468103D01*
X112027877Y-82483361D01*
X112048116Y-82496884D01*
X112061638Y-82517122D01*
X112076896Y-82532380D01*
X112088592Y-82557462D01*
X112105018Y-82582046D01*
X112108709Y-82600603D01*
X112115784Y-82615775D01*
X112123722Y-82676078D01*
X112125000Y-82682500D01*
X112125000Y-83007500D01*
X112123722Y-83013923D01*
X112115784Y-83074224D01*
X112108709Y-83089394D01*
X112105018Y-83107954D01*
X112088590Y-83132539D01*
X112076896Y-83157619D01*
X112061640Y-83172874D01*
X112048116Y-83193116D01*
X112027874Y-83206640D01*
X112012619Y-83221896D01*
X111987539Y-83233590D01*
X111962954Y-83250018D01*
X111944394Y-83253709D01*
X111929224Y-83260784D01*
X111868923Y-83268722D01*
X111862500Y-83270000D01*
X110212500Y-83270000D01*
X110206078Y-83268722D01*
X110145775Y-83260784D01*
X110130603Y-83253709D01*
X110112046Y-83250018D01*
X110087462Y-83233592D01*
X110062380Y-83221896D01*
X110047122Y-83206638D01*
X110026884Y-83193116D01*
X110013361Y-83172877D01*
X109998103Y-83157619D01*
X109986405Y-83132534D01*
X109969982Y-83107954D01*
X109966290Y-83089398D01*
X109959215Y-83074224D01*
X109951274Y-83013908D01*
X109950000Y-83007500D01*
X109950000Y-82682500D01*
X109951274Y-82676093D01*
X109959215Y-82615775D01*
X109966291Y-82600599D01*
X109969982Y-82582046D01*
X109986404Y-82557467D01*
X109998103Y-82532380D01*
X110013363Y-82517119D01*
X110026884Y-82496884D01*
X110047119Y-82483363D01*
X110062380Y-82468103D01*
X110087467Y-82456404D01*
X110112046Y-82439982D01*
X110130599Y-82436291D01*
X110145775Y-82429215D01*
X110206093Y-82421274D01*
X110212500Y-82420000D01*
X111862500Y-82420000D01*
X111868908Y-82421274D01*
G37*
G36*
X101875770Y-80370907D02*
G01*
X102047827Y-80442175D01*
X102202674Y-80545640D01*
X102334360Y-80677326D01*
X102437825Y-80832173D01*
X102509093Y-81004230D01*
X102545425Y-81186884D01*
X102545425Y-81373116D01*
X102509093Y-81555770D01*
X102437825Y-81727827D01*
X102334360Y-81882674D01*
X102202674Y-82014360D01*
X102047827Y-82117825D01*
X101875770Y-82189093D01*
X101693116Y-82225425D01*
X101506884Y-82225425D01*
X101324230Y-82189093D01*
X101152173Y-82117825D01*
X100997326Y-82014360D01*
X100865640Y-81882674D01*
X100762175Y-81727827D01*
X100690907Y-81555770D01*
X100654575Y-81373116D01*
X100654575Y-81186884D01*
X100690907Y-81004230D01*
X100762175Y-80832173D01*
X100865640Y-80677326D01*
X100997326Y-80545640D01*
X101152173Y-80442175D01*
X101324230Y-80370907D01*
X101506884Y-80334575D01*
X101693116Y-80334575D01*
X101875770Y-80370907D01*
G37*
G36*
X124735770Y-80370907D02*
G01*
X124907827Y-80442175D01*
X125062674Y-80545640D01*
X125194360Y-80677326D01*
X125297825Y-80832173D01*
X125369093Y-81004230D01*
X125405425Y-81186884D01*
X125405425Y-81373116D01*
X125369093Y-81555770D01*
X125297825Y-81727827D01*
X125194360Y-81882674D01*
X125062674Y-82014360D01*
X124907827Y-82117825D01*
X124735770Y-82189093D01*
X124553116Y-82225425D01*
X124366884Y-82225425D01*
X124184230Y-82189093D01*
X124012173Y-82117825D01*
X123857326Y-82014360D01*
X123725640Y-81882674D01*
X123622175Y-81727827D01*
X123550907Y-81555770D01*
X123514575Y-81373116D01*
X123514575Y-81186884D01*
X123550907Y-81004230D01*
X123622175Y-80832173D01*
X123725640Y-80677326D01*
X123857326Y-80545640D01*
X124012173Y-80442175D01*
X124184230Y-80370907D01*
X124366884Y-80334575D01*
X124553116Y-80334575D01*
X124735770Y-80370907D01*
G37*
G36*
X110034116Y-80436074D02*
G01*
X110039447Y-80438560D01*
X110042061Y-80438941D01*
X110079201Y-80457097D01*
X110136412Y-80483776D01*
X110216224Y-80563588D01*
X110242912Y-80620821D01*
X110261058Y-80657938D01*
X110261438Y-80660549D01*
X110263926Y-80665884D01*
X110275000Y-80750000D01*
X110275000Y-81250000D01*
X110263926Y-81334116D01*
X110261438Y-81339450D01*
X110261058Y-81342061D01*
X110242922Y-81379157D01*
X110216224Y-81436412D01*
X110136412Y-81516224D01*
X110079157Y-81542922D01*
X110042061Y-81561058D01*
X110039450Y-81561438D01*
X110034116Y-81563926D01*
X109950000Y-81575000D01*
X109500000Y-81575000D01*
X109415884Y-81563926D01*
X109410549Y-81561438D01*
X109407938Y-81561058D01*
X109370821Y-81542912D01*
X109313588Y-81516224D01*
X109233776Y-81436412D01*
X109207097Y-81379201D01*
X109188941Y-81342061D01*
X109188560Y-81339447D01*
X109186074Y-81334116D01*
X109175000Y-81250000D01*
X109175000Y-80750000D01*
X109186074Y-80665884D01*
X109188560Y-80660552D01*
X109188941Y-80657938D01*
X109207108Y-80620776D01*
X109233776Y-80563588D01*
X109313588Y-80483776D01*
X109370776Y-80457108D01*
X109407938Y-80438941D01*
X109410552Y-80438560D01*
X109415884Y-80436074D01*
X109500000Y-80425000D01*
X109950000Y-80425000D01*
X110034116Y-80436074D01*
G37*
G36*
X111584116Y-80436074D02*
G01*
X111589447Y-80438560D01*
X111592061Y-80438941D01*
X111629201Y-80457097D01*
X111686412Y-80483776D01*
X111766224Y-80563588D01*
X111792912Y-80620821D01*
X111811058Y-80657938D01*
X111811438Y-80660549D01*
X111813926Y-80665884D01*
X111825000Y-80750000D01*
X111825000Y-81250000D01*
X111813926Y-81334116D01*
X111811438Y-81339450D01*
X111811058Y-81342061D01*
X111792922Y-81379157D01*
X111766224Y-81436412D01*
X111686412Y-81516224D01*
X111629157Y-81542922D01*
X111592061Y-81561058D01*
X111589450Y-81561438D01*
X111584116Y-81563926D01*
X111500000Y-81575000D01*
X111050000Y-81575000D01*
X110965884Y-81563926D01*
X110960549Y-81561438D01*
X110957938Y-81561058D01*
X110920821Y-81542912D01*
X110863588Y-81516224D01*
X110783776Y-81436412D01*
X110757097Y-81379201D01*
X110738941Y-81342061D01*
X110738560Y-81339447D01*
X110736074Y-81334116D01*
X110725000Y-81250000D01*
X110725000Y-80750000D01*
X110736074Y-80665884D01*
X110738560Y-80660552D01*
X110738941Y-80657938D01*
X110757108Y-80620776D01*
X110783776Y-80563588D01*
X110863588Y-80483776D01*
X110920776Y-80457108D01*
X110957938Y-80438941D01*
X110960552Y-80438560D01*
X110965884Y-80436074D01*
X111050000Y-80425000D01*
X111500000Y-80425000D01*
X111584116Y-80436074D01*
G37*
G36*
X101875770Y-77830907D02*
G01*
X102047827Y-77902175D01*
X102202674Y-78005640D01*
X102334360Y-78137326D01*
X102437825Y-78292173D01*
X102509093Y-78464230D01*
X102545425Y-78646884D01*
X102545425Y-78833116D01*
X102509093Y-79015770D01*
X102437825Y-79187827D01*
X102334360Y-79342674D01*
X102202674Y-79474360D01*
X102047827Y-79577825D01*
X101875770Y-79649093D01*
X101693116Y-79685425D01*
X101506884Y-79685425D01*
X101324230Y-79649093D01*
X101152173Y-79577825D01*
X100997326Y-79474360D01*
X100865640Y-79342674D01*
X100762175Y-79187827D01*
X100690907Y-79015770D01*
X100654575Y-78833116D01*
X100654575Y-78646884D01*
X100690907Y-78464230D01*
X100762175Y-78292173D01*
X100865640Y-78137326D01*
X100997326Y-78005640D01*
X101152173Y-77902175D01*
X101324230Y-77830907D01*
X101506884Y-77794575D01*
X101693116Y-77794575D01*
X101875770Y-77830907D01*
G37*
G36*
X124735770Y-77830907D02*
G01*
X124907827Y-77902175D01*
X125062674Y-78005640D01*
X125194360Y-78137326D01*
X125297825Y-78292173D01*
X125369093Y-78464230D01*
X125405425Y-78646884D01*
X125405425Y-78833116D01*
X125369093Y-79015770D01*
X125297825Y-79187827D01*
X125194360Y-79342674D01*
X125062674Y-79474360D01*
X124907827Y-79577825D01*
X124735770Y-79649093D01*
X124553116Y-79685425D01*
X124366884Y-79685425D01*
X124184230Y-79649093D01*
X124012173Y-79577825D01*
X123857326Y-79474360D01*
X123725640Y-79342674D01*
X123622175Y-79187827D01*
X123550907Y-79015770D01*
X123514575Y-78833116D01*
X123514575Y-78646884D01*
X123550907Y-78464230D01*
X123622175Y-78292173D01*
X123725640Y-78137326D01*
X123857326Y-78005640D01*
X124012173Y-77902175D01*
X124184230Y-77830907D01*
X124366884Y-77794575D01*
X124553116Y-77794575D01*
X124735770Y-77830907D01*
G37*
G36*
X119152923Y-75750384D02*
G01*
X119242651Y-75757447D01*
X119272558Y-75766135D01*
X119305291Y-75770445D01*
X119347327Y-75787857D01*
X119388131Y-75799711D01*
X119416615Y-75816556D01*
X119450000Y-75830385D01*
X119483625Y-75856186D01*
X119517498Y-75876219D01*
X119543108Y-75901829D01*
X119574264Y-75925736D01*
X119598170Y-75956891D01*
X119623780Y-75982501D01*
X119643811Y-76016372D01*
X119669615Y-76050000D01*
X119683444Y-76083386D01*
X119700288Y-76111868D01*
X119712140Y-76152667D01*
X119729555Y-76194709D01*
X119733864Y-76227444D01*
X119742552Y-76257347D01*
X119749612Y-76347057D01*
X119750000Y-76350000D01*
X119750000Y-77350000D01*
X119749612Y-77352942D01*
X119742552Y-77442651D01*
X119733865Y-77472552D01*
X119729555Y-77505291D01*
X119712139Y-77547335D01*
X119700288Y-77588131D01*
X119683445Y-77616609D01*
X119669615Y-77650000D01*
X119643808Y-77683631D01*
X119623780Y-77717498D01*
X119598173Y-77743104D01*
X119574264Y-77774264D01*
X119543104Y-77798173D01*
X119517498Y-77823780D01*
X119483631Y-77843808D01*
X119450000Y-77869615D01*
X119416609Y-77883445D01*
X119388131Y-77900288D01*
X119347335Y-77912139D01*
X119305291Y-77929555D01*
X119272553Y-77933865D01*
X119242652Y-77942552D01*
X119152944Y-77949612D01*
X119150000Y-77950000D01*
X116350000Y-77950000D01*
X116347058Y-77949612D01*
X116257348Y-77942552D01*
X116227445Y-77933865D01*
X116194709Y-77929555D01*
X116152666Y-77912140D01*
X116111868Y-77900288D01*
X116083386Y-77883444D01*
X116050000Y-77869615D01*
X116016372Y-77843811D01*
X115982501Y-77823780D01*
X115956891Y-77798170D01*
X115925736Y-77774264D01*
X115901829Y-77743108D01*
X115876219Y-77717498D01*
X115856186Y-77683625D01*
X115830385Y-77650000D01*
X115816556Y-77616615D01*
X115799711Y-77588131D01*
X115787856Y-77547327D01*
X115770445Y-77505291D01*
X115766135Y-77472560D01*
X115757447Y-77442652D01*
X115750385Y-77352925D01*
X115750000Y-77350000D01*
X115750000Y-76350000D01*
X115750384Y-76347077D01*
X115757447Y-76257348D01*
X115766135Y-76227439D01*
X115770445Y-76194709D01*
X115787856Y-76152674D01*
X115799711Y-76111868D01*
X115816558Y-76083381D01*
X115830385Y-76050000D01*
X115856184Y-76016377D01*
X115876219Y-75982501D01*
X115901833Y-75956886D01*
X115925736Y-75925736D01*
X115956886Y-75901833D01*
X115982501Y-75876219D01*
X116016377Y-75856184D01*
X116050000Y-75830385D01*
X116083381Y-75816558D01*
X116111868Y-75799711D01*
X116152675Y-75787855D01*
X116194709Y-75770445D01*
X116227438Y-75766136D01*
X116257347Y-75757447D01*
X116347076Y-75750384D01*
X116350000Y-75750000D01*
X119150000Y-75750000D01*
X119152923Y-75750384D01*
G37*
G36*
X101875770Y-75290907D02*
G01*
X102047827Y-75362175D01*
X102202674Y-75465640D01*
X102334360Y-75597326D01*
X102437825Y-75752173D01*
X102509093Y-75924230D01*
X102545425Y-76106884D01*
X102545425Y-76293116D01*
X102509093Y-76475770D01*
X102437825Y-76647827D01*
X102334360Y-76802674D01*
X102202674Y-76934360D01*
X102047827Y-77037825D01*
X101875770Y-77109093D01*
X101693116Y-77145425D01*
X101506884Y-77145425D01*
X101324230Y-77109093D01*
X101152173Y-77037825D01*
X100997326Y-76934360D01*
X100865640Y-76802674D01*
X100762175Y-76647827D01*
X100690907Y-76475770D01*
X100654575Y-76293116D01*
X100654575Y-76106884D01*
X100690907Y-75924230D01*
X100762175Y-75752173D01*
X100865640Y-75597326D01*
X100997326Y-75465640D01*
X101152173Y-75362175D01*
X101324230Y-75290907D01*
X101506884Y-75254575D01*
X101693116Y-75254575D01*
X101875770Y-75290907D01*
G37*
G36*
X124735770Y-75290907D02*
G01*
X124907827Y-75362175D01*
X125062674Y-75465640D01*
X125194360Y-75597326D01*
X125297825Y-75752173D01*
X125369093Y-75924230D01*
X125405425Y-76106884D01*
X125405425Y-76293116D01*
X125369093Y-76475770D01*
X125297825Y-76647827D01*
X125194360Y-76802674D01*
X125062674Y-76934360D01*
X124907827Y-77037825D01*
X124735770Y-77109093D01*
X124553116Y-77145425D01*
X124366884Y-77145425D01*
X124184230Y-77109093D01*
X124012173Y-77037825D01*
X123857326Y-76934360D01*
X123725640Y-76802674D01*
X123622175Y-76647827D01*
X123550907Y-76475770D01*
X123514575Y-76293116D01*
X123514575Y-76106884D01*
X123550907Y-75924230D01*
X123622175Y-75752173D01*
X123725640Y-75597326D01*
X123857326Y-75465640D01*
X124012173Y-75362175D01*
X124184230Y-75290907D01*
X124366884Y-75254575D01*
X124553116Y-75254575D01*
X124735770Y-75290907D01*
G37*
G36*
X104843685Y-74832969D02*
G01*
X104852358Y-74836798D01*
X104859925Y-74837901D01*
X104907223Y-74861023D01*
X104944541Y-74877501D01*
X104947996Y-74880956D01*
X104948920Y-74881408D01*
X105018591Y-74951079D01*
X105019042Y-74952002D01*
X105022499Y-74955459D01*
X105038978Y-74992782D01*
X105062098Y-75040073D01*
X105063200Y-75047639D01*
X105067031Y-75056315D01*
X105075000Y-75125000D01*
X105075000Y-75525000D01*
X105067031Y-75593685D01*
X105063199Y-75602361D01*
X105062098Y-75609925D01*
X105038985Y-75657202D01*
X105022499Y-75694541D01*
X105019041Y-75697998D01*
X105018591Y-75698920D01*
X104948920Y-75768591D01*
X104947998Y-75769041D01*
X104944541Y-75772499D01*
X104907207Y-75788983D01*
X104859926Y-75812098D01*
X104852361Y-75813200D01*
X104843685Y-75817031D01*
X104775000Y-75825000D01*
X104225000Y-75825000D01*
X104156315Y-75817031D01*
X104147638Y-75813200D01*
X104140074Y-75812098D01*
X104092787Y-75788981D01*
X104055459Y-75772499D01*
X104052002Y-75769042D01*
X104051079Y-75768591D01*
X103981408Y-75698920D01*
X103980956Y-75697996D01*
X103977501Y-75694541D01*
X103961025Y-75657228D01*
X103937901Y-75609926D01*
X103936798Y-75602357D01*
X103932969Y-75593685D01*
X103925000Y-75525000D01*
X103925000Y-75125000D01*
X103932969Y-75056315D01*
X103936798Y-75047642D01*
X103937901Y-75040074D01*
X103961028Y-74992766D01*
X103977501Y-74955459D01*
X103980955Y-74952004D01*
X103981408Y-74951079D01*
X104051079Y-74881408D01*
X104052004Y-74880955D01*
X104055459Y-74877501D01*
X104092761Y-74861030D01*
X104140073Y-74837901D01*
X104147642Y-74836798D01*
X104156315Y-74832969D01*
X104225000Y-74825000D01*
X104775000Y-74825000D01*
X104843685Y-74832969D01*
G37*
G36*
X109343685Y-74507969D02*
G01*
X109352358Y-74511798D01*
X109359925Y-74512901D01*
X109407223Y-74536023D01*
X109444541Y-74552501D01*
X109447996Y-74555956D01*
X109448920Y-74556408D01*
X109518591Y-74626079D01*
X109519042Y-74627002D01*
X109522499Y-74630459D01*
X109538978Y-74667782D01*
X109562098Y-74715073D01*
X109563200Y-74722639D01*
X109567031Y-74731315D01*
X109575000Y-74800000D01*
X109575000Y-75200000D01*
X109567031Y-75268685D01*
X109563199Y-75277361D01*
X109562098Y-75284925D01*
X109538985Y-75332202D01*
X109522499Y-75369541D01*
X109519041Y-75372998D01*
X109518591Y-75373920D01*
X109448920Y-75443591D01*
X109447998Y-75444041D01*
X109444541Y-75447499D01*
X109407207Y-75463983D01*
X109359926Y-75487098D01*
X109352361Y-75488200D01*
X109343685Y-75492031D01*
X109275000Y-75500000D01*
X108725000Y-75500000D01*
X108656315Y-75492031D01*
X108647638Y-75488200D01*
X108640074Y-75487098D01*
X108592787Y-75463981D01*
X108555459Y-75447499D01*
X108552002Y-75444042D01*
X108551079Y-75443591D01*
X108481408Y-75373920D01*
X108480956Y-75372996D01*
X108477501Y-75369541D01*
X108461025Y-75332228D01*
X108437901Y-75284926D01*
X108436798Y-75277357D01*
X108432969Y-75268685D01*
X108425000Y-75200000D01*
X108425000Y-74800000D01*
X108432969Y-74731315D01*
X108436798Y-74722642D01*
X108437901Y-74715074D01*
X108461028Y-74667766D01*
X108477501Y-74630459D01*
X108480955Y-74627004D01*
X108481408Y-74626079D01*
X108551079Y-74556408D01*
X108552004Y-74555955D01*
X108555459Y-74552501D01*
X108592761Y-74536030D01*
X108640073Y-74512901D01*
X108647642Y-74511798D01*
X108656315Y-74507969D01*
X108725000Y-74500000D01*
X109275000Y-74500000D01*
X109343685Y-74507969D01*
G37*
G36*
X107584116Y-74361074D02*
G01*
X107589447Y-74363560D01*
X107592061Y-74363941D01*
X107629201Y-74382097D01*
X107686412Y-74408776D01*
X107766224Y-74488588D01*
X107792912Y-74545821D01*
X107811058Y-74582938D01*
X107811438Y-74585549D01*
X107813926Y-74590884D01*
X107825000Y-74675000D01*
X107825000Y-75125000D01*
X107813926Y-75209116D01*
X107811438Y-75214450D01*
X107811058Y-75217061D01*
X107792922Y-75254157D01*
X107766224Y-75311412D01*
X107686412Y-75391224D01*
X107629157Y-75417922D01*
X107592061Y-75436058D01*
X107589450Y-75436438D01*
X107584116Y-75438926D01*
X107500000Y-75450000D01*
X107000000Y-75450000D01*
X106915884Y-75438926D01*
X106910549Y-75436438D01*
X106907938Y-75436058D01*
X106870821Y-75417912D01*
X106813588Y-75391224D01*
X106733776Y-75311412D01*
X106707097Y-75254201D01*
X106688941Y-75217061D01*
X106688560Y-75214447D01*
X106686074Y-75209116D01*
X106675000Y-75125000D01*
X106675000Y-74675000D01*
X106686074Y-74590884D01*
X106688560Y-74585552D01*
X106688941Y-74582938D01*
X106707108Y-74545776D01*
X106733776Y-74488588D01*
X106813588Y-74408776D01*
X106870776Y-74382108D01*
X106907938Y-74363941D01*
X106910552Y-74363560D01*
X106915884Y-74361074D01*
X107000000Y-74350000D01*
X107500000Y-74350000D01*
X107584116Y-74361074D01*
G37*
G36*
X101875770Y-72750907D02*
G01*
X102047827Y-72822175D01*
X102202674Y-72925640D01*
X102334360Y-73057326D01*
X102437825Y-73212173D01*
X102509093Y-73384230D01*
X102545425Y-73566884D01*
X102545425Y-73753116D01*
X102509093Y-73935770D01*
X102437825Y-74107827D01*
X102334360Y-74262674D01*
X102202674Y-74394360D01*
X102047827Y-74497825D01*
X101875770Y-74569093D01*
X101693116Y-74605425D01*
X101506884Y-74605425D01*
X101324230Y-74569093D01*
X101152173Y-74497825D01*
X100997326Y-74394360D01*
X100865640Y-74262674D01*
X100762175Y-74107827D01*
X100690907Y-73935770D01*
X100654575Y-73753116D01*
X100654575Y-73566884D01*
X100690907Y-73384230D01*
X100762175Y-73212173D01*
X100865640Y-73057326D01*
X100997326Y-72925640D01*
X101152173Y-72822175D01*
X101324230Y-72750907D01*
X101506884Y-72714575D01*
X101693116Y-72714575D01*
X101875770Y-72750907D01*
G37*
G36*
X124735770Y-72750907D02*
G01*
X124907827Y-72822175D01*
X125062674Y-72925640D01*
X125194360Y-73057326D01*
X125297825Y-73212173D01*
X125369093Y-73384230D01*
X125405425Y-73566884D01*
X125405425Y-73753116D01*
X125369093Y-73935770D01*
X125297825Y-74107827D01*
X125194360Y-74262674D01*
X125062674Y-74394360D01*
X124907827Y-74497825D01*
X124735770Y-74569093D01*
X124553116Y-74605425D01*
X124366884Y-74605425D01*
X124184230Y-74569093D01*
X124012173Y-74497825D01*
X123857326Y-74394360D01*
X123725640Y-74262674D01*
X123622175Y-74107827D01*
X123550907Y-73935770D01*
X123514575Y-73753116D01*
X123514575Y-73566884D01*
X123550907Y-73384230D01*
X123622175Y-73212173D01*
X123725640Y-73057326D01*
X123857326Y-72925640D01*
X124012173Y-72822175D01*
X124184230Y-72750907D01*
X124366884Y-72714575D01*
X124553116Y-72714575D01*
X124735770Y-72750907D01*
G37*
G36*
X104843685Y-73182969D02*
G01*
X104852358Y-73186798D01*
X104859925Y-73187901D01*
X104907223Y-73211023D01*
X104944541Y-73227501D01*
X104947996Y-73230956D01*
X104948920Y-73231408D01*
X105018591Y-73301079D01*
X105019042Y-73302002D01*
X105022499Y-73305459D01*
X105038978Y-73342782D01*
X105062098Y-73390073D01*
X105063200Y-73397639D01*
X105067031Y-73406315D01*
X105075000Y-73475000D01*
X105075000Y-73875000D01*
X105067031Y-73943685D01*
X105063199Y-73952361D01*
X105062098Y-73959925D01*
X105038985Y-74007202D01*
X105022499Y-74044541D01*
X105019041Y-74047998D01*
X105018591Y-74048920D01*
X104948920Y-74118591D01*
X104947998Y-74119041D01*
X104944541Y-74122499D01*
X104907207Y-74138983D01*
X104859926Y-74162098D01*
X104852361Y-74163200D01*
X104843685Y-74167031D01*
X104775000Y-74175000D01*
X104225000Y-74175000D01*
X104156315Y-74167031D01*
X104147638Y-74163200D01*
X104140074Y-74162098D01*
X104092787Y-74138981D01*
X104055459Y-74122499D01*
X104052002Y-74119042D01*
X104051079Y-74118591D01*
X103981408Y-74048920D01*
X103980956Y-74047996D01*
X103977501Y-74044541D01*
X103961025Y-74007228D01*
X103937901Y-73959926D01*
X103936798Y-73952357D01*
X103932969Y-73943685D01*
X103925000Y-73875000D01*
X103925000Y-73475000D01*
X103932969Y-73406315D01*
X103936798Y-73397642D01*
X103937901Y-73390074D01*
X103961028Y-73342766D01*
X103977501Y-73305459D01*
X103980955Y-73302004D01*
X103981408Y-73301079D01*
X104051079Y-73231408D01*
X104052004Y-73230955D01*
X104055459Y-73227501D01*
X104092761Y-73211030D01*
X104140073Y-73187901D01*
X104147642Y-73186798D01*
X104156315Y-73182969D01*
X104225000Y-73175000D01*
X104775000Y-73175000D01*
X104843685Y-73182969D01*
G37*
G36*
X107584116Y-72811074D02*
G01*
X107589447Y-72813560D01*
X107592061Y-72813941D01*
X107629201Y-72832097D01*
X107686412Y-72858776D01*
X107766224Y-72938588D01*
X107792912Y-72995821D01*
X107811058Y-73032938D01*
X107811438Y-73035549D01*
X107813926Y-73040884D01*
X107825000Y-73125000D01*
X107825000Y-73575000D01*
X107813926Y-73659116D01*
X107811438Y-73664450D01*
X107811058Y-73667061D01*
X107792922Y-73704157D01*
X107766224Y-73761412D01*
X107686412Y-73841224D01*
X107629157Y-73867922D01*
X107592061Y-73886058D01*
X107589450Y-73886438D01*
X107584116Y-73888926D01*
X107500000Y-73900000D01*
X107000000Y-73900000D01*
X106915884Y-73888926D01*
X106910549Y-73886438D01*
X106907938Y-73886058D01*
X106870821Y-73867912D01*
X106813588Y-73841224D01*
X106733776Y-73761412D01*
X106707097Y-73704201D01*
X106688941Y-73667061D01*
X106688560Y-73664447D01*
X106686074Y-73659116D01*
X106675000Y-73575000D01*
X106675000Y-73125000D01*
X106686074Y-73040884D01*
X106688560Y-73035552D01*
X106688941Y-73032938D01*
X106707108Y-72995776D01*
X106733776Y-72938588D01*
X106813588Y-72858776D01*
X106870776Y-72832108D01*
X106907938Y-72813941D01*
X106910552Y-72813560D01*
X106915884Y-72811074D01*
X107000000Y-72800000D01*
X107500000Y-72800000D01*
X107584116Y-72811074D01*
G37*
G36*
X109343685Y-72857969D02*
G01*
X109352358Y-72861798D01*
X109359925Y-72862901D01*
X109407223Y-72886023D01*
X109444541Y-72902501D01*
X109447996Y-72905956D01*
X109448920Y-72906408D01*
X109518591Y-72976079D01*
X109519042Y-72977002D01*
X109522499Y-72980459D01*
X109538978Y-73017782D01*
X109562098Y-73065073D01*
X109563200Y-73072639D01*
X109567031Y-73081315D01*
X109575000Y-73150000D01*
X109575000Y-73550000D01*
X109567031Y-73618685D01*
X109563199Y-73627361D01*
X109562098Y-73634925D01*
X109538985Y-73682202D01*
X109522499Y-73719541D01*
X109519041Y-73722998D01*
X109518591Y-73723920D01*
X109448920Y-73793591D01*
X109447998Y-73794041D01*
X109444541Y-73797499D01*
X109407207Y-73813983D01*
X109359926Y-73837098D01*
X109352361Y-73838200D01*
X109343685Y-73842031D01*
X109275000Y-73850000D01*
X108725000Y-73850000D01*
X108656315Y-73842031D01*
X108647638Y-73838200D01*
X108640074Y-73837098D01*
X108592787Y-73813981D01*
X108555459Y-73797499D01*
X108552002Y-73794042D01*
X108551079Y-73793591D01*
X108481408Y-73723920D01*
X108480956Y-73722996D01*
X108477501Y-73719541D01*
X108461025Y-73682228D01*
X108437901Y-73634926D01*
X108436798Y-73627357D01*
X108432969Y-73618685D01*
X108425000Y-73550000D01*
X108425000Y-73150000D01*
X108432969Y-73081315D01*
X108436798Y-73072642D01*
X108437901Y-73065074D01*
X108461028Y-73017766D01*
X108477501Y-72980459D01*
X108480955Y-72977004D01*
X108481408Y-72976079D01*
X108551079Y-72906408D01*
X108552004Y-72905955D01*
X108555459Y-72902501D01*
X108592761Y-72886030D01*
X108640073Y-72862901D01*
X108647642Y-72861798D01*
X108656315Y-72857969D01*
X108725000Y-72850000D01*
X109275000Y-72850000D01*
X109343685Y-72857969D01*
G37*
G36*
X105834116Y-71161074D02*
G01*
X105839447Y-71163560D01*
X105842061Y-71163941D01*
X105879201Y-71182097D01*
X105936412Y-71208776D01*
X106016224Y-71288588D01*
X106042912Y-71345821D01*
X106061058Y-71382938D01*
X106061438Y-71385549D01*
X106063926Y-71390884D01*
X106075000Y-71475000D01*
X106075000Y-71925000D01*
X106063926Y-72009116D01*
X106061438Y-72014450D01*
X106061058Y-72017061D01*
X106042922Y-72054157D01*
X106016224Y-72111412D01*
X105936412Y-72191224D01*
X105879157Y-72217922D01*
X105842061Y-72236058D01*
X105839450Y-72236438D01*
X105834116Y-72238926D01*
X105750000Y-72250000D01*
X105250000Y-72250000D01*
X105165884Y-72238926D01*
X105160549Y-72236438D01*
X105157938Y-72236058D01*
X105120821Y-72217912D01*
X105063588Y-72191224D01*
X104983776Y-72111412D01*
X104957097Y-72054201D01*
X104938941Y-72017061D01*
X104938560Y-72014447D01*
X104936074Y-72009116D01*
X104925000Y-71925000D01*
X104925000Y-71475000D01*
X104936074Y-71390884D01*
X104938560Y-71385552D01*
X104938941Y-71382938D01*
X104957108Y-71345776D01*
X104983776Y-71288588D01*
X105063588Y-71208776D01*
X105120776Y-71182108D01*
X105157938Y-71163941D01*
X105160552Y-71163560D01*
X105165884Y-71161074D01*
X105250000Y-71150000D01*
X105750000Y-71150000D01*
X105834116Y-71161074D01*
G37*
G36*
X107593685Y-71257969D02*
G01*
X107602358Y-71261798D01*
X107609925Y-71262901D01*
X107657223Y-71286023D01*
X107694541Y-71302501D01*
X107697996Y-71305956D01*
X107698920Y-71306408D01*
X107768591Y-71376079D01*
X107769042Y-71377002D01*
X107772499Y-71380459D01*
X107788978Y-71417782D01*
X107812098Y-71465073D01*
X107813200Y-71472639D01*
X107817031Y-71481315D01*
X107825000Y-71550000D01*
X107825000Y-71950000D01*
X107817031Y-72018685D01*
X107813199Y-72027361D01*
X107812098Y-72034925D01*
X107788985Y-72082202D01*
X107772499Y-72119541D01*
X107769041Y-72122998D01*
X107768591Y-72123920D01*
X107698920Y-72193591D01*
X107697998Y-72194041D01*
X107694541Y-72197499D01*
X107657207Y-72213983D01*
X107609926Y-72237098D01*
X107602361Y-72238200D01*
X107593685Y-72242031D01*
X107525000Y-72250000D01*
X106975000Y-72250000D01*
X106906315Y-72242031D01*
X106897638Y-72238200D01*
X106890074Y-72237098D01*
X106842787Y-72213981D01*
X106805459Y-72197499D01*
X106802002Y-72194042D01*
X106801079Y-72193591D01*
X106731408Y-72123920D01*
X106730956Y-72122996D01*
X106727501Y-72119541D01*
X106711025Y-72082228D01*
X106687901Y-72034926D01*
X106686798Y-72027357D01*
X106682969Y-72018685D01*
X106675000Y-71950000D01*
X106675000Y-71550000D01*
X106682969Y-71481315D01*
X106686798Y-71472642D01*
X106687901Y-71465074D01*
X106711028Y-71417766D01*
X106727501Y-71380459D01*
X106730955Y-71377004D01*
X106731408Y-71376079D01*
X106801079Y-71306408D01*
X106802004Y-71305955D01*
X106805459Y-71302501D01*
X106842761Y-71286030D01*
X106890073Y-71262901D01*
X106897642Y-71261798D01*
X106906315Y-71257969D01*
X106975000Y-71250000D01*
X107525000Y-71250000D01*
X107593685Y-71257969D01*
G37*
G36*
X101875770Y-70210907D02*
G01*
X102047827Y-70282175D01*
X102202674Y-70385640D01*
X102334360Y-70517326D01*
X102437825Y-70672173D01*
X102509093Y-70844230D01*
X102545425Y-71026884D01*
X102545425Y-71213116D01*
X102509093Y-71395770D01*
X102437825Y-71567827D01*
X102334360Y-71722674D01*
X102202674Y-71854360D01*
X102047827Y-71957825D01*
X101875770Y-72029093D01*
X101693116Y-72065425D01*
X101506884Y-72065425D01*
X101324230Y-72029093D01*
X101152173Y-71957825D01*
X100997326Y-71854360D01*
X100865640Y-71722674D01*
X100762175Y-71567827D01*
X100690907Y-71395770D01*
X100654575Y-71213116D01*
X100654575Y-71026884D01*
X100690907Y-70844230D01*
X100762175Y-70672173D01*
X100865640Y-70517326D01*
X100997326Y-70385640D01*
X101152173Y-70282175D01*
X101324230Y-70210907D01*
X101506884Y-70174575D01*
X101693116Y-70174575D01*
X101875770Y-70210907D01*
G37*
G36*
X124735770Y-70210907D02*
G01*
X124907827Y-70282175D01*
X125062674Y-70385640D01*
X125194360Y-70517326D01*
X125297825Y-70672173D01*
X125369093Y-70844230D01*
X125405425Y-71026884D01*
X125405425Y-71213116D01*
X125369093Y-71395770D01*
X125297825Y-71567827D01*
X125194360Y-71722674D01*
X125062674Y-71854360D01*
X124907827Y-71957825D01*
X124735770Y-72029093D01*
X124553116Y-72065425D01*
X124366884Y-72065425D01*
X124184230Y-72029093D01*
X124012173Y-71957825D01*
X123857326Y-71854360D01*
X123725640Y-71722674D01*
X123622175Y-71567827D01*
X123550907Y-71395770D01*
X123514575Y-71213116D01*
X123514575Y-71026884D01*
X123550907Y-70844230D01*
X123622175Y-70672173D01*
X123725640Y-70517326D01*
X123857326Y-70385640D01*
X124012173Y-70282175D01*
X124184230Y-70210907D01*
X124366884Y-70174575D01*
X124553116Y-70174575D01*
X124735770Y-70210907D01*
G37*
G36*
X121974868Y-70539550D02*
G01*
X121980586Y-70542345D01*
X121982962Y-70542722D01*
X122020987Y-70562096D01*
X122078377Y-70590153D01*
X122159847Y-70671623D01*
X122187907Y-70729020D01*
X122207276Y-70767034D01*
X122207652Y-70769408D01*
X122210450Y-70775132D01*
X122225000Y-70875000D01*
X122225000Y-71625000D01*
X122210450Y-71724868D01*
X122207652Y-71730589D01*
X122207277Y-71732962D01*
X122187926Y-71770939D01*
X122159847Y-71828377D01*
X122078377Y-71909847D01*
X122020955Y-71937919D01*
X121982965Y-71957276D01*
X121980591Y-71957651D01*
X121974868Y-71960450D01*
X121875000Y-71975000D01*
X120625000Y-71975000D01*
X120525132Y-71960450D01*
X120519410Y-71957652D01*
X120517037Y-71957277D01*
X120479035Y-71937914D01*
X120421623Y-71909847D01*
X120340153Y-71828377D01*
X120312104Y-71771003D01*
X120292723Y-71732965D01*
X120292346Y-71730588D01*
X120289550Y-71724868D01*
X120275000Y-71625000D01*
X120275000Y-70875000D01*
X120289550Y-70775132D01*
X120292345Y-70769413D01*
X120292722Y-70767037D01*
X120312108Y-70728987D01*
X120340153Y-70671623D01*
X120421623Y-70590153D01*
X120478971Y-70562116D01*
X120517034Y-70542723D01*
X120519411Y-70542346D01*
X120525132Y-70539550D01*
X120625000Y-70525000D01*
X121875000Y-70525000D01*
X121974868Y-70539550D01*
G37*
G36*
X119343685Y-70832969D02*
G01*
X119352358Y-70836798D01*
X119359925Y-70837901D01*
X119407223Y-70861023D01*
X119444541Y-70877501D01*
X119447996Y-70880956D01*
X119448920Y-70881408D01*
X119518591Y-70951079D01*
X119519042Y-70952002D01*
X119522499Y-70955459D01*
X119538978Y-70992782D01*
X119562098Y-71040073D01*
X119563200Y-71047639D01*
X119567031Y-71056315D01*
X119575000Y-71125000D01*
X119575000Y-71525000D01*
X119567031Y-71593685D01*
X119563199Y-71602361D01*
X119562098Y-71609925D01*
X119538985Y-71657202D01*
X119522499Y-71694541D01*
X119519041Y-71697998D01*
X119518591Y-71698920D01*
X119448920Y-71768591D01*
X119447998Y-71769041D01*
X119444541Y-71772499D01*
X119407207Y-71788983D01*
X119359926Y-71812098D01*
X119352361Y-71813200D01*
X119343685Y-71817031D01*
X119275000Y-71825000D01*
X118725000Y-71825000D01*
X118656315Y-71817031D01*
X118647638Y-71813200D01*
X118640074Y-71812098D01*
X118592787Y-71788981D01*
X118555459Y-71772499D01*
X118552002Y-71769042D01*
X118551079Y-71768591D01*
X118481408Y-71698920D01*
X118480956Y-71697996D01*
X118477501Y-71694541D01*
X118461025Y-71657228D01*
X118437901Y-71609926D01*
X118436798Y-71602357D01*
X118432969Y-71593685D01*
X118425000Y-71525000D01*
X118425000Y-71125000D01*
X118432969Y-71056315D01*
X118436798Y-71047642D01*
X118437901Y-71040074D01*
X118461028Y-70992766D01*
X118477501Y-70955459D01*
X118480955Y-70952004D01*
X118481408Y-70951079D01*
X118551079Y-70881408D01*
X118552004Y-70880955D01*
X118555459Y-70877501D01*
X118592761Y-70861030D01*
X118640073Y-70837901D01*
X118647642Y-70836798D01*
X118656315Y-70832969D01*
X118725000Y-70825000D01*
X119275000Y-70825000D01*
X119343685Y-70832969D01*
G37*
G36*
X105834116Y-69611074D02*
G01*
X105839447Y-69613560D01*
X105842061Y-69613941D01*
X105879201Y-69632097D01*
X105936412Y-69658776D01*
X106016224Y-69738588D01*
X106042912Y-69795821D01*
X106061058Y-69832938D01*
X106061438Y-69835549D01*
X106063926Y-69840884D01*
X106075000Y-69925000D01*
X106075000Y-70375000D01*
X106063926Y-70459116D01*
X106061438Y-70464450D01*
X106061058Y-70467061D01*
X106042922Y-70504157D01*
X106016224Y-70561412D01*
X105936412Y-70641224D01*
X105879157Y-70667922D01*
X105842061Y-70686058D01*
X105839450Y-70686438D01*
X105834116Y-70688926D01*
X105750000Y-70700000D01*
X105250000Y-70700000D01*
X105165884Y-70688926D01*
X105160549Y-70686438D01*
X105157938Y-70686058D01*
X105120821Y-70667912D01*
X105063588Y-70641224D01*
X104983776Y-70561412D01*
X104957097Y-70504201D01*
X104938941Y-70467061D01*
X104938560Y-70464447D01*
X104936074Y-70459116D01*
X104925000Y-70375000D01*
X104925000Y-69925000D01*
X104936074Y-69840884D01*
X104938560Y-69835552D01*
X104938941Y-69832938D01*
X104957108Y-69795776D01*
X104983776Y-69738588D01*
X105063588Y-69658776D01*
X105120776Y-69632108D01*
X105157938Y-69613941D01*
X105160552Y-69613560D01*
X105165884Y-69611074D01*
X105250000Y-69600000D01*
X105750000Y-69600000D01*
X105834116Y-69611074D01*
G37*
G36*
X107593685Y-69607969D02*
G01*
X107602358Y-69611798D01*
X107609925Y-69612901D01*
X107657223Y-69636023D01*
X107694541Y-69652501D01*
X107697996Y-69655956D01*
X107698920Y-69656408D01*
X107768591Y-69726079D01*
X107769042Y-69727002D01*
X107772499Y-69730459D01*
X107788978Y-69767782D01*
X107812098Y-69815073D01*
X107813200Y-69822639D01*
X107817031Y-69831315D01*
X107825000Y-69900000D01*
X107825000Y-70300000D01*
X107817031Y-70368685D01*
X107813199Y-70377361D01*
X107812098Y-70384925D01*
X107788985Y-70432202D01*
X107772499Y-70469541D01*
X107769041Y-70472998D01*
X107768591Y-70473920D01*
X107698920Y-70543591D01*
X107697998Y-70544041D01*
X107694541Y-70547499D01*
X107657207Y-70563983D01*
X107609926Y-70587098D01*
X107602361Y-70588200D01*
X107593685Y-70592031D01*
X107525000Y-70600000D01*
X106975000Y-70600000D01*
X106906315Y-70592031D01*
X106897638Y-70588200D01*
X106890074Y-70587098D01*
X106842787Y-70563981D01*
X106805459Y-70547499D01*
X106802002Y-70544042D01*
X106801079Y-70543591D01*
X106731408Y-70473920D01*
X106730956Y-70472996D01*
X106727501Y-70469541D01*
X106711025Y-70432228D01*
X106687901Y-70384926D01*
X106686798Y-70377357D01*
X106682969Y-70368685D01*
X106675000Y-70300000D01*
X106675000Y-69900000D01*
X106682969Y-69831315D01*
X106686798Y-69822642D01*
X106687901Y-69815074D01*
X106711028Y-69767766D01*
X106727501Y-69730459D01*
X106730955Y-69727004D01*
X106731408Y-69726079D01*
X106801079Y-69656408D01*
X106802004Y-69655955D01*
X106805459Y-69652501D01*
X106842761Y-69636030D01*
X106890073Y-69612901D01*
X106897642Y-69611798D01*
X106906315Y-69607969D01*
X106975000Y-69600000D01*
X107525000Y-69600000D01*
X107593685Y-69607969D01*
G37*
G36*
X111316970Y-65263321D02*
G01*
X111373744Y-65301256D01*
X111411679Y-65358030D01*
X111425000Y-65425000D01*
X111425000Y-65575000D01*
X111411679Y-65641970D01*
X111373744Y-65698744D01*
X111335300Y-65724431D01*
X111335300Y-65775568D01*
X111373744Y-65801256D01*
X111411679Y-65858030D01*
X111425000Y-65925000D01*
X111425000Y-66075000D01*
X111411679Y-66141970D01*
X111373744Y-66198744D01*
X111335300Y-66224431D01*
X111335300Y-66275568D01*
X111373744Y-66301256D01*
X111411679Y-66358030D01*
X111425000Y-66425000D01*
X111425000Y-66575000D01*
X111411679Y-66641970D01*
X111373744Y-66698744D01*
X111335300Y-66724431D01*
X111335300Y-66775568D01*
X111373744Y-66801256D01*
X111411679Y-66858030D01*
X111425000Y-66925000D01*
X111425000Y-67075000D01*
X111411679Y-67141970D01*
X111373744Y-67198744D01*
X111335300Y-67224431D01*
X111335300Y-67275568D01*
X111373744Y-67301256D01*
X111411679Y-67358030D01*
X111425000Y-67425000D01*
X111425000Y-67575000D01*
X111411679Y-67641970D01*
X111373744Y-67698744D01*
X111335300Y-67724431D01*
X111335300Y-67775568D01*
X111373744Y-67801256D01*
X111411679Y-67858030D01*
X111425000Y-67925000D01*
X111425000Y-68075000D01*
X111411679Y-68141970D01*
X111373744Y-68198744D01*
X111335300Y-68224431D01*
X111335300Y-68275568D01*
X111373744Y-68301256D01*
X111411679Y-68358030D01*
X111425000Y-68425000D01*
X111425000Y-68575000D01*
X111411679Y-68641970D01*
X111373744Y-68698744D01*
X111335300Y-68724431D01*
X111335300Y-68775568D01*
X111373744Y-68801256D01*
X111411679Y-68858030D01*
X111425000Y-68925000D01*
X111425000Y-69075000D01*
X111411679Y-69141970D01*
X111373744Y-69198744D01*
X111335300Y-69224431D01*
X111335300Y-69275568D01*
X111373744Y-69301256D01*
X111411679Y-69358030D01*
X111425000Y-69425000D01*
X111425000Y-69575000D01*
X111411679Y-69641970D01*
X111373744Y-69698744D01*
X111335300Y-69724431D01*
X111335300Y-69775568D01*
X111373744Y-69801256D01*
X111411679Y-69858030D01*
X111425000Y-69925000D01*
X111425000Y-70075000D01*
X111411679Y-70141970D01*
X111373744Y-70198744D01*
X111316970Y-70236679D01*
X111250000Y-70250000D01*
X109950000Y-70250000D01*
X109883030Y-70236679D01*
X109826256Y-70198744D01*
X109788321Y-70141970D01*
X109775000Y-70075000D01*
X109775000Y-69925000D01*
X109788321Y-69858030D01*
X109826256Y-69801256D01*
X109864699Y-69775569D01*
X109864699Y-69724430D01*
X109826256Y-69698744D01*
X109788321Y-69641970D01*
X109775000Y-69575000D01*
X109775000Y-69425000D01*
X109788321Y-69358030D01*
X109826256Y-69301256D01*
X109864699Y-69275569D01*
X109864699Y-69224430D01*
X109826256Y-69198744D01*
X109788321Y-69141970D01*
X109775000Y-69075000D01*
X109775000Y-68925000D01*
X109788321Y-68858030D01*
X109826256Y-68801256D01*
X109864699Y-68775569D01*
X109864699Y-68724430D01*
X109826256Y-68698744D01*
X109788321Y-68641970D01*
X109775000Y-68575000D01*
X109775000Y-68425000D01*
X109788321Y-68358030D01*
X109826256Y-68301256D01*
X109864699Y-68275569D01*
X109864699Y-68224430D01*
X109826256Y-68198744D01*
X109788321Y-68141970D01*
X109775000Y-68075000D01*
X109775000Y-67925000D01*
X109788321Y-67858030D01*
X109826256Y-67801256D01*
X109864699Y-67775569D01*
X109864699Y-67724430D01*
X109826256Y-67698744D01*
X109788321Y-67641970D01*
X109775000Y-67575000D01*
X109775000Y-67425000D01*
X109788321Y-67358030D01*
X109826256Y-67301256D01*
X109864699Y-67275569D01*
X109864699Y-67224430D01*
X109826256Y-67198744D01*
X109788321Y-67141970D01*
X109775000Y-67075000D01*
X109775000Y-66925000D01*
X109788321Y-66858030D01*
X109826256Y-66801256D01*
X109864699Y-66775569D01*
X109864699Y-66724430D01*
X109826256Y-66698744D01*
X109788321Y-66641970D01*
X109775000Y-66575000D01*
X109775000Y-66425000D01*
X109788321Y-66358030D01*
X109826256Y-66301256D01*
X109864699Y-66275569D01*
X109864699Y-66224430D01*
X109826256Y-66198744D01*
X109788321Y-66141970D01*
X109775000Y-66075000D01*
X109775000Y-65925000D01*
X109788321Y-65858030D01*
X109826256Y-65801256D01*
X109864699Y-65775569D01*
X109864699Y-65724430D01*
X109826256Y-65698744D01*
X109788321Y-65641970D01*
X109775000Y-65575000D01*
X109775000Y-65425000D01*
X109788321Y-65358030D01*
X109826256Y-65301256D01*
X109883030Y-65263321D01*
X109950000Y-65250000D01*
X111250000Y-65250000D01*
X111316970Y-65263321D01*
G37*
G36*
X115716970Y-65263321D02*
G01*
X115773744Y-65301256D01*
X115811679Y-65358030D01*
X115825000Y-65425000D01*
X115825000Y-65575000D01*
X115811679Y-65641970D01*
X115773744Y-65698744D01*
X115735300Y-65724431D01*
X115735300Y-65775568D01*
X115773744Y-65801256D01*
X115811679Y-65858030D01*
X115825000Y-65925000D01*
X115825000Y-66075000D01*
X115811679Y-66141970D01*
X115773744Y-66198744D01*
X115735300Y-66224431D01*
X115735300Y-66275568D01*
X115773744Y-66301256D01*
X115811679Y-66358030D01*
X115825000Y-66425000D01*
X115825000Y-66575000D01*
X115811679Y-66641970D01*
X115773744Y-66698744D01*
X115735300Y-66724431D01*
X115735300Y-66775568D01*
X115773744Y-66801256D01*
X115811679Y-66858030D01*
X115825000Y-66925000D01*
X115825000Y-67075000D01*
X115811679Y-67141970D01*
X115773744Y-67198744D01*
X115735300Y-67224431D01*
X115735300Y-67275568D01*
X115773744Y-67301256D01*
X115811679Y-67358030D01*
X115825000Y-67425000D01*
X115825000Y-67575000D01*
X115811679Y-67641970D01*
X115773744Y-67698744D01*
X115735300Y-67724431D01*
X115735300Y-67775568D01*
X115773744Y-67801256D01*
X115811679Y-67858030D01*
X115825000Y-67925000D01*
X115825000Y-68075000D01*
X115811679Y-68141970D01*
X115773744Y-68198744D01*
X115735300Y-68224431D01*
X115735300Y-68275568D01*
X115773744Y-68301256D01*
X115811679Y-68358030D01*
X115825000Y-68425000D01*
X115825000Y-68575000D01*
X115811679Y-68641970D01*
X115773744Y-68698744D01*
X115735300Y-68724431D01*
X115735300Y-68775568D01*
X115773744Y-68801256D01*
X115811679Y-68858030D01*
X115825000Y-68925000D01*
X115825000Y-69075000D01*
X115811679Y-69141970D01*
X115773744Y-69198744D01*
X115735300Y-69224431D01*
X115735300Y-69275568D01*
X115773744Y-69301256D01*
X115811679Y-69358030D01*
X115825000Y-69425000D01*
X115825000Y-69575000D01*
X115811679Y-69641970D01*
X115773744Y-69698744D01*
X115735300Y-69724431D01*
X115735300Y-69775568D01*
X115773744Y-69801256D01*
X115811679Y-69858030D01*
X115825000Y-69925000D01*
X115825000Y-70075000D01*
X115811679Y-70141970D01*
X115773744Y-70198744D01*
X115716970Y-70236679D01*
X115650000Y-70250000D01*
X114350000Y-70250000D01*
X114283030Y-70236679D01*
X114226256Y-70198744D01*
X114188321Y-70141970D01*
X114175000Y-70075000D01*
X114175000Y-69925000D01*
X114188321Y-69858030D01*
X114226256Y-69801256D01*
X114264699Y-69775569D01*
X114264699Y-69724430D01*
X114226256Y-69698744D01*
X114188321Y-69641970D01*
X114175000Y-69575000D01*
X114175000Y-69425000D01*
X114188321Y-69358030D01*
X114226256Y-69301256D01*
X114264699Y-69275569D01*
X114264699Y-69224430D01*
X114226256Y-69198744D01*
X114188321Y-69141970D01*
X114175000Y-69075000D01*
X114175000Y-68925000D01*
X114188321Y-68858030D01*
X114226256Y-68801256D01*
X114264699Y-68775569D01*
X114264699Y-68724430D01*
X114226256Y-68698744D01*
X114188321Y-68641970D01*
X114175000Y-68575000D01*
X114175000Y-68425000D01*
X114188321Y-68358030D01*
X114226256Y-68301256D01*
X114264699Y-68275569D01*
X114264699Y-68224430D01*
X114226256Y-68198744D01*
X114188321Y-68141970D01*
X114175000Y-68075000D01*
X114175000Y-67925000D01*
X114188321Y-67858030D01*
X114226256Y-67801256D01*
X114264699Y-67775569D01*
X114264699Y-67724430D01*
X114226256Y-67698744D01*
X114188321Y-67641970D01*
X114175000Y-67575000D01*
X114175000Y-67425000D01*
X114188321Y-67358030D01*
X114226256Y-67301256D01*
X114264699Y-67275569D01*
X114264699Y-67224430D01*
X114226256Y-67198744D01*
X114188321Y-67141970D01*
X114175000Y-67075000D01*
X114175000Y-66925000D01*
X114188321Y-66858030D01*
X114226256Y-66801256D01*
X114264699Y-66775569D01*
X114264699Y-66724430D01*
X114226256Y-66698744D01*
X114188321Y-66641970D01*
X114175000Y-66575000D01*
X114175000Y-66425000D01*
X114188321Y-66358030D01*
X114226256Y-66301256D01*
X114264699Y-66275569D01*
X114264699Y-66224430D01*
X114226256Y-66198744D01*
X114188321Y-66141970D01*
X114175000Y-66075000D01*
X114175000Y-65925000D01*
X114188321Y-65858030D01*
X114226256Y-65801256D01*
X114264699Y-65775569D01*
X114264699Y-65724430D01*
X114226256Y-65698744D01*
X114188321Y-65641970D01*
X114175000Y-65575000D01*
X114175000Y-65425000D01*
X114188321Y-65358030D01*
X114226256Y-65301256D01*
X114283030Y-65263321D01*
X114350000Y-65250000D01*
X115650000Y-65250000D01*
X115716970Y-65263321D01*
G37*
G36*
X119343685Y-69182969D02*
G01*
X119352358Y-69186798D01*
X119359925Y-69187901D01*
X119407223Y-69211023D01*
X119444541Y-69227501D01*
X119447996Y-69230956D01*
X119448920Y-69231408D01*
X119518591Y-69301079D01*
X119519042Y-69302002D01*
X119522499Y-69305459D01*
X119538978Y-69342782D01*
X119562098Y-69390073D01*
X119563200Y-69397639D01*
X119567031Y-69406315D01*
X119575000Y-69475000D01*
X119575000Y-69875000D01*
X119567031Y-69943685D01*
X119563199Y-69952361D01*
X119562098Y-69959925D01*
X119538985Y-70007202D01*
X119522499Y-70044541D01*
X119519041Y-70047998D01*
X119518591Y-70048920D01*
X119448920Y-70118591D01*
X119447998Y-70119041D01*
X119444541Y-70122499D01*
X119407207Y-70138983D01*
X119359926Y-70162098D01*
X119352361Y-70163200D01*
X119343685Y-70167031D01*
X119275000Y-70175000D01*
X118725000Y-70175000D01*
X118656315Y-70167031D01*
X118647638Y-70163200D01*
X118640074Y-70162098D01*
X118592787Y-70138981D01*
X118555459Y-70122499D01*
X118552002Y-70119042D01*
X118551079Y-70118591D01*
X118481408Y-70048920D01*
X118480956Y-70047996D01*
X118477501Y-70044541D01*
X118461025Y-70007228D01*
X118437901Y-69959926D01*
X118436798Y-69952357D01*
X118432969Y-69943685D01*
X118425000Y-69875000D01*
X118425000Y-69475000D01*
X118432969Y-69406315D01*
X118436798Y-69397642D01*
X118437901Y-69390074D01*
X118461028Y-69342766D01*
X118477501Y-69305459D01*
X118480955Y-69302004D01*
X118481408Y-69301079D01*
X118551079Y-69231408D01*
X118552004Y-69230955D01*
X118555459Y-69227501D01*
X118592761Y-69211030D01*
X118640073Y-69187901D01*
X118647642Y-69186798D01*
X118656315Y-69182969D01*
X118725000Y-69175000D01*
X119275000Y-69175000D01*
X119343685Y-69182969D01*
G37*
G36*
X101875770Y-67670907D02*
G01*
X102047827Y-67742175D01*
X102202674Y-67845640D01*
X102334360Y-67977326D01*
X102437825Y-68132173D01*
X102509093Y-68304230D01*
X102545425Y-68486884D01*
X102545425Y-68673116D01*
X102509093Y-68855770D01*
X102437825Y-69027827D01*
X102334360Y-69182674D01*
X102202674Y-69314360D01*
X102047827Y-69417825D01*
X101875770Y-69489093D01*
X101693116Y-69525425D01*
X101506884Y-69525425D01*
X101324230Y-69489093D01*
X101152173Y-69417825D01*
X100997326Y-69314360D01*
X100865640Y-69182674D01*
X100762175Y-69027827D01*
X100690907Y-68855770D01*
X100654575Y-68673116D01*
X100654575Y-68486884D01*
X100690907Y-68304230D01*
X100762175Y-68132173D01*
X100865640Y-67977326D01*
X100997326Y-67845640D01*
X101152173Y-67742175D01*
X101324230Y-67670907D01*
X101506884Y-67634575D01*
X101693116Y-67634575D01*
X101875770Y-67670907D01*
G37*
G36*
X124735770Y-67670907D02*
G01*
X124907827Y-67742175D01*
X125062674Y-67845640D01*
X125194360Y-67977326D01*
X125297825Y-68132173D01*
X125369093Y-68304230D01*
X125405425Y-68486884D01*
X125405425Y-68673116D01*
X125369093Y-68855770D01*
X125297825Y-69027827D01*
X125194360Y-69182674D01*
X125062674Y-69314360D01*
X124907827Y-69417825D01*
X124735770Y-69489093D01*
X124553116Y-69525425D01*
X124366884Y-69525425D01*
X124184230Y-69489093D01*
X124012173Y-69417825D01*
X123857326Y-69314360D01*
X123725640Y-69182674D01*
X123622175Y-69027827D01*
X123550907Y-68855770D01*
X123514575Y-68673116D01*
X123514575Y-68486884D01*
X123550907Y-68304230D01*
X123622175Y-68132173D01*
X123725640Y-67977326D01*
X123857326Y-67845640D01*
X124012173Y-67742175D01*
X124184230Y-67670907D01*
X124366884Y-67634575D01*
X124553116Y-67634575D01*
X124735770Y-67670907D01*
G37*
G36*
X121974868Y-67739550D02*
G01*
X121980586Y-67742345D01*
X121982962Y-67742722D01*
X122020987Y-67762096D01*
X122078377Y-67790153D01*
X122159847Y-67871623D01*
X122187907Y-67929020D01*
X122207276Y-67967034D01*
X122207652Y-67969408D01*
X122210450Y-67975132D01*
X122225000Y-68075000D01*
X122225000Y-68825000D01*
X122210450Y-68924868D01*
X122207652Y-68930589D01*
X122207277Y-68932962D01*
X122187926Y-68970939D01*
X122159847Y-69028377D01*
X122078377Y-69109847D01*
X122020955Y-69137919D01*
X121982965Y-69157276D01*
X121980591Y-69157651D01*
X121974868Y-69160450D01*
X121875000Y-69175000D01*
X120625000Y-69175000D01*
X120525132Y-69160450D01*
X120519410Y-69157652D01*
X120517037Y-69157277D01*
X120479035Y-69137914D01*
X120421623Y-69109847D01*
X120340153Y-69028377D01*
X120312104Y-68971003D01*
X120292723Y-68932965D01*
X120292346Y-68930588D01*
X120289550Y-68924868D01*
X120275000Y-68825000D01*
X120275000Y-68075000D01*
X120289550Y-67975132D01*
X120292345Y-67969413D01*
X120292722Y-67967037D01*
X120312108Y-67928987D01*
X120340153Y-67871623D01*
X120421623Y-67790153D01*
X120478971Y-67762116D01*
X120517034Y-67742723D01*
X120519411Y-67742346D01*
X120525132Y-67739550D01*
X120625000Y-67725000D01*
X121875000Y-67725000D01*
X121974868Y-67739550D01*
G37*
G36*
X102488268Y-65097612D02*
G01*
X102520711Y-65119289D01*
X102542388Y-65151732D01*
X102550000Y-65190000D01*
X102550000Y-66890000D01*
X102542388Y-66928268D01*
X102520711Y-66960711D01*
X102488268Y-66982388D01*
X102450000Y-66990000D01*
X100750000Y-66990000D01*
X100711732Y-66982388D01*
X100679289Y-66960711D01*
X100657612Y-66928268D01*
X100650000Y-66890000D01*
X100650000Y-65190000D01*
X100657612Y-65151732D01*
X100679289Y-65119289D01*
X100711732Y-65097612D01*
X100750000Y-65090000D01*
X102450000Y-65090000D01*
X102488268Y-65097612D01*
G37*
G36*
X125348268Y-65097612D02*
G01*
X125380711Y-65119289D01*
X125402388Y-65151732D01*
X125410000Y-65190000D01*
X125410000Y-66890000D01*
X125402388Y-66928268D01*
X125380711Y-66960711D01*
X125348268Y-66982388D01*
X125310000Y-66990000D01*
X123610000Y-66990000D01*
X123571732Y-66982388D01*
X123539289Y-66960711D01*
X123517612Y-66928268D01*
X123510000Y-66890000D01*
X123510000Y-65190000D01*
X123517612Y-65151732D01*
X123539289Y-65119289D01*
X123571732Y-65097612D01*
X123610000Y-65090000D01*
X125310000Y-65090000D01*
X125348268Y-65097612D01*
G37*
G36*
X122224868Y-65189550D02*
G01*
X122230586Y-65192345D01*
X122232962Y-65192722D01*
X122270987Y-65212096D01*
X122328377Y-65240153D01*
X122409847Y-65321623D01*
X122437907Y-65379020D01*
X122457276Y-65417034D01*
X122457652Y-65419408D01*
X122460450Y-65425132D01*
X122475000Y-65525000D01*
X122475000Y-66275000D01*
X122460450Y-66374868D01*
X122457652Y-66380589D01*
X122457277Y-66382962D01*
X122437926Y-66420939D01*
X122409847Y-66478377D01*
X122328377Y-66559847D01*
X122270955Y-66587919D01*
X122232965Y-66607276D01*
X122230591Y-66607651D01*
X122224868Y-66610450D01*
X122125000Y-66625000D01*
X120875000Y-66625000D01*
X120775132Y-66610450D01*
X120769410Y-66607652D01*
X120767037Y-66607277D01*
X120729035Y-66587914D01*
X120671623Y-66559847D01*
X120590153Y-66478377D01*
X120562104Y-66421003D01*
X120542723Y-66382965D01*
X120542346Y-66380588D01*
X120539550Y-66374868D01*
X120525000Y-66275000D01*
X120525000Y-65525000D01*
X120539550Y-65425132D01*
X120542345Y-65419413D01*
X120542722Y-65417037D01*
X120562108Y-65378987D01*
X120590153Y-65321623D01*
X120671623Y-65240153D01*
X120728971Y-65212116D01*
X120767034Y-65192723D01*
X120769411Y-65192346D01*
X120775132Y-65189550D01*
X120875000Y-65175000D01*
X122125000Y-65175000D01*
X122224868Y-65189550D01*
G37*
G36*
X108584116Y-65511074D02*
G01*
X108589447Y-65513560D01*
X108592061Y-65513941D01*
X108629201Y-65532097D01*
X108686412Y-65558776D01*
X108766224Y-65638588D01*
X108792912Y-65695821D01*
X108811058Y-65732938D01*
X108811438Y-65735549D01*
X108813926Y-65740884D01*
X108825000Y-65825000D01*
X108825000Y-66275000D01*
X108813926Y-66359116D01*
X108811438Y-66364450D01*
X108811058Y-66367061D01*
X108792922Y-66404157D01*
X108766224Y-66461412D01*
X108686412Y-66541224D01*
X108629157Y-66567922D01*
X108592061Y-66586058D01*
X108589450Y-66586438D01*
X108584116Y-66588926D01*
X108500000Y-66600000D01*
X108000000Y-66600000D01*
X107915884Y-66588926D01*
X107910549Y-66586438D01*
X107907938Y-66586058D01*
X107870821Y-66567912D01*
X107813588Y-66541224D01*
X107733776Y-66461412D01*
X107707097Y-66404201D01*
X107688941Y-66367061D01*
X107688560Y-66364447D01*
X107686074Y-66359116D01*
X107675000Y-66275000D01*
X107675000Y-65825000D01*
X107686074Y-65740884D01*
X107688560Y-65735552D01*
X107688941Y-65732938D01*
X107707108Y-65695776D01*
X107733776Y-65638588D01*
X107813588Y-65558776D01*
X107870776Y-65532108D01*
X107907938Y-65513941D01*
X107910552Y-65513560D01*
X107915884Y-65511074D01*
X108000000Y-65500000D01*
X108500000Y-65500000D01*
X108584116Y-65511074D01*
G37*
G36*
X119343685Y-64082969D02*
G01*
X119352358Y-64086798D01*
X119359925Y-64087901D01*
X119407223Y-64111023D01*
X119444541Y-64127501D01*
X119447996Y-64130956D01*
X119448920Y-64131408D01*
X119518591Y-64201079D01*
X119519042Y-64202002D01*
X119522499Y-64205459D01*
X119538978Y-64242782D01*
X119562098Y-64290073D01*
X119563200Y-64297639D01*
X119567031Y-64306315D01*
X119575000Y-64375000D01*
X119575000Y-64775000D01*
X119567031Y-64843685D01*
X119563199Y-64852361D01*
X119562098Y-64859925D01*
X119538985Y-64907202D01*
X119522499Y-64944541D01*
X119519041Y-64947998D01*
X119518591Y-64948920D01*
X119448920Y-65018591D01*
X119447998Y-65019041D01*
X119444541Y-65022499D01*
X119407207Y-65038983D01*
X119359926Y-65062098D01*
X119352361Y-65063200D01*
X119343685Y-65067031D01*
X119275000Y-65075000D01*
X118725000Y-65075000D01*
X118656315Y-65067031D01*
X118647638Y-65063200D01*
X118640074Y-65062098D01*
X118592787Y-65038981D01*
X118555459Y-65022499D01*
X118552002Y-65019042D01*
X118551079Y-65018591D01*
X118481408Y-64948920D01*
X118480956Y-64947996D01*
X118477501Y-64944541D01*
X118461025Y-64907228D01*
X118437901Y-64859926D01*
X118436798Y-64852357D01*
X118432969Y-64843685D01*
X118425000Y-64775000D01*
X118425000Y-64375000D01*
X118432969Y-64306315D01*
X118436798Y-64297642D01*
X118437901Y-64290074D01*
X118461028Y-64242766D01*
X118477501Y-64205459D01*
X118480955Y-64202004D01*
X118481408Y-64201079D01*
X118551079Y-64131408D01*
X118552004Y-64130955D01*
X118555459Y-64127501D01*
X118592761Y-64111030D01*
X118640073Y-64087901D01*
X118647642Y-64086798D01*
X118656315Y-64082969D01*
X118725000Y-64075000D01*
X119275000Y-64075000D01*
X119343685Y-64082969D01*
G37*
G36*
X108584116Y-63961074D02*
G01*
X108589447Y-63963560D01*
X108592061Y-63963941D01*
X108629201Y-63982097D01*
X108686412Y-64008776D01*
X108766224Y-64088588D01*
X108792912Y-64145821D01*
X108811058Y-64182938D01*
X108811438Y-64185549D01*
X108813926Y-64190884D01*
X108825000Y-64275000D01*
X108825000Y-64725000D01*
X108813926Y-64809116D01*
X108811438Y-64814450D01*
X108811058Y-64817061D01*
X108792922Y-64854157D01*
X108766224Y-64911412D01*
X108686412Y-64991224D01*
X108629157Y-65017922D01*
X108592061Y-65036058D01*
X108589450Y-65036438D01*
X108584116Y-65038926D01*
X108500000Y-65050000D01*
X108000000Y-65050000D01*
X107915884Y-65038926D01*
X107910549Y-65036438D01*
X107907938Y-65036058D01*
X107870821Y-65017912D01*
X107813588Y-64991224D01*
X107733776Y-64911412D01*
X107707097Y-64854201D01*
X107688941Y-64817061D01*
X107688560Y-64814447D01*
X107686074Y-64809116D01*
X107675000Y-64725000D01*
X107675000Y-64275000D01*
X107686074Y-64190884D01*
X107688560Y-64185552D01*
X107688941Y-64182938D01*
X107707108Y-64145776D01*
X107733776Y-64088588D01*
X107813588Y-64008776D01*
X107870776Y-63982108D01*
X107907938Y-63963941D01*
X107910552Y-63963560D01*
X107915884Y-63961074D01*
X108000000Y-63950000D01*
X108500000Y-63950000D01*
X108584116Y-63961074D01*
G37*
G36*
X122224868Y-62389550D02*
G01*
X122230586Y-62392345D01*
X122232962Y-62392722D01*
X122270987Y-62412096D01*
X122328377Y-62440153D01*
X122409847Y-62521623D01*
X122437907Y-62579020D01*
X122457276Y-62617034D01*
X122457652Y-62619408D01*
X122460450Y-62625132D01*
X122475000Y-62725000D01*
X122475000Y-63475000D01*
X122460450Y-63574868D01*
X122457652Y-63580589D01*
X122457277Y-63582962D01*
X122437926Y-63620939D01*
X122409847Y-63678377D01*
X122328377Y-63759847D01*
X122270955Y-63787919D01*
X122232965Y-63807276D01*
X122230591Y-63807651D01*
X122224868Y-63810450D01*
X122125000Y-63825000D01*
X120875000Y-63825000D01*
X120775132Y-63810450D01*
X120769410Y-63807652D01*
X120767037Y-63807277D01*
X120729035Y-63787914D01*
X120671623Y-63759847D01*
X120590153Y-63678377D01*
X120562104Y-63621003D01*
X120542723Y-63582965D01*
X120542346Y-63580588D01*
X120539550Y-63574868D01*
X120525000Y-63475000D01*
X120525000Y-62725000D01*
X120539550Y-62625132D01*
X120542345Y-62619413D01*
X120542722Y-62617037D01*
X120562108Y-62578987D01*
X120590153Y-62521623D01*
X120671623Y-62440153D01*
X120728971Y-62412116D01*
X120767034Y-62392723D01*
X120769411Y-62392346D01*
X120775132Y-62389550D01*
X120875000Y-62375000D01*
X122125000Y-62375000D01*
X122224868Y-62389550D01*
G37*
G36*
X119343685Y-62432969D02*
G01*
X119352358Y-62436798D01*
X119359925Y-62437901D01*
X119407223Y-62461023D01*
X119444541Y-62477501D01*
X119447996Y-62480956D01*
X119448920Y-62481408D01*
X119518591Y-62551079D01*
X119519042Y-62552002D01*
X119522499Y-62555459D01*
X119538978Y-62592782D01*
X119562098Y-62640073D01*
X119563200Y-62647639D01*
X119567031Y-62656315D01*
X119575000Y-62725000D01*
X119575000Y-63125000D01*
X119567031Y-63193685D01*
X119563199Y-63202361D01*
X119562098Y-63209925D01*
X119538985Y-63257202D01*
X119522499Y-63294541D01*
X119519041Y-63297998D01*
X119518591Y-63298920D01*
X119448920Y-63368591D01*
X119447998Y-63369041D01*
X119444541Y-63372499D01*
X119407207Y-63388983D01*
X119359926Y-63412098D01*
X119352361Y-63413200D01*
X119343685Y-63417031D01*
X119275000Y-63425000D01*
X118725000Y-63425000D01*
X118656315Y-63417031D01*
X118647638Y-63413200D01*
X118640074Y-63412098D01*
X118592787Y-63388981D01*
X118555459Y-63372499D01*
X118552002Y-63369042D01*
X118551079Y-63368591D01*
X118481408Y-63298920D01*
X118480956Y-63297996D01*
X118477501Y-63294541D01*
X118461025Y-63257228D01*
X118437901Y-63209926D01*
X118436798Y-63202357D01*
X118432969Y-63193685D01*
X118425000Y-63125000D01*
X118425000Y-62725000D01*
X118432969Y-62656315D01*
X118436798Y-62647642D01*
X118437901Y-62640074D01*
X118461028Y-62592766D01*
X118477501Y-62555459D01*
X118480955Y-62552004D01*
X118481408Y-62551079D01*
X118551079Y-62481408D01*
X118552004Y-62480955D01*
X118555459Y-62477501D01*
X118592761Y-62461030D01*
X118640073Y-62437901D01*
X118647642Y-62436798D01*
X118656315Y-62432969D01*
X118725000Y-62425000D01*
X119275000Y-62425000D01*
X119343685Y-62432969D01*
G37*
G36*
X101984211Y-55235718D02*
G01*
X102301835Y-55298897D01*
X102611737Y-55392905D01*
X102910932Y-55516835D01*
X103196539Y-55669496D01*
X103465808Y-55849415D01*
X103716145Y-56054861D01*
X103945139Y-56283855D01*
X104150585Y-56534192D01*
X104330504Y-56803461D01*
X104483165Y-57089068D01*
X104607095Y-57388263D01*
X104701103Y-57698165D01*
X104764282Y-58015789D01*
X104796025Y-58338077D01*
X104796025Y-58661923D01*
X104764282Y-58984211D01*
X104701103Y-59301835D01*
X104607095Y-59611737D01*
X104483165Y-59910932D01*
X104330504Y-60196539D01*
X104150585Y-60465808D01*
X103945139Y-60716145D01*
X103716145Y-60945139D01*
X103465808Y-61150585D01*
X103196539Y-61330504D01*
X102910932Y-61483165D01*
X102611737Y-61607095D01*
X102301835Y-61701103D01*
X101984211Y-61764282D01*
X101661923Y-61796025D01*
X101338077Y-61796025D01*
X101015789Y-61764282D01*
X100698165Y-61701103D01*
X100388263Y-61607095D01*
X100089068Y-61483165D01*
X99803461Y-61330504D01*
X99534192Y-61150585D01*
X99283855Y-60945139D01*
X99054861Y-60716145D01*
X98849415Y-60465808D01*
X98669496Y-60196539D01*
X98516835Y-59910932D01*
X98392905Y-59611737D01*
X98298897Y-59301835D01*
X98235718Y-58984211D01*
X98203975Y-58661923D01*
X98203975Y-58338077D01*
X98235718Y-58015789D01*
X98298897Y-57698165D01*
X98392905Y-57388263D01*
X98516835Y-57089068D01*
X98669496Y-56803461D01*
X98849415Y-56534192D01*
X99054861Y-56283855D01*
X99283855Y-56054861D01*
X99534192Y-55849415D01*
X99803461Y-55669496D01*
X100089068Y-55516835D01*
X100388263Y-55392905D01*
X100698165Y-55298897D01*
X101015789Y-55235718D01*
X101338077Y-55203975D01*
X101661923Y-55203975D01*
X101984211Y-55235718D01*
G37*
G36*
X124984211Y-55235718D02*
G01*
X125301835Y-55298897D01*
X125611737Y-55392905D01*
X125910932Y-55516835D01*
X126196539Y-55669496D01*
X126465808Y-55849415D01*
X126716145Y-56054861D01*
X126945139Y-56283855D01*
X127150585Y-56534192D01*
X127330504Y-56803461D01*
X127483165Y-57089068D01*
X127607095Y-57388263D01*
X127701103Y-57698165D01*
X127764282Y-58015789D01*
X127796025Y-58338077D01*
X127796025Y-58661923D01*
X127764282Y-58984211D01*
X127701103Y-59301835D01*
X127607095Y-59611737D01*
X127483165Y-59910932D01*
X127330504Y-60196539D01*
X127150585Y-60465808D01*
X126945139Y-60716145D01*
X126716145Y-60945139D01*
X126465808Y-61150585D01*
X126196539Y-61330504D01*
X125910932Y-61483165D01*
X125611737Y-61607095D01*
X125301835Y-61701103D01*
X124984211Y-61764282D01*
X124661923Y-61796025D01*
X124338077Y-61796025D01*
X124015789Y-61764282D01*
X123698165Y-61701103D01*
X123388263Y-61607095D01*
X123089068Y-61483165D01*
X122803461Y-61330504D01*
X122534192Y-61150585D01*
X122283855Y-60945139D01*
X122054861Y-60716145D01*
X121849415Y-60465808D01*
X121669496Y-60196539D01*
X121516835Y-59910932D01*
X121392905Y-59611737D01*
X121298897Y-59301835D01*
X121235718Y-58984211D01*
X121203975Y-58661923D01*
X121203975Y-58338077D01*
X121235718Y-58015789D01*
X121298897Y-57698165D01*
X121392905Y-57388263D01*
X121516835Y-57089068D01*
X121669496Y-56803461D01*
X121849415Y-56534192D01*
X122054861Y-56283855D01*
X122283855Y-56054861D01*
X122534192Y-55849415D01*
X122803461Y-55669496D01*
X123089068Y-55516835D01*
X123388263Y-55392905D01*
X123698165Y-55298897D01*
X124015789Y-55235718D01*
X124338077Y-55203975D01*
X124661923Y-55203975D01*
X124984211Y-55235718D01*
G37*
G36*
X110078268Y-57442612D02*
G01*
X110110711Y-57464289D01*
X110132388Y-57496732D01*
X110140000Y-57535000D01*
X110140000Y-59235000D01*
X110132388Y-59273268D01*
X110110711Y-59305711D01*
X110078268Y-59327388D01*
X110040000Y-59335000D01*
X108340000Y-59335000D01*
X108301732Y-59327388D01*
X108269289Y-59305711D01*
X108247612Y-59273268D01*
X108240000Y-59235000D01*
X108240000Y-57535000D01*
X108247612Y-57496732D01*
X108269289Y-57464289D01*
X108301732Y-57442612D01*
X108340000Y-57435000D01*
X110040000Y-57435000D01*
X110078268Y-57442612D01*
G37*
G36*
X112005770Y-57475907D02*
G01*
X112177827Y-57547175D01*
X112332674Y-57650640D01*
X112464360Y-57782326D01*
X112567825Y-57937173D01*
X112639093Y-58109230D01*
X112675425Y-58291884D01*
X112675425Y-58478116D01*
X112639093Y-58660770D01*
X112567825Y-58832827D01*
X112464360Y-58987674D01*
X112332674Y-59119360D01*
X112177827Y-59222825D01*
X112005770Y-59294093D01*
X111823116Y-59330425D01*
X111636884Y-59330425D01*
X111454230Y-59294093D01*
X111282173Y-59222825D01*
X111127326Y-59119360D01*
X110995640Y-58987674D01*
X110892175Y-58832827D01*
X110820907Y-58660770D01*
X110784575Y-58478116D01*
X110784575Y-58291884D01*
X110820907Y-58109230D01*
X110892175Y-57937173D01*
X110995640Y-57782326D01*
X111127326Y-57650640D01*
X111282173Y-57547175D01*
X111454230Y-57475907D01*
X111636884Y-57439575D01*
X111823116Y-57439575D01*
X112005770Y-57475907D01*
G37*
G36*
X114545770Y-57475907D02*
G01*
X114717827Y-57547175D01*
X114872674Y-57650640D01*
X115004360Y-57782326D01*
X115107825Y-57937173D01*
X115179093Y-58109230D01*
X115215425Y-58291884D01*
X115215425Y-58478116D01*
X115179093Y-58660770D01*
X115107825Y-58832827D01*
X115004360Y-58987674D01*
X114872674Y-59119360D01*
X114717827Y-59222825D01*
X114545770Y-59294093D01*
X114363116Y-59330425D01*
X114176884Y-59330425D01*
X113994230Y-59294093D01*
X113822173Y-59222825D01*
X113667326Y-59119360D01*
X113535640Y-58987674D01*
X113432175Y-58832827D01*
X113360907Y-58660770D01*
X113324575Y-58478116D01*
X113324575Y-58291884D01*
X113360907Y-58109230D01*
X113432175Y-57937173D01*
X113535640Y-57782326D01*
X113667326Y-57650640D01*
X113822173Y-57547175D01*
X113994230Y-57475907D01*
X114176884Y-57439575D01*
X114363116Y-57439575D01*
X114545770Y-57475907D01*
G37*
G36*
X117085770Y-57475907D02*
G01*
X117257827Y-57547175D01*
X117412674Y-57650640D01*
X117544360Y-57782326D01*
X117647825Y-57937173D01*
X117719093Y-58109230D01*
X117755425Y-58291884D01*
X117755425Y-58478116D01*
X117719093Y-58660770D01*
X117647825Y-58832827D01*
X117544360Y-58987674D01*
X117412674Y-59119360D01*
X117257827Y-59222825D01*
X117085770Y-59294093D01*
X116903116Y-59330425D01*
X116716884Y-59330425D01*
X116534230Y-59294093D01*
X116362173Y-59222825D01*
X116207326Y-59119360D01*
X116075640Y-58987674D01*
X115972175Y-58832827D01*
X115900907Y-58660770D01*
X115864575Y-58478116D01*
X115864575Y-58291884D01*
X115900907Y-58109230D01*
X115972175Y-57937173D01*
X116075640Y-57782326D01*
X116207326Y-57650640D01*
X116362173Y-57547175D01*
X116534230Y-57475907D01*
X116716884Y-57439575D01*
X116903116Y-57439575D01*
X117085770Y-57475907D01*
G37*
M02*
