%TF.GenerationSoftware,KiCad,Pcbnew,9.0.6*%
%TF.CreationDate,2026-10-05T21:39:16+05:30*%
%TF.ProjectId,Tachiyon-_,54616368-6979-46f6-9e2d-b12e6b696361,rev?*%
%TF.SameCoordinates,Original*%
%TF.FileFunction,Copper,L1,Top*%
%TF.FilePolarity,Positive*%
%FSLAX46Y46*%
G04 Gerber Fmt 4.6, Leading zero omitted, Abs format (unit mm)*
G04 Created by KiCad (PCBNEW 9.0.6) date 2026-10-05 21:39:16*
%MOMM*%
%LPD*%
G01*
G04 APERTURE LIST*
G04 Aperture macros list*
%AMRoundRect*
0 Rectangle with rounded corners*
0 $1 Rounding radius*
0 $2 $3 $4 $5 $6 $7 $8 $9 X,Y pos of 4 corners*
0 Add a 4 corners polygon primitive as box body*
4,1,4,$2,$3,$4,$5,$6,$7,$8,$9,$2,$3,0*
0 Add four circle primitives for the rounded corners*
1,1,$1+$1,$2,$3*
1,1,$1+$1,$4,$5*
1,1,$1+$1,$6,$7*
1,1,$1+$1,$8,$9*
0 Add four rect primitives between the rounded corners*
20,1,$1+$1,$2,$3,$4,$5,0*
20,1,$1+$1,$4,$5,$6,$7,0*
20,1,$1+$1,$6,$7,$8,$9,0*
20,1,$1+$1,$8,$9,$2,$3,0*%
G04 Aperture macros list end*
%TA.AperFunction,SMDPad,CuDef*%
%ADD10RoundRect,0.225000X-0.250000X0.225000X-0.250000X-0.225000X0.250000X-0.225000X0.250000X0.225000X0*%
%TD*%
%TA.AperFunction,ComponentPad*%
%ADD11C,0.800000*%
%TD*%
%TA.AperFunction,ComponentPad*%
%ADD12C,6.400000*%
%TD*%
%TA.AperFunction,SMDPad,CuDef*%
%ADD13RoundRect,0.225000X-0.225000X-0.250000X0.225000X-0.250000X0.225000X0.250000X-0.225000X0.250000X0*%
%TD*%
%TA.AperFunction,SMDPad,CuDef*%
%ADD14RoundRect,0.250000X0.625000X-0.375000X0.625000X0.375000X-0.625000X0.375000X-0.625000X-0.375000X0*%
%TD*%
%TA.AperFunction,ComponentPad*%
%ADD15R,1.700000X1.700000*%
%TD*%
%TA.AperFunction,ComponentPad*%
%ADD16C,1.700000*%
%TD*%
%TA.AperFunction,SMDPad,CuDef*%
%ADD17RoundRect,0.250000X-0.625000X0.375000X-0.625000X-0.375000X0.625000X-0.375000X0.625000X0.375000X0*%
%TD*%
%TA.AperFunction,SMDPad,CuDef*%
%ADD18RoundRect,0.375000X0.375000X-0.625000X0.375000X0.625000X-0.375000X0.625000X-0.375000X-0.625000X0*%
%TD*%
%TA.AperFunction,SMDPad,CuDef*%
%ADD19RoundRect,0.500000X1.400000X-0.500000X1.400000X0.500000X-1.400000X0.500000X-1.400000X-0.500000X0*%
%TD*%
%TA.AperFunction,SMDPad,CuDef*%
%ADD20RoundRect,0.075000X-0.650000X-0.075000X0.650000X-0.075000X0.650000X0.075000X-0.650000X0.075000X0*%
%TD*%
%TA.AperFunction,SMDPad,CuDef*%
%ADD21RoundRect,0.200000X0.275000X-0.200000X0.275000X0.200000X-0.275000X0.200000X-0.275000X-0.200000X0*%
%TD*%
%TA.AperFunction,SMDPad,CuDef*%
%ADD22RoundRect,0.225000X0.250000X-0.225000X0.250000X0.225000X-0.250000X0.225000X-0.250000X-0.225000X0*%
%TD*%
%TA.AperFunction,SMDPad,CuDef*%
%ADD23RoundRect,0.162500X-0.825000X-0.162500X0.825000X-0.162500X0.825000X0.162500X-0.825000X0.162500X0*%
%TD*%
%TA.AperFunction,SMDPad,CuDef*%
%ADD24R,0.450000X1.300000*%
%TD*%
%TA.AperFunction,HeatsinkPad*%
%ADD25O,1.150000X1.800000*%
%TD*%
%TA.AperFunction,HeatsinkPad*%
%ADD26O,1.450000X2.000000*%
%TD*%
%TA.AperFunction,SMDPad,CuDef*%
%ADD27RoundRect,0.200000X-0.275000X0.200000X-0.275000X-0.200000X0.275000X-0.200000X0.275000X0.200000X0*%
%TD*%
%TA.AperFunction,SMDPad,CuDef*%
%ADD28RoundRect,0.150000X-0.150000X0.512500X-0.150000X-0.512500X0.150000X-0.512500X0.150000X0.512500X0*%
%TD*%
%TA.AperFunction,SMDPad,CuDef*%
%ADD29RoundRect,0.225000X0.225000X0.250000X-0.225000X0.250000X-0.225000X-0.250000X0.225000X-0.250000X0*%
%TD*%
%TA.AperFunction,ViaPad*%
%ADD30C,0.800000*%
%TD*%
%TA.AperFunction,Conductor*%
%ADD31C,0.300000*%
%TD*%
%TA.AperFunction,Conductor*%
%ADD32C,0.500000*%
%TD*%
%TA.AperFunction,Conductor*%
%ADD33C,0.200000*%
%TD*%
G04 APERTURE END LIST*
D10*
%TO.P,C4,1*%
%TO.N,+3V3*%
X119000000Y-85475000D03*
%TO.P,C4,2*%
%TO.N,GND*%
X119000000Y-87025000D03*
%TD*%
D11*
%TO.P,H2,1,1*%
%TO.N,GND*%
X122100000Y-58500000D03*
X122802944Y-56802944D03*
X122802944Y-60197056D03*
X124500000Y-56100000D03*
D12*
X124500000Y-58500000D03*
D11*
X124500000Y-60900000D03*
X126197056Y-56802944D03*
X126197056Y-60197056D03*
X126900000Y-58500000D03*
%TD*%
D13*
%TO.P,C5,1*%
%TO.N,VBUS*%
X117975000Y-92750000D03*
%TO.P,C5,2*%
%TO.N,GND*%
X119525000Y-92750000D03*
%TD*%
D14*
%TO.P,D1,1,K*%
%TO.N,Net-(D1-K)*%
X116750000Y-88550000D03*
%TO.P,D1,2,A*%
%TO.N,+3V3*%
X116750000Y-85750000D03*
%TD*%
%TO.P,D2,1,K*%
%TO.N,Net-(D2-K)*%
X121250000Y-71250000D03*
%TO.P,D2,2,A*%
%TO.N,/PA24*%
X121250000Y-68450000D03*
%TD*%
D15*
%TO.P,J3,1,Pin_1*%
%TO.N,/PA26*%
X101600000Y-66040000D03*
D16*
%TO.P,J3,2,Pin_2*%
%TO.N,/PA27*%
X101600000Y-68580000D03*
%TO.P,J3,3,Pin_3*%
%TO.N,/PA28*%
X101600000Y-71120000D03*
%TO.P,J3,4,Pin_4*%
%TO.N,/PA0*%
X101600000Y-73660000D03*
%TO.P,J3,5,Pin_5*%
%TO.N,/NRST*%
X101600000Y-76200000D03*
%TO.P,J3,6,Pin_6*%
%TO.N,+3V3*%
X101600000Y-78740000D03*
%TO.P,J3,7,Pin_7*%
%TO.N,GND*%
X101600000Y-81280000D03*
%TO.P,J3,8,Pin_8*%
%TO.N,/PA2*%
X101600000Y-83820000D03*
%TO.P,J3,9,Pin_9*%
%TO.N,/PA4*%
X101600000Y-86360000D03*
%TO.P,J3,10,Pin_10*%
%TO.N,/PA6*%
X101600000Y-88900000D03*
%TD*%
D11*
%TO.P,H3,1,1*%
%TO.N,GND*%
X122100000Y-96500000D03*
X122802944Y-94802944D03*
X122802944Y-98197056D03*
X124500000Y-94100000D03*
D12*
X124500000Y-96500000D03*
D11*
X124500000Y-98900000D03*
X126197056Y-94802944D03*
X126197056Y-98197056D03*
X126900000Y-96500000D03*
%TD*%
D13*
%TO.P,C6,1*%
%TO.N,+5V*%
X118000000Y-91000000D03*
%TO.P,C6,2*%
%TO.N,GND*%
X119550000Y-91000000D03*
%TD*%
D15*
%TO.P,J4,1,Pin_1*%
%TO.N,/PA25*%
X124460000Y-66040000D03*
D16*
%TO.P,J4,2,Pin_2*%
%TO.N,/PA24*%
X124460000Y-68580000D03*
%TO.P,J4,3,Pin_3*%
%TO.N,/UART0_CTS*%
X124460000Y-71120000D03*
%TO.P,J4,4,Pin_4*%
%TO.N,/PA22*%
X124460000Y-73660000D03*
%TO.P,J4,5,Pin_5*%
%TO.N,/SWCLK*%
X124460000Y-76200000D03*
%TO.P,J4,6,Pin_6*%
%TO.N,/SWDIO*%
X124460000Y-78740000D03*
%TO.P,J4,7,Pin_7*%
%TO.N,/UART0_RX*%
X124460000Y-81280000D03*
%TO.P,J4,8,Pin_8*%
%TO.N,/UART0_TX*%
X124460000Y-83820000D03*
%TO.P,J4,9,Pin_9*%
%TO.N,/PA16*%
X124460000Y-86360000D03*
%TO.P,J4,10,Pin_10*%
%TO.N,/PA11*%
X124460000Y-88900000D03*
%TD*%
D17*
%TO.P,D3,1,K*%
%TO.N,Net-(D3-K)*%
X121500000Y-63100000D03*
%TO.P,D3,2,A*%
%TO.N,/PA25*%
X121500000Y-65900000D03*
%TD*%
D18*
%TO.P,U2,1,GND*%
%TO.N,GND*%
X115450000Y-83150000D03*
%TO.P,U2,2,VO*%
%TO.N,+3V3*%
X117750000Y-83150000D03*
D19*
X117750000Y-76850000D03*
D18*
%TO.P,U2,3,VI*%
%TO.N,+5V*%
X120050000Y-83150000D03*
%TD*%
D20*
%TO.P,U1,1,PA26/A1*%
%TO.N,/PA26*%
X110600000Y-65500000D03*
%TO.P,U1,2,PA27/A0*%
%TO.N,/PA27*%
X110600000Y-66000000D03*
%TO.P,U1,3,PA28/A5/VCORE*%
%TO.N,/PA28*%
X110600000Y-66500000D03*
%TO.P,U1,4,PA0*%
%TO.N,/PA0*%
X110600000Y-67000000D03*
%TO.P,U1,5,PA1/NRST*%
%TO.N,/NRST*%
X110600000Y-67500000D03*
%TO.P,U1,6,VDD*%
%TO.N,+3V3*%
X110600000Y-68000000D03*
%TO.P,U1,7,VSS*%
%TO.N,GND*%
X110600000Y-68500000D03*
%TO.P,U1,8,PA2/ROSC*%
%TO.N,/PA2*%
X110600000Y-69000000D03*
%TO.P,U1,9,PA4*%
%TO.N,/PA4*%
X110600000Y-69500000D03*
%TO.P,U1,10,PA6*%
%TO.N,/PA6*%
X110600000Y-70000000D03*
%TO.P,U1,11,PA11*%
%TO.N,/PA11*%
X115000000Y-70000000D03*
%TO.P,U1,12,PA16/A8*%
%TO.N,/PA16*%
X115000000Y-69500000D03*
%TO.P,U1,13,PA17//OPA1_IN0+*%
%TO.N,/UART0_TX*%
X115000000Y-69000000D03*
%TO.P,U1,14,PA18/A7*%
%TO.N,/UART0_RX*%
X115000000Y-68500000D03*
%TO.P,U1,15,PA19/SWDIO*%
%TO.N,/SWDIO*%
X115000000Y-68000000D03*
%TO.P,U1,16,PA20/A6/SWCLK*%
%TO.N,/SWCLK*%
X115000000Y-67500000D03*
%TO.P,U1,17,PA22/A4*%
%TO.N,/PA22*%
X115000000Y-67000000D03*
%TO.P,U1,18,PA23*%
%TO.N,/UART0_CTS*%
X115000000Y-66500000D03*
%TO.P,U1,19,PA24/A3/OPA0_IN0-*%
%TO.N,/PA24*%
X115000000Y-66000000D03*
%TO.P,U1,20,PA25/A2*%
%TO.N,/PA25*%
X115000000Y-65500000D03*
%TD*%
D11*
%TO.P,H1,1,1*%
%TO.N,GND*%
X99100000Y-58500000D03*
X99802944Y-56802944D03*
X99802944Y-60197056D03*
X101500000Y-56100000D03*
D12*
X101500000Y-58500000D03*
D11*
X101500000Y-60900000D03*
X103197056Y-56802944D03*
X103197056Y-60197056D03*
X103900000Y-58500000D03*
%TD*%
D21*
%TO.P,R2,1*%
%TO.N,+5V*%
X104500000Y-75325000D03*
%TO.P,R2,2*%
%TO.N,/PA0*%
X104500000Y-73675000D03*
%TD*%
D22*
%TO.P,C8,1*%
%TO.N,/PA28*%
X108250000Y-66050000D03*
%TO.P,C8,2*%
%TO.N,GND*%
X108250000Y-64500000D03*
%TD*%
D23*
%TO.P,U4,1,UD+*%
%TO.N,/USB_D+*%
X105962500Y-82845000D03*
%TO.P,U4,2,UD-*%
%TO.N,/USB_D-*%
X105962500Y-84115000D03*
%TO.P,U4,3,GND*%
%TO.N,GND*%
X105962500Y-85385000D03*
%TO.P,U4,4,~{RTS}*%
%TO.N,/UART0_CTS*%
X105962500Y-86655000D03*
%TO.P,U4,5,VCC*%
%TO.N,+5V*%
X111037500Y-86655000D03*
%TO.P,U4,6,TXD*%
%TO.N,/UART0_RX*%
X111037500Y-85385000D03*
%TO.P,U4,7,RXD*%
%TO.N,/UART0_TX*%
X111037500Y-84115000D03*
%TO.P,U4,8,V3*%
%TO.N,Net-(U4-V3)*%
X111037500Y-82845000D03*
%TD*%
D11*
%TO.P,H4,1,1*%
%TO.N,GND*%
X99100000Y-96500000D03*
X99802944Y-94802944D03*
X99802944Y-98197056D03*
X101500000Y-94100000D03*
D12*
X101500000Y-96500000D03*
D11*
X101500000Y-98900000D03*
X103197056Y-94802944D03*
X103197056Y-98197056D03*
X103900000Y-96500000D03*
%TD*%
D24*
%TO.P,J1,1,VBUS*%
%TO.N,VBUS*%
X111660000Y-95345000D03*
%TO.P,J1,2,D-*%
%TO.N,/USB_D-*%
X112310000Y-95345000D03*
%TO.P,J1,3,D+*%
%TO.N,/USB_D+*%
X112960000Y-95345000D03*
%TO.P,J1,4,ID*%
%TO.N,unconnected-(J1-ID-Pad4)*%
X113610000Y-95345000D03*
%TO.P,J1,5,GND*%
%TO.N,GND*%
X114260000Y-95345000D03*
D25*
%TO.P,J1,6,Shield*%
X109085000Y-99195000D03*
D26*
X109235000Y-95395000D03*
X116685000Y-95395000D03*
D25*
X116835000Y-99195000D03*
%TD*%
D27*
%TO.P,R7,1*%
%TO.N,/PA2*%
X109000000Y-73350000D03*
%TO.P,R7,2*%
%TO.N,GND*%
X109000000Y-75000000D03*
%TD*%
D21*
%TO.P,R4,1*%
%TO.N,VBUS*%
X116250000Y-92650000D03*
%TO.P,R4,2*%
%TO.N,+5V*%
X116250000Y-91000000D03*
%TD*%
%TO.P,R3,1*%
%TO.N,Net-(D1-K)*%
X114475000Y-88650000D03*
%TO.P,R3,2*%
%TO.N,GND*%
X114475000Y-87000000D03*
%TD*%
%TO.P,R5,1*%
%TO.N,Net-(D2-K)*%
X119000000Y-71325000D03*
%TO.P,R5,2*%
%TO.N,GND*%
X119000000Y-69675000D03*
%TD*%
D27*
%TO.P,R6,1*%
%TO.N,Net-(D3-K)*%
X119000000Y-62925000D03*
%TO.P,R6,2*%
%TO.N,GND*%
X119000000Y-64575000D03*
%TD*%
D22*
%TO.P,C2,1*%
%TO.N,/NRST*%
X105500000Y-71700000D03*
%TO.P,C2,2*%
%TO.N,GND*%
X105500000Y-70150000D03*
%TD*%
D21*
%TO.P,R1,1*%
%TO.N,+3V3*%
X107250000Y-71750000D03*
%TO.P,R1,2*%
%TO.N,/NRST*%
X107250000Y-70100000D03*
%TD*%
D15*
%TO.P,J2,1,Pin_1*%
%TO.N,+3V3*%
X109190000Y-58385000D03*
D16*
%TO.P,J2,2,Pin_2*%
%TO.N,/SWDIO*%
X111730000Y-58385000D03*
%TO.P,J2,3,Pin_3*%
%TO.N,/SWCLK*%
X114270000Y-58385000D03*
%TO.P,J2,4,Pin_4*%
%TO.N,GND*%
X116810000Y-58385000D03*
%TD*%
D10*
%TO.P,C1,1*%
%TO.N,+3V3*%
X107250000Y-73350000D03*
%TO.P,C1,2*%
%TO.N,GND*%
X107250000Y-74900000D03*
%TD*%
%TO.P,C3,1*%
%TO.N,+5V*%
X120750000Y-87750000D03*
%TO.P,C3,2*%
%TO.N,GND*%
X120750000Y-89300000D03*
%TD*%
D28*
%TO.P,U3,1,I/O1*%
%TO.N,/USB_D+*%
X111200000Y-89975000D03*
%TO.P,U3,2,GND*%
%TO.N,GND*%
X110250000Y-89975000D03*
%TO.P,U3,3,I/O2*%
%TO.N,/USB_D-*%
X109300000Y-89975000D03*
%TO.P,U3,4,I/O3*%
%TO.N,unconnected-(U3-I{slash}O3-Pad4)*%
X109300000Y-92250000D03*
%TO.P,U3,5,VBUS*%
%TO.N,VBUS*%
X110250000Y-92250000D03*
%TO.P,U3,6,I/O4*%
%TO.N,unconnected-(U3-I{slash}O4-Pad6)*%
X111200000Y-92250000D03*
%TD*%
D29*
%TO.P,C7,1*%
%TO.N,Net-(U4-V3)*%
X111275000Y-81000000D03*
%TO.P,C7,2*%
%TO.N,GND*%
X109725000Y-81000000D03*
%TD*%
D30*
%TO.N,+3V3*%
X117000000Y-74500000D03*
X115469669Y-72969669D03*
%TO.N,GND*%
X110250000Y-88750000D03*
X108500000Y-81000000D03*
X107000000Y-64500000D03*
X120000000Y-64575000D03*
X112250000Y-69250000D03*
X106000000Y-69000000D03*
X107825000Y-85385000D03*
X109725000Y-79750000D03*
X119000000Y-88000000D03*
X108969669Y-76250000D03*
X121250000Y-91000000D03*
X121250000Y-92750000D03*
X114260000Y-93250000D03*
X118750000Y-58385000D03*
X119000000Y-68500000D03*
X113500000Y-85750000D03*
X107750000Y-76250000D03*
X115250000Y-84750000D03*
%TO.N,+5V*%
X103250000Y-75000000D03*
X107000000Y-80750000D03*
%TO.N,/SWDIO*%
X111750000Y-61500000D03*
X121250000Y-74750000D03*
%TO.N,/UART0_CTS*%
X112250000Y-72000000D03*
X113780331Y-64280331D03*
%TO.N,/PA11*%
X115000000Y-71500000D03*
X120500000Y-80000000D03*
%TO.N,/UART0_RX*%
X119000000Y-74500000D03*
X116000000Y-75250000D03*
%TO.N,/UART0_TX*%
X123100000Y-82250000D03*
X113250000Y-75000000D03*
%TO.N,/PA16*%
X121500000Y-79750000D03*
X114000000Y-72000000D03*
%TD*%
D31*
%TO.N,+3V3*%
X111429534Y-68000000D02*
X111750000Y-68000000D01*
X118725000Y-85750000D02*
X119000000Y-85475000D01*
X112000000Y-67750000D02*
X112000000Y-67937924D01*
X108250000Y-71250000D02*
X107750000Y-71750000D01*
X113000000Y-72750000D02*
X113000000Y-68937924D01*
X112000000Y-64000000D02*
X112000000Y-67429534D01*
X110600000Y-68000000D02*
X111429534Y-68000000D01*
D32*
X117750000Y-84250000D02*
X118250000Y-84750000D01*
X117750000Y-76850000D02*
X117750000Y-83150000D01*
D31*
X118975000Y-85475000D02*
X118250000Y-84750000D01*
X109190000Y-58385000D02*
X109190000Y-61190000D01*
X113000000Y-68937924D02*
X112062076Y-68000000D01*
X103500000Y-78750000D02*
X103490000Y-78740000D01*
X113219669Y-72969669D02*
X113000000Y-72750000D01*
X108250000Y-69000000D02*
X108250000Y-71250000D01*
X112000000Y-67937924D02*
X112062076Y-68000000D01*
D32*
X117750000Y-75250000D02*
X117000000Y-74500000D01*
D31*
X110600000Y-68000000D02*
X109250000Y-68000000D01*
X103750000Y-78750000D02*
X103500000Y-78750000D01*
X119000000Y-85250000D02*
X119000000Y-85475000D01*
X112000000Y-67429534D02*
X112000000Y-67750000D01*
X109190000Y-61190000D02*
X112000000Y-64000000D01*
X112000000Y-67750000D02*
X111750000Y-68000000D01*
D32*
X117750000Y-76850000D02*
X117750000Y-75250000D01*
D31*
X106250000Y-73750000D02*
X106250000Y-76250000D01*
X119000000Y-85475000D02*
X118975000Y-85475000D01*
X107750000Y-71750000D02*
X107250000Y-71750000D01*
X109250000Y-68000000D02*
X108250000Y-69000000D01*
X117025000Y-85475000D02*
X116750000Y-85750000D01*
X116750000Y-85750000D02*
X118725000Y-85750000D01*
X107250000Y-73350000D02*
X106650000Y-73350000D01*
X106650000Y-73350000D02*
X106250000Y-73750000D01*
X115469669Y-72969669D02*
X113219669Y-72969669D01*
D32*
X117750000Y-83150000D02*
X117750000Y-84250000D01*
D31*
X111750000Y-68000000D02*
X112062076Y-68000000D01*
X103490000Y-78740000D02*
X101600000Y-78740000D01*
X106250000Y-76250000D02*
X103750000Y-78750000D01*
X107250000Y-71750000D02*
X107250000Y-73350000D01*
D32*
%TO.N,GND*%
X119525000Y-92750000D02*
X121250000Y-92750000D01*
D31*
X113500000Y-86500000D02*
X114000000Y-87000000D01*
D32*
X119000000Y-69675000D02*
X119000000Y-68500000D01*
D31*
X114475000Y-87000000D02*
X114475000Y-84125000D01*
X114475000Y-84125000D02*
X115450000Y-83150000D01*
D32*
X120750000Y-89800000D02*
X119550000Y-91000000D01*
D31*
X107250000Y-74900000D02*
X108900000Y-74900000D01*
D32*
X119000000Y-64575000D02*
X120000000Y-64575000D01*
X108250000Y-64500000D02*
X107000000Y-64500000D01*
X105500000Y-69500000D02*
X105500000Y-70150000D01*
D31*
X109725000Y-81000000D02*
X108500000Y-81000000D01*
X114000000Y-87000000D02*
X114475000Y-87000000D01*
X108900000Y-74900000D02*
X109000000Y-75000000D01*
D32*
X119550000Y-91000000D02*
X121250000Y-91000000D01*
X110250000Y-89975000D02*
X110250000Y-88750000D01*
D31*
X113500000Y-85750000D02*
X113500000Y-86500000D01*
D32*
X106000000Y-69000000D02*
X105500000Y-69500000D01*
X116810000Y-63810000D02*
X117575000Y-64575000D01*
D31*
X109000000Y-75000000D02*
X109000000Y-76219669D01*
X107250000Y-74900000D02*
X107250000Y-75750000D01*
D32*
X115450000Y-84550000D02*
X115450000Y-83150000D01*
X117575000Y-64575000D02*
X119000000Y-64575000D01*
D31*
X112250000Y-69250000D02*
X111500000Y-68500000D01*
D32*
X115250000Y-84750000D02*
X115450000Y-84550000D01*
D31*
X109725000Y-81000000D02*
X109725000Y-79750000D01*
X109000000Y-76219669D02*
X108969669Y-76250000D01*
D32*
X105962500Y-85385000D02*
X107825000Y-85385000D01*
X116810000Y-58385000D02*
X118750000Y-58385000D01*
X116810000Y-58385000D02*
X116810000Y-63810000D01*
X107825000Y-85385000D02*
X107635000Y-85385000D01*
D31*
X107250000Y-75750000D02*
X107750000Y-76250000D01*
X111500000Y-68500000D02*
X110600000Y-68500000D01*
D32*
X120750000Y-89300000D02*
X120750000Y-89800000D01*
D31*
X114260000Y-93250000D02*
X114260000Y-95345000D01*
D32*
X119000000Y-87025000D02*
X119000000Y-88000000D01*
D31*
%TO.N,/NRST*%
X109000000Y-67500000D02*
X107250000Y-69250000D01*
X105000000Y-76250000D02*
X103000000Y-76250000D01*
X107200000Y-70150000D02*
X107250000Y-70100000D01*
D32*
X102950000Y-76200000D02*
X103000000Y-76250000D01*
D31*
X107250000Y-69250000D02*
X107250000Y-70100000D01*
D32*
X105500000Y-71700000D02*
X105650000Y-71700000D01*
D31*
X110600000Y-67500000D02*
X109000000Y-67500000D01*
X105500000Y-75750000D02*
X105000000Y-76250000D01*
D32*
X101600000Y-76200000D02*
X102950000Y-76200000D01*
X105500000Y-71700000D02*
X105500000Y-72750000D01*
X105650000Y-71700000D02*
X107250000Y-70100000D01*
D31*
X105500000Y-72750000D02*
X105500000Y-75750000D01*
%TO.N,+5V*%
X109500000Y-86250000D02*
X109905000Y-86655000D01*
X103350000Y-75000000D02*
X103250000Y-75000000D01*
X103675000Y-75325000D02*
X103350000Y-75000000D01*
D32*
X120750000Y-87750000D02*
X120750000Y-83850000D01*
X116275000Y-91000000D02*
X118000000Y-91000000D01*
D31*
X111037500Y-86655000D02*
X113000000Y-88617500D01*
D32*
X118000000Y-91000000D02*
X118000000Y-90500000D01*
X118000000Y-90500000D02*
X120750000Y-87750000D01*
D31*
X113000000Y-88617500D02*
X113000000Y-89750000D01*
D32*
X120750000Y-83850000D02*
X120050000Y-83150000D01*
D31*
X107000000Y-80750000D02*
X109500000Y-83250000D01*
D32*
X116250000Y-91000000D02*
X114250000Y-91000000D01*
D31*
X109905000Y-86655000D02*
X111037500Y-86655000D01*
D32*
X114250000Y-91000000D02*
X113000000Y-89750000D01*
D31*
X104500000Y-75325000D02*
X103675000Y-75325000D01*
X109500000Y-83250000D02*
X109500000Y-86250000D01*
D32*
%TO.N,VBUS*%
X118500000Y-94000000D02*
X118500000Y-96500000D01*
X110250000Y-93250000D02*
X110500000Y-93500000D01*
D31*
X112500000Y-97500000D02*
X117500000Y-97500000D01*
D32*
X110250000Y-92250000D02*
X110250000Y-93250000D01*
D31*
X111660000Y-96660000D02*
X112500000Y-97500000D01*
D32*
X117875000Y-92650000D02*
X117975000Y-92750000D01*
D31*
X111500000Y-94000000D02*
X111000000Y-94000000D01*
X117500000Y-97500000D02*
X118500000Y-96500000D01*
X111660000Y-95345000D02*
X111660000Y-94160000D01*
D32*
X117975000Y-92750000D02*
X117975000Y-93475000D01*
D31*
X111660000Y-95345000D02*
X111660000Y-96660000D01*
D32*
X116275000Y-92650000D02*
X117875000Y-92650000D01*
D31*
X111660000Y-94160000D02*
X111500000Y-94000000D01*
X111000000Y-94000000D02*
X110500000Y-93500000D01*
D32*
X117975000Y-93475000D02*
X118500000Y-94000000D01*
%TO.N,Net-(U4-V3)*%
X111275000Y-81000000D02*
X111275000Y-82607500D01*
X111275000Y-82607500D02*
X111037500Y-82845000D01*
D31*
%TO.N,/PA28*%
X110600000Y-66500000D02*
X108700000Y-66500000D01*
X101600000Y-71120000D02*
X106670000Y-66050000D01*
X108700000Y-66500000D02*
X108250000Y-66050000D01*
X106670000Y-66050000D02*
X108250000Y-66050000D01*
%TO.N,Net-(D1-K)*%
X116650000Y-88650000D02*
X116750000Y-88550000D01*
X114475000Y-88650000D02*
X116650000Y-88650000D01*
%TO.N,/PA4*%
X110600000Y-69500000D02*
X109750000Y-69500000D01*
X103140000Y-86360000D02*
X101600000Y-86360000D01*
X110501000Y-76999000D02*
X110000000Y-77500000D01*
X106500000Y-77500000D02*
X103500000Y-80500000D01*
X110000000Y-77500000D02*
X106500000Y-77500000D01*
X110501000Y-73251000D02*
X110501000Y-76999000D01*
X109750000Y-69500000D02*
X109250000Y-70000000D01*
X109250000Y-70000000D02*
X109250000Y-72000000D01*
X103500000Y-86000000D02*
X103140000Y-86360000D01*
X103500000Y-80500000D02*
X103500000Y-86000000D01*
X109250000Y-72000000D02*
X110501000Y-73251000D01*
%TO.N,Net-(D2-K)*%
X119000000Y-71325000D02*
X121175000Y-71325000D01*
X121175000Y-71325000D02*
X121250000Y-71250000D01*
%TO.N,/PA6*%
X104000000Y-88000000D02*
X104000000Y-80750000D01*
X111250000Y-70000000D02*
X110600000Y-70000000D01*
X104000000Y-80750000D02*
X106750000Y-78000000D01*
X106750000Y-78000000D02*
X110250000Y-78000000D01*
X110250000Y-78000000D02*
X111500000Y-76750000D01*
X101600000Y-88900000D02*
X103100000Y-88900000D01*
X111500000Y-76750000D02*
X111500000Y-70250000D01*
X103100000Y-88900000D02*
X104000000Y-88000000D01*
X111500000Y-70250000D02*
X111250000Y-70000000D01*
%TO.N,Net-(D3-K)*%
X121075000Y-62925000D02*
X121250000Y-63100000D01*
X119000000Y-62925000D02*
X121075000Y-62925000D01*
D33*
%TO.N,/USB_D+*%
X108184658Y-83255000D02*
X108975000Y-84045342D01*
X108975000Y-87156802D02*
X109237977Y-87419779D01*
X111200000Y-89975000D02*
X111200000Y-89612500D01*
X105962500Y-82845000D02*
X106625000Y-82845000D01*
X112860000Y-94269999D02*
X112960000Y-94369999D01*
X112960000Y-94369999D02*
X112960000Y-95345000D01*
X106625000Y-82845000D02*
X107035000Y-83255000D01*
X107035000Y-83255000D02*
X108184658Y-83255000D01*
X109237977Y-87419779D02*
X109987977Y-87419779D01*
X111200000Y-88631802D02*
X111200000Y-89975000D01*
X112860000Y-91966336D02*
X112860000Y-94269999D01*
X112836000Y-95221000D02*
X112960000Y-95345000D01*
X109987977Y-87419779D02*
X111200000Y-88631802D01*
X111200000Y-89612500D02*
X111000000Y-89412500D01*
X111200000Y-89975000D02*
X111200000Y-90834520D01*
X111728184Y-90834520D02*
X112860000Y-91966336D01*
X111200000Y-90834520D02*
X111728184Y-90834520D01*
X108975000Y-84045342D02*
X108975000Y-87156802D01*
%TO.N,/USB_D-*%
X109500000Y-89412500D02*
X109500000Y-88318198D01*
X112000000Y-91725000D02*
X111979468Y-91725000D01*
X109300000Y-90329468D02*
X109300000Y-89975000D01*
X106625000Y-84115000D02*
X107035000Y-83705000D01*
X112410000Y-92135000D02*
X112000000Y-91725000D01*
X112410000Y-94269999D02*
X112410000Y-92135000D01*
X110257032Y-91286500D02*
X109300000Y-90329468D01*
X108525000Y-84231738D02*
X108525000Y-87343198D01*
X109300000Y-89975000D02*
X109300000Y-89612500D01*
X111540968Y-91286500D02*
X110750000Y-91286500D01*
X107998262Y-83705000D02*
X108525000Y-84231738D01*
X112310000Y-94369999D02*
X112410000Y-94269999D01*
X112310000Y-95345000D02*
X112310000Y-94369999D01*
X108525000Y-87343198D02*
X109500000Y-88318198D01*
X110750000Y-91286500D02*
X110257032Y-91286500D01*
X105962500Y-84115000D02*
X106625000Y-84115000D01*
X109300000Y-89612500D02*
X109500000Y-89412500D01*
X107035000Y-83705000D02*
X107998262Y-83705000D01*
X111979468Y-91725000D02*
X111540968Y-91286500D01*
D31*
%TO.N,/SWCLK*%
X115000000Y-67500000D02*
X113750000Y-67500000D01*
X121261000Y-73001000D02*
X124460000Y-76200000D01*
X115000000Y-67500000D02*
X116291480Y-67500000D01*
X116291480Y-67500000D02*
X117499000Y-68707520D01*
X117499000Y-68707520D02*
X117499000Y-72207521D01*
X113750000Y-67500000D02*
X113000000Y-66750000D01*
X118292480Y-73001000D02*
X121261000Y-73001000D01*
X113000000Y-62500000D02*
X113000000Y-66750000D01*
X114270000Y-58385000D02*
X114270000Y-61230000D01*
X114270000Y-61230000D02*
X113000000Y-62500000D01*
X117499000Y-72207521D02*
X118292480Y-73001000D01*
%TO.N,/SWDIO*%
X112500000Y-62250000D02*
X112500000Y-67500000D01*
D32*
X121250000Y-75530000D02*
X124460000Y-78740000D01*
D31*
X113289479Y-68002000D02*
X113291479Y-68000000D01*
D33*
X115000000Y-68000000D02*
X113291479Y-68000000D01*
D31*
X112500000Y-67500000D02*
X113002000Y-68002000D01*
X113002000Y-68002000D02*
X113289479Y-68002000D01*
X112500000Y-62250000D02*
X111750000Y-61500000D01*
D32*
X121250000Y-74750000D02*
X121250000Y-75530000D01*
D31*
X113291479Y-68000000D02*
X113292479Y-67999000D01*
X112500000Y-59155000D02*
X112500000Y-62250000D01*
X111730000Y-58385000D02*
X112500000Y-59155000D01*
%TO.N,/PA26*%
X103500000Y-65250000D02*
X103500000Y-63000000D01*
X102710000Y-66040000D02*
X103500000Y-65250000D01*
X109250000Y-62250000D02*
X110600000Y-63600000D01*
X103500000Y-63000000D02*
X104250000Y-62250000D01*
X104250000Y-62250000D02*
X109250000Y-62250000D01*
X101600000Y-66040000D02*
X102710000Y-66040000D01*
X110600000Y-65500000D02*
X110600000Y-63600000D01*
D32*
%TO.N,/PA0*%
X101615000Y-73675000D02*
X101600000Y-73660000D01*
X104500000Y-73675000D02*
X101615000Y-73675000D01*
D31*
X106750000Y-67000000D02*
X103750000Y-70000000D01*
X103750000Y-70000000D02*
X103750000Y-72500000D01*
X103750000Y-72500000D02*
X104500000Y-73250000D01*
X104500000Y-73250000D02*
X104500000Y-73675000D01*
X110600000Y-67000000D02*
X106750000Y-67000000D01*
%TO.N,/PA27*%
X103420000Y-68580000D02*
X104250000Y-67750000D01*
X109500000Y-65750000D02*
X109750000Y-66000000D01*
X101600000Y-68580000D02*
X103420000Y-68580000D01*
X109750000Y-66000000D02*
X110600000Y-66000000D01*
X104500000Y-63000000D02*
X108500000Y-63000000D01*
X104250000Y-63250000D02*
X104500000Y-63000000D01*
X109500000Y-64000000D02*
X109500000Y-65750000D01*
X108500000Y-63000000D02*
X109500000Y-64000000D01*
X104250000Y-67750000D02*
X104250000Y-63250000D01*
%TO.N,/PA2*%
X103000000Y-82420000D02*
X103000000Y-81250000D01*
X110000000Y-76500000D02*
X109500000Y-77000000D01*
X110600000Y-69000000D02*
X109500000Y-69000000D01*
X108750000Y-73100000D02*
X109000000Y-73350000D01*
X110000000Y-73750000D02*
X110000000Y-76500000D01*
X109000000Y-73350000D02*
X109600000Y-73350000D01*
X101600000Y-83820000D02*
X103000000Y-82420000D01*
X103000000Y-80250000D02*
X106250000Y-77000000D01*
X109500000Y-69000000D02*
X108750000Y-69750000D01*
X103000000Y-81250000D02*
X103000000Y-80250000D01*
X109600000Y-73350000D02*
X110000000Y-73750000D01*
X106250000Y-77000000D02*
X109500000Y-77000000D01*
X108750000Y-69750000D02*
X108750000Y-73100000D01*
%TO.N,/UART0_CTS*%
X112250000Y-75750000D02*
X112250000Y-72000000D01*
X119750000Y-68000000D02*
X119750000Y-69000000D01*
X104500000Y-86250000D02*
X104500000Y-81000000D01*
X107000000Y-78500000D02*
X111750000Y-78500000D01*
X118250000Y-66500000D02*
X119750000Y-68000000D01*
X113780331Y-64280331D02*
X113750000Y-64310662D01*
X115000000Y-66500000D02*
X118250000Y-66500000D01*
X112000000Y-76000000D02*
X112250000Y-75750000D01*
X111750000Y-78500000D02*
X112000000Y-78250000D01*
X123340000Y-70000000D02*
X124460000Y-71120000D01*
X113750000Y-66250000D02*
X114000000Y-66500000D01*
X114000000Y-66500000D02*
X115000000Y-66500000D01*
X104905000Y-86655000D02*
X104500000Y-86250000D01*
X105962500Y-86655000D02*
X104905000Y-86655000D01*
X104500000Y-81000000D02*
X107000000Y-78500000D01*
X113750000Y-64310662D02*
X113750000Y-66250000D01*
X119750000Y-69000000D02*
X120750000Y-70000000D01*
X112000000Y-78250000D02*
X112000000Y-76000000D01*
X120750000Y-70000000D02*
X123340000Y-70000000D01*
%TO.N,/PA11*%
X114750000Y-70250000D02*
X114750000Y-70750000D01*
X114750000Y-71250000D02*
X115000000Y-71500000D01*
D32*
X120500000Y-80000000D02*
X121500000Y-81000000D01*
X122000000Y-87250000D02*
X121500000Y-86750000D01*
D31*
X114750000Y-70750000D02*
X114750000Y-71250000D01*
X115000000Y-70000000D02*
X114250000Y-70000000D01*
X115000000Y-70000000D02*
X114750000Y-70250000D01*
D32*
X122810000Y-87250000D02*
X124460000Y-88900000D01*
X122810000Y-87250000D02*
X122000000Y-87250000D01*
X121500000Y-86750000D02*
X121500000Y-81000000D01*
%TO.N,/UART0_RX*%
X122500000Y-79320000D02*
X122500000Y-78000000D01*
D31*
X116000000Y-75250000D02*
X115000000Y-75250000D01*
X115000000Y-75250000D02*
X114979260Y-75229260D01*
X113000000Y-84409999D02*
X113000000Y-83848519D01*
X113001000Y-83847519D02*
X113001000Y-77207520D01*
X113000000Y-83848519D02*
X113001000Y-83847519D01*
X115000000Y-68500000D02*
X116038055Y-68500000D01*
X112024999Y-85385000D02*
X113000000Y-84409999D01*
X111037500Y-85385000D02*
X112024999Y-85385000D01*
X113001000Y-77207520D02*
X114979260Y-75229260D01*
X116038055Y-68500000D02*
X116751000Y-69212945D01*
D32*
X124460000Y-81280000D02*
X122500000Y-79320000D01*
D31*
X116751000Y-73457520D02*
X116751000Y-69212945D01*
D32*
X122500000Y-78000000D02*
X119000000Y-74500000D01*
D31*
X114979260Y-75229260D02*
X116751000Y-73457520D01*
D33*
%TO.N,/UART0_TX*%
X115000000Y-69000000D02*
X115829534Y-69000000D01*
D31*
X112500000Y-83639999D02*
X112500000Y-77000000D01*
D33*
X115829534Y-69000000D02*
X116250000Y-69420466D01*
D32*
X123100000Y-82250000D02*
X123100000Y-82850000D01*
D31*
X114500000Y-75000000D02*
X113250000Y-75000000D01*
X114750000Y-74750000D02*
X116250000Y-73250000D01*
X111037500Y-84115000D02*
X112024999Y-84115000D01*
X116250000Y-73250000D02*
X116250000Y-69420466D01*
X112024999Y-84115000D02*
X112500000Y-83639999D01*
D32*
X123100000Y-82850000D02*
X124070000Y-83820000D01*
D31*
X114750000Y-74750000D02*
X114500000Y-75000000D01*
X112500000Y-77000000D02*
X114750000Y-74750000D01*
D32*
X124070000Y-83820000D02*
X124460000Y-83820000D01*
%TO.N,/PA24*%
X124330000Y-68450000D02*
X124460000Y-68580000D01*
D31*
X115000000Y-66000000D02*
X118800000Y-66000000D01*
D32*
X121250000Y-68450000D02*
X124330000Y-68450000D01*
D31*
X118800000Y-66000000D02*
X121250000Y-68450000D01*
%TO.N,/PA22*%
X116500000Y-67000000D02*
X118000000Y-68500000D01*
X115000000Y-67000000D02*
X116500000Y-67000000D01*
X118500000Y-72500000D02*
X123300000Y-72500000D01*
X118000000Y-68500000D02*
X118000000Y-72000000D01*
X123300000Y-72500000D02*
X124460000Y-73660000D01*
X118000000Y-72000000D02*
X118500000Y-72500000D01*
%TO.N,/PA25*%
X121100000Y-65500000D02*
X121500000Y-65900000D01*
D32*
X124320000Y-65900000D02*
X124460000Y-66040000D01*
D31*
X115000000Y-65500000D02*
X121100000Y-65500000D01*
D32*
X121500000Y-65900000D02*
X124320000Y-65900000D01*
%TO.N,/PA16*%
X121500000Y-79750000D02*
X122250000Y-80500000D01*
X122250000Y-85500000D02*
X123110000Y-86360000D01*
X123110000Y-86360000D02*
X124460000Y-86360000D01*
X122250000Y-80500000D02*
X122250000Y-85500000D01*
D31*
X113500000Y-69750000D02*
X113750000Y-69500000D01*
X114000000Y-71250000D02*
X113500000Y-70750000D01*
X113750000Y-69500000D02*
X115000000Y-69500000D01*
X113500000Y-70750000D02*
X113500000Y-69750000D01*
X114000000Y-72000000D02*
X114000000Y-71250000D01*
%TD*%
M02*
