%TF.GenerationSoftware,KiCad,Pcbnew,9.0.6*%
%TF.CreationDate,2026-10-05T21:39:16+05:30*%
%TF.ProjectId,Tachiyon-_,54616368-6979-46f6-9e2d-b12e6b696361,rev?*%
%TF.SameCoordinates,Original*%
%TF.FileFunction,Copper,L2,Bot*%
%TF.FilePolarity,Positive*%
%FSLAX46Y46*%
G04 Gerber Fmt 4.6, Leading zero omitted, Abs format (unit mm)*
G04 Created by KiCad (PCBNEW 9.0.6) date 2026-10-05 21:39:16*
%MOMM*%
%LPD*%
G01*
G04 APERTURE LIST*
%TA.AperFunction,ComponentPad*%
%ADD10C,0.800000*%
%TD*%
%TA.AperFunction,ComponentPad*%
%ADD11C,6.400000*%
%TD*%
%TA.AperFunction,ComponentPad*%
%ADD12R,1.700000X1.700000*%
%TD*%
%TA.AperFunction,ComponentPad*%
%ADD13C,1.700000*%
%TD*%
%TA.AperFunction,HeatsinkPad*%
%ADD14O,1.150000X1.800000*%
%TD*%
%TA.AperFunction,HeatsinkPad*%
%ADD15O,1.450000X2.000000*%
%TD*%
%TA.AperFunction,ViaPad*%
%ADD16C,0.800000*%
%TD*%
%TA.AperFunction,Conductor*%
%ADD17C,0.500000*%
%TD*%
%TA.AperFunction,Conductor*%
%ADD18C,0.300000*%
%TD*%
G04 APERTURE END LIST*
D10*
%TO.P,H2,1,1*%
%TO.N,GND*%
X122100000Y-58500000D03*
X122802944Y-56802944D03*
X122802944Y-60197056D03*
X124500000Y-56100000D03*
D11*
X124500000Y-58500000D03*
D10*
X124500000Y-60900000D03*
X126197056Y-56802944D03*
X126197056Y-60197056D03*
X126900000Y-58500000D03*
%TD*%
D12*
%TO.P,J3,1,Pin_1*%
%TO.N,/PA26*%
X101600000Y-66040000D03*
D13*
%TO.P,J3,2,Pin_2*%
%TO.N,/PA27*%
X101600000Y-68580000D03*
%TO.P,J3,3,Pin_3*%
%TO.N,/PA28*%
X101600000Y-71120000D03*
%TO.P,J3,4,Pin_4*%
%TO.N,/PA0*%
X101600000Y-73660000D03*
%TO.P,J3,5,Pin_5*%
%TO.N,/NRST*%
X101600000Y-76200000D03*
%TO.P,J3,6,Pin_6*%
%TO.N,+3V3*%
X101600000Y-78740000D03*
%TO.P,J3,7,Pin_7*%
%TO.N,GND*%
X101600000Y-81280000D03*
%TO.P,J3,8,Pin_8*%
%TO.N,/PA2*%
X101600000Y-83820000D03*
%TO.P,J3,9,Pin_9*%
%TO.N,/PA4*%
X101600000Y-86360000D03*
%TO.P,J3,10,Pin_10*%
%TO.N,/PA6*%
X101600000Y-88900000D03*
%TD*%
D10*
%TO.P,H3,1,1*%
%TO.N,GND*%
X122100000Y-96500000D03*
X122802944Y-94802944D03*
X122802944Y-98197056D03*
X124500000Y-94100000D03*
D11*
X124500000Y-96500000D03*
D10*
X124500000Y-98900000D03*
X126197056Y-94802944D03*
X126197056Y-98197056D03*
X126900000Y-96500000D03*
%TD*%
D12*
%TO.P,J4,1,Pin_1*%
%TO.N,/PA25*%
X124460000Y-66040000D03*
D13*
%TO.P,J4,2,Pin_2*%
%TO.N,/PA24*%
X124460000Y-68580000D03*
%TO.P,J4,3,Pin_3*%
%TO.N,/UART0_CTS*%
X124460000Y-71120000D03*
%TO.P,J4,4,Pin_4*%
%TO.N,/PA22*%
X124460000Y-73660000D03*
%TO.P,J4,5,Pin_5*%
%TO.N,/SWCLK*%
X124460000Y-76200000D03*
%TO.P,J4,6,Pin_6*%
%TO.N,/SWDIO*%
X124460000Y-78740000D03*
%TO.P,J4,7,Pin_7*%
%TO.N,/UART0_RX*%
X124460000Y-81280000D03*
%TO.P,J4,8,Pin_8*%
%TO.N,/UART0_TX*%
X124460000Y-83820000D03*
%TO.P,J4,9,Pin_9*%
%TO.N,/PA16*%
X124460000Y-86360000D03*
%TO.P,J4,10,Pin_10*%
%TO.N,/PA11*%
X124460000Y-88900000D03*
%TD*%
D10*
%TO.P,H1,1,1*%
%TO.N,GND*%
X99100000Y-58500000D03*
X99802944Y-56802944D03*
X99802944Y-60197056D03*
X101500000Y-56100000D03*
D11*
X101500000Y-58500000D03*
D10*
X101500000Y-60900000D03*
X103197056Y-56802944D03*
X103197056Y-60197056D03*
X103900000Y-58500000D03*
%TD*%
%TO.P,H4,1,1*%
%TO.N,GND*%
X99100000Y-96500000D03*
X99802944Y-94802944D03*
X99802944Y-98197056D03*
X101500000Y-94100000D03*
D11*
X101500000Y-96500000D03*
D10*
X101500000Y-98900000D03*
X103197056Y-94802944D03*
X103197056Y-98197056D03*
X103900000Y-96500000D03*
%TD*%
D14*
%TO.P,J1,6,Shield*%
%TO.N,GND*%
X109085000Y-99195000D03*
D15*
X109235000Y-95395000D03*
X116685000Y-95395000D03*
D14*
X116835000Y-99195000D03*
%TD*%
D12*
%TO.P,J2,1,Pin_1*%
%TO.N,+3V3*%
X109190000Y-58385000D03*
D13*
%TO.P,J2,2,Pin_2*%
%TO.N,/SWDIO*%
X111730000Y-58385000D03*
%TO.P,J2,3,Pin_3*%
%TO.N,/SWCLK*%
X114270000Y-58385000D03*
%TO.P,J2,4,Pin_4*%
%TO.N,GND*%
X116810000Y-58385000D03*
%TD*%
D16*
%TO.N,+3V3*%
X117000000Y-74500000D03*
X115469669Y-72969669D03*
%TO.N,GND*%
X110250000Y-88750000D03*
X108500000Y-81000000D03*
X107000000Y-64500000D03*
X120000000Y-64575000D03*
X112250000Y-69250000D03*
X106000000Y-69000000D03*
X107825000Y-85385000D03*
X109725000Y-79750000D03*
X119000000Y-88000000D03*
X108969669Y-76250000D03*
X121250000Y-91000000D03*
X121250000Y-92750000D03*
X114260000Y-93250000D03*
X118750000Y-58385000D03*
X119000000Y-68500000D03*
X113500000Y-85750000D03*
X107750000Y-76250000D03*
X115250000Y-84750000D03*
%TO.N,+5V*%
X103250000Y-75000000D03*
X107000000Y-80750000D03*
%TO.N,/SWDIO*%
X111750000Y-61500000D03*
X121250000Y-74750000D03*
%TO.N,/UART0_CTS*%
X112250000Y-72000000D03*
X113780331Y-64280331D03*
%TO.N,/PA11*%
X115000000Y-71500000D03*
X120500000Y-80000000D03*
%TO.N,/UART0_RX*%
X119000000Y-74500000D03*
X116000000Y-75250000D03*
%TO.N,/UART0_TX*%
X123100000Y-82250000D03*
X113250000Y-75000000D03*
%TO.N,/PA16*%
X121500000Y-79750000D03*
X114000000Y-72000000D03*
%TD*%
D17*
%TO.N,+3V3*%
X117000000Y-74500000D02*
X115469669Y-72969669D01*
D18*
%TO.N,+5V*%
X107000000Y-80750000D02*
X103250000Y-77000000D01*
X103250000Y-77000000D02*
X103250000Y-75000000D01*
D17*
%TO.N,/SWDIO*%
X115000000Y-61500000D02*
X111750000Y-61500000D01*
X121250000Y-74750000D02*
X121250000Y-67750000D01*
X121250000Y-67750000D02*
X115000000Y-61500000D01*
D18*
%TO.N,/UART0_CTS*%
X113500000Y-70750000D02*
X113500000Y-64560662D01*
X113500000Y-64560662D02*
X113780331Y-64280331D01*
X112250000Y-72000000D02*
X113500000Y-70750000D01*
%TO.N,/PA11*%
X120500000Y-74750000D02*
X120500000Y-80000000D01*
X117250000Y-71500000D02*
X120500000Y-74750000D01*
X115000000Y-71500000D02*
X117250000Y-71500000D01*
%TO.N,/UART0_RX*%
X118250000Y-75250000D02*
X119000000Y-74500000D01*
X116000000Y-75250000D02*
X118250000Y-75250000D01*
%TO.N,/UART0_TX*%
X113250000Y-75000000D02*
X113250000Y-75458520D01*
X113250000Y-75458520D02*
X120041480Y-82250000D01*
X120041480Y-82250000D02*
X123100000Y-82250000D01*
%TO.N,/PA16*%
X120812075Y-80750000D02*
X121500000Y-80062075D01*
X114000000Y-75500000D02*
X119250000Y-80750000D01*
X114000000Y-72000000D02*
X114000000Y-75500000D01*
X119250000Y-80750000D02*
X120812075Y-80750000D01*
X121500000Y-80062075D02*
X121500000Y-79750000D01*
%TD*%
%TA.AperFunction,Conductor*%
%TO.N,GND*%
G36*
X128458691Y-54519407D02*
G01*
X128494655Y-54568907D01*
X128499500Y-54599500D01*
X128499500Y-100400500D01*
X128480593Y-100458691D01*
X128431093Y-100494655D01*
X128400500Y-100499500D01*
X117254470Y-100499500D01*
X117196279Y-100480593D01*
X117160315Y-100431093D01*
X117160315Y-100369907D01*
X117196279Y-100320407D01*
X117216584Y-100309036D01*
X117249466Y-100295415D01*
X117249475Y-100295411D01*
X117392779Y-100199656D01*
X117392783Y-100199653D01*
X117514653Y-100077783D01*
X117514656Y-100077779D01*
X117610411Y-99934475D01*
X117610417Y-99934463D01*
X117676373Y-99775229D01*
X117676373Y-99775227D01*
X117709999Y-99606182D01*
X117710000Y-99606178D01*
X117710000Y-99345001D01*
X117709999Y-99345000D01*
X117110000Y-99345000D01*
X117110000Y-99045000D01*
X117709999Y-99045000D01*
X117710000Y-99044999D01*
X117710000Y-98783821D01*
X117709999Y-98783817D01*
X117676373Y-98614772D01*
X117676373Y-98614770D01*
X117610417Y-98455536D01*
X117610411Y-98455524D01*
X117514656Y-98312220D01*
X117514653Y-98312216D01*
X117392783Y-98190346D01*
X117392779Y-98190343D01*
X117249475Y-98094588D01*
X117249463Y-98094582D01*
X117090228Y-98028626D01*
X116985000Y-98007694D01*
X116985000Y-98634473D01*
X116889701Y-98595000D01*
X116780299Y-98595000D01*
X116685000Y-98634473D01*
X116685000Y-98007694D01*
X116579771Y-98028626D01*
X116420536Y-98094582D01*
X116420524Y-98094588D01*
X116277220Y-98190343D01*
X116277216Y-98190346D01*
X116155346Y-98312216D01*
X116155343Y-98312220D01*
X116059588Y-98455524D01*
X116059582Y-98455536D01*
X115993626Y-98614770D01*
X115993626Y-98614772D01*
X115960000Y-98783817D01*
X115960000Y-99044999D01*
X115960001Y-99045000D01*
X116560000Y-99045000D01*
X116560000Y-99345000D01*
X115960001Y-99345000D01*
X115960000Y-99345001D01*
X115960000Y-99606182D01*
X115993626Y-99775227D01*
X115993626Y-99775229D01*
X116059582Y-99934463D01*
X116059588Y-99934475D01*
X116155343Y-100077779D01*
X116155346Y-100077783D01*
X116277216Y-100199653D01*
X116277220Y-100199656D01*
X116420524Y-100295411D01*
X116420533Y-100295415D01*
X116453416Y-100309036D01*
X116499941Y-100348773D01*
X116514225Y-100408267D01*
X116490810Y-100464795D01*
X116438641Y-100496765D01*
X116415530Y-100499500D01*
X109504470Y-100499500D01*
X109446279Y-100480593D01*
X109410315Y-100431093D01*
X109410315Y-100369907D01*
X109446279Y-100320407D01*
X109466584Y-100309036D01*
X109499466Y-100295415D01*
X109499475Y-100295411D01*
X109642779Y-100199656D01*
X109642783Y-100199653D01*
X109764653Y-100077783D01*
X109764656Y-100077779D01*
X109860411Y-99934475D01*
X109860417Y-99934463D01*
X109926373Y-99775229D01*
X109926373Y-99775227D01*
X109959999Y-99606182D01*
X109960000Y-99606178D01*
X109960000Y-99345001D01*
X109959999Y-99345000D01*
X109360000Y-99345000D01*
X109360000Y-99045000D01*
X109959999Y-99045000D01*
X109960000Y-99044999D01*
X109960000Y-98783821D01*
X109959999Y-98783817D01*
X109926373Y-98614772D01*
X109926373Y-98614770D01*
X109860417Y-98455536D01*
X109860411Y-98455524D01*
X109764656Y-98312220D01*
X109764653Y-98312216D01*
X109642783Y-98190346D01*
X109642779Y-98190343D01*
X109499475Y-98094588D01*
X109499463Y-98094582D01*
X109340228Y-98028626D01*
X109235000Y-98007694D01*
X109235000Y-98634473D01*
X109139701Y-98595000D01*
X109030299Y-98595000D01*
X108935000Y-98634473D01*
X108935000Y-98007694D01*
X108829771Y-98028626D01*
X108670536Y-98094582D01*
X108670524Y-98094588D01*
X108527220Y-98190343D01*
X108527216Y-98190346D01*
X108405346Y-98312216D01*
X108405343Y-98312220D01*
X108309588Y-98455524D01*
X108309582Y-98455536D01*
X108243626Y-98614770D01*
X108243626Y-98614772D01*
X108210000Y-98783817D01*
X108210000Y-99044999D01*
X108210001Y-99045000D01*
X108810000Y-99045000D01*
X108810000Y-99345000D01*
X108210001Y-99345000D01*
X108210000Y-99345001D01*
X108210000Y-99606182D01*
X108243626Y-99775227D01*
X108243626Y-99775229D01*
X108309582Y-99934463D01*
X108309588Y-99934475D01*
X108405343Y-100077779D01*
X108405346Y-100077783D01*
X108527216Y-100199653D01*
X108527220Y-100199656D01*
X108670524Y-100295411D01*
X108670533Y-100295415D01*
X108703416Y-100309036D01*
X108749941Y-100348773D01*
X108764225Y-100408267D01*
X108740810Y-100464795D01*
X108688641Y-100496765D01*
X108665530Y-100499500D01*
X97599500Y-100499500D01*
X97541309Y-100480593D01*
X97505345Y-100431093D01*
X97500500Y-100400500D01*
X97500500Y-95019043D01*
X108210000Y-95019043D01*
X108210000Y-95244999D01*
X108210001Y-95245000D01*
X108810000Y-95245000D01*
X108810000Y-95545000D01*
X108210001Y-95545000D01*
X108210000Y-95545001D01*
X108210000Y-95770956D01*
X108249390Y-95968981D01*
X108249390Y-95968983D01*
X108326653Y-96155515D01*
X108326659Y-96155527D01*
X108438830Y-96323399D01*
X108438833Y-96323403D01*
X108581596Y-96466166D01*
X108581600Y-96466169D01*
X108749472Y-96578340D01*
X108749484Y-96578346D01*
X108936016Y-96655609D01*
X108936019Y-96655610D01*
X109084999Y-96685243D01*
X109085000Y-96685243D01*
X109085000Y-96069800D01*
X109179048Y-96095000D01*
X109290952Y-96095000D01*
X109385000Y-96069800D01*
X109385000Y-96685243D01*
X109533979Y-96655610D01*
X109567820Y-96641593D01*
X109628816Y-96636792D01*
X109680986Y-96668761D01*
X109697170Y-96695172D01*
X109750603Y-96824174D01*
X109750609Y-96824185D01*
X109803312Y-96903059D01*
X109838211Y-96955289D01*
X109949711Y-97066789D01*
X110027876Y-97119017D01*
X110080814Y-97154390D01*
X110080825Y-97154396D01*
X110134638Y-97176685D01*
X110226503Y-97214737D01*
X110381158Y-97245500D01*
X110381159Y-97245500D01*
X110538841Y-97245500D01*
X110538842Y-97245500D01*
X110693497Y-97214737D01*
X110839179Y-97154394D01*
X110970289Y-97066789D01*
X111081789Y-96955289D01*
X111169394Y-96824179D01*
X111229737Y-96678497D01*
X111260500Y-96523842D01*
X111260500Y-96366158D01*
X111260499Y-96366155D01*
X114659500Y-96366155D01*
X114659500Y-96523844D01*
X114680008Y-96626945D01*
X114688326Y-96668761D01*
X114690263Y-96678496D01*
X114690263Y-96678498D01*
X114750603Y-96824174D01*
X114750609Y-96824185D01*
X114803312Y-96903059D01*
X114838211Y-96955289D01*
X114949711Y-97066789D01*
X115027876Y-97119017D01*
X115080814Y-97154390D01*
X115080825Y-97154396D01*
X115134638Y-97176685D01*
X115226503Y-97214737D01*
X115381158Y-97245500D01*
X115381159Y-97245500D01*
X115538841Y-97245500D01*
X115538842Y-97245500D01*
X115693497Y-97214737D01*
X115839179Y-97154394D01*
X115970289Y-97066789D01*
X116081789Y-96955289D01*
X116169394Y-96824179D01*
X116222831Y-96695167D01*
X116262565Y-96648646D01*
X116322059Y-96634362D01*
X116352179Y-96641593D01*
X116386020Y-96655610D01*
X116386019Y-96655610D01*
X116534999Y-96685243D01*
X116535000Y-96685243D01*
X116535000Y-96069800D01*
X116629048Y-96095000D01*
X116740952Y-96095000D01*
X116835000Y-96069800D01*
X116835000Y-96685243D01*
X116983980Y-96655610D01*
X116983983Y-96655609D01*
X117170515Y-96578346D01*
X117170527Y-96578340D01*
X117338399Y-96466169D01*
X117338403Y-96466166D01*
X117481166Y-96323403D01*
X117481169Y-96323399D01*
X117593340Y-96155527D01*
X117593346Y-96155515D01*
X117670609Y-95968983D01*
X117670609Y-95968981D01*
X117709999Y-95770956D01*
X117710000Y-95770952D01*
X117710000Y-95545001D01*
X117709999Y-95545000D01*
X117110000Y-95545000D01*
X117110000Y-95245000D01*
X117709999Y-95245000D01*
X117710000Y-95244999D01*
X117710000Y-95019047D01*
X117709999Y-95019043D01*
X117670609Y-94821018D01*
X117670609Y-94821016D01*
X117593346Y-94634484D01*
X117593340Y-94634472D01*
X117481169Y-94466600D01*
X117481166Y-94466596D01*
X117338403Y-94323833D01*
X117338399Y-94323830D01*
X117170527Y-94211659D01*
X117170515Y-94211653D01*
X116983982Y-94134390D01*
X116835000Y-94104755D01*
X116835000Y-94720199D01*
X116740952Y-94695000D01*
X116629048Y-94695000D01*
X116535000Y-94720199D01*
X116535000Y-94104755D01*
X116386018Y-94134390D01*
X116386016Y-94134390D01*
X116199484Y-94211653D01*
X116199472Y-94211659D01*
X116031600Y-94323830D01*
X116031596Y-94323833D01*
X115888833Y-94466596D01*
X115888830Y-94466600D01*
X115776659Y-94634472D01*
X115776653Y-94634484D01*
X115699390Y-94821016D01*
X115699390Y-94821018D01*
X115660000Y-95019043D01*
X115660000Y-95244999D01*
X115660001Y-95245000D01*
X116260000Y-95245000D01*
X116260000Y-95545000D01*
X115660001Y-95545000D01*
X115660000Y-95545001D01*
X115660000Y-95547967D01*
X115641093Y-95606158D01*
X115591593Y-95642122D01*
X115543687Y-95644948D01*
X115543685Y-95644977D01*
X115543504Y-95644959D01*
X115541695Y-95645066D01*
X115538856Y-95644501D01*
X115538842Y-95644500D01*
X115381158Y-95644500D01*
X115381155Y-95644500D01*
X115226503Y-95675263D01*
X115226501Y-95675263D01*
X115080825Y-95735603D01*
X115080814Y-95735609D01*
X114949711Y-95823211D01*
X114949707Y-95823214D01*
X114838214Y-95934707D01*
X114838211Y-95934711D01*
X114750609Y-96065814D01*
X114750603Y-96065825D01*
X114690263Y-96211501D01*
X114690263Y-96211503D01*
X114659500Y-96366155D01*
X111260499Y-96366155D01*
X111229737Y-96211503D01*
X111181480Y-96095000D01*
X111169396Y-96065825D01*
X111169390Y-96065814D01*
X111132152Y-96010084D01*
X111081789Y-95934711D01*
X110970289Y-95823211D01*
X110892078Y-95770952D01*
X110839185Y-95735609D01*
X110839174Y-95735603D01*
X110693497Y-95675263D01*
X110538844Y-95644500D01*
X110538842Y-95644500D01*
X110381158Y-95644500D01*
X110381157Y-95644500D01*
X110381143Y-95644501D01*
X110378305Y-95645066D01*
X110376991Y-95644910D01*
X110376315Y-95644977D01*
X110376300Y-95644828D01*
X110317545Y-95637869D01*
X110272619Y-95596333D01*
X110260000Y-95547967D01*
X110260000Y-95545001D01*
X110259999Y-95545000D01*
X109660000Y-95545000D01*
X109660000Y-95245000D01*
X110259999Y-95245000D01*
X110260000Y-95244999D01*
X110260000Y-95019047D01*
X110259999Y-95019043D01*
X110220609Y-94821018D01*
X110220609Y-94821016D01*
X110143346Y-94634484D01*
X110143340Y-94634472D01*
X110031169Y-94466600D01*
X110031166Y-94466596D01*
X109888403Y-94323833D01*
X109888399Y-94323830D01*
X109720527Y-94211659D01*
X109720515Y-94211653D01*
X109533982Y-94134390D01*
X109385000Y-94104755D01*
X109385000Y-94720199D01*
X109290952Y-94695000D01*
X109179048Y-94695000D01*
X109085000Y-94720199D01*
X109085000Y-94104755D01*
X108936018Y-94134390D01*
X108936016Y-94134390D01*
X108749484Y-94211653D01*
X108749472Y-94211659D01*
X108581600Y-94323830D01*
X108581596Y-94323833D01*
X108438833Y-94466596D01*
X108438830Y-94466600D01*
X108326659Y-94634472D01*
X108326653Y-94634484D01*
X108249390Y-94821016D01*
X108249390Y-94821018D01*
X108210000Y-95019043D01*
X97500500Y-95019043D01*
X97500500Y-65158478D01*
X100349500Y-65158478D01*
X100349500Y-66921521D01*
X100349501Y-66921523D01*
X100364352Y-67015299D01*
X100364354Y-67015304D01*
X100421950Y-67128342D01*
X100511658Y-67218050D01*
X100624696Y-67275646D01*
X100718481Y-67290500D01*
X100963959Y-67290499D01*
X101022147Y-67309406D01*
X101058111Y-67358906D01*
X101058112Y-67420091D01*
X101022148Y-67469591D01*
X101008903Y-67477708D01*
X100944600Y-67510472D01*
X100944598Y-67510473D01*
X100785355Y-67626171D01*
X100646171Y-67765355D01*
X100530474Y-67924597D01*
X100441116Y-68099974D01*
X100380289Y-68287178D01*
X100349500Y-68481579D01*
X100349500Y-68678420D01*
X100380289Y-68872821D01*
X100380291Y-68872826D01*
X100441116Y-69060025D01*
X100530476Y-69235405D01*
X100646172Y-69394646D01*
X100785354Y-69533828D01*
X100944595Y-69649524D01*
X101119975Y-69738884D01*
X101119977Y-69738884D01*
X101119978Y-69738885D01*
X101119981Y-69738887D01*
X101172175Y-69755846D01*
X101221675Y-69791810D01*
X101240582Y-69850001D01*
X101221674Y-69908191D01*
X101172175Y-69944154D01*
X101119981Y-69961112D01*
X101119978Y-69961114D01*
X100944597Y-70050474D01*
X100785355Y-70166171D01*
X100646171Y-70305355D01*
X100530474Y-70464597D01*
X100441116Y-70639974D01*
X100380289Y-70827178D01*
X100349500Y-71021579D01*
X100349500Y-71218420D01*
X100380289Y-71412821D01*
X100441116Y-71600025D01*
X100530476Y-71775405D01*
X100646172Y-71934646D01*
X100785354Y-72073828D01*
X100944595Y-72189524D01*
X101119975Y-72278884D01*
X101119977Y-72278884D01*
X101119978Y-72278885D01*
X101119981Y-72278887D01*
X101172175Y-72295846D01*
X101221675Y-72331810D01*
X101240582Y-72390001D01*
X101221674Y-72448191D01*
X101172175Y-72484154D01*
X101119981Y-72501112D01*
X101119978Y-72501114D01*
X100944597Y-72590474D01*
X100785355Y-72706171D01*
X100646171Y-72845355D01*
X100530474Y-73004597D01*
X100441116Y-73179974D01*
X100380289Y-73367178D01*
X100349500Y-73561579D01*
X100349500Y-73758420D01*
X100380289Y-73952821D01*
X100441116Y-74140025D01*
X100526523Y-74307648D01*
X100530476Y-74315405D01*
X100646172Y-74474646D01*
X100785354Y-74613828D01*
X100944595Y-74729524D01*
X101119975Y-74818884D01*
X101119977Y-74818884D01*
X101119978Y-74818885D01*
X101119981Y-74818887D01*
X101172175Y-74835846D01*
X101221675Y-74871810D01*
X101240582Y-74930001D01*
X101221674Y-74988191D01*
X101172175Y-75024154D01*
X101119981Y-75041112D01*
X101119978Y-75041114D01*
X100944597Y-75130474D01*
X100785355Y-75246171D01*
X100646171Y-75385355D01*
X100530474Y-75544597D01*
X100441116Y-75719974D01*
X100380289Y-75907178D01*
X100349500Y-76101579D01*
X100349500Y-76298420D01*
X100380289Y-76492821D01*
X100441116Y-76680025D01*
X100502740Y-76800971D01*
X100530476Y-76855405D01*
X100646172Y-77014646D01*
X100785354Y-77153828D01*
X100944595Y-77269524D01*
X101119975Y-77358884D01*
X101119977Y-77358884D01*
X101119978Y-77358885D01*
X101119981Y-77358887D01*
X101172175Y-77375846D01*
X101221675Y-77411810D01*
X101240582Y-77470001D01*
X101221674Y-77528191D01*
X101172175Y-77564154D01*
X101119981Y-77581112D01*
X101119978Y-77581114D01*
X100944597Y-77670474D01*
X100785355Y-77786171D01*
X100646171Y-77925355D01*
X100530474Y-78084597D01*
X100441116Y-78259974D01*
X100380289Y-78447178D01*
X100349500Y-78641579D01*
X100349500Y-78838420D01*
X100380289Y-79032821D01*
X100441116Y-79220025D01*
X100530476Y-79395405D01*
X100646172Y-79554646D01*
X100785354Y-79693828D01*
X100944595Y-79809524D01*
X101119975Y-79898884D01*
X101307174Y-79959709D01*
X101328553Y-79963095D01*
X101383068Y-79990871D01*
X101410847Y-80045387D01*
X101401277Y-80105819D01*
X101358013Y-80149085D01*
X101334340Y-80156782D01*
X101334491Y-80157408D01*
X101330715Y-80158314D01*
X101158559Y-80214250D01*
X100997269Y-80296431D01*
X100997265Y-80296433D01*
X100899556Y-80367423D01*
X101368461Y-80836328D01*
X101292993Y-80879901D01*
X101199901Y-80972993D01*
X101156328Y-81048461D01*
X100687423Y-80579556D01*
X100616433Y-80677265D01*
X100616431Y-80677269D01*
X100534250Y-80838559D01*
X100478316Y-81010710D01*
X100450000Y-81189489D01*
X100450000Y-81370510D01*
X100478316Y-81549289D01*
X100534250Y-81721440D01*
X100616430Y-81882728D01*
X100687424Y-81980442D01*
X101156328Y-81511536D01*
X101199901Y-81587007D01*
X101292993Y-81680099D01*
X101368460Y-81723670D01*
X100899556Y-82192574D01*
X100899556Y-82192575D01*
X100997263Y-82263564D01*
X100997269Y-82263568D01*
X101158559Y-82345749D01*
X101330715Y-82401685D01*
X101334491Y-82402592D01*
X101334110Y-82404176D01*
X101383062Y-82429112D01*
X101410845Y-82483625D01*
X101401281Y-82544058D01*
X101358021Y-82587328D01*
X101328554Y-82596904D01*
X101307177Y-82600289D01*
X101119974Y-82661116D01*
X100944597Y-82750474D01*
X100785355Y-82866171D01*
X100646171Y-83005355D01*
X100530474Y-83164597D01*
X100441116Y-83339974D01*
X100380289Y-83527178D01*
X100349500Y-83721579D01*
X100349500Y-83918420D01*
X100380289Y-84112821D01*
X100380291Y-84112826D01*
X100441116Y-84300025D01*
X100530476Y-84475405D01*
X100646172Y-84634646D01*
X100785354Y-84773828D01*
X100944595Y-84889524D01*
X101119975Y-84978884D01*
X101119977Y-84978884D01*
X101119978Y-84978885D01*
X101119981Y-84978887D01*
X101172175Y-84995846D01*
X101221675Y-85031810D01*
X101240582Y-85090001D01*
X101221674Y-85148191D01*
X101172175Y-85184154D01*
X101119981Y-85201112D01*
X101119978Y-85201114D01*
X100944597Y-85290474D01*
X100785355Y-85406171D01*
X100646171Y-85545355D01*
X100530474Y-85704597D01*
X100441116Y-85879974D01*
X100380289Y-86067178D01*
X100349500Y-86261579D01*
X100349500Y-86458420D01*
X100380289Y-86652821D01*
X100380291Y-86652826D01*
X100441116Y-86840025D01*
X100530476Y-87015405D01*
X100646172Y-87174646D01*
X100785354Y-87313828D01*
X100944595Y-87429524D01*
X101119975Y-87518884D01*
X101119977Y-87518884D01*
X101119978Y-87518885D01*
X101119981Y-87518887D01*
X101172175Y-87535846D01*
X101221675Y-87571810D01*
X101240582Y-87630001D01*
X101221674Y-87688191D01*
X101172175Y-87724154D01*
X101119981Y-87741112D01*
X101119978Y-87741114D01*
X100944597Y-87830474D01*
X100785355Y-87946171D01*
X100646171Y-88085355D01*
X100530474Y-88244597D01*
X100441116Y-88419974D01*
X100380289Y-88607178D01*
X100349500Y-88801579D01*
X100349500Y-88998420D01*
X100380289Y-89192821D01*
X100380291Y-89192826D01*
X100441116Y-89380025D01*
X100530476Y-89555405D01*
X100646172Y-89714646D01*
X100785354Y-89853828D01*
X100944595Y-89969524D01*
X101119975Y-90058884D01*
X101307174Y-90119709D01*
X101307175Y-90119709D01*
X101307178Y-90119710D01*
X101501580Y-90150500D01*
X101501583Y-90150500D01*
X101698420Y-90150500D01*
X101892821Y-90119710D01*
X101892822Y-90119709D01*
X101892826Y-90119709D01*
X102080025Y-90058884D01*
X102255405Y-89969524D01*
X102414646Y-89853828D01*
X102553828Y-89714646D01*
X102669524Y-89555405D01*
X102758884Y-89380025D01*
X102819709Y-89192826D01*
X102850500Y-88998417D01*
X102850500Y-88801583D01*
X102850500Y-88801579D01*
X102819710Y-88607178D01*
X102819709Y-88607174D01*
X102758884Y-88419975D01*
X102669524Y-88244595D01*
X102553828Y-88085354D01*
X102414646Y-87946172D01*
X102255405Y-87830476D01*
X102255404Y-87830475D01*
X102255402Y-87830474D01*
X102080025Y-87741116D01*
X102080013Y-87741112D01*
X102027823Y-87724154D01*
X101978324Y-87688191D01*
X101959417Y-87630000D01*
X101978324Y-87571809D01*
X102027823Y-87535845D01*
X102080025Y-87518884D01*
X102255405Y-87429524D01*
X102414646Y-87313828D01*
X102553828Y-87174646D01*
X102669524Y-87015405D01*
X102758884Y-86840025D01*
X102819709Y-86652826D01*
X102850500Y-86458417D01*
X102850500Y-86261583D01*
X102850500Y-86261579D01*
X102819710Y-86067178D01*
X102819709Y-86067174D01*
X102758884Y-85879975D01*
X102669524Y-85704595D01*
X102553828Y-85545354D01*
X102414646Y-85406172D01*
X102255405Y-85290476D01*
X102255404Y-85290475D01*
X102255402Y-85290474D01*
X102080025Y-85201116D01*
X102080013Y-85201112D01*
X102027823Y-85184154D01*
X101978324Y-85148191D01*
X101959417Y-85090000D01*
X101978324Y-85031809D01*
X102027823Y-84995845D01*
X102080025Y-84978884D01*
X102255405Y-84889524D01*
X102414646Y-84773828D01*
X102553828Y-84634646D01*
X102669524Y-84475405D01*
X102758884Y-84300025D01*
X102819709Y-84112826D01*
X102850500Y-83918417D01*
X102850500Y-83721583D01*
X102850500Y-83721579D01*
X102819710Y-83527178D01*
X102819709Y-83527174D01*
X102758884Y-83339975D01*
X102669524Y-83164595D01*
X102553828Y-83005354D01*
X102414646Y-82866172D01*
X102255405Y-82750476D01*
X102255404Y-82750475D01*
X102255402Y-82750474D01*
X102080025Y-82661116D01*
X101892826Y-82600291D01*
X101892824Y-82600290D01*
X101892822Y-82600290D01*
X101871445Y-82596904D01*
X101816929Y-82569126D01*
X101789152Y-82514609D01*
X101798724Y-82454177D01*
X101841989Y-82410913D01*
X101865660Y-82403224D01*
X101865509Y-82402592D01*
X101869284Y-82401685D01*
X102041440Y-82345749D01*
X102202730Y-82263568D01*
X102202735Y-82263564D01*
X102300442Y-82192575D01*
X102300442Y-82192574D01*
X101831538Y-81723670D01*
X101907007Y-81680099D01*
X102000099Y-81587007D01*
X102043670Y-81511538D01*
X102512574Y-81980442D01*
X102512575Y-81980442D01*
X102583564Y-81882735D01*
X102583568Y-81882730D01*
X102665749Y-81721440D01*
X102721683Y-81549289D01*
X102750000Y-81370510D01*
X102750000Y-81189489D01*
X102721683Y-81010710D01*
X102665749Y-80838559D01*
X102583568Y-80677269D01*
X102583564Y-80677263D01*
X102512575Y-80579556D01*
X102512574Y-80579556D01*
X102043670Y-81048460D01*
X102000099Y-80972993D01*
X101907007Y-80879901D01*
X101831536Y-80836328D01*
X102300442Y-80367424D01*
X102202728Y-80296430D01*
X102041440Y-80214250D01*
X101869284Y-80158314D01*
X101865509Y-80157408D01*
X101865886Y-80155834D01*
X101816903Y-80130853D01*
X101789146Y-80076326D01*
X101798740Y-80015898D01*
X101842021Y-79972650D01*
X101871444Y-79963095D01*
X101892826Y-79959709D01*
X102080025Y-79898884D01*
X102255405Y-79809524D01*
X102414646Y-79693828D01*
X102553828Y-79554646D01*
X102669524Y-79395405D01*
X102758884Y-79220025D01*
X102819709Y-79032826D01*
X102819710Y-79032821D01*
X102850500Y-78838420D01*
X102850500Y-78641579D01*
X102819710Y-78447178D01*
X102819709Y-78447174D01*
X102758884Y-78259975D01*
X102669524Y-78084595D01*
X102553828Y-77925354D01*
X102414646Y-77786172D01*
X102255405Y-77670476D01*
X102255404Y-77670475D01*
X102255402Y-77670474D01*
X102080025Y-77581116D01*
X102080013Y-77581112D01*
X102027823Y-77564154D01*
X101978324Y-77528191D01*
X101959417Y-77470000D01*
X101978324Y-77411809D01*
X102027823Y-77375845D01*
X102080025Y-77358884D01*
X102255405Y-77269524D01*
X102414646Y-77153828D01*
X102535246Y-77033227D01*
X102544669Y-77028426D01*
X102551328Y-77020204D01*
X102571320Y-77014846D01*
X102589761Y-77005451D01*
X102600210Y-77007105D01*
X102610428Y-77004368D01*
X102629748Y-77011784D01*
X102650193Y-77015022D01*
X102657673Y-77022503D01*
X102667550Y-77026294D01*
X102678822Y-77043652D01*
X102693457Y-77058287D01*
X102700874Y-77077608D01*
X102721298Y-77153828D01*
X102737014Y-77212481D01*
X102737014Y-77212482D01*
X102737016Y-77212485D01*
X102809490Y-77338015D01*
X106170505Y-80699030D01*
X106198281Y-80753545D01*
X106199500Y-80769032D01*
X106199500Y-80828844D01*
X106230263Y-80983496D01*
X106230263Y-80983498D01*
X106290603Y-81129174D01*
X106290609Y-81129185D01*
X106325621Y-81181583D01*
X106378211Y-81260289D01*
X106489711Y-81371789D01*
X106567876Y-81424017D01*
X106620814Y-81459390D01*
X106620825Y-81459396D01*
X106653652Y-81472993D01*
X106766503Y-81519737D01*
X106921158Y-81550500D01*
X106921159Y-81550500D01*
X107078841Y-81550500D01*
X107078842Y-81550500D01*
X107233497Y-81519737D01*
X107379179Y-81459394D01*
X107510289Y-81371789D01*
X107621789Y-81260289D01*
X107709394Y-81129179D01*
X107769737Y-80983497D01*
X107800500Y-80828842D01*
X107800500Y-80671158D01*
X107769737Y-80516503D01*
X107744391Y-80455312D01*
X107709396Y-80370825D01*
X107709390Y-80370814D01*
X107659687Y-80296430D01*
X107621789Y-80239711D01*
X107510289Y-80128211D01*
X107436411Y-80078847D01*
X107379185Y-80040609D01*
X107379174Y-80040603D01*
X107233497Y-79980263D01*
X107078844Y-79949500D01*
X107078842Y-79949500D01*
X107019033Y-79949500D01*
X106960842Y-79930593D01*
X106949029Y-79920504D01*
X103829496Y-76800971D01*
X103801719Y-76746454D01*
X103800500Y-76730967D01*
X103800500Y-75622586D01*
X103819407Y-75564395D01*
X103829496Y-75552582D01*
X103837483Y-75544595D01*
X103871789Y-75510289D01*
X103959394Y-75379179D01*
X104019737Y-75233497D01*
X104050500Y-75078842D01*
X104050500Y-74921158D01*
X104019737Y-74766503D01*
X103963649Y-74631093D01*
X103959396Y-74620825D01*
X103959390Y-74620814D01*
X103924017Y-74567876D01*
X103871789Y-74489711D01*
X103760289Y-74378211D01*
X103708059Y-74343312D01*
X103629185Y-74290609D01*
X103629174Y-74290603D01*
X103483497Y-74230263D01*
X103328844Y-74199500D01*
X103328842Y-74199500D01*
X103171158Y-74199500D01*
X103171155Y-74199500D01*
X103016503Y-74230263D01*
X103016501Y-74230263D01*
X102879614Y-74286963D01*
X102818617Y-74291763D01*
X102766448Y-74259794D01*
X102743034Y-74203266D01*
X102753520Y-74150553D01*
X102754607Y-74148418D01*
X102758884Y-74140025D01*
X102819709Y-73952826D01*
X102819710Y-73952821D01*
X102850500Y-73758420D01*
X102850500Y-73561579D01*
X102819710Y-73367178D01*
X102792008Y-73281921D01*
X102758884Y-73179975D01*
X102669524Y-73004595D01*
X102553828Y-72845354D01*
X102414646Y-72706172D01*
X102255405Y-72590476D01*
X102255404Y-72590475D01*
X102255402Y-72590474D01*
X102080025Y-72501116D01*
X102080013Y-72501112D01*
X102027823Y-72484154D01*
X101978324Y-72448191D01*
X101959417Y-72390000D01*
X101978324Y-72331809D01*
X102027823Y-72295845D01*
X102080025Y-72278884D01*
X102255405Y-72189524D01*
X102414646Y-72073828D01*
X102553828Y-71934646D01*
X102669524Y-71775405D01*
X102758884Y-71600025D01*
X102819709Y-71412826D01*
X102825191Y-71378214D01*
X102850500Y-71218420D01*
X102850500Y-71021579D01*
X102819710Y-70827178D01*
X102807826Y-70790603D01*
X102758884Y-70639975D01*
X102669524Y-70464595D01*
X102553828Y-70305354D01*
X102414646Y-70166172D01*
X102255405Y-70050476D01*
X102255404Y-70050475D01*
X102255402Y-70050474D01*
X102080025Y-69961116D01*
X102080013Y-69961112D01*
X102027823Y-69944154D01*
X101978324Y-69908191D01*
X101959417Y-69850000D01*
X101978324Y-69791809D01*
X102027823Y-69755845D01*
X102080025Y-69738884D01*
X102255405Y-69649524D01*
X102414646Y-69533828D01*
X102553828Y-69394646D01*
X102669524Y-69235405D01*
X102758884Y-69060025D01*
X102819709Y-68872826D01*
X102850500Y-68678417D01*
X102850500Y-68481583D01*
X102850500Y-68481579D01*
X102819710Y-68287178D01*
X102819709Y-68287174D01*
X102758884Y-68099975D01*
X102669524Y-67924595D01*
X102553828Y-67765354D01*
X102414646Y-67626172D01*
X102255405Y-67510476D01*
X102255404Y-67510475D01*
X102255402Y-67510474D01*
X102191096Y-67477709D01*
X102147831Y-67434444D01*
X102138260Y-67374012D01*
X102166037Y-67319496D01*
X102220554Y-67291718D01*
X102236039Y-67290499D01*
X102481518Y-67290499D01*
X102481521Y-67290499D01*
X102481522Y-67290498D01*
X102528411Y-67283072D01*
X102575299Y-67275647D01*
X102575299Y-67275646D01*
X102575304Y-67275646D01*
X102688342Y-67218050D01*
X102778050Y-67128342D01*
X102835646Y-67015304D01*
X102850500Y-66921519D01*
X102850499Y-65158482D01*
X102850499Y-65158481D01*
X102850499Y-65158478D01*
X102850498Y-65158476D01*
X102835647Y-65064700D01*
X102835646Y-65064698D01*
X102835646Y-65064696D01*
X102778050Y-64951658D01*
X102688342Y-64861950D01*
X102575304Y-64804354D01*
X102575305Y-64804354D01*
X102481521Y-64789500D01*
X100718478Y-64789500D01*
X100718476Y-64789501D01*
X100624700Y-64804352D01*
X100624695Y-64804354D01*
X100511659Y-64861949D01*
X100421949Y-64951659D01*
X100364354Y-65064695D01*
X100349500Y-65158478D01*
X97500500Y-65158478D01*
X97500500Y-61421155D01*
X110949500Y-61421155D01*
X110949500Y-61578844D01*
X110980263Y-61733496D01*
X110980263Y-61733498D01*
X111040603Y-61879174D01*
X111040609Y-61879185D01*
X111093312Y-61958059D01*
X111128211Y-62010289D01*
X111239711Y-62121789D01*
X111307651Y-62167185D01*
X111370814Y-62209390D01*
X111370825Y-62209396D01*
X111424638Y-62231685D01*
X111516503Y-62269737D01*
X111671158Y-62300500D01*
X111671159Y-62300500D01*
X111828841Y-62300500D01*
X111828842Y-62300500D01*
X111983497Y-62269737D01*
X112129179Y-62209394D01*
X112192349Y-62167184D01*
X112247351Y-62150500D01*
X114689546Y-62150500D01*
X114747737Y-62169407D01*
X114759550Y-62179496D01*
X120570504Y-67990450D01*
X120598281Y-68044967D01*
X120599500Y-68060454D01*
X120599500Y-73831967D01*
X120580593Y-73890158D01*
X120531093Y-73926122D01*
X120469907Y-73926122D01*
X120430496Y-73901971D01*
X119012679Y-72484154D01*
X117588015Y-71059490D01*
X117462485Y-70987016D01*
X117322475Y-70949500D01*
X117322474Y-70949500D01*
X115622586Y-70949500D01*
X115564395Y-70930593D01*
X115552582Y-70920504D01*
X115510292Y-70878214D01*
X115510289Y-70878211D01*
X115426870Y-70822472D01*
X115379185Y-70790609D01*
X115379174Y-70790603D01*
X115233497Y-70730263D01*
X115078844Y-70699500D01*
X115078842Y-70699500D01*
X114921158Y-70699500D01*
X114921155Y-70699500D01*
X114766503Y-70730263D01*
X114766501Y-70730263D01*
X114620825Y-70790603D01*
X114620814Y-70790609D01*
X114489711Y-70878211D01*
X114489707Y-70878214D01*
X114378214Y-70989707D01*
X114378211Y-70989711D01*
X114290604Y-71120822D01*
X114290604Y-71120823D01*
X114275467Y-71157366D01*
X114273468Y-71159706D01*
X114273044Y-71162755D01*
X114253773Y-71182765D01*
X114235729Y-71203891D01*
X114232735Y-71204609D01*
X114230601Y-71206826D01*
X114212104Y-71209562D01*
X114176234Y-71218173D01*
X114170360Y-71217533D01*
X114167495Y-71217134D01*
X114078842Y-71199500D01*
X114040764Y-71199500D01*
X114033973Y-71198555D01*
X114012322Y-71188032D01*
X113989426Y-71180593D01*
X113985282Y-71174890D01*
X113978943Y-71171809D01*
X113967613Y-71150571D01*
X113953462Y-71131093D01*
X113953462Y-71124042D01*
X113950145Y-71117824D01*
X113953462Y-71093984D01*
X113953462Y-71069907D01*
X113958334Y-71058962D01*
X113958577Y-71057223D01*
X113959567Y-71056194D01*
X113961880Y-71051001D01*
X113997265Y-70989711D01*
X114012984Y-70962485D01*
X114050500Y-70822474D01*
X114050500Y-70677526D01*
X114050500Y-65101027D01*
X114069407Y-65042836D01*
X114111612Y-65009564D01*
X114159510Y-64989725D01*
X114290620Y-64902120D01*
X114402120Y-64790620D01*
X114489725Y-64659510D01*
X114550068Y-64513828D01*
X114580831Y-64359173D01*
X114580831Y-64201489D01*
X114550068Y-64046834D01*
X114489725Y-63901152D01*
X114489724Y-63901150D01*
X114489721Y-63901145D01*
X114454348Y-63848207D01*
X114402120Y-63770042D01*
X114290620Y-63658542D01*
X114238390Y-63623643D01*
X114159516Y-63570940D01*
X114159505Y-63570934D01*
X114013828Y-63510594D01*
X113859175Y-63479831D01*
X113859173Y-63479831D01*
X113701489Y-63479831D01*
X113701486Y-63479831D01*
X113546834Y-63510594D01*
X113546832Y-63510594D01*
X113401156Y-63570934D01*
X113401145Y-63570940D01*
X113270042Y-63658542D01*
X113270038Y-63658545D01*
X113158545Y-63770038D01*
X113158542Y-63770042D01*
X113070940Y-63901145D01*
X113070934Y-63901156D01*
X113010594Y-64046832D01*
X113010594Y-64046834D01*
X112979831Y-64201486D01*
X112979831Y-64361953D01*
X112976458Y-64387575D01*
X112949500Y-64488187D01*
X112949500Y-70480967D01*
X112930593Y-70539158D01*
X112920504Y-70550971D01*
X112300971Y-71170504D01*
X112246454Y-71198281D01*
X112230967Y-71199500D01*
X112171155Y-71199500D01*
X112016503Y-71230263D01*
X112016501Y-71230263D01*
X111870825Y-71290603D01*
X111870814Y-71290609D01*
X111739711Y-71378211D01*
X111739707Y-71378214D01*
X111628214Y-71489707D01*
X111628211Y-71489711D01*
X111540609Y-71620814D01*
X111540603Y-71620825D01*
X111480263Y-71766501D01*
X111480263Y-71766503D01*
X111449500Y-71921155D01*
X111449500Y-72078844D01*
X111458043Y-72121789D01*
X111473586Y-72199932D01*
X111480263Y-72233496D01*
X111480263Y-72233498D01*
X111540603Y-72379174D01*
X111540609Y-72379185D01*
X111581440Y-72440291D01*
X111628211Y-72510289D01*
X111739711Y-72621789D01*
X111817876Y-72674017D01*
X111870814Y-72709390D01*
X111870825Y-72709396D01*
X111924638Y-72731685D01*
X112016503Y-72769737D01*
X112171158Y-72800500D01*
X112171159Y-72800500D01*
X112328841Y-72800500D01*
X112328842Y-72800500D01*
X112483497Y-72769737D01*
X112629179Y-72709394D01*
X112760289Y-72621789D01*
X112871789Y-72510289D01*
X112959394Y-72379179D01*
X113019737Y-72233497D01*
X113027902Y-72192447D01*
X113057799Y-72139064D01*
X113113364Y-72113448D01*
X113173374Y-72125385D01*
X113214906Y-72170315D01*
X113222097Y-72192446D01*
X113223844Y-72201228D01*
X113230263Y-72233496D01*
X113230263Y-72233498D01*
X113290603Y-72379174D01*
X113290609Y-72379185D01*
X113331440Y-72440291D01*
X113378211Y-72510289D01*
X113378214Y-72510292D01*
X113420504Y-72552582D01*
X113448281Y-72607099D01*
X113449500Y-72622586D01*
X113449500Y-74102868D01*
X113430593Y-74161059D01*
X113381093Y-74197023D01*
X113333702Y-74199817D01*
X113333687Y-74199977D01*
X113332680Y-74199877D01*
X113331187Y-74199966D01*
X113328846Y-74199500D01*
X113328842Y-74199500D01*
X113171158Y-74199500D01*
X113171155Y-74199500D01*
X113016503Y-74230263D01*
X113016501Y-74230263D01*
X112870825Y-74290603D01*
X112870814Y-74290609D01*
X112739711Y-74378211D01*
X112739707Y-74378214D01*
X112628214Y-74489707D01*
X112628211Y-74489711D01*
X112540609Y-74620814D01*
X112540603Y-74620825D01*
X112480263Y-74766501D01*
X112480263Y-74766503D01*
X112449500Y-74921155D01*
X112449500Y-75078844D01*
X112480263Y-75233496D01*
X112480263Y-75233498D01*
X112540603Y-75379174D01*
X112540609Y-75379185D01*
X112593312Y-75458059D01*
X112628211Y-75510289D01*
X112628214Y-75510292D01*
X112699258Y-75581336D01*
X112724879Y-75625709D01*
X112725808Y-75629175D01*
X112725809Y-75629182D01*
X112730619Y-75647131D01*
X112737016Y-75671005D01*
X112809490Y-75796535D01*
X119703465Y-82690510D01*
X119824327Y-82760289D01*
X119828995Y-82762984D01*
X119969005Y-82800500D01*
X119969006Y-82800500D01*
X120113954Y-82800500D01*
X122477414Y-82800500D01*
X122535605Y-82819407D01*
X122547418Y-82829496D01*
X122589711Y-82871789D01*
X122667876Y-82924017D01*
X122720814Y-82959390D01*
X122720825Y-82959396D01*
X122774638Y-82981685D01*
X122866503Y-83019737D01*
X123021158Y-83050500D01*
X123021159Y-83050500D01*
X123178841Y-83050500D01*
X123178842Y-83050500D01*
X123278848Y-83030607D01*
X123339608Y-83037798D01*
X123384538Y-83079331D01*
X123396475Y-83139340D01*
X123386371Y-83172650D01*
X123301116Y-83339974D01*
X123240289Y-83527178D01*
X123209500Y-83721579D01*
X123209500Y-83918420D01*
X123240289Y-84112821D01*
X123240291Y-84112826D01*
X123301116Y-84300025D01*
X123390476Y-84475405D01*
X123506172Y-84634646D01*
X123645354Y-84773828D01*
X123804595Y-84889524D01*
X123979975Y-84978884D01*
X123979977Y-84978884D01*
X123979978Y-84978885D01*
X123979981Y-84978887D01*
X124032175Y-84995846D01*
X124081675Y-85031810D01*
X124100582Y-85090001D01*
X124081674Y-85148191D01*
X124032175Y-85184154D01*
X123979981Y-85201112D01*
X123979978Y-85201114D01*
X123804597Y-85290474D01*
X123645355Y-85406171D01*
X123506171Y-85545355D01*
X123390474Y-85704597D01*
X123301116Y-85879974D01*
X123240289Y-86067178D01*
X123209500Y-86261579D01*
X123209500Y-86458420D01*
X123240289Y-86652821D01*
X123240291Y-86652826D01*
X123301116Y-86840025D01*
X123390476Y-87015405D01*
X123506172Y-87174646D01*
X123645354Y-87313828D01*
X123804595Y-87429524D01*
X123979975Y-87518884D01*
X123979977Y-87518884D01*
X123979978Y-87518885D01*
X123979981Y-87518887D01*
X124032175Y-87535846D01*
X124081675Y-87571810D01*
X124100582Y-87630001D01*
X124081674Y-87688191D01*
X124032175Y-87724154D01*
X123979981Y-87741112D01*
X123979978Y-87741114D01*
X123804597Y-87830474D01*
X123645355Y-87946171D01*
X123506171Y-88085355D01*
X123390474Y-88244597D01*
X123301116Y-88419974D01*
X123240289Y-88607178D01*
X123209500Y-88801579D01*
X123209500Y-88998420D01*
X123240289Y-89192821D01*
X123240291Y-89192826D01*
X123301116Y-89380025D01*
X123390476Y-89555405D01*
X123506172Y-89714646D01*
X123645354Y-89853828D01*
X123804595Y-89969524D01*
X123979975Y-90058884D01*
X124167174Y-90119709D01*
X124167175Y-90119709D01*
X124167178Y-90119710D01*
X124361580Y-90150500D01*
X124361583Y-90150500D01*
X124558420Y-90150500D01*
X124752821Y-90119710D01*
X124752822Y-90119709D01*
X124752826Y-90119709D01*
X124940025Y-90058884D01*
X125115405Y-89969524D01*
X125274646Y-89853828D01*
X125413828Y-89714646D01*
X125529524Y-89555405D01*
X125618884Y-89380025D01*
X125679709Y-89192826D01*
X125710500Y-88998417D01*
X125710500Y-88801583D01*
X125710500Y-88801579D01*
X125679710Y-88607178D01*
X125679709Y-88607174D01*
X125618884Y-88419975D01*
X125529524Y-88244595D01*
X125413828Y-88085354D01*
X125274646Y-87946172D01*
X125115405Y-87830476D01*
X125115404Y-87830475D01*
X125115402Y-87830474D01*
X124940025Y-87741116D01*
X124940013Y-87741112D01*
X124887823Y-87724154D01*
X124838324Y-87688191D01*
X124819417Y-87630000D01*
X124838324Y-87571809D01*
X124887823Y-87535845D01*
X124940025Y-87518884D01*
X125115405Y-87429524D01*
X125274646Y-87313828D01*
X125413828Y-87174646D01*
X125529524Y-87015405D01*
X125618884Y-86840025D01*
X125679709Y-86652826D01*
X125710500Y-86458417D01*
X125710500Y-86261583D01*
X125710500Y-86261579D01*
X125679710Y-86067178D01*
X125679709Y-86067174D01*
X125618884Y-85879975D01*
X125529524Y-85704595D01*
X125413828Y-85545354D01*
X125274646Y-85406172D01*
X125115405Y-85290476D01*
X125115404Y-85290475D01*
X125115402Y-85290474D01*
X124940025Y-85201116D01*
X124940013Y-85201112D01*
X124887823Y-85184154D01*
X124838324Y-85148191D01*
X124819417Y-85090000D01*
X124838324Y-85031809D01*
X124887823Y-84995845D01*
X124940025Y-84978884D01*
X125115405Y-84889524D01*
X125274646Y-84773828D01*
X125413828Y-84634646D01*
X125529524Y-84475405D01*
X125618884Y-84300025D01*
X125679709Y-84112826D01*
X125710500Y-83918417D01*
X125710500Y-83721583D01*
X125710500Y-83721579D01*
X125679710Y-83527178D01*
X125679709Y-83527174D01*
X125618884Y-83339975D01*
X125529524Y-83164595D01*
X125413828Y-83005354D01*
X125274646Y-82866172D01*
X125115405Y-82750476D01*
X125115404Y-82750475D01*
X125115402Y-82750474D01*
X124940025Y-82661116D01*
X124887823Y-82644154D01*
X124838324Y-82608191D01*
X124819417Y-82550000D01*
X124838324Y-82491809D01*
X124887823Y-82455845D01*
X124940025Y-82438884D01*
X125115405Y-82349524D01*
X125274646Y-82233828D01*
X125413828Y-82094646D01*
X125529524Y-81935405D01*
X125618884Y-81760025D01*
X125679709Y-81572826D01*
X125684813Y-81540603D01*
X125710500Y-81378420D01*
X125710500Y-81181579D01*
X125679710Y-80987178D01*
X125679709Y-80987174D01*
X125618884Y-80799975D01*
X125529524Y-80624595D01*
X125413828Y-80465354D01*
X125274646Y-80326172D01*
X125115405Y-80210476D01*
X125115404Y-80210475D01*
X125115402Y-80210474D01*
X124940025Y-80121116D01*
X124940013Y-80121112D01*
X124887823Y-80104154D01*
X124838324Y-80068191D01*
X124819417Y-80010000D01*
X124838324Y-79951809D01*
X124887823Y-79915845D01*
X124940025Y-79898884D01*
X125115405Y-79809524D01*
X125274646Y-79693828D01*
X125413828Y-79554646D01*
X125529524Y-79395405D01*
X125618884Y-79220025D01*
X125679709Y-79032826D01*
X125679710Y-79032821D01*
X125710500Y-78838420D01*
X125710500Y-78641579D01*
X125679710Y-78447178D01*
X125679709Y-78447174D01*
X125618884Y-78259975D01*
X125529524Y-78084595D01*
X125413828Y-77925354D01*
X125274646Y-77786172D01*
X125115405Y-77670476D01*
X125115404Y-77670475D01*
X125115402Y-77670474D01*
X124940025Y-77581116D01*
X124940013Y-77581112D01*
X124887823Y-77564154D01*
X124838324Y-77528191D01*
X124819417Y-77470000D01*
X124838324Y-77411809D01*
X124887823Y-77375845D01*
X124940025Y-77358884D01*
X125115405Y-77269524D01*
X125274646Y-77153828D01*
X125413828Y-77014646D01*
X125529524Y-76855405D01*
X125618884Y-76680025D01*
X125679709Y-76492826D01*
X125710500Y-76298417D01*
X125710500Y-76101583D01*
X125710500Y-76101579D01*
X125679710Y-75907178D01*
X125679709Y-75907174D01*
X125618884Y-75719975D01*
X125529524Y-75544595D01*
X125413828Y-75385354D01*
X125274646Y-75246172D01*
X125115405Y-75130476D01*
X125115404Y-75130475D01*
X125115402Y-75130474D01*
X124940025Y-75041116D01*
X124940013Y-75041112D01*
X124887823Y-75024154D01*
X124838324Y-74988191D01*
X124819417Y-74930000D01*
X124838324Y-74871809D01*
X124887823Y-74835845D01*
X124940025Y-74818884D01*
X125115405Y-74729524D01*
X125274646Y-74613828D01*
X125413828Y-74474646D01*
X125529524Y-74315405D01*
X125618884Y-74140025D01*
X125679709Y-73952826D01*
X125679710Y-73952821D01*
X125710500Y-73758420D01*
X125710500Y-73561579D01*
X125679710Y-73367178D01*
X125652008Y-73281921D01*
X125618884Y-73179975D01*
X125529524Y-73004595D01*
X125413828Y-72845354D01*
X125274646Y-72706172D01*
X125115405Y-72590476D01*
X125115404Y-72590475D01*
X125115402Y-72590474D01*
X124940025Y-72501116D01*
X124940013Y-72501112D01*
X124887823Y-72484154D01*
X124838324Y-72448191D01*
X124819417Y-72390000D01*
X124838324Y-72331809D01*
X124887823Y-72295845D01*
X124940025Y-72278884D01*
X125115405Y-72189524D01*
X125274646Y-72073828D01*
X125413828Y-71934646D01*
X125529524Y-71775405D01*
X125618884Y-71600025D01*
X125679709Y-71412826D01*
X125685191Y-71378214D01*
X125710500Y-71218420D01*
X125710500Y-71021579D01*
X125679710Y-70827178D01*
X125667826Y-70790603D01*
X125618884Y-70639975D01*
X125529524Y-70464595D01*
X125413828Y-70305354D01*
X125274646Y-70166172D01*
X125115405Y-70050476D01*
X125115404Y-70050475D01*
X125115402Y-70050474D01*
X124940025Y-69961116D01*
X124940013Y-69961112D01*
X124887823Y-69944154D01*
X124838324Y-69908191D01*
X124819417Y-69850000D01*
X124838324Y-69791809D01*
X124887823Y-69755845D01*
X124940025Y-69738884D01*
X125115405Y-69649524D01*
X125274646Y-69533828D01*
X125413828Y-69394646D01*
X125529524Y-69235405D01*
X125618884Y-69060025D01*
X125679709Y-68872826D01*
X125710500Y-68678417D01*
X125710500Y-68481583D01*
X125710500Y-68481579D01*
X125679710Y-68287178D01*
X125679709Y-68287174D01*
X125618884Y-68099975D01*
X125529524Y-67924595D01*
X125413828Y-67765354D01*
X125274646Y-67626172D01*
X125115405Y-67510476D01*
X125115404Y-67510475D01*
X125115402Y-67510474D01*
X125051096Y-67477709D01*
X125007831Y-67434444D01*
X124998260Y-67374012D01*
X125026037Y-67319496D01*
X125080554Y-67291718D01*
X125096039Y-67290499D01*
X125341518Y-67290499D01*
X125341521Y-67290499D01*
X125341522Y-67290498D01*
X125388411Y-67283072D01*
X125435299Y-67275647D01*
X125435299Y-67275646D01*
X125435304Y-67275646D01*
X125548342Y-67218050D01*
X125638050Y-67128342D01*
X125695646Y-67015304D01*
X125710500Y-66921519D01*
X125710499Y-65158482D01*
X125710499Y-65158481D01*
X125710499Y-65158478D01*
X125710498Y-65158476D01*
X125695647Y-65064700D01*
X125695646Y-65064698D01*
X125695646Y-65064696D01*
X125638050Y-64951658D01*
X125548342Y-64861950D01*
X125435304Y-64804354D01*
X125435305Y-64804354D01*
X125341521Y-64789500D01*
X123578478Y-64789500D01*
X123578476Y-64789501D01*
X123484700Y-64804352D01*
X123484695Y-64804354D01*
X123371659Y-64861949D01*
X123281949Y-64951659D01*
X123224354Y-65064695D01*
X123209500Y-65158478D01*
X123209500Y-66921521D01*
X123209501Y-66921523D01*
X123224352Y-67015299D01*
X123224354Y-67015304D01*
X123281950Y-67128342D01*
X123371658Y-67218050D01*
X123484696Y-67275646D01*
X123578481Y-67290500D01*
X123823959Y-67290499D01*
X123882147Y-67309406D01*
X123918111Y-67358906D01*
X123918112Y-67420091D01*
X123882148Y-67469591D01*
X123868903Y-67477708D01*
X123804600Y-67510472D01*
X123804598Y-67510473D01*
X123645355Y-67626171D01*
X123506171Y-67765355D01*
X123390474Y-67924597D01*
X123301116Y-68099974D01*
X123240289Y-68287178D01*
X123209500Y-68481579D01*
X123209500Y-68678420D01*
X123240289Y-68872821D01*
X123240291Y-68872826D01*
X123301116Y-69060025D01*
X123390476Y-69235405D01*
X123506172Y-69394646D01*
X123645354Y-69533828D01*
X123804595Y-69649524D01*
X123979975Y-69738884D01*
X123979977Y-69738884D01*
X123979978Y-69738885D01*
X123979981Y-69738887D01*
X124032175Y-69755846D01*
X124081675Y-69791810D01*
X124100582Y-69850001D01*
X124081674Y-69908191D01*
X124032175Y-69944154D01*
X123979981Y-69961112D01*
X123979978Y-69961114D01*
X123804597Y-70050474D01*
X123645355Y-70166171D01*
X123506171Y-70305355D01*
X123390474Y-70464597D01*
X123301116Y-70639974D01*
X123240289Y-70827178D01*
X123209500Y-71021579D01*
X123209500Y-71218420D01*
X123240289Y-71412821D01*
X123301116Y-71600025D01*
X123390476Y-71775405D01*
X123506172Y-71934646D01*
X123645354Y-72073828D01*
X123804595Y-72189524D01*
X123979975Y-72278884D01*
X123979977Y-72278884D01*
X123979978Y-72278885D01*
X123979981Y-72278887D01*
X124032175Y-72295846D01*
X124081675Y-72331810D01*
X124100582Y-72390001D01*
X124081674Y-72448191D01*
X124032175Y-72484154D01*
X123979981Y-72501112D01*
X123979978Y-72501114D01*
X123804597Y-72590474D01*
X123645355Y-72706171D01*
X123506171Y-72845355D01*
X123390474Y-73004597D01*
X123301116Y-73179974D01*
X123240289Y-73367178D01*
X123209500Y-73561579D01*
X123209500Y-73758420D01*
X123240289Y-73952821D01*
X123301116Y-74140025D01*
X123386523Y-74307648D01*
X123390476Y-74315405D01*
X123506172Y-74474646D01*
X123645354Y-74613828D01*
X123804595Y-74729524D01*
X123979975Y-74818884D01*
X123979977Y-74818884D01*
X123979978Y-74818885D01*
X123979981Y-74818887D01*
X124032175Y-74835846D01*
X124081675Y-74871810D01*
X124100582Y-74930001D01*
X124081674Y-74988191D01*
X124032175Y-75024154D01*
X123979981Y-75041112D01*
X123979978Y-75041114D01*
X123804597Y-75130474D01*
X123645355Y-75246171D01*
X123506171Y-75385355D01*
X123390474Y-75544597D01*
X123301116Y-75719974D01*
X123240289Y-75907178D01*
X123209500Y-76101579D01*
X123209500Y-76298420D01*
X123240289Y-76492821D01*
X123301116Y-76680025D01*
X123362740Y-76800971D01*
X123390476Y-76855405D01*
X123506172Y-77014646D01*
X123645354Y-77153828D01*
X123804595Y-77269524D01*
X123979975Y-77358884D01*
X123979977Y-77358884D01*
X123979978Y-77358885D01*
X123979981Y-77358887D01*
X124032175Y-77375846D01*
X124081675Y-77411810D01*
X124100582Y-77470001D01*
X124081674Y-77528191D01*
X124032175Y-77564154D01*
X123979981Y-77581112D01*
X123979978Y-77581114D01*
X123804597Y-77670474D01*
X123645355Y-77786171D01*
X123506171Y-77925355D01*
X123390474Y-78084597D01*
X123301116Y-78259974D01*
X123240289Y-78447178D01*
X123209500Y-78641579D01*
X123209500Y-78838420D01*
X123240289Y-79032821D01*
X123301116Y-79220025D01*
X123390476Y-79395405D01*
X123506172Y-79554646D01*
X123645354Y-79693828D01*
X123804595Y-79809524D01*
X123979975Y-79898884D01*
X123979977Y-79898884D01*
X123979978Y-79898885D01*
X123979981Y-79898887D01*
X124032175Y-79915846D01*
X124081675Y-79951810D01*
X124100582Y-80010001D01*
X124081674Y-80068191D01*
X124032175Y-80104154D01*
X123979981Y-80121112D01*
X123979978Y-80121114D01*
X123804597Y-80210474D01*
X123645355Y-80326171D01*
X123506171Y-80465355D01*
X123390474Y-80624597D01*
X123301116Y-80799974D01*
X123240289Y-80987178D01*
X123209500Y-81181579D01*
X123209500Y-81350500D01*
X123190593Y-81408691D01*
X123141093Y-81444655D01*
X123110500Y-81449500D01*
X123021155Y-81449500D01*
X122866503Y-81480263D01*
X122866501Y-81480263D01*
X122720825Y-81540603D01*
X122720814Y-81540609D01*
X122589711Y-81628211D01*
X122589707Y-81628214D01*
X122547418Y-81670504D01*
X122492901Y-81698281D01*
X122477414Y-81699500D01*
X120310513Y-81699500D01*
X120252322Y-81680593D01*
X120240509Y-81670504D01*
X120039509Y-81469504D01*
X120011732Y-81414987D01*
X120021303Y-81354555D01*
X120064568Y-81311290D01*
X120109513Y-81300500D01*
X120884549Y-81300500D01*
X120884550Y-81300500D01*
X121024560Y-81262984D01*
X121029228Y-81260289D01*
X121150090Y-81190510D01*
X121878398Y-80462200D01*
X121893390Y-80449897D01*
X122010289Y-80371789D01*
X122121789Y-80260289D01*
X122209394Y-80129179D01*
X122269737Y-79983497D01*
X122300500Y-79828842D01*
X122300500Y-79671158D01*
X122269737Y-79516503D01*
X122209394Y-79370821D01*
X122209393Y-79370819D01*
X122209390Y-79370814D01*
X122174017Y-79317876D01*
X122121789Y-79239711D01*
X122010289Y-79128211D01*
X121949500Y-79087593D01*
X121879185Y-79040609D01*
X121879174Y-79040603D01*
X121733497Y-78980263D01*
X121578844Y-78949500D01*
X121578842Y-78949500D01*
X121421158Y-78949500D01*
X121421155Y-78949500D01*
X121266503Y-78980263D01*
X121266501Y-78980263D01*
X121187385Y-79013034D01*
X121126388Y-79017834D01*
X121074219Y-78985865D01*
X121050805Y-78929337D01*
X121050500Y-78921570D01*
X121050500Y-75647131D01*
X121069407Y-75588940D01*
X121118907Y-75552976D01*
X121166298Y-75550184D01*
X121166314Y-75550023D01*
X121167336Y-75550123D01*
X121168825Y-75550036D01*
X121171158Y-75550500D01*
X121171159Y-75550500D01*
X121328841Y-75550500D01*
X121328842Y-75550500D01*
X121483497Y-75519737D01*
X121629179Y-75459394D01*
X121760289Y-75371789D01*
X121871789Y-75260289D01*
X121959394Y-75129179D01*
X122019737Y-74983497D01*
X122050500Y-74828842D01*
X122050500Y-74671158D01*
X122019737Y-74516503D01*
X121980243Y-74421155D01*
X121959395Y-74370822D01*
X121917184Y-74307648D01*
X121900500Y-74252647D01*
X121900500Y-67685932D01*
X121900500Y-67685931D01*
X121875501Y-67560256D01*
X121826465Y-67441873D01*
X121771954Y-67360291D01*
X121755277Y-67335331D01*
X115414669Y-60994723D01*
X115308127Y-60923535D01*
X115308128Y-60923535D01*
X115308126Y-60923534D01*
X115189747Y-60874500D01*
X115189745Y-60874499D01*
X115189744Y-60874499D01*
X115064069Y-60849500D01*
X112247351Y-60849500D01*
X112192349Y-60832815D01*
X112129185Y-60790609D01*
X112129174Y-60790603D01*
X111983497Y-60730263D01*
X111828844Y-60699500D01*
X111828842Y-60699500D01*
X111671158Y-60699500D01*
X111671155Y-60699500D01*
X111516503Y-60730263D01*
X111516501Y-60730263D01*
X111370825Y-60790603D01*
X111370814Y-60790609D01*
X111239711Y-60878211D01*
X111239707Y-60878214D01*
X111128214Y-60989707D01*
X111128211Y-60989711D01*
X111040609Y-61120814D01*
X111040603Y-61120825D01*
X110980263Y-61266501D01*
X110980263Y-61266503D01*
X110949500Y-61421155D01*
X97500500Y-61421155D01*
X97500500Y-57503478D01*
X107939500Y-57503478D01*
X107939500Y-59266521D01*
X107939501Y-59266523D01*
X107954352Y-59360299D01*
X107954354Y-59360304D01*
X108011950Y-59473342D01*
X108101658Y-59563050D01*
X108214696Y-59620646D01*
X108308481Y-59635500D01*
X110071518Y-59635499D01*
X110071521Y-59635499D01*
X110071522Y-59635498D01*
X110118411Y-59628072D01*
X110165299Y-59620647D01*
X110165299Y-59620646D01*
X110165304Y-59620646D01*
X110278342Y-59563050D01*
X110368050Y-59473342D01*
X110425646Y-59360304D01*
X110440500Y-59266519D01*
X110440499Y-59021039D01*
X110459406Y-58962852D01*
X110508906Y-58926888D01*
X110570091Y-58926887D01*
X110619591Y-58962851D01*
X110627708Y-58976097D01*
X110660469Y-59040394D01*
X110660473Y-59040401D01*
X110660474Y-59040402D01*
X110660476Y-59040405D01*
X110776172Y-59199646D01*
X110915354Y-59338828D01*
X111074595Y-59454524D01*
X111249975Y-59543884D01*
X111437174Y-59604709D01*
X111437175Y-59604709D01*
X111437178Y-59604710D01*
X111631580Y-59635500D01*
X111631583Y-59635500D01*
X111828420Y-59635500D01*
X112022821Y-59604710D01*
X112022822Y-59604709D01*
X112022826Y-59604709D01*
X112210025Y-59543884D01*
X112385405Y-59454524D01*
X112544646Y-59338828D01*
X112683828Y-59199646D01*
X112799524Y-59040405D01*
X112888884Y-58865025D01*
X112905845Y-58812823D01*
X112941809Y-58763324D01*
X113000000Y-58744417D01*
X113058191Y-58763324D01*
X113094155Y-58812824D01*
X113111116Y-58865025D01*
X113200473Y-59040401D01*
X113200476Y-59040405D01*
X113316172Y-59199646D01*
X113455354Y-59338828D01*
X113614595Y-59454524D01*
X113789975Y-59543884D01*
X113977174Y-59604709D01*
X113977175Y-59604709D01*
X113977178Y-59604710D01*
X114171580Y-59635500D01*
X114171583Y-59635500D01*
X114368420Y-59635500D01*
X114562821Y-59604710D01*
X114562822Y-59604709D01*
X114562826Y-59604709D01*
X114750025Y-59543884D01*
X114925405Y-59454524D01*
X115084646Y-59338828D01*
X115223828Y-59199646D01*
X115339524Y-59040405D01*
X115428884Y-58865025D01*
X115489709Y-58677826D01*
X115493095Y-58656446D01*
X115520870Y-58601932D01*
X115575386Y-58574152D01*
X115635818Y-58583722D01*
X115679084Y-58626985D01*
X115686781Y-58650659D01*
X115687408Y-58650509D01*
X115688314Y-58654284D01*
X115744250Y-58826440D01*
X115826430Y-58987728D01*
X115897424Y-59085442D01*
X116366328Y-58616536D01*
X116409901Y-58692007D01*
X116502993Y-58785099D01*
X116578460Y-58828670D01*
X116109556Y-59297574D01*
X116109556Y-59297575D01*
X116207263Y-59368564D01*
X116207269Y-59368568D01*
X116368559Y-59450749D01*
X116540710Y-59506683D01*
X116719490Y-59535000D01*
X116900510Y-59535000D01*
X117079289Y-59506683D01*
X117251440Y-59450749D01*
X117412730Y-59368568D01*
X117412735Y-59368564D01*
X117510442Y-59297575D01*
X117510442Y-59297574D01*
X117041538Y-58828670D01*
X117117007Y-58785099D01*
X117210099Y-58692007D01*
X117253670Y-58616538D01*
X117722574Y-59085442D01*
X117722575Y-59085442D01*
X117793564Y-58987735D01*
X117793568Y-58987730D01*
X117875749Y-58826440D01*
X117931683Y-58654289D01*
X117960000Y-58475510D01*
X117960000Y-58294489D01*
X117931683Y-58115710D01*
X117875749Y-57943559D01*
X117793568Y-57782269D01*
X117793564Y-57782263D01*
X117722575Y-57684556D01*
X117722574Y-57684556D01*
X117253670Y-58153460D01*
X117210099Y-58077993D01*
X117117007Y-57984901D01*
X117041536Y-57941328D01*
X117510442Y-57472424D01*
X117412728Y-57401430D01*
X117251440Y-57319250D01*
X117079289Y-57263316D01*
X116900510Y-57235000D01*
X116719490Y-57235000D01*
X116540710Y-57263316D01*
X116368559Y-57319250D01*
X116207269Y-57401431D01*
X116207265Y-57401433D01*
X116109556Y-57472423D01*
X116578461Y-57941328D01*
X116502993Y-57984901D01*
X116409901Y-58077993D01*
X116366328Y-58153461D01*
X115897423Y-57684556D01*
X115826433Y-57782265D01*
X115826431Y-57782269D01*
X115744250Y-57943559D01*
X115688314Y-58115715D01*
X115687408Y-58119491D01*
X115685836Y-58119113D01*
X115660847Y-58168102D01*
X115606317Y-58195854D01*
X115545890Y-58186255D01*
X115502645Y-58142970D01*
X115493095Y-58113555D01*
X115489709Y-58092174D01*
X115428884Y-57904975D01*
X115339524Y-57729595D01*
X115223828Y-57570354D01*
X115084646Y-57431172D01*
X114925405Y-57315476D01*
X114925404Y-57315475D01*
X114925402Y-57315474D01*
X114750025Y-57226116D01*
X114562821Y-57165289D01*
X114368420Y-57134500D01*
X114368417Y-57134500D01*
X114171583Y-57134500D01*
X114171580Y-57134500D01*
X113977178Y-57165289D01*
X113789974Y-57226116D01*
X113614597Y-57315474D01*
X113455355Y-57431171D01*
X113316171Y-57570355D01*
X113200474Y-57729597D01*
X113111114Y-57904978D01*
X113111112Y-57904981D01*
X113094154Y-57957175D01*
X113058190Y-58006675D01*
X112999999Y-58025582D01*
X112941809Y-58006674D01*
X112905846Y-57957175D01*
X112888887Y-57904981D01*
X112888885Y-57904978D01*
X112888884Y-57904977D01*
X112888884Y-57904975D01*
X112799524Y-57729595D01*
X112683828Y-57570354D01*
X112544646Y-57431172D01*
X112385405Y-57315476D01*
X112385404Y-57315475D01*
X112385402Y-57315474D01*
X112210025Y-57226116D01*
X112022821Y-57165289D01*
X111828420Y-57134500D01*
X111828417Y-57134500D01*
X111631583Y-57134500D01*
X111631580Y-57134500D01*
X111437178Y-57165289D01*
X111249974Y-57226116D01*
X111074597Y-57315474D01*
X110915355Y-57431171D01*
X110776171Y-57570355D01*
X110660473Y-57729598D01*
X110660469Y-57729605D01*
X110627708Y-57793903D01*
X110584444Y-57837168D01*
X110524012Y-57846739D01*
X110469495Y-57818961D01*
X110441718Y-57764445D01*
X110440499Y-57748958D01*
X110440499Y-57503478D01*
X110440498Y-57503476D01*
X110425647Y-57409700D01*
X110425646Y-57409698D01*
X110425646Y-57409696D01*
X110368050Y-57296658D01*
X110278342Y-57206950D01*
X110165304Y-57149354D01*
X110165305Y-57149354D01*
X110071521Y-57134500D01*
X108308478Y-57134500D01*
X108308476Y-57134501D01*
X108214700Y-57149352D01*
X108214695Y-57149354D01*
X108101659Y-57206949D01*
X108011949Y-57296659D01*
X107954354Y-57409695D01*
X107939500Y-57503478D01*
X97500500Y-57503478D01*
X97500500Y-54599500D01*
X97519407Y-54541309D01*
X97568907Y-54505345D01*
X97599500Y-54500500D01*
X128400500Y-54500500D01*
X128458691Y-54519407D01*
G37*
%TD.AperFunction*%
%TD*%
M02*
